<svg xmlns="http://www.w3.org/2000/svg" xmlns:xlink="http://www.w3.org/1999/xlink" viewBox="0 0 900 350"><defs><style>.cls-1,.cls-2,.cls-20{fill:#ececeb;}.cls-1{clip-rule:evenodd;}.cls-19,.cls-3{fill:#dddddc;}.cls-27,.cls-4{fill:#c4c4c4;}.cls-14,.cls-5{fill:#35785e;}.cls-15,.cls-6{fill:#3f8f6f;}.cls-12,.cls-7{fill:#54b08b;}.cls-36,.cls-8{fill:#5a753d;}.cls-34,.cls-9{fill:#738d57;}.cls-10,.cls-32{fill:#010101;}.cls-10,.cls-12,.cls-13,.cls-14,.cls-15,.cls-19,.cls-20,.cls-23,.cls-24,.cls-25,.cls-26,.cls-27,.cls-28,.cls-29,.cls-30,.cls-31,.cls-32,.cls-33,.cls-34,.cls-35,.cls-36,.cls-37,.cls-38,.cls-39,.cls-40,.cls-41,.cls-44,.cls-45,.cls-46,.cls-47,.cls-48,.cls-49,.cls-50,.cls-59{fill-rule:evenodd;}.cls-10{opacity:0.1;}.cls-11,.cls-13{fill:#74c7a5;}.cls-16,.cls-49{fill:#a0cf7f;}.cls-17,.cls-37{fill:#99c26c;}.cls-18,.cls-44{fill:#cfcfcd;}.cls-21,.cls-24{fill:#8f8f8f;}.cls-22,.cls-26{fill:#a3a3a3;}.cls-23{fill:#737474;}.cls-25,.cls-53{fill:#858686;}.cls-28{fill:#9ca0a1;}.cls-29{fill:#8b6651;}.cls-30,.cls-52{fill:#4f5353;}.cls-31{fill:#c2987a;}.cls-32{opacity:0.2;}.cls-33{fill:#dfbda5;}.cls-35{fill:#474748;}.cls-38{fill:#e9cbb7;}.cls-39,.cls-58{fill:#fff;}.cls-40{fill:#44622d;}.cls-41,.cls-57{fill:#2b2b2b;}.cls-42{clip-path:url(#clip-path);}.cls-43{fill:#835941;}.cls-45,.cls-54{fill:#6f7273;}.cls-46{fill:#33231b;}.cls-47{fill:#573a2f;}.cls-48{fill:#755041;}.cls-50{fill:#7f5b4c;}.cls-51{fill:#a77e62;}.cls-55,.cls-59{fill:#bf9c83;}.cls-56{fill:#c9ad9c;}</style><clipPath id="clip-path"><polygon class="cls-1" points="131.15 99.83 164.5 63.5 130.5 13 51.5 0.33 0.17 45.17 24.17 117.83 114 118.5 122.75 108.88 147.75 112.5 131.15 99.83"/></clipPath></defs><title>diplomats_Campaigner_ENFP_introduction</title><g id="Layer_7" data-name="Layer 7"><polygon class="cls-2" points="444.5 174.5 432.75 168.75 468 163 480.5 156.25 496 159.5 522.69 181.88 444.5 174.5"/><path class="cls-3" d="M422.75,182l-4-8.25,14-5,43,1.75,46.94,11.38,2.81,2.37s-9.75,9-10.75,9.5S422.75,182,422.75,182Z"/><polygon class="cls-4" points="386.75 194.75 405.75 180.5 418.75 173.75 459.75 184.75 516.9 190.19 516.25 200.75 416.25 202.75 386.75 194.75"/><polygon class="cls-5" points="148.5 226.5 171.5 210.83 234.83 209.83 278.5 233 257 237 148.5 226.5"/><polyline class="cls-6" points="290.17 215.67 263.33 211.5 236.5 224 238 227.5 241 226.33 276.33 231 290.17 215.67 290.17 215.67"/><polygon class="cls-7" points="148.5 219.33 172.67 228.83 165.83 237 137.83 237.67 132.33 231.17 148.5 219.33"/><polygon class="cls-7" points="164.33 232 148.83 230.17 132.33 231.17 108.83 241.5 109.33 244.33 128 246.33 133.33 242.5 164.33 232"/><polygon class="cls-8" points="121.92 218.83 122.9 223.09 104.59 252.96 103.84 244.22 121.92 218.83"/><polygon class="cls-9" points="121.05 208.16 112.17 210.16 122.9 223.09 131.96 212.24 121.05 208.16"/><polygon class="cls-2" points="113.5 244.38 132.5 242.5 240.09 235.73 244.5 238.25 257 237 400.17 225.67 898.5 253.5 737.83 350.17 104.11 327.25 113.5 244.38"/><polygon class="cls-10" points="890.5 252.83 446 214.67 257.33 236.83 244.5 238.25 223.26 240.34 184.08 241.58 171.67 245.83 132.5 242.5 125 245.25 171.5 252.75 222.05 242.64 293.67 253.17 357.17 249.83 421.83 256.83 462 248.5 585.46 252.23 494.17 272.19 489.96 288.38 401.57 306.83 659.3 329.5 805.5 309.5 898.5 253.5 890.5 252.83"/><polygon class="cls-7" points="846.83 228.17 837 221.75 818.5 226.17 831.17 243.83 855.5 235.83 846.83 228.17"/><polygon class="cls-11" points="872 249.25 867 239.75 852.5 226 837 221.75 842.83 232.5 872 249.25"/><polygon class="cls-12" points="448.83 194.5 482.5 192.5 525.17 198.83 481 223 448.83 194.5"/><polygon class="cls-13" points="474.17 212.5 473 205 522.5 201.83 524.83 220.83 474.17 212.5"/><polygon class="cls-13" points="448.83 194.5 390.75 185.25 390.5 220.83 450.17 215.83 448.83 194.5"/><polygon class="cls-12" points="448.17 204.17 410.5 206.5 372.83 224.17 428.5 225.5 448.17 204.17"/><polygon class="cls-14" points="448.17 204.17 425 212 396.17 232.17 487.5 238.17 448.17 204.17"/><polygon class="cls-15" points="471.17 211.5 473 205 448.83 194.5 410.5 206.5 425 212 461.17 216.5 471.17 211.5"/><polygon class="cls-12" points="578.5 226 512.45 214.23 473 205 446 214.67 456.5 225.83 464.5 226.5 578.5 226"/><polygon class="cls-9" points="78.32 227.91 99.33 217.84 107.14 262.63 95.86 272 90.82 250.3 78.32 227.91"/><polygon class="cls-8" points="118.25 247.35 103.84 244.22 98.69 269.51 104.13 271.94 121.84 251.46 118.25 247.35"/><polygon class="cls-16" points="130.05 268.36 132.5 242.5 103.84 244.22 130.05 268.36"/><polygon class="cls-17" points="99.33 217.84 67.83 206.83 57.83 238 99.33 217.84"/><polygon class="cls-12" points="296.5 220.83 275.17 218.5 257 237 274.83 242.92 296.5 220.83"/><polygon class="cls-14" points="417.17 233.5 408.83 245.83 363.75 243 365.5 239.5 401.11 223.63 417.17 233.5"/><polygon class="cls-12" points="386.5 230 413 221 437.21 227.85 448.5 239.75 408.83 245.83 386.5 230"/><polygon class="cls-6" points="824.83 235.5 842.83 232.5 871.33 257.08 829.5 256.83 824.83 235.5"/><polygon class="cls-7" points="839.5 239.17 854.83 247.83 871.33 257.08 890.5 252.83 878.5 238.5 858.5 237.83 842.83 232.5 839.5 239.17"/><polygon class="cls-17" points="129.07 196.5 112.17 210.16 131.96 212.24 129.07 196.5"/><polygon class="cls-6" points="171.83 237.67 171.67 245.83 143.58 243.46 132.5 242.5 138.67 236.17 164.83 232 171.83 237.67"/><polygon class="cls-6" points="171.67 245.83 192.63 238.63 178.07 223.36 164.83 232 171.67 245.83"/><polygon class="cls-18" points="506.5 181.83 522.69 181.88 525.83 183 515.28 192.78 477.75 186.5 506.5 181.83"/></g><g id="Layer_9" data-name="Layer 9"><polygon class="cls-19" points="711.97 26.17 637.5 36.17 714.95 48.5 777.93 63.83 845.17 21.5 770.7 39.5 711.97 26.17"/><polygon class="cls-20" points="845.17 21.5 792.4 28.83 716.65 14.17 637.5 36.17 699.63 35.5 771.55 43.83 845.17 21.5"/><polygon class="cls-19" points="387.69 36.02 462.17 43.41 384.72 52.51 321.74 63.83 237 38.49 328.97 45.87 387.69 36.02"/><polygon class="cls-20" points="237 38.49 307.27 37.99 383.01 27.17 462.17 43.41 400.04 42.92 328.12 49.07 237 38.49"/></g><g id="Layer_8" data-name="Layer 8"><polygon class="cls-21" points="57.88 243.63 35.63 244.88 27.5 312.17 67.83 318.5 83.38 245.5 57.88 243.63"/><polygon class="cls-22" points="69.13 240.38 71.17 245.17 67.83 318.5 84.33 316.5 100.33 281.83 95.5 242.75 69.13 240.38"/><polygon class="cls-21" points="106.16 268.61 80.83 270.9 74.17 317.5 104.11 327.25 120.2 286.08 106.16 268.61"/><polygon class="cls-22" points="118.61 272.62 127.75 273.92 134.5 316.08 104.11 327.25 101.92 280.07 118.61 272.62"/><polygon class="cls-18" points="115.67 266.67 80.83 270.9 101.92 280.07 127.75 273.92 115.67 266.67"/><polygon class="cls-18" points="95.5 242.75 56.88 238.88 35.63 244.88 71.38 246.88 95.5 242.75"/></g><g id="Layer_2" data-name="Layer 2"><polygon class="cls-10" points="274.24 284.68 348.74 295.13 424.88 283.37 345.47 275.53 274.24 284.68"/><polygon class="cls-23" points="358.87 275.88 345.53 288.67 326.07 285.05 334.13 237.81 354.14 238.08 358.87 275.88"/><polygon class="cls-24" points="364.43 236.14 376.38 284.5 345.53 288.67 343.58 237.81 364.43 236.14"/><polygon class="cls-25" points="301.89 86.33 281.81 74.17 268.68 83 274.65 242.81 287.65 247.6 301.89 86.33"/><polygon class="cls-26" points="281.81 74.17 402.5 82.51 413.97 234.89 287.65 247.6 281.81 74.17"/><polygon class="cls-20" points="295.22 88.35 300.64 232.38 401.11 223.63 391.94 94.19 295.22 88.35"/><polygon class="cls-13" points="361.09 219.6 360.54 210.57 366.09 210.15 365.54 203.34 377.49 202.65 377.77 208.76 383.46 208.34 384.3 217.52 361.09 219.6"/><polygon class="cls-13" points="307.69 117.41 312.87 104.05 315.3 105.72 319.19 97.17 324.89 108.57 327.3 105.48 331.7 117.55 307.69 117.41"/><polygon class="cls-27" points="306.48 129.83 361.09 129.83 361.37 133.72 306.62 134.41 306.48 129.83"/><polygon class="cls-27" points="306.69 141.43 361.19 140.67 361.19 144.53 306.82 146.02 306.69 141.43"/><polygon class="cls-27" points="306.89 153.04 361.72 152.13 361.61 155.78 307.03 157.62 306.89 153.04"/><polygon class="cls-27" points="333.44 191.46 387.91 188.19 388.08 191.84 333.64 195 333.44 191.46"/><polygon class="cls-27" points="332.81 182.91 387.29 179.65 387.46 183.3 333.02 186.46 332.81 182.91"/><polygon class="cls-23" points="355.39 254.34 358.87 286.72 364.56 286.02 357.89 253.79 355.39 254.34"/></g><g id="Layer_6" data-name="Layer 6"><polygon class="cls-28" points="565.15 149.07 604.73 156.36 600.6 206.62 545.96 179.18 565.15 149.07"/><polygon class="cls-23" points="596.96 152.71 595.66 155.99 594.16 179.18 611.89 177.85 612.01 150.29 608.73 151.74 596.96 152.71"/><polyline class="cls-28" points="660.5 154.01 672.15 222.33 710.04 224.92 706.8 149.48 665.68 154.66"/><polygon class="cls-25" points="822.55 260.53 816.72 277.29 805.55 274.86 801.42 256.89 822.55 260.53"/><polygon class="cls-23" points="702.59 151.74 704.53 156.6 701.21 216.66 714.41 211.48 717.89 150.29 702.59 151.74"/><polygon class="cls-27" points="672.24 146.4 717.89 150.29 704.53 156.6 669.24 152.55 672.24 146.4"/><polygon class="cls-23" points="718.13 258.35 771.07 265.63 771.8 243.53 718.13 258.35"/><polygon class="cls-23" points="735.86 276.32 741.93 286.76 749.09 284.09 755.16 264.9 729.3 262.96 735.86 276.32"/><path class="cls-25" d="M796.56,269.52c0,.72-7.52,22.58-7.52,22.58l-14.33-1.21-1-19.67-28.17-4.13-3.64,19.67-11.17-1.95-5.1-6.07,1-24,31.08,6.07,34.73-1.45Z"/><polygon class="cls-25" points="820.12 249.85 788.79 262.23 772.77 237.95 804.82 233.82 820.12 249.85"/><polygon class="cls-23" points="811.13 163.64 833.96 161.21 831.75 270.75 816.72 277.29 817.69 264.42 801.42 273.64 800.21 285.54 789.04 292.1 788.79 262.23 815.5 249.12 811.13 163.64"/><polygon class="cls-28" points="822.79 167.77 820.52 171.25 815.5 249.12 785.39 242.08 796.81 162.43 822.79 167.77"/><polygon class="cls-27" points="783.86 156.6 789.04 157.57 833.96 161.21 820.52 171.25 805.23 168.26 777.71 170.85 783.86 156.6"/><polygon class="cls-27" points="578.5 147.9 613.04 150.67 595.66 155.99 575.26 155.02 578.5 147.9"/></g><g id="Layer_1" data-name="Layer 1"><polygon class="cls-29" points="298.06 175.31 309.94 170.95 316.3 174.44 307.92 187.41 297.75 186.45 298.06 175.31"/><polygon class="cls-30" points="305.1 194.05 341.14 126.06 337.24 124.33 300.64 191.53 305.1 194.05"/><polygon class="cls-31" points="311.43 170.1 321.87 171.62 314.78 188.27 303.16 186.56 311.43 170.1"/><polygon class="cls-10" points="318.11 303.72 227.93 295.35 149.03 303.08 228.11 312.01 318.11 303.72"/><polygon class="cls-30" points="204.96 296.41 187.96 303.07 185 296.5 187.39 285.54 192.65 283.57 200.47 286.04 204.96 296.41"/><polygon class="cls-30" points="269.48 287.62 262.77 299.8 249.53 292.93 248.43 285.35 260.38 279.8 269.48 287.62"/><polygon class="cls-32" points="260.86 280.21 249.53 292.93 248.43 285.35 252.33 281.14 260.86 280.21"/><polygon class="cls-32" points="187.39 285.54 194.27 283.57 200.47 286.04 185.97 292.04 187.39 285.54"/><polygon class="cls-25" points="260.81 297.85 249.53 292.93 250.37 302.09 286 302.39 285.8 292.54 269.48 287.62 260.81 297.85"/><polygon class="cls-25" points="211.67 306.71 211.48 296.1 195.81 294.45 189.05 301.35 185 296.5 184.54 306.71 211.67 306.71"/><polygon class="cls-12" points="251.65 220.25 267.44 268.05 255.99 278.47 242.91 277.22 237.05 259.49 225.99 252.29 210.48 277.22 200.47 283.57 184.01 275.98 184.17 228.21 192.8 204.68 251.65 220.25"/><polygon class="cls-15" points="247.06 223.85 263.67 270.92 257.4 274.1 238.96 232.57 247.06 223.85"/><polygon class="cls-15" points="235.47 243.44 250.66 276.48 242.91 277.22 225.99 252.29 227.26 232.38 235.47 243.44"/><polygon class="cls-15" points="216.83 245.02 204.53 278.5 197.98 277.82 208.32 233.07 216.83 245.02"/><polygon class="cls-15" points="202.07 224.29 192.96 278.72 187.27 276.29 189.35 235.54 202.07 224.29"/><polygon class="cls-14" points="267.44 268.05 242.91 277.22 248.43 285.35 270.54 277.45 267.44 268.05"/><polygon class="cls-14" points="210.48 277.22 184.01 275.98 183.98 285.35 204.83 286.3 210.48 277.22"/><polygon class="cls-14" points="235.47 243.44 225.99 252.29 216.83 245.02 227.26 227.81 235.47 243.44"/><polygon class="cls-33" points="306.85 179.19 316.32 169.03 314.63 165.7 298.06 175.31 298.62 181.64 306.85 179.19"/><polygon class="cls-34" points="243.53 158.95 252.76 187.88 251.65 220.25 235.47 243.44 227.26 232.38 216.83 245.02 197.94 218.49 183.98 216.31 186.5 189.61 206.41 148.03 243.53 158.95"/><polygon class="cls-30" points="229.15 186.89 217.78 217.85 227.26 225.12 237.37 218.17 229.15 186.89"/><polygon class="cls-35" points="237.37 218.17 217.78 217.85 227.26 232.38 237.37 218.17"/><polygon class="cls-35" points="239.12 175.89 229.15 186.89 219.71 174.5 230.1 172.67 239.12 175.89"/><polygon class="cls-36" points="192.19 184.28 192.19 164.53 184.5 154.27 165.49 197.79 178.84 197.11 186.5 192.87 192.19 184.28"/><polygon class="cls-15" points="248.11 155.18 264.22 169.56 261.24 177.93 252.76 187.88 246.23 170.11 248.11 155.18"/><polygon class="cls-37" points="264.22 169.56 278.02 182.15 285.23 194.33 266.33 199.74 252.76 187.88 264.22 169.56"/><polygon class="cls-34" points="278.02 182.15 298.5 174.92 299.25 198.17 266.33 199.74 278.02 182.15"/><polygon class="cls-37" points="230.1 172.67 220.36 155.5 206.41 148.03 203.78 185.6 230.1 172.67"/><polygon class="cls-37" points="248.93 158.18 234.07 160.95 230.1 172.67 252.76 187.88 248.93 158.18"/><polygon class="cls-15" points="206.41 148.03 184.5 154.27 192.19 184.28 206.41 148.03"/><polygon class="cls-36" points="246.31 143.1 237.14 152.84 233.93 166.1 248.93 158.18 246.31 143.1"/><polygon class="cls-36" points="207.62 133.21 206.41 148.03 220.1 164.05 217.07 148.45 207.62 133.21"/><polygon class="cls-14" points="184.48 141.19 207.62 133.21 207.96 126.18 202.78 119.17 194.12 126.53 184.48 141.19"/><polygon class="cls-15" points="279.24 81.37 272.22 103.78 272.72 130.59 278.64 124.95 284.42 122.68 290.14 118.82 284.58 85.78 283.29 81.69 279.24 81.37"/><polygon class="cls-37" points="275.61 102.65 284.42 122.68 272.72 130.59 273.37 122.22 277.42 119.39 274.97 113.62 275.61 102.65"/><polygon class="cls-33" points="279.24 81.37 270.97 143.81 246.31 143.1 231.23 155.63 228.01 161.78 225.67 158.1 202.78 119.17 230.09 86.32 260.79 66.13 279.24 81.37"/><polygon class="cls-29" points="254.89 70.01 279.4 81.5 269.76 70.34 260.43 63.54 255.21 65.84 254.89 70.01"/><polygon class="cls-31" points="254.75 112.53 248 94.39 241.82 85.67 254.29 83.62 255.4 89.21 254.75 112.53"/><polygon class="cls-31" points="260.87 89.45 263.32 84.28 274.69 88.11 260.25 105.01 260.87 89.45"/><polygon class="cls-29" points="259.94 112.79 257.07 116.29 254.75 112.53 259.94 112.79"/><polygon class="cls-31" points="230.09 86.32 226.1 141.7 237.02 148.54 233.93 166.1 230.1 172.67 220.1 164.05 207.62 133.21 207.96 126.18 202.78 119.17 230.09 86.32"/><polygon class="cls-38" points="260.87 89.45 259.94 112.79 254.75 112.53 255.4 89.21 260.87 89.45"/><polygon class="cls-29" points="230.09 86.32 221.26 106.7 210.94 115.53 223.43 118.54 207.62 133.21 202.78 119.17 212.46 105.17 230.09 86.32"/><polygon class="cls-15" points="263.32 84.28 270.34 82.02 274.69 88.11 263.32 84.28"/><polygon class="cls-15" points="254.29 83.62 248.49 80.92 241.82 85.67 254.29 83.62"/><polygon class="cls-34" points="270.34 123.8 255.97 135.67 239.18 122.68 270.34 123.8"/><polygon class="cls-39" points="266.56 124.63 256.79 126.38 243.3 123.65 252.81 130.29 258.95 130.44 266.56 124.63"/><polygon class="cls-40" points="270.34 123.8 256.87 121.37 239.18 122.68 256.74 126.8 270.34 123.8"/><polygon class="cls-37" points="219.8 98.7 223.43 118.54 198.5 124.32 203.77 116.54 217.37 113.96 214.93 103.11 219.8 98.7"/><polygon class="cls-29" points="246.31 143.1 217.16 141.08 233.93 166.1 246.31 143.1"/><polygon class="cls-15" points="230.09 86.32 195.65 103.85 173.42 123.59 184.48 141.19 230.09 86.32"/><polygon class="cls-15" points="227 80 201 55.95 167.35 96.05 227 80"/><polygon class="cls-15" points="167.35 96.05 153.48 113.29 173.42 123.59 172.65 107.06 167.35 96.05"/><polygon class="cls-13" points="260.79 66.13 260.02 60.63 251.11 49.29 201 55.95 220.47 79.04 260.79 66.13"/><polygon class="cls-12" points="260.79 66.13 284.58 85.78 293.92 70.44 251.11 49.29 260.79 66.13"/><polygon class="cls-12" points="260.79 66.13 173.42 123.59 167.35 96.05 260.79 66.13"/><polygon class="cls-31" points="197.94 218.49 202.07 224.29 189.35 235.54 184.17 228.21 187.27 219.77 197.94 218.49"/><polygon class="cls-37" points="165.49 197.79 180.5 230.8 197.94 218.49 186.5 192.87 165.49 197.79"/><path class="cls-41" d="M271.8,97.45a3.27,3.27,0,1,1-3.69-2.79A3.26,3.26,0,0,1,271.8,97.45Z"/><path class="cls-41" d="M250.18,95.67a3.27,3.27,0,1,1-3.69-2.78A3.27,3.27,0,0,1,250.18,95.67Z"/></g><g id="Layer_3" data-name="Layer 3"><polygon class="cls-20" points="131.15 99.83 164.5 63.5 130.5 13 51.5 0.33 0.17 45.17 24.17 117.83 114 118.5 122.75 108.88 147.75 112.5 131.15 99.83"/><g class="cls-42"><polygon class="cls-10" points="57.58 77.42 48.2 74.3 16.75 83.75 73.83 101.17 135.17 85.5 102.88 73.36 57.58 77.42"/><polygon class="cls-37" points="81.32 18.84 82.26 11.48 95.93 17.27 82.67 22.82 81.32 18.84"/><polyline class="cls-14" points="79.6 24.23 80.21 22.64 81.3 11.4 82.26 11.48 82.67 22.82 79.51 24.34"/><polygon class="cls-14" points="59.45 61.8 55.27 43.18 79.52 43.66 87.38 53.78 110.99 57.71 100.23 79.31 59.45 61.8"/><polygon class="cls-15" points="34 84 55.27 43.18 62.98 51.53 80.21 22.64 81.26 22.74 83.04 24.85 88.35 71.76 75.93 93.36 34 84"/><polygon class="cls-12" points="82.67 22.82 101.11 66.62 110.99 57.71 123.33 84.67 75.93 93.36 81.26 22.74 82.67 22.82"/></g></g><g id="Layer_5" data-name="Layer 5"><polygon class="cls-43" points="525.16 180.72 516.9 190.19 515.28 192.78 528.88 205.65 544.26 198.53 533.58 182.66 525.16 180.72"/><polygon class="cls-2" points="546.69 173.35 535.03 164.01 516.9 190.19 529.93 192.54 551.55 185.98 546.69 173.35"/><polygon class="cls-5" points="543.78 181.13 529.93 192.54 535.52 220.22 593.07 219.25 598.9 186.95 543.78 181.13"/><polygon class="cls-6" points="550.09 156.48 535.03 164.01 529.93 192.54 591.37 191.41 590.72 164.53 578.62 156.48 550.09 156.48"/><polygon class="cls-44" points="638.8 165.99 632.65 156.6 619.05 166.96 609.34 186.71 619.7 187.68 638.8 165.99"/><polygon class="cls-45" points="605.82 147.13 599.87 142.19 607.31 110.33 609.54 114.59 610.92 142.69 605.82 147.13"/><polygon class="cls-30" points="599.87 142.19 611.47 140.57 613.94 146.99 639.09 142.88 646.13 157.94 629.9 166.64 599.87 142.19"/><polygon class="cls-36" points="627.8 179.59 618.57 187.93 625.85 212.61 671.83 214.23 677.5 190.27 627.8 179.59"/><polygon class="cls-34" points="639.21 155.63 638.8 165.99 630.47 166.56 623.67 170.2 618.57 187.93 675.88 192.7 678.06 161.7 669.08 160.12 639.21 155.63"/><polygon class="cls-30" points="684.51 130.5 678.66 137.86 670.2 157.25 669.08 160.12 678.06 161.7 684.51 130.5"/><polygon class="cls-30" points="665.8 135.91 658.11 150.61 663.99 161.08 669.08 160.12 684.51 130.5 679.7 127.52 669.93 127.85 665.8 135.91"/><polygon class="cls-20" points="641.64 168.13 623.67 170.2 636.05 151.58 654.99 155.47 664.95 152.35 669.08 160.12 660.66 177.81 641.64 168.13"/><polygon class="cls-30" points="610.68 120.42 621.1 88.64 605.58 94.44 598.8 112.59 603.51 126.73 610.68 120.42"/><polygon class="cls-45" points="609.67 117.35 621.1 88.64 605.74 85.91 598.8 112.59 607.31 110.33 609.67 117.35"/><polygon class="cls-45" points="677.57 90.51 670.56 103.83 670.03 122.74 669.31 130.78 684.51 130.5 677.57 90.51"/><polygon class="cls-45" points="658.3 97.61 654.93 107.56 665.84 128.51 669.31 130.78 677.57 90.51 670.95 88.77 658.3 97.61"/><polygon class="cls-30" points="636.65 95.61 631.81 91.77 640.08 74.75 658.25 73.18 677.57 90.51 654.93 107.56 635.2 109.37 636.65 95.61"/><polygon class="cls-45" points="618.24 85.39 629.24 74.27 658.25 73.18 634.72 92.33 626.5 94.37 618.96 92.6 618.24 85.39"/><polygon class="cls-29" points="658.63 151.63 645.51 142.75 627.88 149.57 641.64 168.13 650.87 161.7 658.63 151.63"/><polygon class="cls-31" points="667.53 137.59 664.95 152.35 650.87 161.7 656.55 151.09 651.82 150.86 636.8 147.96 649.06 140.15 654.93 107.56 666.03 126.61 667.53 137.59"/><polygon class="cls-33" points="651.82 150.86 609.56 149.98 607.31 110.33 618.96 92.6 634.63 92.36 654.93 107.56 651.82 150.86"/><polygon class="cls-29" points="625.65 133.12 622.85 130.9 624.93 130.17 627.79 131.05 625.65 133.12"/><polygon class="cls-31" points="635.71 118.05 627.79 131.05 626.27 123.23 627.98 118.01 629.98 113.52 638.54 111.59 645.54 113.68 635.71 118.05"/><polygon class="cls-31" points="622.12 113.53 623.66 117.78 624.84 122.92 622.85 130.9 616.18 117.62 610.38 113.55 615.08 111.04 622.12 113.53"/><polygon class="cls-30" points="660.34 111.84 654.93 107.56 659.25 121.4 664.23 124.19 664.06 114.89 660.34 111.84"/><polygon class="cls-30" points="638.42 110.27 645.54 113.68 637.8 112.91 629.98 113.52 630.75 111.63 638.42 110.27"/><polygon class="cls-30" points="610.38 113.55 615.05 110.34 621.33 111.61 622.12 113.53 616.49 112.99 610.38 113.55"/><polygon class="cls-38" points="622.85 130.9 623.66 117.78 627.98 118.01 627.79 131.05 622.85 130.9"/><polygon class="cls-13" points="617.82 136.8 624.66 143.57 629.25 143.36 636.66 136.84 627.12 138.92 617.82 136.8"/><polygon class="cls-15" points="626.62 137.13 623.59 137.44 617.82 136.8 626.75 140.39 636.66 136.84 629.98 137.65 626.62 137.13"/><polygon class="cls-29" points="667.53 137.59 662.14 128.72 665.84 128.51 670.36 129.94 667.53 137.59"/><polygon class="cls-33" points="670.36 129.94 668.52 125.35 667.16 124.22 667.13 121.77 664.06 114.89 662.14 128.72 670.36 129.94"/><polygon class="cls-29" points="667.13 121.77 666.03 126.61 668.52 125.35 667.13 121.77"/><polygon class="cls-30" points="605.74 85.91 618.96 92.6 629.24 74.27 605.74 85.91"/><path class="cls-41" d="M616.65,119.92a2.1,2.1,0,1,0-2-2.21A2.1,2.1,0,0,0,616.65,119.92Z"/><path class="cls-41" d="M635.56,120.93a2.1,2.1,0,1,0-2-2.21A2.11,2.11,0,0,0,635.56,120.93Z"/><polygon class="cls-39" points="625.23 141.25 620.5 137.88 625.39 139.18 629.07 139.31 633.01 138.22 629.8 141.33 625.23 141.25"/><polygon class="cls-20" points="670.53 191.81 678.06 161.7 687.44 165.16 686.89 201.2 683.89 205.17 669.24 200.63 670.53 191.81"/><polygon class="cls-46" points="813.59 194.01 819.93 201.63 821.68 205.28 806.44 225.44 791.21 200.68 813.59 194.01"/><polygon class="cls-37" points="759.23 295.65 755.31 300.77 755.31 305.3 783.16 305.41 783.39 301.13 759.23 295.65"/><polygon class="cls-36" points="767.09 279.71 761.73 287.68 755.31 300.77 783.39 301.13 781.49 289.11 767.09 279.71"/><polygon class="cls-15" points="750.66 227.81 741.39 230.86 734.6 232.3 718.77 233.77 716.86 245.91 723.05 255.9 764 255.19 764.71 237.81 750.66 227.81"/><polygon class="cls-15" points="788.51 244.24 802.56 229.48 800.65 251.38 788.75 262.57 788.51 244.24"/><polygon class="cls-15" points="783.04 240.67 788.75 262.57 781.49 289.11 761.73 287.68 756.85 260.66 783.04 240.67"/><polygon class="cls-12" points="782.09 213.53 761.73 248.65 756.85 260.66 788.75 262.57 802.77 228.75 782.09 213.53"/><polygon class="cls-47" points="691.22 170.01 690.39 162.56 682.95 150.71 671.34 160.53 675.22 175.53 691.22 170.01"/><polygon class="cls-46" points="699.22 170.97 690.39 162.56 675.22 175.53 689.89 182.75 700.04 186.56 699.22 170.97"/><polygon class="cls-48" points="701.31 185.29 703.06 176.56 697.5 156.88 692.82 158.31 694.97 170.05 691.95 173.38 697.5 184.81 701.31 185.29"/><polygon class="cls-48" points="743.29 187.91 722.58 184.81 701.87 197.19 715.67 212.42 736.62 208.14 743.29 187.91"/><polygon class="cls-14" points="761.73 248.65 775.49 241.84 761.05 231.16 749.32 238.19 761.73 248.65"/><polygon class="cls-36" points="751.14 205.52 744.48 171 722.58 184.81 736.62 208.14 751.14 205.52"/><polygon class="cls-34" points="804.94 168.15 819.93 201.63 799.54 214.33 797.31 195.65 804.94 168.15"/><polygon class="cls-34" points="787.77 160.2 790.14 183.49 787.92 224.34 773.17 232.31 761.05 233.56 749.32 238.19 741.39 230.86 744.48 171 753.85 169.07 787.77 160.2"/><polygon class="cls-36" points="795.1 165.86 804.94 168.15 802.77 228.75 775.49 241.84 761.05 233.56 764.86 197.75 770.07 175.67 795.1 165.86"/><polygon class="cls-49" points="789.4 157.79 795.1 165.86 793.49 188.25 772.93 190.79 782.47 168.1 789.4 157.79"/><polygon class="cls-49" points="757.7 190.79 748.32 186.87 750.91 169.59 755.77 163.76 763.07 171.66 757.7 190.79"/><polygon class="cls-48" points="728.24 96.04 726.86 114.4 724.02 155.24 747.81 158.71 763.38 171.58 761.91 187.41 771.73 191.56 794.32 125.79 793.51 118.19 784.64 96.88 748.02 97.3 728.24 96.04"/><polygon class="cls-47" points="784.64 96.88 772.44 164.29 766.35 161.54 747.81 158.71 755.97 167.31 758.75 177.49 757.7 190.79 764.86 197.75 772.93 190.79 789.4 157.79 794.46 147.09 794.32 141.49 798.53 138.95 805.3 125.79 793.51 118.19 784.64 96.88"/><polygon class="cls-46" points="780.43 162.6 747.81 158.71 758.75 177.49 780.43 162.6"/><polygon class="cls-46" points="798.53 138.95 790.52 136.45 794.46 147.09 798.53 138.95"/><polygon class="cls-46" points="794.32 133.28 796.2 126.79 800.46 127.9 794.32 133.28"/><polygon class="cls-30" points="771.78 98.42 784.64 96.88 792.04 97.3 803.72 94.35 767.92 77.89 762.96 90.48 771.78 98.42"/><polygon class="cls-41" points="799.2 109.97 801.76 116.19 805.3 125.79 793.51 122.84 790.52 132.65 784.97 130.04 789.17 114.4 799.2 109.97"/><polygon class="cls-30" points="786.17 102.87 792.67 100.05 804.19 103.71 804.73 114.4 790.52 111.39 786.17 102.87"/><polygon class="cls-23" points="786.17 102.87 804.73 114.4 805.3 125.79 789.17 114.4 786.17 102.87"/><polygon class="cls-30" points="761.96 99.59 758.54 88.15 749.48 79.85 735.92 84.85 721.3 98.15 739.08 92.03 749.28 101.1 761.96 99.59"/><polygon class="cls-41" points="749.28 101.1 728.87 96.67 726.86 114.4 721.3 98.15 733.29 88.74 739.08 89.5 749.28 101.1"/><polygon class="cls-30" points="749.48 79.85 739.08 89.5 721.3 98.15 734.19 81.48 749.48 79.85"/><polygon class="cls-23" points="749.48 79.85 761.96 99.59 771.78 98.42 767.92 77.89 749.48 79.85"/><polygon class="cls-41" points="803.72 94.35 804.19 103.71 786.17 102.87 784.64 96.88 803.72 94.35"/><polygon class="cls-46" points="736.54 139.63 759.54 142.11 745.97 149.73 736.54 139.63"/><polygon class="cls-44" points="740.95 141.69 753.82 143.13 746.1 147.23 740.95 141.69"/><polygon class="cls-47" points="738.63 110.55 731.45 111.12 745.59 130.8 751.93 134.87 770.14 115.02 762.05 112.7 754.3 114.34 753.28 118.92 748.53 124.52 745.44 118.32 745.48 113.38 738.63 110.55"/><path class="cls-41" d="M741.84,120.69a3,3,0,1,1-3-3A3,3,0,0,1,741.84,120.69Z"/><path class="cls-41" d="M761.48,122.54a3,3,0,1,1-3-3A3,3,0,0,1,761.48,122.54Z"/><polygon class="cls-46" points="745.82 131.25 743.1 133.89 747.55 137.29 751.93 134.87 745.82 131.25"/><polygon class="cls-50" points="745.44 118.32 743.1 133.89 751.93 134.87 753.28 118.92 745.44 118.32"/><polygon class="cls-41" points="731.68 107.78 745.88 109.59 745.48 113.38 731.45 111.12 731.68 107.78"/><polygon class="cls-41" points="754.3 114.34 754.64 110.44 770.48 111.74 770.14 115.02 754.3 114.34"/><polygon class="cls-25" points="722.58 282.32 718.13 293.56 707.2 292.83 693.06 255.9 721.86 254.47 722.58 282.32"/><polygon class="cls-23" points="465.26 281.13 482.4 304.94 495.25 300.89 506.2 262.33 478.83 261.14 465.26 281.13"/><polygon class="cls-23" points="614.83 241.3 652.83 315.41 668.54 309.7 671.02 293.07 717.16 278.01 718.13 293.56 731.24 288.94 734.32 224.8 614.83 241.3"/><polygon class="cls-25" points="454.87 238.76 458.79 303.11 482.4 304.94 485.33 289.35 628.15 300.82 630.7 313.51 652.83 315.41 654.67 258.35 454.87 238.76"/><polygon class="cls-25" points="611.77 218.97 654.67 258.35 742.51 231.92 742.53 213.25 611.77 218.97"/><polygon class="cls-28" points="527.98 222.78 437.21 227.85 439.12 245.63 654.67 258.35 654.4 238.87 527.98 222.78"/><polygon class="cls-27" points="549.57 207.54 742.53 213.25 654.4 238.87 437.21 227.85 549.57 207.54"/><polygon class="cls-10" points="549.57 207.54 742.53 213.25 723.92 218.67 683 216.25 633.02 226.53 630.5 215.75 588.94 214.23 569.5 221 549.57 207.54"/><polygon class="cls-47" points="689.89 182.75 702.58 215.6 723.69 210.99 703.06 176.56 689.89 182.75"/><polygon class="cls-47" points="791.21 225.67 791.53 233.21 798.91 238.45 829.85 222.66 821.68 205.28 791.21 225.67"/><polygon class="cls-47" points="790.58 232.5 776.13 225.91 769.23 238.29 776.37 246.06 788.75 241.86 790.58 232.5"/><polygon class="cls-48" points="776.13 225.91 792.14 224.96 798.91 238.45 788.75 241.86 776.13 225.91"/><polygon class="cls-31" points="646.25 210.35 669.24 200.63 682.92 204.68 687.05 211.64 656.29 218.12 648.44 215.37 646.25 210.35"/><polygon class="cls-29" points="686.85 201.21 687.05 211.64 669.24 200.63 686.85 201.21"/><polygon class="cls-31" points="639.21 212.21 630.47 209.78 621.97 220.46 633.02 226.53 646.01 220.46 639.21 212.21"/><polygon class="cls-33" points="646.25 210.35 630.47 209.78 646.01 220.46 656.29 218.12 646.25 210.35"/><polygon class="cls-20" points="575.83 164.37 588.94 214.23 630.47 209.78 618.81 160.97 575.83 164.37"/><polygon class="cls-33" points="584.33 181.37 578.64 175.1 576.96 188.73 584.85 198.37 584.33 181.37"/><polygon class="cls-31" points="578.65 175.06 592.71 180.64 590.16 193.51 584.85 198.37 578.65 175.06"/><path class="cls-51" d="M550.16,154.51l18.3,8.81,10.16-6.84,2.07-19.79-6.31-45.54S556.76,88,556,90.4s-5.91,64.19-5.91,64.19Z"/><polygon class="cls-43" points="549.47 145.4 561.85 155 567.67 155.05 568.47 163.32 558.54 169.96 535.17 148.67 549.47 145.4"/><polygon class="cls-43" points="574.81 127.55 571.6 129.55 580.69 136.57 581.38 131.75 574.81 127.55"/><polygon class="cls-52" points="574.31 104.72 569.57 113.02 569.04 118.7 576.75 120.2 583.6 117.2 585.06 106.94 574.31 104.72"/><polygon class="cls-53" points="572.09 92.47 564.68 94.7 569.57 113.02 585.06 106.94 585.99 95.23 572.09 92.47"/><polygon class="cls-52" points="560.34 89.24 564.68 94.7 585.99 95.23 574.79 76.19 560.34 89.24"/><polygon class="cls-54" points="521.03 75.24 541.84 71.97 574.79 76.19 564.36 95.43 521.03 75.24"/><polygon class="cls-54" points="527.71 89.95 518.22 89.3 512.68 94.91 521.04 113.05 527.71 89.95"/><polygon class="cls-52" points="523.83 98.92 526.5 94.34 518.22 89.3 521.03 75.24 564.68 94.7 523.83 98.92"/><polygon class="cls-55" points="519.92 99.92 520.14 154 561.85 155 564.68 94.7 538.59 95.72 526.5 94.34 519.92 99.92"/><polygon class="cls-51" points="532.75 113.6 534.56 115.36 536.69 118.47 537.86 120.42 540.89 119.05 544.41 115.88 548.67 114.36 555.08 113.81 555.78 115.38 550.4 120.92 542.43 131.32 538.53 126.99 537.23 129.83 528.92 119.76 524.7 113.81 527.39 111.97 532.75 113.6"/><polygon class="cls-43" points="535.79 129.13 534.75 131.32 539.51 134.69 542.43 131.32 535.79 129.13"/><polygon class="cls-52" points="524.7 113.81 534.56 115.36 532.61 111.49 525.38 111.37 524.7 113.81"/><polygon class="cls-52" points="548.15 111.68 544.41 115.88 555.78 115.38 555.43 112.53 548.15 111.68"/><polygon class="cls-56" points="535.64 116.9 534.75 131.32 542.43 131.32 542.83 117.25 535.64 116.9"/><polygon class="cls-55" points="573.29 115.47 583.6 117.2 581.38 131.75 571.6 129.55 573.29 115.47"/><polygon class="cls-43" points="579.63 120.05 575.39 119.26 574.71 125.34 579.63 120.05"/><path class="cls-57" d="M529.69,116a2.34,2.34,0,1,1-1.88,2.72A2.34,2.34,0,0,1,529.69,116Z"/><path class="cls-57" d="M548.72,117.1a2.34,2.34,0,1,1-1.88,2.73A2.35,2.35,0,0,1,548.72,117.1Z"/><polygon class="cls-43" points="531.08 137.58 549.85 137.9 545.67 146.15 533.38 146.05 531.08 137.58"/><polygon class="cls-58" points="533.44 138.97 547.18 139.19 545.93 141.49 534.08 141.22 533.44 138.97"/><polygon class="cls-51" points="515.28 192.78 512.45 214.23 547.66 218.12 553.13 212.21 549.57 207.54 515.28 192.78"/><polygon class="cls-51" points="575.83 212.69 567.33 204.56 559.2 211.72 559.8 218.89 570.37 220.71 575.83 212.69"/><polygon class="cls-59" points="567.33 204.56 549.57 207.54 547.66 218.12 559.8 218.89 567.33 204.56"/></g></svg>