<svg xmlns="http://www.w3.org/2000/svg" viewBox="0 0 900 350"><defs><style>.cls-1{fill:#a588b9;}.cls-1,.cls-10,.cls-11,.cls-12,.cls-13,.cls-14,.cls-15,.cls-16,.cls-17,.cls-18,.cls-19,.cls-2,.cls-20,.cls-21,.cls-22,.cls-23,.cls-25,.cls-26,.cls-27,.cls-28,.cls-29,.cls-3,.cls-30,.cls-31,.cls-32,.cls-33,.cls-34,.cls-35,.cls-4,.cls-5,.cls-6,.cls-7,.cls-8,.cls-9{fill-rule:evenodd;}.cls-2{fill:#795d88;}.cls-3{fill:#543042;}.cls-4{fill:#b3889d;}.cls-24,.cls-5{fill:#734d61;}.cls-6{fill:#96647c;}.cls-7{fill:#594265;}.cls-8{fill:#9075a0;}.cls-9{fill:#dddddc;}.cls-10{fill:#ececeb;}.cls-11{fill:#cfcfcd;}.cls-12{fill:#d1a1b9;}.cls-13{fill:#c4c4c4;}.cls-14{fill:#a3a3a3;}.cls-15{fill:#8f8f8f;}.cls-16,.cls-23{fill:#2b2b2b;}.cls-16{opacity:0.1;}.cls-17{fill:#9ca0a1;}.cls-18{fill:#858686;}.cls-19{fill:#c2987a;}.cls-20{fill:#dfbda5;}.cls-21{fill:#8b6651;}.cls-22{fill:#e9cbb7;}.cls-25{fill:#fff;}.cls-26{fill:#474748;}.cls-27{fill:#4f5353;}.cls-28{fill:#51362a;}.cls-29{fill:#755446;}.cls-30{fill:#926d5a;}.cls-31{fill:#99796a;}.cls-32{fill:#835941;}.cls-33{fill:#a77e62;}.cls-34{fill:#bf9c83;}.cls-35{fill:#c9ad9c;}</style></defs><title>analysts_Commander_ENTJ_scene_med_introduction</title><g id="background"><polygon class="cls-1" points="681.15 271.68 557.63 340.5 822.85 341.37 681.15 271.68"/><polygon class="cls-2" points="681.15 271.68 557.63 340.5 643.28 340.5 725.25 329.5 768.33 338.85 822.85 341.37 681.15 271.68"/><polygon class="cls-3" points="807.91 187.17 811.71 193.41 818.03 279.35 791.91 275.76 791.91 234.86 807.91 187.17"/><polygon class="cls-4" points="814.8 200.01 823.8 266.31 812.3 274.54 813 263.73 800.6 201.96 814.8 200.01"/><polygon class="cls-3" points="779.41 176.79 787.71 188.93 801.41 193.41 804.41 189.01 779.41 176.79"/><polygon class="cls-5" points="775.17 161.96 772 164.99 782.33 187.17 787.71 188.93 784.51 153.74 775.17 161.96"/><polygon class="cls-5" points="837.53 179.88 830.66 192.59 808.16 203.5 808.16 195.59 812.3 190.99 837.53 179.88"/><polygon class="cls-4" points="845.41 162.88 846.42 169.78 839.66 185.59 830.66 192.59 837.53 161.96 845.41 162.88"/><polygon class="cls-5" points="808.16 166.42 823.19 160.81 808.16 203.5 791.91 275.76 778 263.75 801.41 193.41 808.16 166.42"/><polygon class="cls-6" points="804.41 142.49 828.66 146.38 808.16 203.5 801.41 193.41 804.41 142.49"/><polygon class="cls-7" points="810.85 131.06 782.35 137.21 789.41 157.5 803.79 152.71 846.42 169.78 899.95 144.66 846.16 126.02 810.85 131.06"/><polygon class="cls-7" points="761.24 136.91 725.25 144.49 772 164.99 803.79 152.71 791.91 139.09 761.24 136.91"/><polygon class="cls-8" points="790.16 135.9 759.16 126.02 725.25 144.49 791.91 139.09 790.16 135.9"/><polygon class="cls-8" points="874.83 127.59 881.16 134.99 899.95 144.66 845.66 152.71 791.91 139.09 820.16 117.75 874.83 127.59"/><polygon class="cls-1" points="794.33 105.42 758 119.4 753.58 129.06 791.91 139.09 831.66 120.5 841.66 104.91 806.91 104.91 794.33 105.42"/><polygon class="cls-7" points="837.53 106.99 850.33 107.87 875.26 119.4 881.16 134.99 831.66 120.5 828.66 108.54 837.53 106.99"/><polygon class="cls-1" points="788.16 113.59 772 99.51 800.6 83.36 847.17 96.72 812.16 104.77 788.16 113.59"/><polygon class="cls-8" points="847.17 96.72 823.8 94.45 812.16 104.77 806.91 107.1 828.66 108.54 875.26 119.4 847.17 96.72"/><polygon class="cls-2" points="823.8 94.45 828.66 108.54 758 119.4 772 99.51 823.8 94.45"/><polygon class="cls-9" points="407.91 190.26 516.68 181.05 664.47 221.37 569.59 263.75 398.9 225.98 407.91 190.26"/><polygon class="cls-10" points="533.56 233.61 516.68 181.05 664.47 221.37 569.59 263.75 398.9 225.98 533.56 233.61"/><polygon class="cls-10" points="281.46 213.48 325.77 197.38 401.06 175.76 469.87 195.63 387.78 230.74 281.46 213.48"/><polygon class="cls-10" points="281.46 213.48 325.77 197.38 401.06 175.76 469.87 195.63 387.78 230.74 281.46 213.48"/><polygon class="cls-9" points="281.46 213.48 325.77 197.38 401.06 175.76 379.59 210.44 387.78 230.74 281.46 213.48"/><polygon class="cls-11" points="757.25 270.31 822.85 341.37 899.95 300.06 863.18 273.98 773.67 273.39 757.25 270.31"/><polygon class="cls-6" points="33.5 217.47 53.5 212 61.4 260.83 57.11 268.15 40.67 241.06 33.5 223.74 33.5 217.47"/><polygon class="cls-12" points="9.5 245.21 32.16 207.01 53.5 212 9.5 245.21"/><polygon class="cls-4" points="46.07 247.13 52.43 245.84 57.53 270.14 54.5 273.29 40.67 249.98 46.07 247.13"/><polygon class="cls-8" points="637.03 281.42 611.27 271.49 591.42 251.97 587.61 241.76 446.33 250.04 414.58 232.86 54.5 273.29 2.75 278.25 24.75 331.97 195.68 350 557.63 340.5 637.03 281.42"/><polygon class="cls-2" points="637.03 281.42 611.27 271.49 591.42 251.97 587.61 241.76 446.33 250.04 414.58 232.86 54.5 273.29 53.5 310 125.92 336.09 327.07 343.14 450.65 322.14 557.63 340.5 637.03 281.42"/><polygon class="cls-13" points="445.62 235.28 448.84 201.74 337.66 200.92 308 197.91 266.58 199.33 205.3 205.91 226.08 283.96 380.21 265.98 445.62 235.28"/><polygon class="cls-14" points="222.08 159.75 237.38 160.81 242.98 230.74 201.59 213.48 203.83 163.26 222.08 159.75"/><polygon class="cls-15" points="214.7 160.81 218.41 169.69 213.44 229.07 176.41 222.53 178.08 166.58 208.41 160.81 214.7 160.81"/><polygon class="cls-9" points="207.1 156.12 237.38 160.81 218.41 169.69 184.08 162.37 207.1 156.12"/><polygon class="cls-13" points="108.32 99.15 147.32 95.15 152.44 215.24 81.32 232.33 108.32 99.15"/><polygon class="cls-13" points="100.65 102.42 81.32 105.71 54.5 273.29 87.23 287.25 109.34 218.58 108.32 177.75 116.06 115.85 100.65 102.42"/><polygon class="cls-13" points="147.07 125.13 195.68 127.97 191.08 252.73 125.92 217.47 147.07 125.13"/><polygon class="cls-14" points="142.82 125.42 127.32 128.67 116.06 194.27 149.03 199.33 165.72 206.69 160.12 139.78 142.82 125.42"/><polygon class="cls-13" points="93.32 274.75 116.88 299.67 140.41 299.67 149.32 268.4 155.09 207.01 155.09 170.89 120.75 179.75 93.32 274.75"/><polygon class="cls-14" points="126.72 168.36 97.73 164.66 87.23 287.25 116.88 299.67 132.82 180.14 126.72 168.36"/><polygon class="cls-11" points="156.32 210.5 149.03 199.33 172.41 185.55 206.41 190.85 192.7 218.83 156.32 210.5"/><polygon class="cls-14" points="165.72 238.53 173.82 206.25 206.41 190.85 212.66 260.71 200.75 304.75 174.08 304.75 165.72 238.53"/><polygon class="cls-15" points="174.08 304.75 140.41 299.67 149.03 199.33 173.82 206.25 174.08 304.75"/><polygon class="cls-9" points="155.09 170.89 118.32 158.72 97.73 164.66 132.82 180.14 155.09 170.89"/><polygon class="cls-9" points="147.32 120.91 127.32 128.67 160.12 139.78 195.68 127.97 147.32 120.91"/><polygon class="cls-9" points="81.32 105.71 116.06 115.85 147.32 95.15 105.19 93.56 81.32 105.71"/><polygon class="cls-9" points="195.68 210.44 215.8 200.96 247.95 207.01 237.38 229.04 228.08 214.76 204.71 237.6 195.68 210.44"/><polygon class="cls-13" points="174.08 304.75 195.68 210.44 228.08 214.76 226.08 322.3 174.08 304.75"/><polygon class="cls-14" points="228.08 214.76 247.95 207.01 256.47 268.15 253.4 304.75 226.08 322.3 228.08 214.76"/><polygon class="cls-11" points="536.36 273.32 507.15 291.43 442.43 294.73 382.98 270.86 381.08 236.23 448.84 201.74 550.45 222.28 584.2 236.23 536.36 273.32"/><polygon class="cls-13" points="442.43 294.73 548.56 328.5 633.44 296.74 677.45 242.75 652.6 223.92 550.45 222.28 442.43 294.73"/><polygon class="cls-11" points="725.5 316 561.74 314.28 669.87 208.3 702.31 227.74 780.28 256.91 781.18 276.45 728.39 300.06 725.5 316"/><polygon class="cls-5" points="273.17 268.4 256.47 268.15 226.08 322.3 329.46 331.97 324.89 284.83 273.17 268.4"/><polygon class="cls-4" points="316.07 259.99 308 253.74 294.33 253 291.29 248.78 285.7 255.02 256.47 268.15 313.43 285.5 316.07 259.99"/><polygon class="cls-6" points="374.08 279.25 359.68 317.79 329.46 331.97 313.43 285.5 321.33 261.41 382.98 259.99 374.08 279.25"/><polygon class="cls-5" points="366.58 257.57 362.94 268.15 359.68 317.79 414.98 322.3 442.43 294.73 407.91 252.19 366.58 257.57"/><polygon class="cls-6" points="366.58 257.57 362.94 268.15 414.98 322.3 442.43 294.73 407.91 252.19 366.58 257.57"/><polygon class="cls-5" points="294.33 253 313.43 285.5 330.7 267.91 341.78 257.41 321.33 234.25 294.33 253"/><polygon class="cls-4" points="321.33 234.25 330.7 267.91 362.94 268.15 407.91 252.19 381.08 236.23 321.33 234.25"/><polygon class="cls-9" points="201.88 50.32 163.93 33.24 136.14 41 53.62 29.15 11.32 48.62 119.83 62.34 139.78 59.27 165.22 65.8 201.88 50.32"/><polygon class="cls-11" points="72.23 73.68 11.32 48.62 104.95 46.47 166.49 54.92 201.88 50.32 168.11 70.24 108.45 60.13 72.23 73.68"/><polygon class="cls-9" points="864.26 24.16 816.38 2.62 781.34 12.4 700.06 -0.57 623.89 22.02 760.77 39.31 785.92 35.45 818.02 43.68 864.26 24.16"/><polygon class="cls-11" points="704.39 43.07 623.89 22.02 742 19.3 819.62 29.95 864.26 24.16 802.7 57.11 746.4 36.53 704.39 43.07"/><polygon class="cls-16" points="411.26 247.02 464.94 242.3 507.79 252.18 466.97 262.38 411.26 247.02"/><polygon class="cls-16" points="513.86 264.23 566.15 260.08 610.8 270.91 567 279.84 513.86 264.23"/><polygon class="cls-16" points="622.87 284.4 675.31 279.43 719.9 292.52 679.42 301.91 622.87 284.4"/><polygon class="cls-16" points="375.72 248.2 331.07 256.92 308 278.25 268.33 269.24 296.81 256.81 321.33 243.4 334.83 243.4 375.72 248.2"/><polygon class="cls-12" points="31.54 264.42 40.67 241.06 52.43 245.84 31.54 264.42"/><polygon class="cls-13" points="863.18 273.98 780.28 256.91 728.39 300.06 803.79 308.37 863.18 273.98"/><polygon class="cls-16" points="813 263.73 802.46 261.53 728.39 254.97 695.68 262.08 761.24 281.99 813 263.73"/><polygon class="cls-15" points="738 306.65 725.5 316 557.63 340.5 548.56 328.5 561.74 314.28 728.39 300.06 738 306.65"/><polygon class="cls-17" points="822.85 341.37 725.5 316 728.39 300.06 803.79 308.37 822.85 341.37"/><polygon class="cls-18" points="442.43 294.73 561.74 314.28 557.63 340.5 442.43 294.73"/><polygon class="cls-14" points="751 244.33 726.9 247.09 715.62 263.2 761.24 272.74 776.35 246.22 751 244.33"/><polygon class="cls-9" points="739.67 241.72 784.51 244.2 777.65 252.49 764.11 254.97 726.9 247.09 739.67 241.72"/><polygon class="cls-13" points="784.51 244.2 764.11 254.97 761.24 272.74 802.1 261.61 784.51 244.2"/><polygon class="cls-14" points="110.62 281.11 80.76 284.82 66.78 306.52 123.31 319.37 142.03 283.66 110.62 281.11"/><polygon class="cls-9" points="120.4 273.29 152.14 280.94 143.65 292.1 126.87 295.44 80.76 284.82 120.4 273.29"/><polygon class="cls-13" points="152.14 280.94 126.87 295.44 123.31 319.37 173.94 304.39 152.14 280.94"/><polygon class="cls-1" points="29.56 287.25 46.56 316 93.32 325.5 93.32 329.5 41.33 320.25 25.79 287.25 29.56 287.25"/><polygon class="cls-1" points="22 295.44 35.3 322.3 59.86 326.5 59.56 329.5 30.31 325.5 18 295.98 22 295.44"/><polygon class="cls-1" points="409.25 334.25 450 328.5 479.27 332.5 476.4 333.68 452 330.92 417.38 335.88 409.25 334.25"/><polygon class="cls-1" points="437.38 335.51 451.68 332.68 483 337 480 338.33 452.4 334.56 441.2 336.7 437.38 335.51"/><polygon class="cls-16" points="92.46 283.94 117.51 281.67 132.82 287.82 114.08 290 92.46 283.94"/><polygon class="cls-1" points="106.89 248.73 106.89 259.99 103.96 283.94 111.34 283.94 109 250.73 106.89 248.73"/><polygon class="cls-2" points="104.47 233.48 94.13 238.73 106.89 259.99 119.66 244.67 104.47 233.48"/><polygon class="cls-1" points="106.43 222.28 94.13 238.73 119.66 244.67 106.43 222.28"/><polygon class="cls-1" points="122.09 262.48 121.37 269.77 121.72 285.48 116.94 285 120.59 263.64 122.09 262.48"/><polygon class="cls-2" points="124.64 252.76 131 256.82 121.37 269.77 114.08 259.03 124.64 252.76"/><polygon class="cls-1" points="124.09 245.38 131 256.82 114.08 259.03 124.09 245.38"/><polygon class="cls-16" points="848.9 306.67 858.6 304.91 871.35 308.75 857.52 309.15 848.9 306.67"/><polygon class="cls-1" points="858.12 284.17 858.12 291.36 856.25 306.67 860.96 306.67 859.47 285.45 858.12 284.17"/><polygon class="cls-2" points="856.58 274.42 849.96 277.77 858.12 291.36 866.28 281.57 856.58 274.42"/><polygon class="cls-8" points="857.83 267.27 849.96 277.77 866.28 281.57 857.83 267.27"/><polygon class="cls-16" points="792.67 295.82 801.29 293.05 812.6 297.67 801.29 299.38 792.67 295.82"/><polygon class="cls-1" points="802.2 277.45 802.2 282.62 800.54 296.21 804.73 296.21 803.4 278.59 802.2 277.45"/><polygon class="cls-2" points="800.83 267.58 794.96 270.56 802.2 282.62 809.45 273.93 800.83 267.58"/><polygon class="cls-8" points="801.94 261.23 794.96 270.56 809.45 273.93 801.94 261.23"/><polygon class="cls-16" points="840.22 282.6 834.02 280.61 825.9 283.93 834.02 285.16 840.22 282.6"/><polygon class="cls-1" points="833.36 269.4 833.36 273.12 834.56 282.89 831.55 282.89 832.5 270.22 833.36 269.4"/><polygon class="cls-2" points="834.35 262.31 838.57 264.45 833.36 273.12 828.16 266.88 834.35 262.31"/><polygon class="cls-8" points="833.55 257.75 838.57 264.45 828.16 266.88 833.55 257.75"/><polygon class="cls-1" points="706.73 335.47 726.16 332.65 750.23 338.28 738.69 338.28 726.72 335.47 708.51 337.64 706.73 335.47"/></g><g id="basic_character" data-name="basic character"><polygon class="cls-6" points="337.01 117.63 350.9 106.65 360.72 111.73 362.94 120.59 347.92 136.29 336.7 133.65 337.01 117.63"/><polygon class="cls-5" points="358.19 100.35 365.23 103.18 368.46 113.4 364.56 118.85 362.94 120.59 350.9 106.65 358.19 100.35"/><polygon class="cls-19" points="371.91 95.15 378.49 95.48 379 110.47 379.59 112.37 370.97 114.33 367.2 112.37 364.62 101.45 371.91 95.15"/><polygon class="cls-4" points="337.01 117.63 347.92 136.29 324.44 156.63 324.75 123.43 337.01 117.63"/><polygon class="cls-3" points="261.56 224.53 277.71 229.04 289.4 205.92 277.94 205.91 261.56 224.53"/><polygon class="cls-8" points="325.77 197.38 337.66 200.92 338.29 219.14 321.33 222.48 304.41 222.53 293.15 216.78 317.84 190.85 325.77 197.38"/><polygon class="cls-5" points="337.66 200.92 321.33 222.48 330.7 234.3 341.01 236.64 345.64 230.99 337.66 200.92"/><polygon class="cls-6" points="345.64 230.99 365.43 243.81 351.19 245.98 330.7 243.81 330.7 234.3 345.64 230.99"/><polygon class="cls-5" points="330.7 248.15 343.28 248.15 344.44 245.85 351.51 248.15 365.43 248.15 365.43 243.81 330.7 243.81 330.7 248.15"/><polygon class="cls-1" points="306.02 219.18 301.08 233.61 291.29 236.69 277.77 235.66 270.66 205.32 288.63 190.26 300.34 212.24 306.02 219.18"/><polygon class="cls-5" points="277.77 235.66 282.37 255.02 292.39 256.81 294.55 252.73 301.08 233.61 277.77 235.66"/><polygon class="cls-6" points="294.55 252.73 301.08 265.98 291.64 268.4 278.57 265.98 282.37 255.02 294.55 252.73"/><polygon class="cls-2" points="316.79 194.27 306.02 219.18 273.17 197.41 303.72 185.34 316.79 194.27"/><polygon class="cls-8" points="308.88 136.94 305.32 138.01 299.76 146.38 299.22 167.16 303.72 185.34 316.79 194.27 315.44 163.09 308.88 136.94"/><polygon class="cls-1" points="299.76 146.38 293.99 141.09 288.73 142.64 286.92 168.22 289.83 195.63 303.72 185.34 299.76 146.38"/><polygon class="cls-9" points="312.57 152.46 287.71 153.49 288.06 160.81 313.43 158.19 312.57 152.46"/><polygon class="cls-9" points="315.15 169.69 287.81 172.01 288.92 179.15 316.07 175.81 315.15 169.69"/><polygon class="cls-1" points="264.99 134.57 246.81 142.97 269.96 158.98 268.67 135.82 264.99 134.57"/><polygon class="cls-2" points="246.81 142.97 245.32 158.98 272.49 164 268.08 153.65 246.81 142.97"/><polygon class="cls-4" points="267.84 160.93 245.32 158.98 242.98 184.04 272.49 177.42 267.84 160.93"/><polygon class="cls-6" points="267.37 175.25 242.98 184.04 266.58 199.33 269.96 185.75 267.37 175.25"/><polygon class="cls-3" points="324.75 120.5 325.77 197.38 316.79 194.27 308.88 136.94 312.25 127.08 324.75 120.5"/><polygon class="cls-5" points="288.73 142.64 289.83 195.63 261.56 224.53 264.99 134.57 280.1 136.22 288.73 142.64"/><polygon class="cls-20" points="272.49 125.93 274.99 117.53 272.49 105.48 268.55 105.07 265.45 108.44 264.88 104.21 263.29 103.1 263.29 74.92 310.78 62.88 326.34 113.06 309.53 118.44 302.94 131.48 299.76 146.38 297.43 136.64 292.49 131.39 284.1 126.06 272.49 125.93"/><polygon class="cls-19" points="274.1 72.18 277.26 76.88 278.62 80.52 290.67 124.8 309.53 118.44 304.26 125.93 304.64 132.41 305.32 138.01 299.76 146.38 290.85 135.82 272.49 125.93 272.49 112.98 274.32 106.99 272.49 105.48 265.45 108.44 263.29 103.1 264.99 92.99 263.29 74.92 274.1 72.18"/><polygon class="cls-21" points="268.97 97.42 273.17 99.35 267.83 102.42 266.75 99.63 268.97 97.42"/><polygon class="cls-19" points="278.62 80.52 289.08 80.83 296.57 92.99 290.85 75.65 278.62 80.52"/><polygon class="cls-19" points="308.96 70.61 301.93 81.69 299.22 73.17 308.96 70.61"/><polygon class="cls-22" points="299.22 73.17 304.53 90.71 296.57 92.99 290.85 75.65 299.22 73.17"/><polygon class="cls-21" points="304.53 90.71 302.26 95.48 296.57 92.99 304.53 90.71"/><polygon class="cls-21" points="284.1 126.06 304.64 132.41 309.53 118.44 284.1 126.06"/><polygon class="cls-21" points="317.03 95.48 288.48 103.89 300.55 111.61 312.25 108.2 317.03 95.48"/><polygon class="cls-8" points="263.29 74.92 272.49 93.89 263.29 103.1 263.29 74.92"/><polygon class="cls-5" points="237.38 96.28 242.68 93.9 245.56 89.92 251.74 76.3 254.83 60.09 260.81 50.92 257.25 39.25 278.34 36.91 292.83 29.7 301.24 41.25 310.08 49.01 317 58.25 323.5 64.02 326.34 68.79 333.95 69.69 322.43 77.73 318.05 83.78 315.52 73.27 310.78 62.88 285.88 67.72 263.29 74.92 262.38 90.94 263.29 103.1 249.75 102.3 238.06 104.92 239.28 100.91 237.38 96.28"/><polygon class="cls-4" points="237.38 96.28 258.51 97.64 245.56 89.92 237.38 96.28"/><polygon class="cls-6" points="258.51 97.64 261.24 70.61 252.54 60.09 245.56 89.92 258.51 97.64"/><polygon class="cls-3" points="261.24 70.61 293.05 61.29 285.67 56.74 283.41 49.36 257.25 39.25 252.54 60.09 261.24 70.61"/><polygon class="cls-5" points="293.05 61.29 310.1 56.06 310.08 49.01 292.83 29.7 286.18 56.31 293.05 61.29"/><polygon class="cls-12" points="292.83 29.7 285.67 56.74 257.25 39.25 292.83 29.7"/><polygon class="cls-6" points="323.5 64.02 321.91 73.56 310.1 56.06 310.08 49.01 323.5 64.02"/><polygon class="cls-4" points="323.5 64.02 321.91 73.56 337.01 68.17 323.5 64.02"/><polygon class="cls-3" points="337.01 68.17 337.01 73.56 317.72 85.27 310.78 62.88 310.1 56.06 321.91 72.18 337.01 68.17"/><polygon class="cls-3" points="261.24 70.61 263.29 74.92 263.29 103.1 238.06 104.92 237.38 96.28 253.4 94.59 261.24 70.61"/><polygon class="cls-6" points="310.1 56.06 293.05 61.29 261.24 70.61 263.29 74.92 310.78 62.88 310.1 56.06"/><polygon class="cls-6" points="279.42 38.11 281.46 26.07 271.01 16.07 273.85 27.97 279.42 38.11"/><polygon class="cls-4" points="279.42 38.11 271.01 16.07 268.29 28.57 279.42 38.11"/><polygon class="cls-21" points="272.49 105.48 277.94 102.98 272.49 112.98 272.49 105.48"/><polygon class="cls-6" points="292.49 131.39 272.49 125.93 260.45 121.62 264.99 134.57 299.76 146.38 292.49 131.39"/><polygon class="cls-3" points="272.49 118.44 260.45 121.62 272.49 125.93 272.49 118.44"/><polygon class="cls-6" points="309.53 118.44 299.76 146.38 324.75 120.5 309.53 118.44"/><path class="cls-23" d="M288.78,81.27a2.4,2.4,0,1,1-2.4-2.4A2.4,2.4,0,0,1,288.78,81.27Z"/><path class="cls-23" d="M306.66,75.65a2.4,2.4,0,1,1-2.4-2.4A2.4,2.4,0,0,1,306.66,75.65Z"/><polygon class="cls-8" points="307.88 65.85 297.77 70.88 291.42 73.21 277.26 76.88 278.62 80.52 291.56 77.81 299.82 75.15 308.96 70.61 307.88 65.85"/><rect class="cls-24" x="278.57" y="265.98" width="22.51" height="4.33"/><polygon class="cls-6" points="372.49 93.86 366.29 93.4 364.62 116.04 368.28 117.14 370.86 115.75 372.49 93.86"/><polygon class="cls-13" points="372.65 91.69 376.17 45.25 374.49 18.75 369.48 8.63 370 46.14 366.45 91.22 372.65 91.69"/><polygon class="cls-15" points="372.65 91.69 370.42 79.68 366.45 91.22 369.33 92.82 372.65 91.69"/><polygon class="cls-13" points="370.6 119.4 364.56 118.85 364.62 116.04 371.39 114.05 378.67 110.02 380.83 104.18 381.47 96.62 354.09 94.6 354.41 90.33 384.69 92.58 383.77 102.98 384.91 111.91 370.6 119.4"/><polygon class="cls-14" points="378.67 110.02 384.91 111.91 384.69 92.58 381.47 96.62 378.67 110.02"/><polygon class="cls-25" points="292.62 104.35 314.22 98.26 311.11 106.55 300.55 109.65 292.62 104.35"/><polygon class="cls-20" points="358.19 100.35 362.94 94.73 372.65 91.69 375.63 96.19 369.12 99.97 365.12 109.28 358.19 100.35"/></g><g id="Soldier_4" data-name="Soldier 4"><polygon class="cls-7" points="448.93 74.95 432.25 69.42 448.43 67.56 448.93 74.95"/><polygon class="cls-5" points="452.71 244.66 439.09 247.41 439.09 251.66 463.01 251.66 471.93 248.99 467.8 244.66 452.71 244.66"/><polygon class="cls-6" points="461.76 233.33 454.01 236.33 439.09 247.41 467.8 247.63 476.16 236.08 461.76 233.33"/><polygon class="cls-5" points="469.59 248.49 463.01 251.66 463.01 256.16 483.51 256.16 483.93 252.16 469.59 248.49"/><polygon class="cls-4" points="471.59 234.91 468.44 238.16 463.01 251.66 483.93 252.16 480.98 241.16 471.59 234.91"/><polygon class="cls-5" points="452.22 212.99 448.84 220.3 454.01 236.33 468.44 238.16 473.23 222.83 452.22 212.99"/><polygon class="cls-6" points="474.18 217.16 465.7 223.99 468.44 238.16 480.98 241.16 484.34 223.99 474.18 217.16"/><polygon class="cls-2" points="470.68 213.49 465.7 223.99 448.84 220.3 440.84 196.99 457.84 195.99 470.68 213.49"/><polygon class="cls-8" points="463.07 199.83 461.76 204.49 465.7 223.99 484.34 223.99 490.56 194.83 463.07 199.83"/><polygon class="cls-7" points="448.34 191.16 440.84 194.16 440.84 196.99 461.76 204.49 490.56 194.83 448.34 191.16"/><polygon class="cls-3" points="450.35 181.83 440.84 187.16 440.84 194.16 490.56 194.83 490.56 187.99 450.35 181.83"/><polygon class="cls-5" points="433.01 155.62 431.51 168.16 440.84 187.16 452.71 159.86 433.01 155.62"/><polygon class="cls-4" points="438.35 139.08 432.25 140.8 431.51 168.16 450.35 159.86 445.18 140.8 438.35 139.08"/><polygon class="cls-5" points="452.22 144.49 442.43 129.8 432.25 140.8 447.83 147.99 452.22 144.49"/><polygon class="cls-3" points="500.01 159.86 510.34 176.33 490.56 187.99 478.43 169.66 500.01 159.86"/><polygon class="cls-4" points="483.71 156.46 488.85 140.94 507.15 139.08 510.34 176.33 487.34 168.33 483.71 156.46"/><polygon class="cls-6" points="481.93 145.58 493.33 129.8 507.15 139.08 485.73 149.99 481.93 145.58"/><polyline class="cls-5" points="481.93 132.08 467.8 145.58 467.8 177.33 467.8 188.45 490.56 187.99 493.33 129.8 481.93 131.27"/><polygon class="cls-6" points="454.34 128.61 442.43 129.8 440.84 187.16 467.8 188.45 478.43 152.01 467.8 145.58 462.02 132.08 454.34 128.61"/><polygon class="cls-21" points="465.26 116.97 457.6 121.74 455.35 129.8 467.8 145.58 488.85 127.31 488.85 119.68 465.26 116.97"/><polygon class="cls-7" points="493.33 103.99 505.44 121.84 494.16 120.82 481.93 114.48 493.33 103.99"/><polygon class="cls-19" points="473.23 109.66 476.18 123.28 485.15 124.42 486.93 132.08 494.16 120.82 496.55 77.33 480.64 66.32 473.23 109.66"/><polygon class="cls-20" points="446.18 64.82 442.43 119.24 476.18 123.28 483.71 72.86 446.18 64.82"/><polygon class="cls-19" points="450.76 81.16 447.83 81.16 455.85 100.21 460.3 101.01 463.07 101.01 476.98 84.16 472.35 83.33 465.26 85.16 464.14 88.3 461.1 89.16 457.35 87.45 457.35 84.16 454.85 81.75 450.76 81.16"/><polygon class="cls-2" points="473.23 50.55 488.85 45.22 507.15 60.27 502.96 82.39 483.71 68.66 473.23 50.55"/><polygon class="cls-8" points="453.4 42.55 444.44 61.04 456.26 66.18 488.85 67.52 488.85 45.22 453.4 42.55"/><polygon class="cls-2" points="432.25 69.42 451.8 70.73 476.18 74.08 483.71 72.86 488.85 72.86 488.85 67.52 446.2 57.42 432.25 69.42"/><polygon class="cls-7" points="502.96 91.15 491.52 85.82 488.41 77.33 483.71 72.86 488.85 67.52 502.96 82.39 502.96 91.15"/><polygon class="cls-8" points="487.97 81.75 485.73 104.29 493.33 114.79 495.38 113.24 505.44 121.84 502.96 91.15 487.97 81.75"/><polygon class="cls-22" points="457.35 87.45 455.85 100.21 459.99 101.79 463.07 101.01 464.14 88.3 457.35 87.45"/><polygon class="cls-26" points="455.85 79.61 457.35 84.16 447.83 81.16 455.85 79.61"/><polygon class="cls-26" points="468.84 81.16 465.26 85.16 476.98 84.16 468.84 81.16"/><polygon class="cls-21" points="467.8 107.61 465.26 111.04 452.22 109.55 450.38 105.76 467.8 107.61"/><path class="cls-23" d="M454.09,87.45a1.87,1.87,0,0,1-1.87,1.88h0a1.88,1.88,0,0,1-1.88-1.88h0a1.88,1.88,0,0,1,1.88-1.87h0a1.87,1.87,0,0,1,1.87,1.87Z"/><path class="cls-23" d="M470.72,88.78a1.88,1.88,0,0,1-1.88,1.88h0A1.88,1.88,0,0,1,467,88.78h0a1.87,1.87,0,0,1,1.87-1.87h0a1.88,1.88,0,0,1,1.88,1.87Z"/><polygon class="cls-21" points="485.73 104.29 495.38 113.24 494.16 120.82 485.73 104.29"/><polygon class="cls-12" points="467.8 145.58 471.93 129.7 494.16 120.82 493.33 129.8 467.8 145.58"/><polygon class="cls-12" points="442.43 129.8 457.6 121.74 467.8 145.58 442.43 129.8"/><polygon class="cls-12" points="470.43 160.45 467.8 161.94 469.12 164.76 471.93 162.95 470.43 160.45"/><polygon class="cls-12" points="467.3 171.76 464.55 173.26 465.8 176.33 468.44 174.67 467.3 171.76"/><polygon class="cls-21" points="487.97 81.75 483.23 76.04 445.8 70.33 483.71 72.86 488.41 77.33 487.97 81.75"/><polygon class="cls-2" points="488.41 77.33 487.97 81.75 505.44 121.84 502.96 91.15 488.41 77.33"/><polyline class="cls-27" points="445.62 107.29 473.23 109.66 463.07 101.01 459.42 101.9 455.85 100.21"/><polygon class="cls-21" points="455.85 100.21 459.78 103.6 463.07 101.01 455.85 100.21"/></g><g id="soldier5"><polygon class="cls-7" points="550.23 92.12 533.54 86.59 549.73 84.73 550.23 92.12"/><polygon class="cls-5" points="554.01 261.83 540.39 264.58 540.39 268.83 564.31 268.83 573.23 266.16 569.1 261.83 554.01 261.83"/><polygon class="cls-6" points="563.06 250.5 555.31 253.5 540.39 264.58 569.1 264.8 577.46 253.25 563.06 250.5"/><polygon class="cls-5" points="570.89 265.66 564.31 268.83 564.31 273.33 584.81 273.33 585.23 269.33 570.89 265.66"/><polygon class="cls-4" points="572.89 252.08 569.74 255.33 564.31 268.83 585.23 269.33 582.28 258.33 572.89 252.08"/><polygon class="cls-5" points="553.52 230.16 550.14 237.47 555.31 253.5 569.74 255.33 574.52 240 553.52 230.16"/><polygon class="cls-6" points="575.48 234.33 567 241.16 569.74 255.33 582.28 258.33 585.64 241.16 575.48 234.33"/><polygon class="cls-2" points="571.98 230.66 567 241.16 550.14 237.47 542.14 214.16 559.14 213.16 571.98 230.66"/><polygon class="cls-8" points="564.36 217 563.06 221.66 567 241.16 585.64 241.16 591.86 212 564.36 217"/><polygon class="cls-7" points="549.64 208.33 542.14 211.33 542.14 214.16 563.06 221.66 591.86 212 549.64 208.33"/><polygon class="cls-3" points="551.64 199 542.14 204.33 542.14 211.33 591.86 212 591.86 205.16 551.64 199"/><polygon class="cls-5" points="534.31 172.79 532.81 185.33 542.14 204.33 554.01 177.03 534.31 172.79"/><polygon class="cls-4" points="539.64 156.25 533.54 157.97 532.81 185.33 551.64 177.03 546.48 157.97 539.64 156.25"/><polygon class="cls-5" points="553.52 161.66 543.73 146.97 533.54 157.97 549.13 165.16 553.52 161.66"/><polygon class="cls-3" points="601.31 177.03 611.64 193.5 591.86 205.16 579.73 186.83 601.31 177.03"/><polygon class="cls-4" points="585 173.63 590.15 158.11 608.45 156.25 611.64 193.5 588.64 185.5 585 173.63"/><polygon class="cls-6" points="583.23 162.75 594.63 146.97 608.45 156.25 587.03 167.16 583.23 162.75"/><polyline class="cls-5" points="583.23 149.25 569.1 162.75 569.1 194.5 569.1 205.62 591.86 205.16 594.63 146.97 583.23 148.44"/><polygon class="cls-6" points="555.64 145.78 543.73 146.97 542.14 204.33 569.1 205.62 579.73 169.18 569.1 162.75 563.32 149.25 555.64 145.78"/><polygon class="cls-28" points="566.56 134.14 558.89 138.91 556.64 146.97 569.1 162.75 590.15 144.48 590.15 136.85 566.56 134.14"/><polygon class="cls-7" points="594.63 121.16 606.73 139.01 595.46 137.99 583.23 131.65 594.63 121.16"/><polygon class="cls-29" points="574.52 126.83 577.48 140.45 585.93 142.1 588.23 149.25 595.46 137.99 597.85 94.5 581.94 83.49 574.52 126.83"/><polygon class="cls-30" points="547.48 81.99 543.73 136.41 577.48 140.45 585 90.03 547.48 81.99"/><polygon class="cls-29" points="554.18 97.83 549.68 98.92 553.52 104.57 557.14 117.38 561.6 118.18 565.72 118.19 572.64 105.51 579.73 102.14 574.52 100.08 566.56 102.33 562.39 106.33 559.93 101.64 556.14 98.92 554.18 97.83"/><polygon class="cls-28" points="559.39 114.9 557.14 117.38 562.1 121.46 565.72 118.19 559.39 114.9"/><polygon class="cls-2" points="574.52 67.72 590.15 62.39 608.45 77.44 604.26 99.56 585 85.83 574.52 67.72"/><polygon class="cls-8" points="554.7 59.72 545.74 78.21 557.56 83.35 590.15 84.69 590.15 62.39 554.7 59.72"/><polygon class="cls-2" points="533.54 86.59 553.1 87.9 577.48 91.25 585 90.03 590.15 90.03 590.15 84.69 547.49 74.59 533.54 86.59"/><polygon class="cls-7" points="604.26 108.32 592.82 102.99 589.71 94.5 585 90.03 590.15 84.69 604.26 99.56 604.26 108.32"/><polygon class="cls-8" points="589.27 98.92 587.03 121.46 594.63 131.96 596.68 130.41 606.73 139.01 604.26 108.32 589.27 98.92"/><polygon class="cls-31" points="559.93 101.64 557.14 117.38 565.72 118.19 566.56 102.33 559.93 101.64"/><polygon class="cls-26" points="550.08 96.47 559.93 97.83 559.93 101.64 549.68 98.92 550.08 96.47"/><polygon class="cls-26" points="567.14 97.83 566.56 102.33 579.73 102.14 579.73 99.56 567.14 97.83"/><polygon class="cls-28" points="572.01 125.09 567.95 130.77 554.35 129.73 551.68 122.93 572.01 125.09"/><path class="cls-23" d="M556.05,103.64a1.87,1.87,0,0,1-1.87,1.87h0a1.88,1.88,0,0,1-1.88-1.87h0a1.88,1.88,0,0,1,1.88-1.88h0a1.88,1.88,0,0,1,1.87,1.88Z"/><path class="cls-23" d="M574.52,105.51a1.88,1.88,0,0,1-1.87,1.88h0a1.88,1.88,0,0,1-1.88-1.88h0a1.88,1.88,0,0,1,1.88-1.87h0a1.87,1.87,0,0,1,1.87,1.87Z"/><polygon class="cls-28" points="587.03 121.46 596.68 130.41 595.46 137.99 587.03 121.46"/><polygon class="cls-12" points="569.1 162.75 573.23 146.87 595.46 137.99 594.63 146.97 569.1 162.75"/><polygon class="cls-12" points="543.73 146.97 558.89 138.91 569.1 162.75 543.73 146.97"/><polygon class="cls-12" points="571.73 177.62 569.1 179.11 570.41 181.94 573.23 180.12 571.73 177.62"/><polygon class="cls-12" points="568.6 188.94 565.85 190.44 567.1 193.5 569.74 191.84 568.6 188.94"/><polygon class="cls-25" points="554.35 124.4 568.68 126.1 567.18 129.16 555.74 128.23 554.35 124.4"/><polygon class="cls-28" points="589.27 98.92 584.53 93.21 547.1 87.5 585 90.03 589.71 94.5 589.27 98.92"/><polygon class="cls-2" points="589.71 94.5 589.27 98.92 606.73 139.01 604.26 108.32 589.71 94.5"/></g><g id="soldier_6" data-name="soldier 6"><polygon class="cls-7" points="658.49 111.72 641.8 106.19 657.99 104.33 658.49 111.72"/><polygon class="cls-5" points="662.27 281.43 648.65 284.18 648.65 288.43 672.57 288.43 681.49 285.76 677.36 281.43 662.27 281.43"/><polygon class="cls-6" points="671.32 270.1 663.57 273.1 648.65 284.18 677.36 284.4 685.72 272.85 671.32 270.1"/><polygon class="cls-5" points="679.15 285.26 672.57 288.43 672.57 292.93 693.07 292.93 693.49 288.93 679.15 285.26"/><polygon class="cls-4" points="681.15 271.68 678 274.93 672.57 288.43 693.49 288.93 690.54 277.93 681.15 271.68"/><polygon class="cls-5" points="661.78 249.76 658.4 257.07 663.57 273.1 678 274.93 682.78 259.6 661.78 249.76"/><polygon class="cls-6" points="683.74 253.93 675.26 260.76 678 274.93 690.54 277.93 693.9 260.76 683.74 253.93"/><polygon class="cls-2" points="680.24 250.26 675.26 260.76 658.4 257.07 650.4 233.76 667.4 232.76 680.24 250.26"/><polygon class="cls-8" points="672.63 236.6 671.32 241.26 675.26 260.76 693.9 260.76 700.12 231.6 672.63 236.6"/><polygon class="cls-7" points="657.9 227.93 650.4 230.93 650.4 233.76 671.32 241.26 700.12 231.6 657.9 227.93"/><polygon class="cls-3" points="659.9 218.6 650.4 223.93 650.4 230.93 700.12 231.6 700.12 224.76 659.9 218.6"/><polygon class="cls-5" points="642.57 192.39 641.07 204.93 650.4 223.93 662.27 196.63 642.57 192.39"/><polygon class="cls-4" points="647.9 175.85 641.8 177.57 641.07 204.93 659.9 196.63 654.74 177.57 647.9 175.85"/><polygon class="cls-5" points="661.78 181.26 651.99 166.57 641.8 177.57 657.39 184.76 661.78 181.26"/><polygon class="cls-3" points="709.57 196.63 719.9 213.1 700.12 224.76 687.99 206.43 709.57 196.63"/><polygon class="cls-4" points="693.27 193.23 698.41 177.71 716.71 175.85 719.9 213.1 696.9 205.1 693.27 193.23"/><polygon class="cls-6" points="691.49 182.35 702.89 166.57 716.71 175.85 695.29 186.76 691.49 182.35"/><polyline class="cls-5" points="691.49 168.85 677.36 182.35 677.36 214.1 677.36 225.22 700.12 224.76 702.89 166.57 691.49 168.04"/><polygon class="cls-6" points="663.9 165.38 651.99 166.57 650.4 223.93 677.36 225.22 687.99 188.78 677.36 182.35 671.58 168.85 663.9 165.38"/><polygon class="cls-32" points="674.82 153.74 667.15 158.51 664.9 166.57 677.36 182.35 698.41 164.08 698.41 156.45 674.82 153.74"/><polygon class="cls-7" points="702.89 140.76 715 158.61 703.72 157.59 691.49 151.25 702.89 140.76"/><polygon class="cls-33" points="682.78 146.43 685.74 160.05 693.96 161.49 696.49 168.85 703.72 157.59 706.11 114.1 690.2 103.09 682.78 146.43"/><polygon class="cls-34" points="655.74 101.59 651.99 156.01 685.74 160.05 693.27 109.63 655.74 101.59"/><polygon class="cls-33" points="660.32 117.93 657.39 120.1 665.4 136.98 669.86 137.78 673.98 137.79 685.74 122.77 681.9 120.1 674.82 121.93 670.65 125.93 666.9 120.93 664.4 118.52 660.32 117.93"/><polygon class="cls-32" points="667.65 134.5 665.4 136.98 670.36 141.06 673.98 137.79 667.65 134.5"/><polygon class="cls-2" points="682.78 87.33 698.41 81.99 716.71 97.05 712.52 119.16 693.27 105.43 682.78 87.33"/><polygon class="cls-8" points="662.96 79.32 654 97.81 665.82 102.95 698.41 104.29 698.41 81.99 662.96 79.32"/><polygon class="cls-2" points="641.8 106.19 661.36 107.5 685.74 110.85 693.27 109.63 698.41 109.63 698.41 104.29 655.75 94.19 641.8 106.19"/><polygon class="cls-7" points="712.52 127.92 701.08 122.59 697.97 114.1 693.27 109.63 698.41 104.29 712.52 119.16 712.52 127.92"/><polygon class="cls-8" points="697.53 118.52 695.29 141.06 702.89 151.56 704.94 150.01 715 158.61 712.52 127.92 697.53 118.52"/><polygon class="cls-35" points="666.9 120.93 665.4 136.98 673.98 137.79 674.82 121.93 666.9 120.93"/><polygon class="cls-27" points="657.74 116.11 667.15 116.93 666.9 120.93 657.39 120.1 657.74 116.11"/><polygon class="cls-27" points="675.4 117.43 674.82 121.93 685.74 122.77 685.74 119.16 675.4 117.43"/><polygon class="cls-32" points="680.27 144.69 678.17 146.14 661.25 144.3 659.94 142.53 680.27 144.69"/><path class="cls-23" d="M663.65,124.22a1.88,1.88,0,0,1-1.87,1.88h0a1.88,1.88,0,0,1-1.88-1.88h0a1.88,1.88,0,0,1,1.88-1.87h0a1.87,1.87,0,0,1,1.87,1.87Z"/><path class="cls-23" d="M680.28,125.56a1.88,1.88,0,0,1-1.88,1.87h0a1.87,1.87,0,0,1-1.87-1.87h0a1.88,1.88,0,0,1,1.87-1.88h0a1.88,1.88,0,0,1,1.88,1.88Z"/><polygon class="cls-32" points="695.29 141.06 704.94 150.01 703.72 157.59 695.29 141.06"/><polygon class="cls-12" points="677.36 182.35 681.49 166.47 703.72 157.59 702.89 166.57 677.36 182.35"/><polygon class="cls-12" points="651.99 166.57 667.15 158.51 677.36 182.35 651.99 166.57"/><polygon class="cls-12" points="679.99 197.22 677.36 198.71 678.67 201.53 681.49 199.72 679.99 197.22"/><polygon class="cls-12" points="676.86 208.53 674.11 210.03 675.36 213.1 678 211.44 676.86 208.53"/><polygon class="cls-32" points="697.53 118.52 692.79 112.81 655.36 107.1 693.27 109.63 697.97 114.1 697.53 118.52"/><polygon class="cls-2" points="697.97 114.1 697.53 118.52 715 158.61 712.52 127.92 697.97 114.1"/><polygon class="cls-27" points="669.75 150.57 662.94 157.32 675.77 158.86 669.75 150.57"/></g></svg>