<svg xmlns="http://www.w3.org/2000/svg" viewBox="0 0 900 350"><defs><style>.cls-1{fill:#c3c3c3;}.cls-2{fill:#cdcdcc;}.cls-3,.cls-41{fill:#fff;}.cls-38,.cls-4{fill:#b2879c;}.cls-36,.cls-5{fill:#95637c;}.cls-39,.cls-6{fill:#734d60;}.cls-7{fill:#9ca0a1;}.cls-8{fill:#a2a2a2;}.cls-24,.cls-9{fill:#737373;}.cls-10{fill:#848585;}.cls-11,.cls-25{fill:#8e8e8e;}.cls-12,.cls-26{fill:#2b2b2b;}.cls-12{opacity:0.1;}.cls-13{fill:#4f5253;}.cls-14{fill:#6f7173;}.cls-15{fill:#dcdcdb;}.cls-16,.cls-22{fill:#e7c9b5;}.cls-17,.cls-40{fill:#543042;}.cls-18{fill:#ebebea;}.cls-19,.cls-27{fill:#debca4;}.cls-19,.cls-20,.cls-21,.cls-22,.cls-23,.cls-24,.cls-25,.cls-32,.cls-33,.cls-34,.cls-35,.cls-36,.cls-37,.cls-38,.cls-39,.cls-40,.cls-41{fill-rule:evenodd;}.cls-20,.cls-28{fill:#c2977b;}.cls-21,.cls-44{fill:#474747;}.cls-23,.cls-31{fill:#8a6651;}.cls-29,.cls-34{fill:#8f759f;}.cls-30,.cls-35{fill:#a587b9;}.cls-32,.cls-42{fill:#785d87;}.cls-33{fill:#594165;}.cls-37{fill:#fefefe;}.cls-43{fill:#d0a0b7;}</style></defs><title>analysts_Debater_ENTP_introduction</title><g id="wall"><polygon class="cls-1" points="0 272.45 266.74 208.29 322.73 90.92 272.24 29.94 12.73 0 0 272.45"/><polygon class="cls-1" points="900 269.24 633.24 208.29 612.1 118.82 627.73 29.94 887.26 0 900 269.24"/><polygon class="cls-2" points="272.24 29.94 627.73 29.94 630.13 107.49 633.24 208.29 266.74 208.29 272.24 29.94"/><path class="cls-3" d="M117.21,42.65l59,.82q27.24.36,52.43.72-.39,16.43-.74,32.8t-.74,32.62l-52,2.91q-28,1.59-58.43,3.29.1-18.16.21-36.44T117.21,42.65Z"/><polygon class="cls-1" points="185.13 74.4 182.05 68.94 182.05 63.02 169.53 60.97 144.82 42.76 199.38 45.27 194.18 55.51 206.05 61.88 200.74 70.53 185.13 74.4"/><polygon class="cls-4" points="222.72 102.57 226.32 88.06 114.95 90 111.67 115.65 220.58 108.29 222.72 102.57"/><polygon class="cls-5" points="196.26 76.45 190.96 68.94 182.05 68.94 175.44 88.98 187.61 95.57 196.26 76.45"/><polygon class="cls-6" points="190.96 68.94 187.61 95.57 200.74 89.43 200.74 70.53 190.96 68.94"/><polygon class="cls-5" points="109.19 112.39 153.16 89.43 153.16 101.72 170.47 89.43 171.61 98.53 200.74 89.43 200.74 100.81 226.32 88.06 227.51 110.37 125.15 113.56 109.19 112.39"/><polygon class="cls-6" points="141.7 108.29 152.88 107.78 152.88 105.22 141.81 106 141.7 108.29"/><rect class="cls-6" x="160.65" y="104.79" width="11.61" height="2.48"/><rect class="cls-6" x="180.37" y="103.51" width="12.29" height="2.52"/><polygon class="cls-6" points="201.54 103 201.54 106.03 213.24 105.56 213.24 102.57 201.54 103"/><polygon class="cls-7" points="194.18 55.51 200.74 70.53 169.53 60.97 194.18 55.51"/><polygon class="cls-8" points="117.26 35 228.63 44.19 225.27 51.56 219.17 52.73 170.92 51.61 117.17 50.38 117.26 35"/><polygon class="cls-1" points="228.63 44.19 227.89 77.02 227.15 109.61 218.6 110.09 218.88 81.51 219.17 52.73 228.63 44.19"/><polygon class="cls-9" points="114.09 99.26 103.52 122.46 231.85 118.73 229.43 107.51 223.62 109.81 116 111.1 114.09 99.26"/><polygon class="cls-10" points="117.39 34.33 117.39 38.5 118.47 113.62 106.51 123.03 103.25 23.5 117.39 34.33"/><polygon class="cls-10" points="217 40.5 226.1 46.48 223.62 109.81 231.85 117.64 233.58 37.42 217 40.5"/><polygon class="cls-11" points="103.25 23.5 233.58 37.42 226.1 46.48 117.39 38.5 103.25 23.5"/></g><g id="shadow"><polygon class="cls-12" points="69.59 247.43 105.32 171.47 81.96 139.07 14.2 147.05 8.37 273.61 45.85 300.56 181.69 292.24 216.12 256.04 69.59 247.43"/><polygon class="cls-12" points="190.06 320.47 306.08 349.82 459.33 306.72 351.56 284.08 190.06 320.47"/><polygon class="cls-12" points="896 301.42 836.32 291.35 771.95 306.54 836.91 325.07 896 301.42"/><polygon class="cls-12" points="454.47 222.71 506.4 212.23 566 224.76 584.96 218.16 631.11 233.21 579.33 246.5 538.67 238.55 501 240.32 454.47 222.71"/><polygon class="cls-12" points="483.5 323.92 603.13 310.36 687.24 326 571.02 350 483.5 323.92"/><polygon class="cls-12" points="660.7 285.99 729.28 276.31 784.05 288.64 718.97 298.5 660.7 285.99"/></g><g id="flower"><polygon class="cls-7" points="790.3 260.96 803.75 312.53 829.07 319.71 851.67 279.53 843.74 260.65 790.3 260.96"/><polygon class="cls-8" points="869.37 262.21 860.63 308.47 829.07 319.71 828.76 270.98 869.37 262.21"/><polygon class="cls-13" points="830.01 250.97 869.37 262.21 828.76 270.98 790.3 260.96 830.01 250.97"/><polygon class="cls-5" points="779.69 239.11 801.57 219.41 814.37 231.28 808.42 236.8 801.14 234.26 779.69 239.11"/><polygon class="cls-5" points="814.37 231.28 801.14 234.26 818.34 268.26 828.76 270.98 822.23 252.94 820.3 235.6 814.37 231.28"/><polygon class="cls-5" points="826.21 217.97 824.7 231.25 820.35 239.2 822.23 252.94 828.76 270.98 834.57 247.94 834.33 211.08 826.21 217.97"/><polygon class="cls-5" points="839.88 268.57 840.23 172.13 834.33 211.08 833.32 221.81 831.69 239.49 828.76 270.98 839.88 268.57"/><polygon class="cls-4" points="849.97 230.77 834.33 211.08 826.21 217.97 849.97 230.77"/><polygon class="cls-4" points="862.77 230.77 849.05 266.58 839.88 268.57 839.93 253.8 858.71 221.72 862.77 230.77"/><polygon class="cls-5" points="877.13 237.33 858.71 221.72 853.4 230.77 877.13 237.33"/><polygon class="cls-4" points="816.03 202.81 824.7 231.25 823.64 240.45 822.23 252.94 814.37 231.28 808.22 208.43 816.03 202.81"/><polygon class="cls-5" points="790.26 212.64 816.03 202.81 819.58 214.49 790.26 212.64"/></g><g id="character_1" data-name="character 1"><polygon class="cls-6" points="68.87 180.73 67.79 166.95 79.02 170.24 80.81 177.79 79.42 184.94 68.87 180.73"/><polygon class="cls-10" points="41.09 168.6 41.09 250.15 51.57 253.65 53.72 179.05 50.48 167.31 41.16 157.81 41.09 168.6"/><polygon class="cls-11" points="24.96 125.02 41.09 168.6 50.46 167.31 46.99 137.41 33.47 121.95 24.96 125.02"/><polygon class="cls-7" points="83.39 117.59 33.47 121.95 50.48 167.31 54.08 169.77 56.74 165.97 95.54 157.64 83.39 117.59"/><polygon class="cls-14" points="57.23 247.53 56.74 165.97 52.94 166.78 50.46 167.31 51.57 253.65 57.23 247.53"/><polygon class="cls-8" points="31.97 276.41 29.09 207.55 82.8 208.34 129.92 221.28 129.27 249.52 124.98 294.39 31.97 276.41"/><polygon class="cls-11" points="216.12 256.04 124.98 294.39 123.09 233.47 214.21 183.53 216.12 256.04"/><polygon class="cls-1" points="19.23 224.85 20.68 193.23 27.13 192.45 116.26 200.12 123.09 209.82 129.5 216.14 123.09 233.47 19.23 224.85"/><polygon class="cls-15" points="20.68 193.23 120.27 167.64 135.16 163.88 222.95 167.97 123.09 209.82 20.68 193.23"/><polygon class="cls-12" points="93.44 186.85 65.7 197.86 105.24 205.32 116.63 201.59 121.22 203.37 136.56 192.45 93.44 186.85"/><path class="cls-2" d="M95.28,174.06l25-6.42,4.58-1.14c1.29,3.33,2.6,7,2.6,7l-32,3.42s-.08-1.15-.16-2.8Z"/><polygon class="cls-8" points="224.48 199.15 222.95 167.97 123.09 209.82 123.09 233.47 224.48 199.15"/><polygon class="cls-6" points="113.91 169.42 113.7 161.51 109.2 151.87 115.18 140.46 122.81 144.31 124.16 151.03 129.88 160.85 127.43 173.45 113.91 169.42"/><polygon class="cls-16" points="91 134.1 107.53 150.75 113.34 136.37 91 134.1"/><polygon class="cls-6" points="91 134.1 107.53 150.75 95.54 157.64 81.14 163.78 78.2 152.88 74.86 142.97 91 134.1"/><polygon class="cls-17" points="105.32 171.47 113.91 169.42 113.48 152.61 104.25 161.32 105.32 171.47"/><polygon class="cls-5" points="67.79 166.95 74.86 142.97 92.76 158.03 92.45 168.56 78.2 178.44 67.79 166.95"/><polygon class="cls-18" points="82.57 195.7 102.94 185.38 135.55 190.14 120.92 203.64 82.57 195.7"/><polygon class="cls-8" points="117.94 190.24 128.06 191.72 117.88 200.49 107.65 198.38 117.94 190.24"/><polygon class="cls-8" points="114.14 189.65 104.23 197.26 102.35 196.85 112.44 189.32 114.14 189.65"/><polygon class="cls-8" points="110.29 188.77 100.41 196.38 98.53 195.97 108.59 188.42 110.29 188.77"/><polygon class="cls-8" points="106.42 187.81 100.84 192.1 98.96 191.69 104.73 187.46 106.42 187.81"/><polygon class="cls-3" points="69.59 190.72 91.76 183.51 122.48 195.4 105.24 205.32 69.59 190.72"/><polygon class="cls-8" points="105.3 191.59 114.83 195.27 102.97 201.59 93.44 197.26 105.3 191.59"/><polygon class="cls-8" points="101.72 190.18 90.39 195.4 88.63 194.58 100.14 189.47 101.72 190.18"/><polygon class="cls-8" points="98.18 188.47 86.83 193.68 85.09 192.86 96.58 187.77 98.18 188.47"/><polygon class="cls-8" points="94.6 186.66 88.2 189.61 86.46 188.79 93.03 185.97 94.6 186.66"/><polygon class="cls-12" points="157.01 171.03 187.93 173.45 160.95 189.02 131.71 182.47 157.01 171.03"/><polygon class="cls-3" points="160.63 167.02 190.06 171.47 162.63 186.85 134.86 178.01 160.63 167.02"/><path class="cls-5" d="M151.91,176.33c.45-.32.08-1,1-1.69.68-.49,2.72-1,3-1.23l3.09-2.21,9.16-2c-.2,1.37-.39,2.74-.59,4.11-1.53,1.1-3.09,2.19-4.62,3.27-.64.45-1.19,2.31-1.82,2.76-.88.64-1.84-.14-2.72.47-1.19-.63-3-.33-4.17-1-1-.53-1.42-2-2.42-2.56Z"/><path class="cls-6" d="M150.13,178.07c.6-.57,1.19-1.16,1.78-1.74l6.59,3.53-2.6,1.59Z"/><path class="cls-4" d="M146.22,177l5.69-.68,2.33-1.65,1.76-1.25c-1.49.08-3,.16-4.46.27L146.22,177Z"/><path class="cls-4" d="M158.17,184.27c.1-1.47.22-3,.35-4.44,1.51-1.08,3-2.14,4.56-3.23-.12,1.41-.27,2.8-.39,4.21-1.51,1.17-3,2.34-4.5,3.48Z"/><path class="cls-18" d="M158.17,174l2.27-1.59,3.21.1c0,.63.06,1.27.08,1.9L160.91,176l-2.58-.31c-.06-.55-.12-1.1-.16-1.66Z"/><polygon class="cls-19" points="134.1 82.93 140.91 78.45 147.3 78.81 144.13 129.7 127.08 129.81 107.67 126.41 106.57 91.01 108.58 74.95 122.19 76.62 134.1 82.93"/><polygon class="cls-20" points="118.61 131.42 144.13 129.7 107.42 127.4 109.09 90.03 108.58 74.95 98.38 82.59 98.76 90.56 101.95 101 99.34 101.05 97.31 103.36 94.93 100.57 93.85 94.94 90.28 98.28 86.69 99.26 90.41 104.26 91.37 109.46 91.99 112.73 91.23 118.81 91 134.1 120.56 139.93 118.61 131.42"/><polygon class="cls-21" points="146.38 93.6 152.86 77.23 143.83 76.49 146.38 93.6"/><polygon class="cls-20" points="113.78 88.98 123.09 97.16 126.61 109.5 128.36 99.26 128 93.41 113.78 88.98"/><polygon class="cls-20" points="135.73 90.53 133.22 93.97 132 97.88 132.8 103.23 145.21 91.02 142.19 85.3 135.73 90.53"/><polygon class="cls-21" points="128 93.41 115.47 85.89 113.78 88.98 124.84 95.77 128 93.41"/><polygon class="cls-21" points="134.68 88.05 142.19 85.3 145.21 91.02 142.3 92.33 140.24 88.32 135.73 90.53 134.68 88.05"/><polygon class="cls-22" points="133.22 93.97 132.52 109.48 129.77 110.49 126.61 109.5 128 93.41 133.22 93.97"/><polygon class="cls-23" points="135.78 120.17 125.06 118.27 117.48 113.74 119.63 110.81 114.41 112.58 114.19 118.52 116.52 115.87 124.51 120.5 135.78 120.17"/><polygon class="cls-19" points="97.31 103.36 97.84 106.44 91.37 109.46 86.69 99.26 93.85 94.94 97.31 103.36"/><polygon class="cls-24" points="134.1 82.93 152.86 77.23 138.18 61.97 134.02 72.98 134.1 82.93"/><polygon class="cls-25" points="134.1 82.93 138.18 61.97 88.74 67.84 97.76 73.23 108.58 74.95 134.1 82.93"/><polygon class="cls-24" points="88.74 67.84 80.47 93.84 90 89.13 98.38 82.59 108.58 74.95 88.74 67.84"/><polygon class="cls-21" points="98.38 82.59 101.95 101 97.31 103.36 93.85 94.94 86.69 99.26 80.47 93.84 98.38 82.59"/><polygon class="cls-23" points="89.74 100.38 92.34 98.81 93.88 103.8 89.74 100.38"/><polygon class="cls-23" points="91.37 109.46 95.97 107.27 91.23 119.1 91.37 109.46"/><polygon class="cls-23" points="132.52 109.48 129.1 112.88 126.61 109.5 132.52 109.48"/><path class="cls-26" d="M140.88,97.5a2.17,2.17,0,1,1-1.59-2.64A2.17,2.17,0,0,1,140.88,97.5Z"/><path class="cls-26" d="M123.09,97.16a2.17,2.17,0,1,1-1.59-2.63A2.18,2.18,0,0,1,123.09,97.16Z"/><polygon class="cls-23" points="101.45 125.69 144.13 129.7 122.16 133.49 120.56 139.93 101.45 125.69"/><polygon class="cls-4" points="100.55 182.47 78.2 178.44 92.76 158.03 103.85 147.05 114.73 149.71 100.55 182.47"/><polygon class="cls-27" points="113.91 134.97 103.85 147.05 114.73 149.71 118.67 147.07 125.81 147.27 130.64 139.07 113.91 134.97"/><polygon class="cls-28" points="133.56 149.07 130.64 139.07 124.4 143.24 118.67 147.07 124.16 151.03 133.56 149.07"/><polygon class="cls-5" points="127.43 173.45 124.16 151.03 133.56 149.07 143.48 168.62 127.43 173.45"/></g><g id="character_2" data-name="character 2"><polygon class="cls-29" points="488 160.42 484.17 221.5 507.67 222.71 500.17 160.5 488 160.42"/><polygon class="cls-12" points="487.08 175 502.67 181.29 500.17 160.5 488 160.42 487.08 175"/><polygon class="cls-30" points="445.25 46 546.41 51.17 548.35 168.66 446.41 163.01 445.25 46"/><polygon class="cls-18" points="457.36 63.23 458.15 151.26 537.46 151.26 538.67 62.92 457.36 63.23"/><polygon class="cls-29" points="445.25 46 457.36 63.23 538.67 62.92 546.41 51.17 445.25 46"/><polygon class="cls-29" points="446.41 163.01 458.15 151.26 537.46 151.26 548.35 169.73 446.41 163.01"/><polygon class="cls-9" points="462.88 84.47 463.79 135.6 508.75 135 509.01 131.77 465.08 133.28 465.31 84.47 462.88 84.47"/><rect class="cls-5" x="468" y="99.42" width="6.92" height="30.83"/><polygon class="cls-5" points="479.58 130.25 479.58 109.17 487.42 109.17 486.67 129.56 479.58 130.25"/><polygon class="cls-5" points="490.75 129.72 491.25 116.33 498.75 116.75 498.02 129.56 490.75 129.72"/><polygon class="cls-5" points="471.75 86.63 482 93.94 489.25 93.13 498.75 101.93 500.13 99.81 504.38 107.33 495.88 106.69 497.05 104.21 488.06 96 481.19 96.45 470.44 87.69 471.75 86.63"/><polygon class="cls-31" points="514.14 134.7 525.79 137.52 529.89 135.41 530.1 126.84 519.85 121.92 517.16 123.78 514.14 134.7"/><polygon class="cls-28" points="507.15 118.92 519.85 121.92 525.93 124.76 523.93 128.93 506.98 122.79 507.15 118.92"/><polygon class="cls-27" points="517.48 130.82 525.93 124.76 530.1 126.84 527.88 132.9 518.51 134.35 517.48 130.82"/><polygon class="cls-19" points="653.89 117.28 653.32 118.85 655.46 108.01 664.92 113.52 664.42 124.77 651.65 123.39 653.89 117.28"/><polygon class="cls-20" points="650.99 120.51 653.32 118.85 664.42 124.77 657.42 135.39 647.51 135.2 650.99 128.21 650.99 120.51"/><polygon class="cls-19" points="650.33 135.2 649.1 127.69 648.34 123.28 649.96 113.52 653.14 113.85 653.32 118.85 655.79 126.64 650.33 135.2"/><polygon class="cls-32" points="581.99 202.51 574.8 212.23 564.8 209.72 557.5 203.8 565.47 173.28 579.33 194.43 581.99 202.51"/><polygon class="cls-33" points="574.8 212.23 566 224.76 555.1 222.16 553.34 219.4 557.5 203.8 574.8 212.23"/><polygon class="cls-34" points="604.17 173.72 565.47 173.28 579.33 194.43 591.32 188.87 604.17 173.72"/><polygon class="cls-35" points="579.33 194.43 582.98 209.72 593.05 213.88 603.13 210.21 608.22 173.28 604.93 173.1 579.33 194.43"/><polygon class="cls-32" points="582.98 209.72 586.21 223.48 592.26 226.61 600.18 226.07 603.13 210.21 582.98 209.72"/><polygon class="cls-36" points="586.21 223.48 581.79 233.8 590.95 234.8 600.42 233.8 600.18 226.07 586.21 223.48"/><polygon class="cls-36" points="553.34 219.4 540.72 231.29 555.36 232.28 565.76 231.29 566 224.76 553.34 219.4"/><rect class="cls-17" x="581.79" y="233.8" width="18.63" height="3.25" transform="translate(1182.22 470.85) rotate(180)"/><rect class="cls-17" x="540.72" y="231.29" width="25.04" height="3.25" transform="translate(1106.47 465.83) rotate(180)"/><polygon class="cls-37" points="607.51 119.46 584.83 142.93 578.5 118.42 593.5 116.05 607.51 119.46"/><polygon class="cls-19" points="579.02 61.78 573.68 55.99 567.59 54.85 558.76 103.35 574.74 107.41 593.96 108.63 602.98 75.75 604.83 60.22 591.66 58.62 579.02 61.78"/><polygon class="cls-20" points="582.31 110.88 558.76 103.35 593.75 109.71 600.85 74.25 604.83 60.22 612.63 69.74 610.42 77.14 605 86.2 607.45 86.85 608.82 89.49 611.69 87.42 614.01 82.39 616.6 86.35 619.73 88.11 615.08 91.93 612.97 96.59 611.63 99.52 610.93 105.4 607.6 119.8 578.5 118.42 582.31 110.88"/><polygon class="cls-21" points="565.02 68.95 562.74 52.08 571.38 53.48 565.02 68.95"/><polygon class="cls-38" points="563.04 123.47 546.65 133.99 538.26 134.69 548.35 150.97 569.1 146.04 569.31 136.42 563.04 123.47"/><polygon class="cls-36" points="530.1 126.84 525.79 137.52 548.35 150.97 546.65 133.99 530.1 126.84"/><polygon class="cls-20" points="596.69 72.17 586.06 77.69 579.89 88.45 580.63 78.44 582.31 73.03 596.69 72.17"/><polygon class="cls-20" points="577.99 69.74 577.29 72.34 577.53 76.3 575.53 81.14 566.73 66.8 568.14 64.72 577.99 69.74"/><polygon class="cls-21" points="582.31 73.03 595.83 68.88 596.69 72.17 584.74 75.98 582.31 73.03"/><polygon class="cls-21" points="577.99 69.74 569.92 62.49 568.14 64.72 575.33 72.17 577.99 69.74"/><polygon class="cls-22" points="577.29 72.34 574.35 87.07 576.7 88.66 579.89 88.45 582.31 73.03 577.29 72.34"/><polygon class="cls-19" points="608.82 89.49 607.6 92.26 612.97 96.59 619.73 88.11 614.01 82.39 608.82 89.49"/><polygon class="cls-24" points="579.02 61.78 562.74 52.08 580.06 41.16 581.4 52.46 579.02 61.78"/><polygon class="cls-25" points="579.02 61.78 580.06 41.16 625.1 58.14 615.38 61.11 604.83 60.22 579.02 61.78"/><polygon class="cls-24" points="625.1 58.14 626.83 84.47 618.97 77.83 612.63 69.74 604.83 60.22 625.1 58.14"/><polygon class="cls-21" points="612.63 69.74 605 86.2 608.82 89.49 614.01 82.39 619.73 88.11 626.83 84.47 612.63 69.74"/><polygon class="cls-23" points="616.61 88.45 614.53 86.37 611.93 90.7 616.61 88.45"/><polygon class="cls-23" points="612.97 96.59 609.16 93.47 610.87 105.67 612.97 96.59"/><polygon class="cls-23" points="574.35 87.07 576.77 91.05 579.89 88.45 574.35 87.07"/><polygon class="cls-36" points="607.51 119.46 586.13 135.39 598.43 145.16 613.58 154.5 618.72 142.75 622.22 127.5 607.51 119.46"/><polygon class="cls-36" points="578.5 118.42 563.04 123.47 567.75 139.15 576.45 141.01 586.13 135.39 578.5 118.42"/><polygon class="cls-39" points="613.58 154.5 608.22 173.28 604.17 173.72 581.9 176 581.79 153.93 586.13 135.39 613.58 154.5"/><polygon class="cls-40" points="586.13 135.39 567.75 139.15 565.47 173.28 581.9 176 586.13 135.39"/><circle class="cls-26" cx="571.38" cy="73.88" r="2.1"/><circle class="cls-26" cx="588.16" cy="77.69" r="2.1"/><polygon class="cls-23" points="599.75 109.49 558.76 103.35 578.5 112.01 578.5 118.42 599.75 109.49"/><polygon class="cls-38" points="622.22 127.5 640.06 142.93 640.06 157.03 613.58 154.5 622.22 127.5"/><polygon class="cls-23" points="570.7 92.72 582.4 93.79 583.24 101.28 569.59 99.05 570.7 92.72"/><polygon class="cls-41" points="571.75 93.93 581.01 94.83 581.26 97 571.38 96.01 571.75 93.93"/><polygon class="cls-36" points="649.17 128.1 634.9 138.47 640.06 157.03 657.42 135.39 649.17 128.1"/><polygon class="cls-18" points="644.16 10.02 635.99 29.94 644.16 55.83 635.99 68.95 652.56 59.66 683 73.54 719.33 65.45 740.03 16.98 707.54 0 644.16 10.02"/><path class="cls-7" d="M660.64,47.77l36,1.57,1.56-35.51-10.55-.22V31.82l-9-5.85-1,6.91L669,25.47l-.57,7.41-10.68-6.74c.87,7.24,1.84,14.43,2.8,21.63Z"/><polygon class="cls-7" points="705.74 16.18 704.45 33.6 710.89 33.9 714.28 16.18 705.74 16.18"/><polygon class="cls-8" points="702.69 37.22 706.88 34.79 710.89 38.01 708.81 42.55 704.62 43.66 702.69 37.22"/><rect class="cls-1" x="509.01" y="73.75" width="19.07" height="2.23"/><polygon class="cls-1" points="509.01 81.74 528.08 81.74 528.08 84.47 509.01 84.08 509.01 81.74"/><polygon class="cls-1" points="509.01 90.42 528.08 91.05 528.08 93.17 509.01 92.33 509.01 90.42"/></g><g id="character_3" data-name="character 3"><polygon class="cls-19" points="318.46 156.07 311.65 151.65 301.99 164.88 308.9 172.46 316.19 168.11 318.46 156.07"/><polygon class="cls-20" points="339.91 156.07 328.18 150.01 311.65 151.65 316.19 168.11 327.28 165.18 339.91 156.07"/><polygon class="cls-19" points="337.16 158.06 328.18 150.01 316.09 155.36 318.46 160.07 323.04 158.21 329.02 162.13 337.16 158.06"/><polygon class="cls-36" points="355.22 169.79 327.28 165.18 328.18 150.01 362.83 148.9 369.15 166.2 355.22 169.79"/><polygon class="cls-38" points="385.29 163.88 387.6 140.67 359.27 155.06 355.22 169.79 381.81 187.38 385.29 163.88"/><polygon class="cls-32" points="399 264.46 380.06 269.32 376.67 254.23 394.11 225.76 416.37 254.23 399 264.46"/><polygon class="cls-33" points="399 264.46 394.5 282.75 380.64 279.25 378.4 275.54 376.67 254.23 399 264.46"/><polygon class="cls-34" points="443.86 230.34 394.11 225.76 411.74 254.23 426.98 246.74 443.86 230.34"/><polygon class="cls-35" points="411.74 254.23 409.84 269.32 429.18 280.4 436.78 270.88 443.86 230.34 411.74 254.23"/><polygon class="cls-32" points="409.84 269.32 416.3 290.78 424 294.99 434.06 294.27 436.78 270.88 409.84 269.32"/><polygon class="cls-36" points="416.3 290.78 410.68 304.67 422.33 306.01 434.37 304.67 434.06 294.27 416.3 290.78"/><polygon class="cls-36" points="378.4 275.54 362.35 291.54 380.97 292.88 394.19 291.54 394.5 282.75 378.4 275.54"/><polygon class="cls-40" points="410.68 308.91 434.37 308.91 434.37 304.54 410.68 304.67 410.68 308.91"/><rect class="cls-17" x="362.35" y="291.54" width="31.85" height="4.37" transform="translate(756.54 587.44) rotate(180)"/><polygon class="cls-37" points="421.53 159.68 404.76 195.69 388.19 169.79 404.31 161.2 421.53 159.68"/><polygon class="cls-19" points="367.07 104.05 358.79 99.44 351.44 100.49 359.99 160.07 379.69 158.53 401.99 152.43 399.64 110.87 395.78 92.17 380.22 95.46 367.07 104.05"/><polygon class="cls-20" points="389.63 159.59 359.99 160.07 402.16 153.77 396.64 109.96 395.78 92.17 408.29 100.15 408.61 109.56 405.94 122.16 408.96 121.97 411.52 124.48 414 120.97 414.7 114.24 419.15 117.81 423.38 118.62 419.57 124.86 418.97 131.08 418.56 134.99 420.03 142.07 421.76 160.03 388.19 169.79 389.63 159.59"/><polygon class="cls-21" points="353.92 117.81 344.87 99.18 355.22 97.43 353.92 117.81"/><polygon class="cls-20" points="391.12 109.17 381.16 119.72 378.28 134.58 375.28 122.7 375.12 115.79 391.12 109.17"/><polygon class="cls-20" points="368.95 113.67 369.15 116.95 370.94 121.43 370.53 127.81 356.82 114.58 359.39 111.29 368.95 113.67"/><polygon class="cls-21" points="375.12 115.79 388.87 105.71 391.12 109.17 379.01 118.25 375.12 115.79"/><polygon class="cls-21" points="368.95 113.67 362.96 108.24 354.5 111.86 356.82 114.58 362.72 112.53 365.92 116.39 368.95 113.67"/><polygon class="cls-22" points="369.15 116.95 371.45 135.14 374.73 136.06 378.28 134.58 375.12 115.79 369.15 116.95"/><polygon class="cls-19" points="411.52 124.48 411.21 128.16 418.97 131.08 423.38 118.62 414.7 114.24 411.52 124.48"/><polygon class="cls-24" points="367.07 104.05 344.87 99.18 360.35 79.79 366.21 92.34 367.07 104.05"/><polygon class="cls-25" points="367.07 104.05 360.35 79.79 418 81.85 408.11 89.08 395.78 92.17 367.07 104.05"/><polygon class="cls-24" points="418 81.85 430.06 111.64 418.59 107.03 408.29 100.15 395.78 92.17 418 81.85"/><polygon class="cls-21" points="408.29 100.15 405.94 122.16 411.52 124.48 414.7 114.24 423.38 118.62 430.06 111.64 408.29 100.15"/><polygon class="cls-23" points="419.98 120.24 416.82 118.64 415.53 124.67 419.98 120.24"/><polygon class="cls-23" points="418.97 131.08 413.44 128.96 420.06 142.41 418.97 131.08"/><polygon class="cls-23" points="371.45 135.14 375.73 138.8 378.28 134.58 371.45 135.14"/><polygon class="cls-36" points="421.53 159.68 403.35 186.45 421.06 192.96 445.43 195.69 433.75 186.45 433.75 168.11 421.53 159.68"/><polygon class="cls-36" points="389.63 159.59 382.2 162.06 381.81 187.38 394.51 196.74 403.35 186.45 389.63 159.59"/><polygon class="cls-39" points="445.43 195.69 443.86 230.34 411.29 228.82 405.53 209.6 403.35 186.45 445.43 195.69"/><polygon class="cls-40" points="403.35 186.45 381.81 187.38 394.11 225.76 411.29 228.82 403.35 186.45"/><path class="cls-26" d="M360.65,121.86a2.51,2.51,0,0,0,3.19,1.61,2.57,2.57,0,0,0,1.58-3.25,2.51,2.51,0,0,0-3.19-1.62A2.58,2.58,0,0,0,360.65,121.86Z"/><path class="cls-26" d="M381.16,119.72a2.51,2.51,0,0,0,3.19,1.61,2.59,2.59,0,0,0,1.58-3.26,2.52,2.52,0,0,0-3.19-1.61A2.58,2.58,0,0,0,381.16,119.72Z"/><polygon class="cls-23" points="408.89 151.17 359.99 160.07 382.2 162.06 393.98 168.11 408.89 151.17"/><polygon class="cls-23" points="370.94 144.18 387.04 139.16 387.04 141.29 371.72 146.08 370.94 144.18"/><polygon class="cls-42" points="379.91 261.56 379.91 314.84 324.89 332.89 316.62 305.36 323.96 274.94 379.91 261.56"/><polygon class="cls-29" points="275.99 274.64 323.96 274.94 324.89 332.89 274.15 332.89 263.12 301.36 275.99 274.64"/><polygon class="cls-42" points="224.96 264.37 275.99 274.64 274.15 332.89 225.25 320.11 224.96 264.37"/><polygon class="cls-6" points="388.08 253.65 388.08 270.79 324.2 289.3 324.29 267.37 388.08 253.65"/><polygon class="cls-5" points="276.32 267.07 324.29 267.37 324.2 289.3 275.52 289.3 276.32 267.07"/><polygon class="cls-6" points="217.91 260.31 217.32 274.34 275.52 289.3 276.32 267.07 217.91 260.31"/><polygon class="cls-4" points="346.11 239.54 388.08 253.65 323.96 274.94 275.99 274.64 217.91 260.31 269.57 238.84 346.11 239.54"/><polygon class="cls-18" points="370.21 247.65 371.97 203.79 344.59 172.8 327.28 165.18 301.99 164.88 267.85 172.46 250.66 191.04 237.33 215.21 239.51 256.25 308.87 262.01 370.21 247.65"/><polygon class="cls-1" points="370.21 253.2 370.21 247.65 346.11 239.54 269.57 238.84 239.08 251.5 239.51 256.59 257.92 263.98 292.1 270.1 323.6 267.58 351.31 261.56 370.21 253.2"/><polygon class="cls-2" points="239.51 256.59 257.92 263.98 292.1 270.1 323.6 267.58 351.31 261.56 370.21 253.2 347.92 245.75 296.83 243.08 268.14 246.02 239.51 256.59"/><polygon class="cls-3" points="285.09 177.98 263.18 182.23 245.2 213.85 244.16 239.9 250.66 215.97 266.83 185.95 285.09 177.98"/><polygon class="cls-12" points="275.52 249.37 354.56 251.64 328.14 265.86 263.69 260.31 275.52 249.37"/><polygon class="cls-4" points="283.41 206.49 276.14 198.98 286.38 197.44 299.15 198.29 283.41 206.49"/><polygon class="cls-6" points="282.79 209.63 288.25 200.67 299.15 198.29 308.5 225.76 282.34 232.13 282.79 209.63"/><polygon class="cls-30" points="309.64 220.13 302.22 223.07 290.33 226.16 305.89 238.69 309.64 220.13"/><polygon class="cls-30" points="329.74 221.17 317.04 215.7 297.13 220.79 307.72 240.84 329.74 221.17"/><polygon class="cls-43" points="334.45 236.96 341.27 223.07 331.31 217.39 312.52 222.09 328.14 242.39 334.45 236.96"/><polygon class="cls-42" points="322.26 239.39 326.85 228.76 341.27 223.07 344.59 253.65 326.61 261.71 322.26 239.39"/><polygon class="cls-5" points="291.39 233.39 288.25 200.67 276.14 198.98 274.18 219.97 291.39 233.39"/><polygon class="cls-29" points="326.61 261.71 326.85 228.76 312.52 222.09 312.26 229.54 297.13 220.79 297.13 228.76 274.18 219.97 274.18 256.59 326.61 261.71"/><polygon class="cls-5" points="318.05 236.93 318.2 245.31 280.48 245.84 280.24 232.93 318.05 236.93"/><polygon class="cls-6" points="318.11 240.14 318.46 249.16 280.48 245.84 280.3 236.29 318.11 240.14"/><polygon class="cls-4" points="290.02 142.57 287.25 134.16 284.49 135.24 284.18 121.84 277.68 121.49 275.57 113.09 272.96 126.14 278.81 127.69 278.34 144.52 285.95 139.53 290.02 142.57"/><polygon class="cls-4" points="282.55 155.97 278.29 146.22 273.61 148.46 268.89 135.54 264.19 139.72 259.17 131.49 259.32 145.07 267.11 142.94 270.85 156.15 276.87 152.22 282.55 155.97"/><path class="cls-5" d="M281.4,102.11l-1.87-8.65-9.28-2-5.41,6.89,4.77,12.07,9.81-1,2-7.28Zm-4.22-5.62-5.61-1.69L267.83,100l1.87,8.76,6.26-.8,2.85-6.25-1.63-5.17Z"/><polygon class="cls-5" points="282.82 89.14 282.82 91.38 287.69 89.22 288.75 91.01 284.77 95.76 284.19 98.34 292.08 99.24 291.84 95.66 286.95 95.84 291.02 90.67 288.34 86.19 282.82 89.14"/><path class="cls-5" d="M256.23,129.7l-1.87-8.65-8.53-2.14L239.67,126l4.41,11.81,8,.05,4.14-8.12ZM252,124.08l-5.61-1.69-3.73,5.17,1.86,8.76,6.26-.8,2.85-6.25L252,124.1Z"/><polygon class="cls-5" points="255.79 114.31 255.79 116.53 260.65 114.39 261.71 116.18 257.73 120.9 257.15 123.49 265.04 124.39 264.78 120.82 259.91 121.01 263.98 115.82 261.3 111.36 255.79 114.31"/><polygon class="cls-20" points="367.32 215.25 367.32 223.07 351.44 217.39 348.22 205.96 361.91 203.07 367.32 215.25"/><polygon class="cls-20" points="371.41 210.67 376.01 202.12 364.93 194.19 362.54 196.74 371.41 210.67"/><polygon class="cls-19" points="384.44 206.45 376.01 202.12 361.91 203.07 367.32 223.07 382.45 217.39 384.44 206.45"/><polygon class="cls-36" points="376.01 202.12 404.76 195.69 421.53 199.99 415.53 215.25 382.45 217.39 376.01 202.12"/><polygon class="cls-38" points="433.75 168.11 404.76 195.69 415.53 215.25 445.43 195.69 433.75 168.11"/></g><g id="character_4" data-name="character 4"><polygon class="cls-19" points="673.94 180.58 666.17 180.84 660.7 166.49 669.87 161.3 680.73 173.54 673.94 180.58"/><polygon class="cls-20" points="677.62 170.03 666.17 180.84 679.6 187.47 692.36 182 681.12 173.73 677.62 170.03"/><polygon class="cls-19" points="692.1 184.68 685.94 174.94 683.31 167.99 677.38 162.53 675.4 164.31 677.62 170.03 678.06 176.38 689.77 187.47 692.1 184.68"/><polygon class="cls-32" points="736.58 249.81 728.11 261.27 716.3 258.31 707.69 251.34 717.09 215.32 733.45 240.28 736.58 249.81"/><polygon class="cls-33" points="728.11 261.27 717.71 276.06 704.86 273 702.77 269.74 707.69 251.34 728.11 261.27"/><polygon class="cls-34" points="762.76 215.84 717.09 215.32 733.45 240.28 747.59 233.72 762.76 215.84"/><polygon class="cls-35" points="733.45 240.28 737.75 258.31 749.63 263.23 761.52 258.9 766.45 234.89 767.41 225.14 762.76 215.84 733.45 240.28"/><polygon class="cls-32" points="737.75 258.31 741.57 274.55 748.7 278.24 758.04 277.61 761.52 258.9 737.75 258.31"/><polygon class="cls-36" points="741.57 274.55 736.35 286.73 747.16 287.9 758.33 286.73 758.04 277.61 741.57 274.55"/><polygon class="cls-36" points="702.77 269.74 687.88 283.77 705.16 284.94 717.43 283.77 717.71 276.06 702.77 269.74"/><rect class="cls-17" x="736.35" y="286.73" width="21.98" height="3.83" transform="translate(1494.68 577.3) rotate(180)"/><rect class="cls-17" x="687.88" y="283.77" width="29.55" height="3.83" transform="translate(1405.32 571.37) rotate(180)"/><polygon class="cls-37" points="766.7 151.82 739.93 179.51 732.47 150.59 750.16 147.79 766.7 151.82"/><polygon class="cls-19" points="733.08 83.76 726.77 76.93 719.59 75.58 709.17 132.81 728.03 137.6 750.46 139.14 761.35 100.25 763.53 81.92 748 80.04 733.08 83.76"/><polygon class="cls-20" points="736.97 141.7 709.17 132.81 750.46 140.32 758.84 98.47 763.53 81.92 772.73 93.16 770.13 101.88 763.74 112.57 766.62 113.35 768.24 116.46 771.63 114.01 774.37 108.08 777.41 112.75 781.11 114.82 775.63 119.34 773.14 124.84 771.55 128.29 770.74 135.23 766.8 152.22 732.47 150.59 736.97 141.7"/><polygon class="cls-21" points="716.56 92.22 713.87 72.31 724.07 73.97 716.56 92.22"/><polygon class="cls-38" points="714.23 156.55 699.92 182.7 702.66 201.49 721.15 193.16 721.63 171.83 714.23 156.55"/><polygon class="cls-36" points="701.67 179.51 685.94 174.94 679.6 187.47 702.66 201.49 701.67 179.51"/><polygon class="cls-20" points="752.16 96.13 741.38 102.53 734.11 115.23 734.97 103.42 736.97 97.04 741.38 94.48 748.28 90.32 752.16 96.13"/><polygon class="cls-20" points="729.2 91.73 731.04 96.22 731.32 100.89 728.97 106.6 718.57 89.68 723.48 84.17 729.2 91.73"/><polygon class="cls-21" points="741.38 94.48 748.47 91.93 752.16 96.13 754.58 94.29 749.54 87.83 739.65 91.48 741.38 94.48"/><polygon class="cls-21" points="731.04 89.28 723.48 84.17 718.57 89.68 721.43 91.93 724.81 88.05 729.2 91.73 731.04 89.28"/><polygon class="cls-22" points="731.04 96.22 727.57 113.6 730.34 115.47 734.11 115.23 736.97 97.04 731.04 96.22"/><polygon class="cls-19" points="768.24 116.46 766.8 119.73 773.14 124.84 781.11 114.82 774.37 108.08 768.24 116.46"/><polygon class="cls-24" points="733.08 83.76 713.87 72.31 734.31 59.44 735.89 72.77 733.08 83.76"/><polygon class="cls-25" points="733.08 83.76 734.31 59.44 787.45 79.47 775.99 82.97 763.53 81.92 733.08 83.76"/><polygon class="cls-24" points="787.45 79.47 789.49 110.53 780.22 102.7 772.73 93.16 763.53 81.92 787.45 79.47"/><polygon class="cls-21" points="772.73 93.16 763.74 112.57 768.24 116.46 774.37 108.08 781.11 114.82 789.49 110.53 772.73 93.16"/><polygon class="cls-23" points="777.43 115.23 774.98 112.78 771.91 117.89 777.43 115.23"/><polygon class="cls-23" points="773.14 124.84 768.64 121.16 770.66 135.55 773.14 124.84"/><polygon class="cls-23" points="727.57 113.6 730.43 118.3 734.11 115.23 727.57 113.6"/><polygon class="cls-36" points="766.7 151.82 741.47 170.61 755.98 182.15 773.85 193.16 779.93 179.29 784.05 161.3 766.7 151.82"/><polygon class="cls-36" points="732.47 150.59 714.23 156.55 719.79 175.05 730.04 177.24 741.47 170.61 732.47 150.59"/><polygon class="cls-39" points="773.85 193.16 768.89 210.58 762.76 215.84 736.48 218.54 736.35 192.49 741.47 170.61 773.85 193.16"/><polygon class="cls-40" points="741.47 170.61 719.79 175.05 717.09 215.32 736.48 218.54 741.47 170.61"/><path class="cls-26" d="M721.59,98a2.48,2.48,0,1,0,2.48-2.48A2.48,2.48,0,0,0,721.59,98Z"/><path class="cls-26" d="M741.38,102.53a2.48,2.48,0,1,0,2.48-2.48A2.48,2.48,0,0,0,741.38,102.53Z"/><polygon class="cls-23" points="757.53 140.06 709.17 132.81 732.47 143.03 732.47 150.59 757.53 140.06"/><polygon class="cls-36" points="777.81 195.6 762.76 215.84 772.07 226.98 787.53 213.63 777.81 195.6"/><polygon class="cls-19" points="766.45 234.89 772.07 226.98 762.76 215.84 766.45 234.89"/><polygon class="cls-38" points="784.05 161.3 797.51 205.08 787.53 213.63 773.85 193.16 784.05 161.3"/><polygon class="cls-23" points="720.83 120 741.38 122.23 735.19 130.57 724.4 129.34 720.83 120"/><polygon class="cls-41" points="724.07 122.36 737.39 123.59 734.1 128.5 725.89 127.47 724.07 122.36"/><path class="cls-8" d="M864.54,77c1.63,0,23-33,23-33L863,2.8l-76.44,8.82-22,43,22.9,24.88S862.9,77,864.54,77Z"/><polygon class="cls-4" points="783.92 56.98 787.98 52.69 795.68 51.05 794.35 55.88 790.08 56.98 783.92 56.98"/><polygon class="cls-5" points="795.77 67.24 795.64 61.95 797.83 57.1 801.92 56.74 802.1 62.34 795.77 67.24"/><polygon class="cls-11" points="786.87 62.02 787.35 59.54 790.26 57.19 795.64 61.95 794.29 64.71 790.33 67.62 790.15 65.95 786.06 68.93 781.98 68.75 783.33 65.01 787.08 63.87 788.07 61.7 786.87 62.02"/><polygon class="cls-18" points="794.28 58.16 790.94 59.95 788.55 64.89 790.74 64.01 792.88 63.15 795.89 59.09 794.28 58.16"/><polygon class="cls-5" points="790.08 56.98 792.5 54.41 797.22 55.05 798.46 59.15 795.64 61.95 792.75 60.26 790.08 56.98"/><polygon class="cls-6" points="797.37 55.52 798.46 59.15 795.64 61.95 792.75 60.28 797.37 55.52"/><polygon class="cls-5" points="792.5 54.41 801.28 43.64 807.74 45.49 809.48 51.54 798.46 59.15 792.5 54.41"/><polygon class="cls-5" points="807.43 45.4 807.74 45.49 809.48 51.54 798.46 59.15 795.86 57.08 804.78 47.91 807.43 45.4"/><polygon class="cls-13" points="797.49 52.02 798.51 49.13 802.52 48.29 804.76 50.7 803.43 54.05 800.38 55.58 797.71 54.09 797.49 52.02"/><polygon class="cls-44" points="803.45 49.28 804.76 50.7 803.43 54.05 800.38 55.58 798.39 54.46 803.45 49.28"/><polygon class="cls-18" points="799.57 49.82 798.35 52.04 798.51 53.26 800.56 54.59 802.76 53.28 803.48 50.8 802.05 49.31 799.57 49.82"/><polygon class="cls-2" points="799.16 53.67 800.56 54.59 802.76 53.28 803.48 50.8 802.73 50.03 799.16 53.67"/><polygon class="cls-4" points="810.3 41.43 801.28 43.64 804.78 47.91 809.48 51.54 811.81 42.49 810.3 41.43"/><polygon class="cls-29" points="804.78 47.91 809.48 51.54 811.81 42.49 811.06 41.97 811.06 41.97 804.78 47.91"/><polygon class="cls-6" points="815.29 37.97 810.3 41.43 811.81 42.49 815.29 37.97"/><polygon class="cls-3" points="816.71 36.43 823.42 28.89 829.54 27.51 829.45 24.71 838.46 29.09 830.6 34.01 829.93 29.72 824.75 31.03 816.71 36.43"/><polygon class="cls-18" points="841.01 27.15 850.64 21.03 861.95 21.62 867.84 27.92 869.38 34.79 863.71 47.18 858.09 50.64 848.99 49.67 843.95 46.41 839.1 39.6 839.77 31.1 841.01 27.15"/><polygon class="cls-2" points="843.32 29.11 848.36 25.11 852.71 25.03 852.31 28.6 846.34 31.85 843.53 30.77 843.32 29.11"/><polygon class="cls-7" points="843.32 29.11 848.36 25.11 852.71 25.03 852.55 26.47 849.37 26.65 843.66 30.83 843.53 30.77 843.32 29.11"/><polygon class="cls-2" points="840.43 38.71 841.13 34.85 843.66 34.02 843.61 37.36 842.01 40.31 840.43 38.71"/><polygon class="cls-7" points="840.43 38.71 841.13 34.85 843.66 34.02 843.63 35.76 842.1 36.12 841.26 39.55 840.43 38.71"/><polygon class="cls-2" points="845.01 40.9 845.15 42.35 847.81 42.73 851.36 41.22 850.86 36.68 847.9 36.18 845.01 37.97 845.01 40.9"/><polygon class="cls-7" points="845.01 40.9 845.15 42.35 845.87 42.46 845.87 38.58 848.42 37.27 850.98 37.83 850.86 36.68 847.9 36.18 845.01 37.97 845.01 40.9"/><polygon class="cls-2" points="855.29 41.43 861.75 43.2 867.64 40.18 872.88 42.96 877.62 40.39 883.63 40.77 877.09 38.08 872.86 40.97 868.28 37.18 861.13 41.13 855.29 41.43"/><polygon class="cls-2" points="818.61 43.53 824.78 42.96 829.65 46.95 835.64 43.82 848.58 45.92 839.93 40.77 831.53 43.88 827.15 41.61 818.61 43.53"/><polygon class="cls-18" points="869.22 56.67 870.92 56.02 870.92 58.84 868.28 59.02 869.22 56.67"/><polygon class="cls-18" points="860.8 56.28 861.41 56.04 861.41 57.05 860.48 57.12 860.8 56.28"/><polygon class="cls-18" points="829.36 56.4 831.05 55.77 831.05 57.73 829.61 57.78 829.36 56.4"/><polygon class="cls-18" points="828.41 64.28 829.27 63.96 829.27 65.36 827.95 65.45 828.41 64.28"/><polygon class="cls-18" points="797.72 31.33 798.56 31.01 798.56 32.41 797.26 32.5 797.72 31.33"/><polygon class="cls-18" points="866.74 14.82 867.6 14.5 867.6 15.92 866.28 16 866.74 14.82"/><polygon class="cls-8" points="792.22 100.52 812.8 76.25 833.6 75.25 792.22 100.52"/></g><g id="rocket"><polygon class="cls-10" points="547.12 326.14 530.55 310.36 594.82 278.53 629.28 293.37 585.27 328.61 554.4 332.03 547.12 326.14"/><polygon class="cls-1" points="566.68 332.03 559.06 337.48 530.55 321.67 530.55 310.36 559.06 326.14 566.68 332.03"/><polygon class="cls-5" points="626.32 257.16 594.26 253.55 534.66 273.22 560.52 320.12 625.62 285.99 626.32 257.16"/><polygon class="cls-4" points="626.32 257.16 597.74 243.43 534.66 273.22 552.91 301.94 571.02 285.99 622.27 262.71 626.32 257.16"/><polygon class="cls-17" points="652.26 246.25 620.87 248.99 622.27 262.71 625.62 285.99 652.26 246.25"/><polygon class="cls-6" points="652.26 246.25 597.74 243.43 622.27 262.71 652.26 246.25"/><polygon class="cls-6" points="534.66 273.22 533.5 304.3 560.52 320.12 571.02 285.99 534.66 273.22"/><polygon class="cls-11" points="595.8 288.35 586.56 284.69 579.92 281.94 578.07 310.92 585.27 313.91 592.02 305.31 595.8 288.35"/><polygon class="cls-1" points="598.41 279.64 591.71 276.59 579.92 281.94 586.56 284.69 590.06 309.25 592.02 305.31 598.41 279.64"/><polygon class="cls-8" points="598.41 279.64 600.95 307.52 585.27 315.22 586.56 284.69 598.41 279.64"/><polygon class="cls-8" points="629.28 293.37 559.06 326.14 559.06 337.48 648.22 323.92 629.28 293.37"/><polygon class="cls-17" points="547.84 293.96 538.91 301.94 556.99 310.36 561.16 292.66 547.84 293.96"/><polygon class="cls-17" points="540.1 281.78 538.91 301.94 561.16 292.66 562.25 288.29 540.1 281.78"/><polygon class="cls-5" points="609 258.13 614.38 261.38 603.13 266.12 597.74 263.13 609 258.13"/><polygon class="cls-5" points="593.78 265 599.5 268 593.05 270.38 586.94 267.69 593.78 265"/></g></svg>