<svg xmlns="http://www.w3.org/2000/svg" viewBox="0 0 900 350"><defs><style>.cls-1{fill:#d0cecd;}.cls-2,.cls-35{fill:#cbad2d;}.cls-3{fill:#c4c4c2;}.cls-4,.cls-43{fill:#b38b2e;}.cls-5,.cls-7{fill:#2c2b2b;opacity:0.1;}.cls-14,.cls-15,.cls-16,.cls-19,.cls-20,.cls-21,.cls-22,.cls-35,.cls-36,.cls-37,.cls-43,.cls-44,.cls-45,.cls-46,.cls-47,.cls-48,.cls-49,.cls-5,.cls-59,.cls-60,.cls-61,.cls-62,.cls-63,.cls-64,.cls-65,.cls-66,.cls-67,.cls-68,.cls-69,.cls-70,.cls-71,.cls-72{fill-rule:evenodd;}.cls-29,.cls-47,.cls-6,.cls-65{fill:#2b2c2b;}.cls-47,.cls-6{fill-opacity:0.1;}.cls-8{fill:#dddddc;}.cls-20,.cls-9{fill:#ececeb;}.cls-10{fill:#ba8e2d;}.cls-11,.cls-64{fill:#9c782c;}.cls-12,.cls-14{fill:#e1a940;}.cls-13,.cls-46{fill:#9b9fa0;}.cls-15,.cls-33{fill:#f0bc67;}.cls-16,.cls-52{fill:#c2977a;}.cls-17{fill:#ab913c;}.cls-18{fill:#8c7c2f;}.cls-19,.cls-26{fill:#66493b;}.cls-21,.cls-31{fill:#e4c723;}.cls-22,.cls-24{fill:#b08c79;}.cls-23{fill:#906a59;}.cls-25{fill:#494749;}.cls-27{fill:#6f7273;}.cls-28{fill:#b89d8d;}.cls-30,.cls-61{fill:#fff;}.cls-32,.cls-60{fill:#836528;}.cls-34,.cls-44{fill:#bc8f2d;}.cls-36,.cls-39{fill:#c18f7c;}.cls-37,.cls-41{fill:#fbe3d4;}.cls-38{fill:#f4cab2;}.cls-40{fill:#f3d65c;}.cls-42{fill:#fff0e8;}.cls-45{fill:#b0b0b0;}.cls-48,.cls-51{fill:#8a6651;}.cls-49,.cls-54{fill:#debca4;}.cls-50,.cls-59{fill:#eaeceb;}.cls-53{fill:#484749;}.cls-55{fill:#4f5353;}.cls-56{fill:#4f5253;}.cls-57,.cls-69{fill:#e8c9b6;}.cls-58{fill:#2a2a2a;}.cls-62,.cls-73{fill:#755924;}.cls-63{fill:#cbcac8;}.cls-66{fill:#7c7b7b;}.cls-67{fill:#5d5d5d;}.cls-68{fill:#494849;}.cls-70{fill:#474748;}.cls-71{fill:#959494;}.cls-72{fill:#383938;}</style></defs><title>explorers_Entertainer_ESFP_introduction</title><g id="ILLUSTRATION_copy_2" data-name="ILLUSTRATION copy 2"><g id="wall_copy_2" data-name="wall copy 2"><polygon class="cls-1" points="486.16 82.88 503.68 68.25 672.86 39.65 897.56 60.35 887.96 280.25 488.17 241.88 486.16 82.88"/><polygon class="cls-2" points="486.16 82.88 503.22 30.38 900 1.25 897.56 60.35 503.68 68.25 486.16 82.88"/><polygon class="cls-3" points="4.01 60.25 351.17 47.58 503.68 68.25 503.22 248.88 21.07 329.25 4.01 60.25"/><polygon class="cls-4" points="0 0 503.22 30.38 503.68 68.25 4.01 60.25 0 0"/></g><g id="shadows_copy_2" data-name="shadows copy 2"><polygon class="cls-5" points="284.62 332.25 221.16 327.58 230.1 325.58 155.85 314.58 47.16 275.25 18.39 289.25 21.07 329.25 45.82 340.25 134.45 350 159.3 341.38 208.11 345.17 284.62 332.25"/><polygon class="cls-6" points="462.37 325.72 402.41 315.19 337.62 323.14 381.53 335.59 462.37 325.72"/><polygon class="cls-6" points="462.88 284.92 369.73 306.75 666.22 334.25 779.6 286.92 730.43 281.25 462.88 284.92"/><polygon class="cls-6" points="738.46 315.75 817.73 310.25 876.92 325.75 809.2 338.75 738.46 315.75"/></g><g id="poster_copy_2" data-name="poster copy 2"><polygon class="cls-7" points="86.29 127.75 50.17 99.25 42.14 216.25 133.44 207.75 131.94 180.25 86.29 127.75"/><polygon class="cls-8" points="84.28 140.75 51.17 184.25 56.35 205.42 145.15 199.58 140.97 172.42 84.28 140.75"/><polygon class="cls-9" points="50.17 99.25 51.17 184.25 140.97 172.42 138.96 99.25 50.17 99.25"/><polygon class="cls-2" points="67.73 129.58 61.2 117.58 70.4 117.42 72.58 109.08 82.27 114.42 86.62 107.92 91.3 121.42 67.73 129.58"/><polygon class="cls-8" points="62.54 142.25 130.77 141.25 130.94 146.58 62.38 147.08 62.54 142.25"/><polygon class="cls-8" points="62.54 154.42 130.77 153.42 130.94 158.75 62.38 159.25 62.54 154.42"/><polygon class="cls-8" points="62.88 167.08 131.1 166.08 131.27 171.42 62.71 171.92 62.88 167.08"/><polygon class="cls-1" points="66.09 188.57 134.24 185.1 134.6 190.42 66.1 193.41 66.09 188.57"/><polygon class="cls-8" points="98.83 116.25 129.26 116.42 128.93 121.08 98.5 120.42 98.83 116.25"/></g><g id="left_table_copy_2" data-name="left table copy 2"><polygon class="cls-10" points="178.59 315.13 177.72 325.5 164.67 324.75 161.7 317.25 178.59 315.13"/><polygon class="cls-11" points="52.67 317.42 56.52 332.58 71.07 329.08 75.58 313.92 52.67 317.42"/><polygon class="cls-12" points="107.19 314.58 132.44 337.75 144.6 334.58 146.15 325.92 178.09 316.25 177.72 325.5 182.18 324.22 205.52 294.25 197.49 273.58 110.53 294.92 107.19 314.58"/><polygon class="cls-10" points="43.31 284.42 44.48 331.92 56.52 332.58 59.53 323.75 115.38 326.92 117.56 336.58 132.44 337.75 132.44 307.25 43.31 284.42"/><polygon class="cls-3" points="98.83 287.75 132.44 307.25 209.2 293.75 214.21 259.92 123.24 259.92 98.83 287.75"/><polygon class="cls-13" points="135.28 259.58 133.94 271.75 132.44 307.25 34.11 297.75 42.31 263.58 135.28 259.58"/><polygon class="cls-9" points="42.31 263.58 133.94 271.75 210.7 262.75 142.98 253.75 42.31 263.58"/><polygon class="cls-7" points="91.3 264 118.77 259.63 146.36 260.25 151.13 267.25 173.83 282.25 175.33 287.25 138.63 293.75 140.97 270.88 138.46 268.75 131.44 268.13 91.3 264"/></g><g id="bill_copy_2" data-name="bill copy 2"><polygon class="cls-14" points="141.97 268.38 140.97 270.88 143.6 289.25 177.59 284.69 172.01 266.31 141.97 268.38"/><polygon class="cls-15" points="120.65 265.5 140.97 270.88 172.01 266.31 154.14 261.63 120.65 265.5"/><polygon class="cls-16" points="154.05 279.26 149.77 279.04 150.48 278.07 153.34 278.07 152.13 276.46 150.85 276.52 150.6 275.12 149.55 275.12 149.44 276.68 147.41 278.7 148.5 280.31 151.76 280.31 151.87 281.36 148.5 281.85 148.68 283.34 151.03 283.2 151.12 284.5 152.85 284.39 152.26 283.12 152.96 283.08 154.05 279.26"/><polygon class="cls-16" points="154.2 277.43 155.25 275.04 158.74 274.82 159.71 278.29 157.39 280.76 160.2 280.54 160.31 281.96 156.26 282.89 155.7 280.46 157.76 277.99 157.12 276.46 155.4 277.55 154.2 277.43"/><path class="cls-16" d="M164.34,275.45l-1.47-1.38-2.21.2-.61,3.41.61,2.27,2.09,1.78,1.84-.32.94-3Zm-.9,4-1.1-.28-.65-1.66.45-.94h.53l.77.61.37,1.5Z"/><path class="cls-16" d="M170.23,274.59l-1.47-1.38-2.21.2-.61,3.41.61,2.27,2.09,1.78,1.84-.32.94-3Zm-.9,4-1.1-.28-.65-1.66.44-.94h.54l.77.61.37,1.5Z"/><polygon class="cls-16" points="141.66 267.84 140.06 267.03 137.62 267.69 141.22 269.38 145.45 268.56 144.07 267.59 141.66 267.84"/><path class="cls-16" d="M144.18,266l1.35,2.53,1.6-.31-.19-.75,1.38-.28,1,.59,2.28-.53-4.26-2Zm2.47.86-.16-.54.78-.27.58.56Z"/><polygon class="cls-16" points="154.53 264.5 153.35 263.94 149.14 264.81 150.5 265.53 151.58 265.28 153.21 266.66 155.31 266.19 152.96 264.86 154.53 264.5"/><polygon class="cls-16" points="159.78 264.48 158.22 264.95 157.7 264.69 159.08 264.25 158.29 263.86 157.01 264.31 156.58 264.06 157.51 263.56 156.76 263.2 154.5 263.72 158 265.7 160.97 265.05 159.78 264.48"/></g><g id="bottle_copy_2" data-name="bottle copy 2"><polygon class="cls-17" points="111.6 225.35 113.84 220.42 118.27 221.88 117.81 228.67 111.54 230.22 111.6 225.35"/><polygon class="cls-18" points="109.87 231.88 108.72 228.67 109.24 221.62 113.84 220.42 113.64 228.57 109.87 231.88"/><polygon class="cls-2" points="116.66 244.27 122.53 236.81 117.81 228.67 113.64 228.57 104.72 240.38 116.66 244.27"/><polygon class="cls-17" points="104.92 242.66 100.67 236.35 108.72 228.67 113.64 228.57 109.24 236.88 104.92 242.66"/><polygon class="cls-17" points="106.19 245.41 110.88 265.25 123.13 262.5 122.53 236.81 109.24 236.88 106.19 245.41"/><polygon class="cls-18" points="100.67 236.35 100.7 263.36 111.14 265.25 109.24 236.88 100.67 236.35"/><polygon class="cls-2" points="112 244.75 120.85 244.27 120.74 251.38 113.2 251.95 112 244.75"/><polygon class="cls-17" points="135.68 226.35 137.92 221.42 141.72 222.68 141.89 229.67 135.62 231.22 135.68 226.35"/><polygon class="cls-18" points="133.95 232.88 132.8 229.67 131.44 222.63 137.92 221.42 137.72 229.57 133.95 232.88"/><polygon class="cls-2" points="140.74 245.27 146.61 237.81 141.89 229.67 137.72 229.57 132.46 241.48 140.74 245.27"/><polygon class="cls-17" points="129 243.66 124.75 237.35 132.8 229.67 137.72 229.57 137.29 237.7 129 243.66"/><polygon class="cls-17" points="130.27 246.41 134.96 266.25 148.5 263.38 146.61 237.81 137.29 237.7 130.27 246.41"/><polygon class="cls-18" points="124.75 237.35 123.54 265.25 135.22 266.25 137.29 237.7 124.75 237.35"/><polygon class="cls-2" points="138.38 245.78 145.69 245.27 146.11 253 138.04 252.95 138.38 245.78"/></g><g id="right_character_copy_2" data-name="right character copy 2"><polygon class="cls-19" points="757.76 157.03 753.09 161.38 737.49 158.99 744.22 136.53 754.94 142.98 757.76 157.03"/><polygon class="cls-20" points="761.4 140.16 757.22 115.99 732.97 115.66 728.29 139.99 741.44 152.74 740.54 172.66 733.43 175.66 740.84 179.92 754.13 177.41 746.26 172.14 746.16 153.53 761.4 140.16"/><polygon class="cls-21" points="756.38 138.82 747.05 147.17 740.33 146.99 733.14 138.49 734.7 129.88 754.51 130 756.38 138.82"/><polygon class="cls-22" points="755.35 159.25 760.47 152.63 754.94 142.98 744.72 139.91 743.72 144.66 748.11 146.66 750.69 153.84 755.35 159.25"/><polygon class="cls-22" points="742.17 140.82 731.55 143.16 737.49 158.99 743.34 156.99 742.17 140.82"/><polygon class="cls-4" points="784.24 311.89 769.38 316.13 769.25 320.37 800.6 320.54 800.77 316.38 784.24 311.89"/><polygon class="cls-2" points="790.42 302.77 786.94 306.66 769.38 316.13 800.77 316.38 800.6 308.89 790.42 302.77"/><polygon class="cls-4" points="838.09 322.36 829.46 324.68 829.46 328.51 850.9 328.65 850.99 324.86 838.09 322.36"/><polygon class="cls-23" points="878.88 233.14 873.27 233.75 870.45 243.48 873.47 246.68 877.75 237.68 877.3 245.88 880.56 256 889.09 251.38 889.81 238.84 878.88 233.14"/><polygon class="cls-24" points="876.04 222.41 882.19 227.42 889.9 238.88 877.3 245.88 872.1 231.15 876.04 222.41"/><polygon class="cls-24" points="846.07 191.34 856.36 170.69 874.28 202.5 865.79 213.81 861.15 213.29 849.93 201.26 846.07 191.34"/><polygon class="cls-23" points="806.75 179.93 802.63 168.71 766.94 171.43 783.79 187.81 803.05 190.56 806.75 179.93"/><polygon class="cls-4" points="804.3 192.84 799.57 199.59 807.21 227.38 825.69 235.37 849.94 227.31 851.47 202.11 804.3 192.84"/><polygon class="cls-2" points="812.07 169.12 802.63 168.71 799.57 199.59 851.47 202.11 856.36 170.69 846.85 170.13 819.67 179.3 812.07 169.12"/><polygon class="cls-24" points="812.07 169.12 811.98 188.77 838.61 189.56 846.85 170.13 844.01 169.83 816.9 169.12 812.07 169.12"/><polygon class="cls-25" points="844.01 169.83 856.36 170.69 867.24 130.41 860.29 127.27 850.93 133.55 840.23 147.7 844.01 169.83"/><polygon class="cls-23" points="844.01 169.83 834.48 173.87 826.4 168.54 837.24 109.48 840.57 108.33 842.28 111.46 848.62 145.18 844.01 169.83"/><polygon class="cls-26" points="850.97 136.2 848.62 145.18 842.92 133.13 847.35 132.96 850.97 136.2"/><polygon class="cls-25" points="782.01 101.13 792.94 131.01 795.18 120.65 790.97 106.83 789.87 99.84 782.01 101.13"/><polygon class="cls-27" points="803.49 76.15 782.01 101.13 790.97 106.83 805.08 100.58 812.66 94.92 821.05 85.59 812.26 79.94 803.49 76.15"/><polygon class="cls-27" points="838.94 76.12 821.14 79.43 813.6 79.74 812.93 87.07 812.74 99.03 821.67 103.47 837.59 92.72 838.94 76.12"/><polygon class="cls-24" points="842.92 133.13 843.68 127.58 844.01 114.41 855.46 122.25 850.97 136.2 842.92 133.13"/><polygon class="cls-26" points="851.14 125.81 852.29 129.75 846.42 131.85 848.67 124.94 851.14 125.81"/><polygon class="cls-25" points="864.6 95.32 838.94 76.12 821.67 103.47 828.61 110.49 837.24 109.48 842.28 111.46 857.24 110.47 864.6 95.32"/><polygon class="cls-26" points="822.07 178.71 834.48 173.87 839.25 158.71 834.69 157.48 798 156 813.14 162.36 822.07 178.71"/><polygon class="cls-25" points="843.62 127.66 839.42 109.81 846 108.08 843.62 127.66"/><polygon class="cls-25" points="803.49 76.15 812.66 94.92 821.67 79.43 803.49 76.15"/><polygon class="cls-24" points="837.24 109.48 834.69 157.48 794.94 158.51 790.97 106.83 812.66 94.92 821.67 103.47 837.24 109.48"/><polygon class="cls-26" points="812.24 132.17 809.25 133.18 812.25 136.68 815.26 133.06 812.24 132.17"/><path class="cls-23" d="M795.76,114.8l3.45-.87,7.93,2.63,1.82,2.6,2.53,7.24-2.08,4s-5.82-9.27-5.86-9.65S795.76,114.8,795.76,114.8Z"/><polygon class="cls-23" points="815.26 119.31 813.17 124.88 815.43 132.98 822.8 121.72 830.33 115.06 826.06 113.86 816.38 116.64 815.26 119.31"/><polygon class="cls-28" points="808.96 119.16 815.26 119.31 815.26 133.06 809.25 133.18 808.96 119.16"/><polygon class="cls-25" points="796.09 112.53 795.66 114.77 807.14 116.56 807.31 112.89 796.09 112.53"/><polygon class="cls-25" points="816.71 112.89 816.22 116.72 830.33 115.06 829.39 112.72 816.71 112.89"/><path class="cls-29" d="M803,118.79a2.36,2.36,0,1,1-2.33,2.39A2.36,2.36,0,0,1,803,118.79Z"/><path class="cls-29" d="M822.61,118.54a2.36,2.36,0,1,1-2.33,2.38A2.36,2.36,0,0,1,822.61,118.54Z"/><polygon class="cls-27" points="867.24 130.41 864.6 95.32 839.42 109.81 851.7 133.82 867.24 130.41"/><polygon class="cls-30" points="812.24 141.26 804.2 141.67 812.69 147.93 823.23 141.51 812.24 141.26"/><polygon class="cls-31" points="802.06 141.59 812.93 150.59 825.04 141.31 821.88 141.35 812.89 146.78 804.69 141.39 802.06 141.59"/><polygon class="cls-32" points="812.43 139.72 801.94 141.55 812.73 142.44 825.04 141.31 812.43 139.72"/><polygon class="cls-24" points="756.27 167.38 765.18 185.04 783.79 187.81 765.3 160.38 759.85 160.82 756.27 167.38"/><polygon class="cls-23" points="873.27 233.75 861.15 213.29 874.28 202.5 882.19 227.42 873.27 233.75"/><polygon class="cls-23" points="851.6 279.74 847.69 313.12 846.03 323.64 838.3 323.72 835.12 313 830.32 278.94 851.6 279.74"/><polygon class="cls-26" points="850.68 288.02 850.6 288.19 832.03 290.92 829.8 279.28 838.14 280.64 850.68 288.02"/><polygon class="cls-23" points="820.01 271.41 800.6 308.89 786.92 306.68 795.5 272.86 820.01 271.41"/><polygon class="cls-26" points="817.26 277.74 811.42 287.67 794.91 275.18 794.91 275.18 801.07 274.52 817.26 277.74"/><polygon class="cls-33" points="807.21 227.38 849.94 227.31 854.67 250.25 827.83 238.98 807.21 227.38"/><polygon class="cls-12" points="794.83 275.18 841.96 267.64 854.67 250.25 807.21 227.38 794.83 275.18"/><polygon class="cls-34" points="794.83 275.18 850.85 288.1 854.67 250.25 794.83 275.18"/><polygon class="cls-2" points="829.46 324.68 835.12 313 847.65 313.43 851.01 324.92 829.46 324.68"/><polygon class="cls-35" points="760.47 152.63 753.09 161.38 756.27 167.38 765.3 160.38 760.47 152.63"/></g><g id="midle_character_copy_2" data-name="midle character copy 2"><polygon class="cls-36" points="666.71 159.31 673.58 163.83 690.8 161.63 682.8 134.96 670.07 142.61 666.71 159.31"/><polygon class="cls-20" points="665.8 140.08 669.99 115.92 694.23 115.58 698.91 139.92 685.76 152.67 686.67 172.59 693.77 175.58 686.36 179.84 673.08 177.33 680.95 172.06 681.04 153.45 665.8 140.08"/><polygon class="cls-21" points="670.82 138.75 680.16 147.09 686.87 146.92 694.07 138.42 691.18 124.13 673.24 125 670.82 138.75"/><polygon class="cls-37" points="669.84 160.94 664.55 152.25 669.63 143.56 680.66 139.44 682.61 143.56 676.78 149.56 675.11 155.51 669.84 160.94"/><polygon class="cls-37" points="683.86 139.67 695.9 142.94 690.8 161.63 684.37 158.17 683.86 139.67"/><polygon class="cls-11" points="616.99 173.25 626.02 150 653.68 172.75 635.55 193.5 625.27 189.25 616.99 173.25"/><polygon class="cls-11" points="585.89 166.5 563.31 151.5 552.53 155.75 538.73 188.5 562.06 198.75 585.89 166.5"/><polygon class="cls-4" points="574.85 154.5 558.55 188.5 560.05 216.5 622.26 216.25 625.27 189.25 574.85 154.5"/><polygon class="cls-2" points="571.4 148.08 563.31 151.5 558.55 188.5 625.27 189.25 626.02 150 618.81 147.25 571.4 148.08"/><polygon class="cls-31" points="581.37 143.75 571.4 148.08 570.4 167.5 585.84 155.41 609.78 167.5 618.81 147.25 610.38 144.28 581.37 143.75"/><g id="Layer_1"><polygon class="cls-12" points="553.16 53.64 551.75 67.3 558.73 67.14 570.85 59.76 571.87 48.97 569.97 43.45 553.16 53.64"/><polygon class="cls-10" points="610.69 51.96 569.97 43.45 569.58 58.67 568.35 61.42 599.9 70.18 612.15 70.59 610.69 51.96"/><polygon class="cls-10" points="636.33 89.58 631.52 80.37 618.86 78.02 608.22 85.12 608.87 92.58 613.22 101.53 636.33 89.58"/><polygon class="cls-10" points="525.43 89.91 551.69 105.46 551.42 99.59 551.79 82.35 547.54 79.03 525.43 89.91"/><polygon class="cls-12" points="525.43 89.91 548.83 87.51 550.68 78.85 549.57 75.34 544.95 72.12 525.43 89.91"/><polygon class="cls-38" points="593.14 119.97 577.14 139.33 585.84 155.41 610.38 144.28 612.34 119.79 609.71 111.86 595.81 79.28 592.4 92.58 593.14 119.97"/><polygon class="cls-39" points="604.34 114.07 612.34 119.79 612.79 114.88 609.71 111.86 604.34 114.07"/><polygon class="cls-25" points="595.34 85.53 598.87 107.31 604.06 107.8 613.22 101.53 612.2 86.69 610.17 81.98 592.68 78.39 595.34 85.53"/><polygon class="cls-12" points="612.15 70.59 596.66 77 595.34 85.53 612.2 86.69 631.52 80.37 612.15 70.59"/><polygon class="cls-2" points="563.26 62.99 569.58 58.67 612.15 70.59 603.6 72.3 564.19 73.68 561.88 71.47 563.26 62.99"/><polygon class="cls-40" points="551.01 73.66 554.85 73.87 569.26 74.05 569.58 58.67 551.75 67.3 551.01 73.66"/><polygon class="cls-10" points="544.95 72.12 612.15 70.59 595.34 85.53 588.61 90.21 552.35 89.36 548.83 87.51 544.95 72.12"/><polygon class="cls-41" points="549.4 140.11 569.97 140.01 581.45 145.11 594.92 139.7 595.34 85.53 548.83 87.51 549.4 140.11"/><polygon class="cls-38" points="553.13 101.22 555.53 98.77 564.6 100.99 564.96 103.69 566.63 110.3 562.93 114.45 558.96 105.04 553.13 101.22"/><polygon class="cls-38" points="571.9 103.74 569.69 109.84 572 113.99 578.01 104.58 585.41 100.43 582.18 97.39 572.28 101.08 571.9 103.74"/><polygon class="cls-39" points="566.36 112.88 562.93 114.45 567.75 118.69 572.37 114.72 566.36 112.88"/><polygon class="cls-42" points="565.06 103.69 562.93 114.45 572.37 114.72 571.9 103.74 565.06 103.69"/><polygon class="cls-25" points="553.13 97.55 553.05 101.45 564.6 100.99 564.25 98.56 553.13 97.55"/><polygon class="cls-25" points="572.63 98.41 572.28 101.08 585.41 100.43 585.47 96.84 572.63 98.41"/><path class="cls-29" d="M559,102.92a2.12,2.12,0,1,1-2.13,2.12A2.12,2.12,0,0,1,559,102.92Z"/><path class="cls-29" d="M579.12,102.19a2.12,2.12,0,1,1-2.12,2.12A2.12,2.12,0,0,1,579.12,102.19Z"/><polygon class="cls-41" points="613.22 101.53 603.88 101.25 604.34 114.07 612.79 114.88 613.22 101.53"/><polygon class="cls-39" points="607.3 104.39 611 104.48 607.58 110.38 607.3 104.39"/></g><polygon class="cls-41" points="557.75 121.98 579.52 121.12 574.59 131.66 563.15 131.89 557.75 121.98"/><polygon class="cls-39" points="558.06 122.45 580.62 122.13 574.59 131.97 564.49 131.89 558.06 122.45"/><polygon class="cls-30" points="561.25 124.09 577.04 123.72 575.06 127.31 563.54 127.42 561.25 124.09"/><polygon class="cls-39" points="569.97 140.01 594.92 139.7 601.4 139.38 585.84 155.41 569.97 140.01"/><polygon class="cls-38" points="664.55 152.25 635.55 193.5 655.02 202.75 673.58 163.83 664.55 152.25"/></g><g id="table_copy_2" data-name="table copy 2"><polygon class="cls-43" points="430.27 286.92 438.96 306.25 456.35 302.25 472.07 272.58 430.27 274.25 430.27 286.92"/><polygon class="cls-44" points="731.6 283.58 734.78 295.25 714.72 293.58 701.34 275.92 736.62 271.25 731.6 283.58"/><polygon class="cls-14" points="760.53 229.75 752.51 288.92 734.78 295.25 729.77 279.92 683.78 295.5 678.93 313.42 657.69 321.25 626.25 260.58 760.53 229.75"/><polygon class="cls-44" points="411.87 248.92 425.54 306.29 438.96 306.25 444.65 284.58 619.9 297.92 624.58 317.92 657.69 321.25 661.03 245.92 411.87 248.92"/><polygon class="cls-45" points="672.41 220.58 776.34 218.75 775.25 250.92 659.87 282.58 637.62 237.25 672.41 220.58"/><polygon class="cls-46" points="524.25 215.75 407.43 229.06 398.83 266.58 659.87 282.58 661.7 242.25 524.25 215.75"/><polygon class="cls-20" points="407.43 229.06 661.7 242.25 776.34 218.75 568.9 205.25 407.43 229.06"/><polygon class="cls-47" points="488.88 228.5 550.08 234.25 565.89 229.92 625.08 236.92 643.48 229.92 663.88 232.25 701.34 224.75 654.85 220.25 639.8 224.92 539.8 219.58 488.88 228.5"/></g><g id="hand_of_middle_character_copy_2" data-name="hand of middle character copy 2"><polygon class="cls-38" points="592.24 207.75 599.94 198.92 613.61 206 612.48 216.42 598.26 220.42 592.24 207.75"/><polygon class="cls-41" points="575.35 204.92 580.87 200.5 599.94 198.92 598.26 220.42 578.87 214 575.35 204.92"/><polygon class="cls-38" points="538.73 188.5 580.87 200.5 578.87 214 537.92 209.67 538.73 188.5"/></g><g id="food_copy_2" data-name="food copy 2"><polygon class="cls-11" points="568.31 220.33 572.58 215.92 530.02 210.88 509.53 213.58 551.17 226.42 568.31 220.33"/><polygon class="cls-2" points="555.94 214.33 560.2 208.83 562.88 212.17 562.38 221.08 557.36 222.33 555.94 214.33"/><polygon class="cls-31" points="551.09 209.08 551.34 221.25 559.87 221.25 560.2 208.83 551.09 209.08"/><polygon class="cls-2" points="540.3 212.63 532.9 208.88 530.02 210.88 534.78 221 545.32 221.25 540.3 212.63"/><polygon class="cls-31" points="541.43 222.5 532.9 208.88 542.81 207.38 551.34 221.25 541.43 222.5"/><polygon class="cls-2" points="522.37 212 517.98 209.5 516.6 213 521.24 221.38 528.89 220.75 522.37 212"/><polygon class="cls-31" points="525 220.25 517.98 209.5 523.75 208.13 536.16 220.38 525 220.25"/><polygon class="cls-2" points="530.77 223.25 551.34 221.25 572.58 215.92 570.9 223.42 551.17 229.92 530.77 223.25"/><polygon class="cls-11" points="631.27 222.92 636.79 218.25 596.82 216.25 574.41 221.42 612.54 228.25 631.27 222.92"/><polygon class="cls-31" points="591.97 217.42 589.13 212.58 578.09 222.08 591.64 227.08 591.97 217.42"/><polygon class="cls-2" points="603.85 218.75 599 215.25 589.13 212.58 583.11 223.92 605.35 225.42 603.85 218.75"/><polygon class="cls-31" points="602.34 225.75 599 215.25 612.42 215.56 609.87 224.42 602.34 225.75"/><polygon class="cls-2" points="621.24 226.08 625.58 215.08 612.42 215.56 605.35 225.42 621.24 226.08"/><polygon class="cls-31" points="626.92 223.08 625.58 215.08 618.89 223.75 626.92 223.08"/><path class="cls-2" d="M603,226.25c.67,0,15.89-2.5,15.89-2.5l17.89-5.5-.5,8.67-20.24,4.66Z"/><polygon class="cls-17" points="668.82 177.19 670.42 170.69 676.61 172.46 676.83 181.48 668.74 183.48 668.82 177.19"/><polygon class="cls-18" points="666.59 185.62 665.11 181.48 665.77 172.39 670.42 170.69 671.45 181.35 666.59 185.62"/><polygon class="cls-2" points="675.35 201.6 682.91 191.99 676.83 181.48 671.45 181.35 664.66 196.72 675.35 201.6"/><polygon class="cls-17" points="660.21 199.53 654.72 191.39 665.11 181.48 671.45 181.35 670.89 191.84 660.21 199.53"/><polygon class="cls-17" points="661.84 203.08 667.89 228.67 683.69 225.12 682.91 191.99 670.89 191.84 661.84 203.08"/><polygon class="cls-18" points="654.72 191.39 654.75 226.23 668.22 228.67 670.89 191.84 654.72 191.39"/><polygon class="cls-2" points="672.3 202.26 681.73 201.6 681.58 210.77 671.86 211.51 672.3 202.26"/><polygon class="cls-4" points="574.41 221.42 618.89 223.75 616.05 231.58 577.76 228.92 574.41 221.42"/><polygon class="cls-4" points="509.53 213.58 515.22 227.25 551.17 229.92 551.34 221.25 509.53 213.58"/></g><g id="left_character_copy_2" data-name="left character copy 2"><polygon class="cls-48" points="272.03 193.5 282.88 199.4 293.35 196.13 285.58 173 274.86 179.44 272.03 193.5"/><polygon class="cls-20" points="269.15 178.5 272.58 152.46 296.82 152.13 300.63 178 288.36 189.21 289.26 209.13 296.36 212.13 288.95 216.39 275.67 213.88 283.54 208.6 283.63 189.99 269.15 178.5"/><polygon class="cls-21" points="273.41 175.29 282.75 183.63 289.47 183.46 296.66 174.96 295.65 171.08 274.08 171.08 273.41 175.29"/><polygon class="cls-49" points="274.67 194.88 270.53 188.38 276.59 178.17 283.82 174 286.2 177.5 281.81 182.83 281.4 188.25 274.67 194.88"/><polygon class="cls-49" points="287.63 177.29 300.63 178 293.35 196.13 286.46 193.46 287.63 177.29"/><polygon class="cls-50" points="262.48 206.4 263.99 195.15 270.76 187.65 282.88 199.4 277.12 206.4 262.48 206.4"/><polygon class="cls-25" points="255.21 84.97 265.12 92.9 252.2 124.72 255.21 84.97"/><polygon class="cls-51" points="233.26 157.03 227.82 168.37 213.59 180.65 189.62 159.53 198.59 150.24 201.6 148.94 216.14 153.47 224.61 153.47 233.26 157.03"/><polygon class="cls-52" points="189.53 167.26 205.67 181.84 213.57 179.82 192.63 158.15 198.65 156.65 216.14 153.47 199.95 153.67 199.89 93.47 191.66 96.47 185.06 123.77 180.96 138.57 189.53 167.26"/><polygon class="cls-51" points="180.96 138.57 188.49 128.22 185.41 125.07 178.69 129.2 180.96 138.57"/><polygon class="cls-53" points="196.54 96.13 186.81 122.22 184.72 116.63 179.67 116.63 175.19 114.22 171.54 97.77 178.3 93.53 192.17 93.53 196.54 96.13"/><polygon class="cls-54" points="185.62 114.19 188.49 128.22 178.69 129.2 175.19 114.22 185.62 114.19"/><polygon class="cls-51" points="182.88 117.05 183.74 123.5 178.51 117.05 182.88 117.05"/><polygon class="cls-55" points="250.59 64.25 265.12 92.9 258.02 95.51 253.99 95.17 245.01 82.54 248.59 71.1 250.59 64.25"/><polygon class="cls-27" points="218.93 81.46 244.5 85.71 248.93 81.8 250.59 64.25 209.72 60.4 209.04 65.61 218.93 81.46"/><polygon class="cls-53" points="220.18 82.82 220.18 77.27 209.72 60.4 179.46 73.84 188.76 80.22 208.36 90.24 214.78 86.05 220.18 82.82"/><polygon class="cls-56" points="210.41 89.96 208.36 86.73 179.08 73.97 171.54 97.77 196.54 96.13 201.77 96.64 210.41 89.96"/><polygon class="cls-54" points="254.21 157.78 198.65 156.65 196.54 96.13 220.18 77.27 248.93 81.8 258.02 95.51 254.21 157.78"/><polygon class="cls-52" points="231.22 110.32 235.83 108.34 236.08 103.9 247.01 102.51 249.5 103.78 234.29 128.95 231.22 110.32"/><polygon class="cls-52" points="225.49 108.09 225.14 127.93 210.14 101.49 214.57 99.33 225.17 103.28 225.49 108.09"/><polygon class="cls-51" points="231 132.4 235.77 127.78 230.53 126.46 225.14 127.93 231 132.4"/><polygon class="cls-57" points="235.83 108.34 225.49 108.09 225.14 127.93 235.77 127.78 235.83 108.34"/><path class="cls-58" d="M239.12,114.23a3.13,3.13,0,1,0,3.12-3.12A3.14,3.14,0,0,0,239.12,114.23Z"/><path class="cls-58" d="M214.4,113.21a3.13,3.13,0,0,0,6.25,0,3.13,3.13,0,0,0-6.25,0Z"/><polygon class="cls-44" points="178.15 234.47 167.61 218.7 156.23 211.79 140.14 214.56 167.5 247.57 174.27 240.27 178.15 234.47"/><polygon class="cls-16" points="170.66 251.06 179.2 259.41 185.65 251.34 181.48 243.31 170.66 251.06"/><polygon class="cls-59" points="167.5 247.57 172.37 252.9 180.38 244.15 182.59 240.27 178.15 234.47 167.5 247.57"/><polygon class="cls-60" points="259.98 205.4 239.2 173.9 235.87 203.49 241.14 217.6 255.85 211.51 259.98 205.4"/><polygon class="cls-59" points="227.82 168.37 215.89 224.78 209.23 179.43 213.57 179.82 216.75 180.86 227.82 168.37"/><polygon class="cls-61" points="215.89 224.78 213.57 179.82 199.15 178.9 189.53 167.26 215.89 224.78"/><polygon class="cls-62" points="236.7 253 226.44 272.63 211.79 271.91 191.19 272.63 183.43 248.29 217 239.17 236.7 253"/><polygon class="cls-43" points="242.83 255.4 236.7 242.93 230.29 259.24 211.79 271.91 215.58 300.15 226.18 321.19 238.03 295.53 242.83 255.4"/><polygon class="cls-60" points="215.58 300.15 219.5 329.39 235.47 319.23 238.03 295.53 215.58 300.15"/><polygon class="cls-43" points="211.79 271.91 196.68 259.9 187.86 237.95 179.15 258.74 181.21 296.78 184.64 334.65 204.54 299.28 211.79 271.91"/><polygon class="cls-60" points="204.54 299.28 181.21 296.78 182.18 324.22 190.66 329.07 197.85 325.32 204.54 299.28"/><polygon class="cls-63" points="227.82 168.37 213.57 179.82 223.69 187.9 227.82 168.37"/><polygon class="cls-59" points="200.17 190.3 213.57 179.82 189.59 167.24 200.17 190.3"/><polygon class="cls-35" points="239.2 173.9 227.82 168.37 215.89 224.78 231.63 216.65 243.36 202.11 239.2 173.9"/><polygon class="cls-35" points="177.87 171.69 173.71 190.22 182.04 205.98 195.26 221.28 215.89 224.78 189.53 167.26 177.87 171.69"/><polygon class="cls-60" points="196.68 259.9 217.56 245.25 221.44 236.13 215.89 224.78 193.41 223.13 178.15 234.47 182.31 254.1 196.68 259.9"/><polygon class="cls-64" points="182.04 205.98 176.21 206.26 175.93 211.51 178.15 234.47 216.25 232.07 215.89 224.78 182.04 205.98"/><polygon class="cls-60" points="167.61 218.7 182.04 205.98 177.87 171.69 140.14 214.56 154.29 216.77 167.61 218.7"/><polygon class="cls-43" points="242 239.9 243.36 202.11 215.89 224.78 216.25 232.07 242 239.9"/><polygon class="cls-64" points="242.83 255.4 242.23 233.47 216.25 232.07 217.56 245.25 230.29 259.24 242.83 255.4"/><polygon class="cls-11" points="197.98 334.04 204.79 336.96 204.47 340.35 179.99 340.74 179.99 337.28 197.98 334.04"/><polygon class="cls-11" points="238.58 327.52 253.92 332.25 253.92 335.34 218.88 334.9 218.88 331.39 238.58 327.52"/><polygon class="cls-2" points="253.92 332.25 235.47 319.23 218.88 324.8 218.88 331.39 253.92 332.25"/><polygon class="cls-2" points="182.18 324.22 179.99 337.28 204.79 336.96 197.85 325.32 182.18 324.22"/><polygon class="cls-4" points="263.99 195.15 242.84 216.9 258.22 230.65 277.2 206.24 263.99 195.15"/><polygon class="cls-25" points="225.74 98.03 210.18 98.9 210.14 101.49 225.17 103.28 225.74 98.03"/><polygon class="cls-25" points="236.15 98.47 236.08 103.9 249.5 103.78 249.69 101.53 236.15 98.47"/><polygon class="cls-51" points="213.61 135.99 229.12 150.9 244.11 136.78 213.61 135.99"/><polygon class="cls-30" points="219.65 138.4 238.53 139.09 229.25 147.22 219.65 138.4"/></g><g id="main_character_copy_2" data-name="main character copy 2"><polygon class="cls-48" points="461.16 170.13 465.93 174.04 481.94 171.04 474.71 149.63 463.99 156.07 461.16 170.13"/><polygon class="cls-20" points="457.52 153.25 461.71 129.08 485.95 128.75 490.63 153.08 477.49 165.83 478.39 185.75 485.49 188.75 478.08 193.01 464.8 190.5 472.67 185.23 472.76 166.62 457.52 153.25"/><polygon class="cls-21" points="462.54 151.92 471.88 160.26 478.6 160.08 485.79 151.58 484.87 143.58 463.71 143.67 462.54 151.92"/><polygon class="cls-16" points="322.57 195.58 311.98 198.38 300.13 188 305.14 178.13 315.68 184.5 322.57 195.58"/><polygon class="cls-48" points="325.58 186.75 315.68 184.5 312.16 198.38 324.58 199.58 333.61 196.92 325.58 186.75"/><polygon class="cls-49" points="336.45 196.42 329.56 190.2 327.26 184.33 319.31 180.25 317.89 183.25 323.08 187.75 322.07 192.17 330.27 196.58 336.45 196.42"/><polygon class="cls-49" points="406.62 166.56 436.7 182.25 448.62 186.13 443.1 198.75 417.18 199.28 407.1 190.69 408.22 176.06 406.62 166.56"/><polygon class="cls-16" points="436.7 182.25 459.66 165 466.22 173.96 443.1 198.75 436.7 182.25"/><polygon class="cls-65" points="349.02 159.63 374.66 156.49 370.88 134.87 349.02 159.63"/><polygon class="cls-66" points="331.6 103.42 319.28 131.66 343.01 121.23 331.6 103.42"/><polygon class="cls-49" points="366.33 173.31 346.23 201.28 353.29 205.88 366.99 201.28 368.51 180.91 366.33 173.31"/><polygon class="cls-16" points="366.99 201.28 329.56 190.2 324.58 199.58 350.05 212.27 366.99 201.28"/><polygon class="cls-49" points="366.21 172.93 406.62 166.56 394 186.91 366.21 172.93"/><polygon class="cls-64" points="366.21 172.93 366.99 201.28 386.39 191.91 393.83 183.94 366.21 172.93"/><polygon class="cls-64" points="393.83 183.94 406.62 166.56 417.18 199.28 400.2 194.25 393.83 183.94"/><polygon class="cls-62" points="366.99 201.28 368.69 230.1 393.9 244.81 407.43 229.06 417.18 199.28 393.83 183.94 366.99 201.28"/><polygon class="cls-65" points="448.82 105.55 450.27 117.74 433.18 119.92 433.53 99.84 448.82 105.55"/><polygon class="cls-67" points="438.84 80.56 455.3 99.59 441.91 106.04 435.58 103.18 430.45 87.15 438.84 80.56"/><polygon class="cls-68" points="455.3 99.59 435.58 103.18 426.6 110.84 433.18 119.92 455.3 99.59"/><polygon class="cls-68" points="319.28 131.66 353.65 140.98 369.69 139.92 366.98 121.21 356.03 108.3 319.28 131.66"/><polygon class="cls-60" points="431.26 108.52 439.98 126.76 427.68 133.42 428.71 126.23 431.96 124.43 429.68 119.52 428.03 115.72 431.26 108.52"/><polygon class="cls-49" points="364.96 124.13 372.88 146.14 383.85 165.78 397.26 164.34 403.42 153.75 427.85 156.94 438.84 80.56 385.18 103.77 364.96 124.13"/><polygon class="cls-16" points="389.07 119.64 387.22 152.81 403.42 153.75 396.17 166.11 396.66 174.08 378.93 171.08 369.69 139.92 370.06 134.06 364.96 124.13 380.69 105.85 389.07 119.64"/><polygon class="cls-16" points="423.24 100.69 421.2 102.91 418.96 118.61 428.1 107.41 431.68 103.13 423.24 100.69"/><polygon class="cls-16" points="415.98 102.14 411.72 98.79 400.1 100.5 409.43 112.38 412.26 123.23 415.98 102.14"/><polygon class="cls-48" points="380.04 131.98 369.69 139.92 364.96 124.13 373.82 111.31 385.34 118.36 380.04 131.98"/><polygon class="cls-69" points="415.98 102.14 421.2 102.91 418.18 124.06 412.26 123.23 415.98 102.14"/><polygon class="cls-48" points="412.26 123.23 414.82 127.24 418.18 124.06 412.26 123.23"/><polygon class="cls-48" points="438.13 85.48 389 122.43 379.28 123.5 381.35 114.32 411.72 98.79 438.84 80.56 438.13 85.48"/><polygon class="cls-67" points="349.92 97.5 345.51 90.62 314.61 88.33 346.65 136.14 359.21 120.4 359.28 109.42 349.92 97.5"/><polygon class="cls-66" points="340.87 103.1 314.61 88.33 356.64 76.55 354.08 92.42 340.87 103.1"/><polygon class="cls-67" points="407.78 61.68 369.54 54.83 340.87 103.1 382.52 83.25 407.78 61.68"/><polygon class="cls-65" points="424.86 95.03 431.68 103.13 423.24 100.69 424.86 95.03"/><polygon class="cls-60" points="394.16 129.06 414.56 128.74 427.1 134.77 411.19 149.7 394.16 129.06"/><polygon class="cls-70" points="404.36 136.76 411.02 133.22 418.42 139.2 414.29 143.17 408.96 142.28 404.36 136.76"/><polygon class="cls-61" points="404.36 136.76 418.42 139.2 422.56 135.23 399.76 131.25 404.36 136.76"/><polygon class="cls-60" points="382.35 117.33 380.04 131.98 359.87 129.27 360.38 125.86 364.96 124.13 375.34 125.36 376.17 119.75 382.35 117.33"/><polygon class="cls-48" points="403.42 153.75 381.63 150.66 396.66 174.08 403.42 153.75"/><polygon class="cls-65" points="359.28 109.42 346.65 136.14 382.35 117.33 359.28 109.42"/><path class="cls-29" d="M429.68,110.31a3.13,3.13,0,1,1-3.61-2.53A3.11,3.11,0,0,1,429.68,110.31Z"/><path class="cls-29" d="M410.34,107.39a3.13,3.13,0,1,1-3.62-2.53A3.13,3.13,0,0,1,410.34,107.39Z"/><polygon class="cls-68" points="447.11 74.06 389.07 119.64 340.87 103.1 390.8 87.43 447.11 74.06"/><polygon class="cls-71" points="447.11 74.06 422.64 52.48 340.87 103.1 447.11 74.06"/><polygon class="cls-72" points="319.28 131.66 369.69 139.92 349.02 159.63 319.28 131.66"/><polygon class="cls-62" points="441.48 322.94 417.96 322.45 416.95 315.45 428.12 315.45 441.48 322.94"/><polygon class="cls-49" points="418.96 298.17 427.18 306.26 442.38 320.01 438.89 321.19 424.85 317.84 419.19 313.83 417.97 307.71 418.96 298.17"/><polygon class="cls-16" points="417.97 307.71 424.85 317.84 445.5 319.34 441.48 322.94 416.95 315.45 417.97 307.71"/><polygon class="cls-64" points="435.07 313.4 431.22 319.81 434.38 320.77 437.59 315.68 435.07 313.4"/><polygon class="cls-52" points="364.21 280.03 368.02 312.53 369.64 322.77 377.16 322.85 376.67 312.55 382.18 281.24 364.21 280.03"/><polygon class="cls-54" points="368.02 312.53 367.18 330.34 381.18 330.17 376.66 312.35 368.02 312.53"/><polygon class="cls-52" points="367.18 330.34 381.18 330.17 373.2 325.72 367.18 330.34"/><polygon class="cls-11" points="366.84 325.72 379.85 325.39 379.33 323.03 367.83 323.41 366.84 325.72"/><polygon class="cls-51" points="365.11 288.09 365.19 288.25 380.48 290.59 382.18 281.24 377.32 280.91 365.11 288.09"/><polygon class="cls-52" points="401.12 278.5 417.97 307.71 427.18 306.26 418.84 273.33 401.12 278.5"/><polygon class="cls-51" points="401.12 278.5 405.16 285.51 419.4 275.59 419.4 275.59 413.41 274.95 401.12 278.5"/><polygon class="cls-40" points="407.43 229.06 368.69 230.1 361.22 251.32 387.36 240.35 407.43 229.06"/><polygon class="cls-31" points="419.48 275.59 373.6 268.25 361.22 251.32 407.43 229.06 419.48 275.59"/><polygon class="cls-2" points="419.48 275.59 364.94 288.17 361.22 251.32 419.48 275.59"/><polygon class="cls-73" points="382.99 331.32 377.93 317.36 379.85 329.39 368.02 329.66 367.88 315.37 365.2 331.67 382.99 331.32"/><polygon class="cls-49" points="463.84 170.92 459.66 165 463.99 156.07 474.21 153 475.21 157.75 470.82 159.19 468.23 166.93 463.84 170.92"/><polygon class="cls-49" points="476.76 153.92 487.38 156.25 481.94 171.04 475.63 169.33 476.76 153.92"/></g></g></svg>