<svg xmlns="http://www.w3.org/2000/svg" viewBox="0 0 900 350"><defs><style>.cls-1{fill:#a3a3a3;}.cls-2{fill:#c4c4c4;}.cls-3{fill:#8ce0dc;}.cls-4{fill:#72cbcc;}.cls-5{fill:#50a9aa;}.cls-6{fill:#1c7678;}.cls-7{fill:#369496;}.cls-8{fill:#5ec0d9;}.cls-9{fill:#73cfe5;}.cls-10{fill:#3aa0ba;}.cls-11{fill:#8f8f8f;}.cls-12,.cls-24{fill:#2b2b2b;}.cls-12,.cls-26{fill-opacity:0.1;}.cls-13{fill:#cececd;}.cls-14{fill:#dddddc;}.cls-15{fill:#ececeb;}.cls-16{fill:#9da1a2;}.cls-17{fill:#835940;}.cls-18{fill:#c09c84;}.cls-19{fill:#a77e62;}.cls-20{fill:#755445;}.cls-21{fill:#926d5a;}.cls-22{fill:#318fa6;}.cls-23{fill:#6f7173;}.cls-25{fill:#51362a;}.cls-26{fill:#070908;}.cls-27{fill:#474747;}.cls-28{fill:#4f5253;}.cls-29{fill:#c3987b;}.cls-30{fill:#8b6651;}.cls-31{fill:#dfbda5;}.cls-32{fill:#e8cab6;}.cls-33{fill:#fff;}.cls-34{fill:#165e60;}.cls-35{fill:#27788c;}.cls-36{fill:#858686;}.cls-37{fill:#99796a;}.cls-38{fill:#c9ad9b;}</style></defs><title>sentinels_Executive_ESTJ_introduction</title><g id="Layer_1" data-name="Layer 1"><g id="Layer_1-2" data-name="Layer_1"><polygon class="cls-1" points="155.14 295.78 142.48 312.66 295.02 350 674.11 350 632.89 331.49 259 276.3 155.14 295.78"/><polygon class="cls-2" points="101.91 238.96 57.77 250.32 142.48 312.66 270.68 290.26 198.31 237.66 101.91 238.96"/><polygon class="cls-3" points="405.37 104.55 414.79 111.69 421.28 101.95 405.37 104.55"/><polygon class="cls-4" points="405.37 104.55 394.01 112.99 411.54 114.29 415.76 108.77 405.37 104.55"/><polygon class="cls-3" points="427.44 96.43 433.61 98.05 429.39 103.25 421.28 101.95 427.44 96.43"/><polygon class="cls-5" points="472.23 108.44 464.77 101.95 455.03 100.65 457.3 107.14 472.23 108.44"/><polygon class="cls-6" points="784.78 182.15 799.71 181.49 806.85 195.46 823.4 187.01 833.14 194.48 841.58 195.13 855.53 208.12 804.58 200 782.84 189.28 784.78 182.15"/><polygon class="cls-5" points="796.47 178.57 788.35 181.82 806.85 195.46 810.1 187.01 807.82 182.79 796.47 178.57"/><polygon class="cls-5" points="833.14 194.48 806.85 195.46 815.61 186.04 823.4 187.01 831.52 188.96 833.14 194.48"/><polygon class="cls-5" points="841.58 189.61 833.14 194.48 855.53 208.12 846.12 191.88 841.58 189.61"/><polygon class="cls-6" points="750.05 162.01 763.36 161.04 779.59 168.83 768.23 186.69 749.08 170.78 750.05 162.01"/><polygon class="cls-7" points="752 154.55 754.92 161.69 774.39 165.91 780.89 161.04 770.83 152.6 757.52 153.57 752 154.55"/><polygon class="cls-3" points="757.52 153.57 772.77 146.75 780.89 161.04 757.52 153.57"/><polygon class="cls-5" points="780.56 168.83 780.89 161.04 754.92 161.69 775.69 169.81 780.56 168.83"/><polygon class="cls-8" points="834.11 134.09 824.05 128.9 828.92 124.68 834.44 125.33 838.66 125.97 848.07 134.09 834.11 134.09"/><polygon class="cls-9" points="839.63 123.38 834.76 123.05 834.44 125.33 848.07 134.09 839.63 123.38"/><polygon class="cls-2" points="801.01 128.25 798.74 126.62 793.22 141.23 768.55 181.17 777.97 192.21 795.17 155.52 801.01 128.25"/><polygon class="cls-3" points="790.62 167.21 788.35 181.82 807.82 182.79 790.62 167.21"/><polygon class="cls-1" points="785.75 189.94 802.96 138.64 801.98 135.72 801.01 128.25 777.97 187.99 777.97 192.21 785.75 189.94"/><polygon class="cls-2" points="817.89 128.25 801.98 135.72 801.33 144.16 818.86 130.84 817.89 128.25"/><polygon class="cls-10" points="801.01 128.25 816.91 132.47 834.44 125.33 820.16 123.38 801.01 128.25"/><polygon class="cls-9" points="801.01 128.25 834.44 125.33 821.78 120.13 809.45 119.81 801.01 128.25"/><polygon class="cls-10" points="805.88 115.26 809.45 119.81 834.44 125.33 844.5 121.75 829.57 116.56 805.88 115.26"/><polygon class="cls-9" points="838.98 108.44 844.5 121.75 805.88 115.26 831.52 107.79 838.98 108.44"/><polygon class="cls-2" points="783.81 113.31 795.82 120.78 796.14 126.95 782.51 115.58 783.81 113.31"/><polygon class="cls-2" points="800.68 101.95 795.82 120.78 799.71 121.11 801.01 115.91 802.96 100.97 800.68 101.95"/><polygon class="cls-1" points="801.01 128.25 801.01 115.91 795.82 120.78 793.22 141.23 801.01 128.25"/><polygon class="cls-10" points="785.75 105.84 772.45 106.82 784.46 117.21 797.12 115.58 785.75 105.84"/><polygon class="cls-9" points="786.73 101.95 772.45 106.82 797.12 115.58 793.54 104.22 786.73 101.95"/><polygon class="cls-10" points="824.7 104.22 804.9 101.62 786.73 101.95 797.12 115.58 835.09 113.96 824.7 104.22"/><polygon class="cls-8" points="794.84 96.43 786.73 101.95 835.09 113.96 824.7 97.4 807.5 93.83 794.84 96.43"/><polygon class="cls-9" points="810.42 88.64 794.84 96.43 824.7 97.4 810.42 88.64"/><polygon class="cls-3" points="807.82 182.79 813.02 186.36 823.4 187.01 818.53 176.95 807.82 182.79"/><polygon class="cls-7" points="807.82 182.79 806.85 195.46 823.4 187.01 807.82 182.79"/><polygon class="cls-6" points="836.71 186.69 823.4 187.01 833.14 194.48 846.12 191.88 836.71 186.69"/><polygon class="cls-3" points="845.15 181.82 823.4 187.01 846.12 191.88 845.15 181.82"/><polygon class="cls-10" points="833.14 135.72 824.7 129.22 848.07 134.09 833.14 135.72"/><polygon class="cls-4" points="433.61 98.05 429.07 102.6 426.47 106.49 438.15 107.79 440.1 103.57 433.61 98.05"/><polygon class="cls-5" points="427.77 110.39 415.76 108.77 423.23 103.25 429.07 102.6 440.1 103.57 427.77 110.39"/><polygon class="cls-4" points="455.03 100.65 446.92 102.27 452.11 108.12 458.6 105.19 455.03 100.65"/><polygon class="cls-1" points="450.81 84.09 443.35 91.23 444 94.81 445.62 95.45 451.46 86.04 450.81 84.09"/><polygon class="cls-10" points="456.33 88.96 446.59 83.44 456.33 81.82 466.06 83.77 456.33 88.96"/><polygon class="cls-8" points="456.65 75.65 445.29 77.6 446.59 83.44 466.06 83.77 456.65 75.65"/><polygon class="cls-2" points="429.07 87.99 429.07 89.61 434.26 93.51 436.53 92.53 435.56 91.23 429.07 87.99"/><polygon class="cls-1" points="438.8 90.58 435.56 91.23 434.26 93.51 440.43 94.16 441.07 93.18 438.8 90.58"/><polygon class="cls-2" points="437.5 84.42 441.07 98.7 444 98.38 445.62 95.45 440.43 85.39 437.5 84.42"/><polygon class="cls-1" points="439.78 105.19 441.07 98.7 445.62 95.45 446.92 102.27 444.64 104.87 439.78 105.19"/><polygon class="cls-8" points="419.65 69.48 424.85 75.97 450.16 76.95 455.03 71.43 435.23 66.56 419.65 69.48"/><polygon class="cls-9" points="419.65 69.48 437.83 69.81 455.03 71.43 440.1 62.34 419.65 69.48"/><polygon class="cls-2" points="98.99 109.42 109.38 116.56 112.3 113.64 109.38 112.34 102.56 108.77 98.99 109.42"/><polygon class="cls-1" points="121.71 111.69 117.81 109.74 109.38 112.34 109.38 116.56 122.36 114.29 121.71 111.69"/><polygon class="cls-6" points="153.19 184.41 132.42 181.17 120.09 199.35 98.67 184.41 84.06 193.18 72.05 192.21 49.98 208.12 122.36 205.84 154.17 195.13 153.19 184.41"/><polygon class="cls-5" points="137.61 177.6 148 183.77 120.09 199.35 117.17 186.69 121.06 181.49 126.58 178.57 137.61 177.6"/><polygon class="cls-5" points="84.06 193.18 120.09 199.35 109.7 184.09 98.67 184.41 86.98 185.39 84.06 193.18"/><polygon class="cls-5" points="73.03 184.74 84.06 193.18 49.98 208.12 66.53 187.01 73.03 184.74"/><polygon class="cls-6" points="205.12 162.99 186.94 159.42 181.75 169.48 162.28 157.14 163.58 169.81 175.26 193.83 204.8 175.32 205.12 162.99"/><polygon class="cls-3" points="203.5 151.95 192.46 162.99 170.72 164.29 190.84 147.4 203.5 151.95"/><polygon class="cls-5" points="162.28 157.14 192.46 162.99 184.67 177.27 162.28 157.14"/><polygon class="cls-8" points="95.1 108.77 112.3 106.82 102.56 96.75 94.77 96.75 88.28 97.08 74.32 106.49 95.1 108.77"/><polygon class="cls-9" points="87.95 93.18 94.77 93.51 94.77 96.75 74.32 106.49 87.95 93.18"/><polygon class="cls-2" points="140.21 106.82 144.1 105.19 148.97 126.3 154.49 140.26 175.91 186.04 160.98 199.68 143.78 145.78 140.21 106.82"/><polygon class="cls-1" points="150.6 195.46 143.13 165.26 135.67 120.78 138.91 117.53 143.46 120.13 155.46 158.12 158.38 186.69 161.63 194.16 160.98 199.68 150.6 195.46"/><polygon class="cls-11" points="117.17 103.57 138.91 117.53 137.29 128.57 130.8 122.4 115.22 107.14 117.17 103.57"/><polygon class="cls-10" points="140.21 106.82 117.81 109.74 94.77 96.75 114.89 96.75 140.21 106.82"/><polygon class="cls-9" points="140.21 106.82 94.77 96.75 112.95 91.56 130.15 93.51 140.21 106.82"/><polygon class="cls-10" points="135.99 87.99 130.15 93.51 94.77 96.75 81.14 89.94 103.21 85.39 135.99 87.99"/><polygon class="cls-9" points="91.2 72.4 81.14 89.94 135.99 87.99 101.91 73.05 91.2 72.4"/><polygon class="cls-1" points="167.15 89.29 148.97 104.87 151.89 109.42 163.25 99.35 168.12 92.53 167.15 89.29"/><polygon class="cls-11" points="145.4 111.36 148.97 104.87 163.25 99.35 148.97 118.83 145.4 111.36"/><polygon class="cls-2" points="145.73 70.45 148 89.94 148.97 104.87 142.81 102.27 141.83 98.05 142.48 68.51 145.73 70.45"/><polygon class="cls-1" points="138.91 117.53 141.83 98.05 148.97 104.87 148.97 126.3 138.91 117.53"/><polygon class="cls-10" points="165.85 78.57 197.33 84.09 163.25 99.35 148 89.94 165.85 78.57"/><polygon class="cls-8" points="164.88 73.05 181.43 70.78 197.33 84.09 148 89.94 154.81 75 164.88 73.05"/><polygon class="cls-10" points="111.97 69.16 139.56 68.83 164.88 73.05 148 89.94 95.42 80.84 111.97 69.16"/><polygon class="cls-8" points="159.68 60.39 164.88 73.05 95.42 80.84 112.95 59.74 137.61 57.79 159.68 60.39"/><polygon class="cls-9" points="134.69 50 159.68 60.39 112.95 59.74 134.69 50"/><polygon class="cls-3" points="121.06 181.49 113.27 185.06 98.67 184.41 111.97 174.68 121.06 181.49"/><polygon class="cls-6" points="121.06 181.49 126.58 188.31 120.09 199.35 98.67 184.41 121.06 181.49"/><polygon class="cls-7" points="80.49 181.17 98.67 184.41 84.06 193.18 66.53 187.01 80.49 181.17"/><polygon class="cls-3" points="88.93 176.3 98.67 184.41 66.53 187.01 88.93 176.3"/><polygon class="cls-11" points="233.36 228.9 95.75 225.32 110.03 200.32 126.58 188.31 158.38 186.69 194.41 181.82 342.73 194.48 349.55 185.72 369.02 180.84 746.48 187.34 771.48 220.13 641.33 286.69 343.71 252.27 233.36 228.9"/><polygon class="cls-12" points="552.72 225.98 549.8 237.01 588.75 250.32 602.05 248.05 692.61 235.72 639.7 231.82 624.45 236.36 619.26 235.07 619.58 230.52 552.72 225.98"/><polygon class="cls-11" points="718.25 211.36 771.48 220.13 855.53 208.12 777.97 187.99 755.25 186.69 718.25 211.36"/><polygon class="cls-1" points="747.78 165.26 777.97 187.99 738.37 212.34 747.78 165.26"/><polygon class="cls-1" points="195.06 173.38 158.38 186.69 194.41 184.41 195.06 173.38"/><polygon class="cls-13" points="357.34 155.85 369.02 180.84 394.99 183.44 410.89 163.96 413.81 125.65 389.14 122.4 358.96 130.84 357.34 155.85"/><polygon class="cls-1" points="336.89 177.27 362.86 150.97 408.62 166.88 398.56 186.36 369.02 180.84 342.73 194.48 336.89 177.27"/><polygon class="cls-14" points="394.01 112.99 358.96 130.84 413.81 125.65 409.27 116.56 394.01 112.99"/><polygon class="cls-13" points="521.89 153.57 495.27 162.99 455.36 141.56 449.84 129.55 480.67 125.65 503.06 132.14 520.92 132.47 539.42 141.88 521.89 153.57"/><polygon class="cls-1" points="506.96 169.16 496.9 157.14 532.6 141.88 538.12 166.23 530.98 182.15 506.96 169.16"/><polygon class="cls-14" points="461.85 114.29 449.84 129.55 503.06 132.14 493.98 114.94 485.21 111.69 461.85 114.29"/><polygon class="cls-15" points="446.92 102.27 394.01 112.99 413.81 125.65 449.84 129.55 485.21 111.69 446.92 102.27"/><polygon class="cls-16" points="155.79 218.18 198.63 224.68 203.5 202.27 194.41 184.41 155.79 218.18"/><polygon class="cls-16" points="126.58 188.31 107.43 219.81 77.89 223.38 49.98 208.12 126.58 188.31"/><polygon class="cls-17" points="157.09 187.99 159.68 190.26 160.98 196.75 158.38 197.73 153.19 195.13 154.49 187.99 157.09 187.99"/><polygon class="cls-18" points="158.38 201.63 160.98 196.75 155.14 196.11 153.52 201.3 158.38 201.63"/><polygon class="cls-18" points="155.46 177.6 159.68 190.26 158.71 191.56 156.44 190.26 154.81 190.26 150.27 180.84 155.46 177.6"/><polygon class="cls-5" points="148.65 164.29 157.74 178.9 152.22 181.49 149.62 176.62 148.65 164.29"/><polygon class="cls-19" points="159.68 190.26 156.44 190.26 157.09 192.86 162.93 196.11 163.9 195.13 159.68 190.26"/><polygon class="cls-4" points="237.25 112.66 190.84 147.4 198.31 221.43 235.95 222.08 245.69 218.18 255.75 222.4 260.62 222.4 273.28 191.56 282.04 140.91 237.25 112.66"/><polygon class="cls-15" points="204.47 177.6 230.76 178.25 231.09 209.74 208.37 208.77 204.47 177.6"/><polygon class="cls-15" points="237.58 177.92 235.95 222.08 239.85 222.08 245.37 220.46 252.18 222.4 255.75 222.4 261.59 177.27 237.58 177.92"/><polygon class="cls-7" points="240.5 180.52 257.05 180.52 252.18 222.4 239.85 222.08 240.5 180.52"/><path class="cls-7" d="M207.72,180.84l8.44.33,1.29,10.71-8.11-.32-1.62-10.72Zm20.12.65v10.39l-7.79.33-.65-11Zm.32,25-7.14-.33-.64-11.37,7.46,1Zm-9.73-.66-7.14-.32L210,194.8h7.46Z"/><polygon class="cls-5" points="311.25 127.27 232.06 100.97 275.87 144.16 290.16 155.19 306.38 156.49 311.25 127.27"/><polygon class="cls-5" points="178.83 142.21 190.84 147.4 277.5 146.75 276.52 137.01 270.03 135.72 248.29 133.12 188.24 138.64 178.83 142.21"/><polygon class="cls-4" points="178.83 142.21 276.52 137.01 260.94 126.3 232.06 100.97 178.83 142.21"/><polygon class="cls-20" points="274.9 122.4 277.82 117.53 282.69 122.73 279.12 129.87 274.9 122.4"/><polygon class="cls-21" points="273.28 106.17 271.98 115.91 260.94 126.3 271.33 137.34 276.2 135.39 279.12 129.87 276.52 106.17 273.28 106.17"/><polygon class="cls-5" points="292.1 214.61 260.62 222.4 277.5 146.75 306.06 146.1 285.61 186.36 292.1 214.61"/><polygon class="cls-20" points="279.12 129.87 295.02 143.18 289.83 165.59 271.33 137.34 279.12 129.87"/><path class="cls-22" d="M311.25,127.27l-17.2,14.94-4.22,23.38,15.58-18.51Z"/><polygon class="cls-1" points="692.61 235.72 675.08 234.09 669.24 232.47 666.97 233.77 653.98 228.25 639.7 231.82 548.18 225.65 556.94 50.33 707.21 61.69 725.71 90.91 706.89 188.64 692.61 235.72"/><polygon class="cls-11" points="692.61 235.72 715.65 81.17 772.45 106.82 738.37 212.34 692.61 235.72"/><polygon class="cls-13" points="720.84 148.05 747.13 150.65 733.83 200.32 707.86 206.17 720.84 148.05"/><path class="cls-23" d="M732.53,153.9l-3.9,19.8-7.14-.32,3.9-19.48Zm4.22,0-4.87,19.48,5.52-.33,4.54-17.85Zm-.33,22.4-5.19,19.48-4.22,1.3,4.22-20.46Zm-13.63,21.43L727.66,177l-7.79,1.62-4.22,21.11Z"/><polygon class="cls-15" points="642.95 147.73 690.01 147.73 675.08 234.09 666.97 233.77 681.9 152.92 643.92 153.25 642.95 147.73"/><polygon class="cls-23" points="645.87 151.95 681.9 152.92 666.97 233.77 639.7 231.82 645.87 151.95"/><polygon class="cls-15" points="591.35 144.48 629.32 147.4 625.1 207.79 592.32 207.47 591.35 144.48"/><path class="cls-23" d="M590.05,152h19.47l-.65,21.43-18.82-.65V152Zm38.29,0L626.4,173.7l-13-1,1.3-20.78Zm-4.54,51.62-12-1,1.3-23.7,13,.32ZM606,202l-16.23-1.3.33-21.43,19.15-1.3Z"/><polygon class="cls-11" points="624.45 236.36 621.53 230.52 628.67 149.03 631.27 142.53 652.04 151.95 639.7 231.82 624.45 236.36"/><polygon class="cls-13" points="627.37 142.86 619.26 235.07 624.45 236.36 631.27 142.53 627.37 142.86"/><path class="cls-14" d="M62.64,239l21.75,4.55,93.47.65,12.66-5.85,36-3.89,34.08-12-104.83-4.22-48.36,1.63L77.9,223.38ZM283,272.08l24.35,12.34L644.9,327l19.8-11-1.3-31.49-36.35-15.59L475.8,255.2,365.13,245.13l-52.58,10.71Z"/><polygon class="cls-15" points="190.51 238.31 260.62 222.4 365.13 245.13 283.01 272.08 269.06 270.45 197.33 243.83 190.51 238.31"/><polygon class="cls-24" points="151.89 144.81 160.66 129.87 152.54 131.17 151.89 144.81"/><polygon class="cls-17" points="145.4 166.88 144.1 163.31 147.35 155.85 130.8 155.85 135.67 166.23 145.4 166.88"/><polygon class="cls-19" points="133.39 160.06 134.69 159.74 135.34 147.4 130.8 137.66 126.9 153.57 132.42 165.26 135.02 166.23 133.39 160.06"/><polygon class="cls-17" points="126.9 153.57 129.5 147.73 125.93 148.7 124.63 149.68 126.9 153.57"/><polygon class="cls-18" points="130.8 137.66 134.69 159.74 155.46 158.12 154.17 132.47 133.39 134.42 130.8 137.66"/><polygon class="cls-19" points="138.59 139.29 135.02 139.94 139.56 142.53 143.46 148.05 148.32 147.73 149.95 142.21 154.17 138.64 150.92 138.64 147.67 139.94 144.43 141.23 142.48 140.26 138.59 139.29"/><polygon class="cls-25" points="320.01 114.94 304.44 115.91 319.37 120.78 320.01 114.94"/><polygon class="cls-20" points="309.95 100.33 303.46 98.38 311.6 84.42 311.57 93.83 309.95 100.33"/><polygon class="cls-21" points="314.17 67.86 304.44 115.91 318.72 116.88 320.66 126.62 327.48 125 334.94 102.6 325.21 75.65 314.17 67.86"/><polygon class="cls-25" points="322.94 102.92 329.43 112.01 332.35 100.97 322.94 102.92"/><polygon class="cls-25" points="306.71 105.52 306.38 107.14 313.85 105.84 313.52 104.55 306.71 105.52"/><polygon class="cls-4" points="536.82 126.95 535.52 115.91 511.18 113.96 503.71 118.83 503.06 132.14 534.87 142.53 536.82 126.95"/><path class="cls-26" d="M136.32,224.35l38.94,2.92L149,232.47l-29.21-2.92Zm140.85,38,29.21-3.9,20.45-3.57,16.88-2.6L475.8,255.2l59.72,5.19,72.38,6.82L554.67,278.9l-195.38-12L283,272.08Z"/><polygon class="cls-27" points="596.21 253.57 588.75 250.32 575.12 227.6 579.01 216.88 600.11 229.22 602.05 248.05 596.21 253.57"/><polygon class="cls-28" points="600.11 229.22 595.89 190.59 594.27 188.64 563.76 208.77 575.12 227.6 600.11 229.22"/><polygon class="cls-27" points="563.76 208.77 595.89 190.59 591.99 188.96 568.95 191.23 563.76 208.77"/><polygon class="cls-5" points="588.75 75.65 590.37 89.61 713.38 96.75 769.2 117.53 784.78 111.69 762.71 95.45 716.62 76.3 597.51 69.16 588.75 75.65"/><polygon class="cls-5" points="735.77 66.23 642.63 7.14 635.81 10.71 703.97 75.65 719.22 80.84 784.46 111.04 735.77 66.23"/><polygon class="cls-4" points="642.63 7.14 719.22 80.84 588.75 75.65 595.56 30.2 642.63 7.14"/><polygon class="cls-29" points="574.14 117.21 576.74 112.66 590.37 89.61 589.72 37.99 585.18 49.68 573.17 102.92 567.98 114.61 566.35 121.43 574.14 117.21"/><polygon class="cls-30" points="551.42 118.51 549.48 110.72 544.61 98.38 546.56 97.4 573.49 100.65 575.12 101.95 566.35 121.43 551.42 118.51"/><polygon class="cls-28" points="532.27 69.48 525.78 32.14 528.38 31.82 535.52 34.42 536.5 37.01 532.27 69.48"/><polygon class="cls-31" points="535.52 34.42 528.06 96.43 575.12 101.95 589.72 37.99 535.52 34.42"/><polygon class="cls-30" points="590.37 89.61 594.59 82.14 584.85 80.19 590.37 89.61"/><polygon class="cls-27" points="556.94 50.33 525.78 32.14 545.26 13.64 547.85 12.99 557.59 46.75 580.63 18.83 583.56 18.18 599.78 34.42 598.81 35.39 585.18 40.91 583.56 40.58 556.94 50.33"/><polygon class="cls-23" points="565.06 0 583.56 18.18 556.94 50.33 545.26 13.64 565.06 0"/><path class="cls-27" d="M609.84,61.36,599.78,34.42l-2.92,3.24S588.42,62,588.42,62.34c-.32.32-.32,2.92-.32,2.92l6.49,16.88Z"/><polygon class="cls-28" points="588.1 65.26 583.56 40.58 599.78 34.42 588.1 65.26"/><polygon class="cls-31" points="584.85 80.19 594.59 82.14 600.43 66.88 588.1 65.26 584.85 80.19"/><polygon class="cls-30" points="588.75 75.65 590.37 68.51 596.54 69.48 588.75 75.65"/><polygon class="cls-29" points="548.18 73.38 541.04 59.42 534.55 52.6 551.42 55.2 553.7 59.09 558.89 55.84 565.71 55.2 580.63 56.82 565.38 61.69 556.62 73.38 548.18 73.38"/><polygon class="cls-30" points="551.42 77.6 548.18 73.38 556.62 73.38 551.42 77.6"/><polygon class="cls-32" points="551.42 55.2 548.18 73.38 556.62 73.38 558.89 55.84 551.42 55.2"/><polygon class="cls-27" points="548.18 54.87 539.09 47.73 534.55 52.6 548.18 54.87"/><polygon class="cls-27" points="565.38 55.2 577.71 50.65 580.63 56.82 565.38 55.2"/><polygon class="cls-30" points="540.39 80.52 568.3 82.14 560.84 91.88 544.93 90.26 540.39 80.52"/><polygon class="cls-33" points="543.96 82.79 564.08 83.77 560.19 89.61 546.56 88.64 543.96 82.79"/><polygon class="cls-7" points="535.52 115.91 547.53 116.23 548.5 118.83 547.85 132.79 560.84 144.81 561.81 147.4 563.43 197.73 552.4 196.75 528.06 180.19 535.52 115.91"/><polygon class="cls-4" points="579.66 118.18 589.07 119.48 595.89 190.59 577.06 192.86 560.84 194.81 560.51 145.78 560.84 143.83 576.09 136.36 578.04 121.43 579.66 118.18"/><polygon class="cls-4" points="556.29 125.33 547.53 116.23 545.91 133.44 560.51 145.78 556.29 125.33"/><polygon class="cls-7" points="570.57 126.3 579.66 118.18 577.71 137.34 560.51 145.78 570.57 126.3"/><polygon class="cls-15" points="563.43 116.23 554.99 125.65 547.53 116.23 549.48 110.72 563.43 116.23"/><polygon class="cls-15" points="579.66 118.18 576.74 112.66 563.43 116.23 571.22 127.27 579.66 118.18"/><polygon class="cls-13" points="557.59 135.39 554.99 125.65 563.43 116.23 571.22 127.27 566.35 136.04 557.59 135.39"/><polygon class="cls-28" points="560.84 129.22 557.59 122.73 563.43 116.23 568.95 124.03 564.41 129.55 562.78 130.19 560.84 129.22"/><polygon class="cls-28" points="560.51 145.78 557.59 135.39 560.84 129.22 564.41 129.55 566.35 136.04 560.51 145.78"/><polygon class="cls-34" points="556.94 158.77 560.51 155.19 564.41 158.44 560.51 162.01 556.94 158.77"/><polygon class="cls-34" points="557.27 176.62 560.51 173.38 563.76 176.95 560.51 179.87 557.27 176.62"/><polygon class="cls-7" points="491.06 100 511.18 113.96 503.06 132.14 485.21 111.69 486.19 101.95 491.06 100"/><polygon class="cls-15" points="486.51 96.75 491.06 100 485.21 111.69 480.67 106.49 483.27 98.7 486.51 96.75"/><polygon class="cls-31" points="484.24 72.73 486.51 96.75 480.67 95.45 478.07 90.58 481.64 72.73 484.24 72.73"/><polygon class="cls-29" points="473.85 86.69 486.51 96.75 480.67 106.49 471.58 89.61 473.85 86.69"/><polygon class="cls-5" points="604.65 151.95 589.07 119.48 574.47 158.12 580.63 166.88 590.05 173.7 604.65 151.95"/><polygon class="cls-7" points="562.46 189.94 574.47 158.12 590.05 173.7 577.06 192.86 568.95 194.48 562.46 189.94"/><polygon class="cls-9" points="468.34 178.25 480.67 159.09 555.32 199.35 545.58 222.08 535.52 235.07 467.04 205.52 468.34 178.25"/><polygon class="cls-10" points="413.81 125.65 422.9 126.95 474.18 155.52 481.97 163.64 467.04 205.52 409.27 194.48 396.61 177.6 413.81 125.65"/><polygon class="cls-8" points="436.53 160.06 434.26 167.86 441.4 171.75 444.32 163.64 436.53 160.06"/><polygon class="cls-22" points="508.91 194.81 506.96 201.63 513.13 204.55 515.4 197.73 508.91 194.81"/><polygon class="cls-10" points="535.52 235.07 542.99 240.26 549.8 237.01 556.29 212.66 561.81 202.27 552.07 200.97 535.52 235.07"/><polygon class="cls-15" points="560.84 194.81 562.46 189.94 577.06 192.86 572.85 199.03 564.08 199.03 560.84 194.81"/><polygon class="cls-35" points="475.8 252.6 475.15 262.01 483.59 266.56 491.38 256.49 475.8 252.6"/><polygon class="cls-35" points="388.5 222.73 382.65 225.32 382.98 232.79 390.44 235.72 395.96 227.27 388.5 222.73"/><polygon class="cls-10" points="366.1 220.13 369.02 180.84 380.71 181.82 510.2 228.9 515.07 237.99 526.43 249.35 513.45 267.21 366.1 220.13"/><polygon class="cls-22" points="543.63 261.37 549.8 237.01 528.71 228.9 517.35 231.49 515.07 237.99 513.45 267.21 543.63 261.37"/><polygon class="cls-23" points="308.33 60.72 322.61 46.75 345.98 54.55 364.8 66.88 328.45 67.86 308.33 60.72"/><polygon class="cls-36" points="373.89 46.1 322.61 46.75 361.56 65.91 372.27 59.42 373.89 46.1"/><polygon class="cls-23" points="392.39 85.72 373.89 46.1 361.56 65.91 371.94 78.9 392.39 85.72"/><polygon class="cls-28" points="353.44 125.97 392.39 85.72 361.56 65.91 331.37 81.17 330.73 102.6 329.43 112.01 342.08 121.75 353.44 125.97"/><polygon class="cls-36" points="308.33 60.72 324.23 79.87 335.27 79.22 361.56 65.91 308.33 60.72"/><polygon class="cls-23" points="361.56 65.91 324.23 79.87 323.91 88.96 333 87.99 361.56 65.91"/><polygon class="cls-37" points="322.94 102.92 323.91 88.96 333 87.99 330.73 102.6 322.94 102.92"/><polygon class="cls-25" points="326.5 91.56 326.18 98.05 329.75 91.23 326.5 91.56"/><polygon class="cls-25" points="353.44 125.97 329.43 112.01 327.48 125 339.16 133.12 349.23 130.19 353.44 125.97"/><polygon class="cls-10" points="320.66 131.17 317.09 127.6 320.01 124.03 353.44 125.97 353.12 130.52 346.95 132.14 320.66 131.17"/><polygon class="cls-8" points="358.96 130.84 311.25 127.27 304.11 140.26 308.33 151.62 293.4 159.42 278.47 186.04 291.78 192.21 330.4 196.75 342.73 194.48 347.93 174.03 357.34 155.85 358.96 130.84"/><polygon class="cls-28" points="311.57 229.87 312.87 212.01 300.54 198.7 278.47 186.04 288.53 225.32 297.62 233.12 311.57 229.87"/><polygon class="cls-28" points="340.14 235.07 329.75 229.55 312.87 212.01 324.56 198.7 342.73 194.48 353.44 224.03 340.14 235.07"/><polygon class="cls-34" points="277.17 262.34 276.85 258.12 287.88 256.82 306.38 258.44 306.06 261.69 277.17 262.34"/><polygon class="cls-34" points="340.46 259.74 329.43 262.99 329.75 266.88 359.29 266.88 359.61 262.66 340.46 259.74"/><polygon class="cls-6" points="276.85 258.12 280.09 249.35 288.86 244.81 295.02 247.73 306.38 258.44 276.85 258.12"/><polygon class="cls-6" points="329.43 262.99 329.75 254.55 335.27 248.7 343.71 252.27 359.61 262.66 329.43 262.99"/><polygon class="cls-10" points="293.4 159.42 349.87 165.59 357.34 155.85 355.71 143.18 304.11 140.26 293.4 159.42"/><polygon class="cls-20" points="374.86 217.53 375.84 209.42 387.52 218.83 385.25 221.43 374.86 217.53"/><polygon class="cls-22" points="369.02 180.84 358.96 130.84 346.63 178.57 352.47 189.28 363.5 187.99 369.02 180.84"/><polygon class="cls-20" points="369.02 180.84 352.47 189.28 364.48 212.34 372.27 212.66 375.84 209.42 369.02 180.84"/><polygon class="cls-20" points="376.49 229.55 365.78 223.38 374.22 220.78 382.65 225.32 376.49 229.55"/><polygon class="cls-21" points="365.78 223.38 364.48 212.34 375.84 209.42 382.65 225.32 365.78 223.38"/><polygon class="cls-28" points="145.08 136.04 133.72 129.22 130.8 122.4 143.78 114.61 152.22 121.43 152.87 127.27 145.08 136.04"/><polygon class="cls-27" points="160.66 129.87 152.22 121.43 145.08 136.04 160.66 129.87"/><polygon class="cls-27" points="116.52 132.14 130.8 122.4 145.08 136.04 135.34 134.74 127.23 135.72 116.52 132.14"/><polygon class="cls-24" points="121.39 143.18 116.52 132.14 135.34 134.74 129.5 147.73 121.39 143.18"/><path class="cls-18" d="M121.39,143.18l5.51-2.27,2.6,6.82-4.87,2S121.71,142.86,121.39,143.18Z"/><polygon class="cls-18" points="101.59 135.72 108.08 141.88 105.16 145.78 99.96 146.43 96.72 138.64 101.59 135.72"/><polygon class="cls-18" points="110.67 136.04 105.16 145.78 111.32 147.73 112.3 137.01 110.67 136.04"/><polygon class="cls-19" points="107.43 150.97 99.96 146.43 107.75 141.23 111.32 147.73 110.67 150.65 107.43 150.97"/><polygon class="cls-18" points="120.73 158.12 111.32 147.73 107.43 150.97 114.24 165.59 119.76 163.64 120.73 158.12"/><polygon class="cls-5" points="112.62 167.21 120.73 158.12 127.23 160.72 131.77 174.03 128.2 179.87 112.62 167.21"/><polygon class="cls-4" points="126.58 188.31 127.23 160.72 130.8 162.01 143.13 165.26 144.1 163.31 148.65 164.29 154.81 190.26 144.75 193.18 126.58 188.31"/><polygon class="cls-19" points="128.53 219.48 128.2 204.22 138.91 207.47 134.04 219.48 131.45 221.11 128.53 219.48"/><polygon class="cls-19" points="155.79 218.18 155.46 205.19 145.4 205.52 149.95 218.51 152.87 219.81 155.79 218.18"/><polygon class="cls-28" points="142.16 200 147.67 193.18 154.81 190.26 155.46 206.82 143.78 207.15 142.16 200"/><polygon class="cls-28" points="126.58 188.31 125.6 207.79 138.91 207.47 142.16 200 137.29 191.88 126.58 188.31"/><path class="cls-5" d="M139.88,168.83l1.63,9.42,5.19-1v-8.44Zm2,12,4.55-.64,1.29,2.92-5.84.32Z"/><polygon class="cls-24" points="135.02 139.94 138.59 138.64 142.48 140.26 135.02 139.94"/><polygon class="cls-24" points="147.67 139.94 150.92 137.34 154.17 138.64 147.67 139.94"/><polygon class="cls-38" points="142.48 140.26 147.67 139.94 148.32 147.73 145.73 148.38 143.46 148.05 142.48 140.26"/><polygon class="cls-17" points="146.05 149.35 143.46 148.05 148.32 147.73 146.05 149.35"/><polygon class="cls-17" points="140.53 151.3 149.62 150.65 148.65 155.52 142.16 155.85 140.53 151.3"/><polygon class="cls-33" points="142.48 152.27 148 151.62 147.67 154.22 143.13 154.87 142.48 152.27"/><polygon class="cls-17" points="125.6 143.18 123.98 144.16 126.9 146.43 125.6 143.18"/><polygon class="cls-27" points="154.81 190.26 142.16 200 126.58 188.31 154.81 190.26"/><path class="cls-24" d="M540.71,58.44a2.93,2.93,0,1,1-2.92,2.92A2.92,2.92,0,0,1,540.71,58.44Z"/><path class="cls-24" d="M566.35,61A2.92,2.92,0,1,1,563.43,64,2.93,2.93,0,0,1,566.35,61Z"/><path class="cls-24" d="M139.24,142.21a1.3,1.3,0,1,1-1.3,1.3A1.3,1.3,0,0,1,139.24,142.21Z"/><path class="cls-24" d="M150.6,141.56a1.3,1.3,0,1,1-1.3,1.3A1.3,1.3,0,0,1,150.6,141.56Z"/><polygon class="cls-35" points="594.27 258.77 584.85 264.94 585.18 268.83 607.9 267.21 607.9 262.99 594.27 258.77"/><polygon class="cls-22" points="584.85 264.94 588.75 250.32 602.05 248.05 607.9 262.99 584.85 264.94"/><polygon class="cls-8" points="481.97 163.64 485.86 156.17 496.9 157.14 560.84 194.81 555.32 199.35 549.8 200 481.97 163.64"/><polygon class="cls-9" points="481.97 163.64 496.9 157.14 433.29 119.48 413.81 125.65 481.97 163.64"/><polygon class="cls-31" points="549.8 200 560.84 194.81 561.16 203.57 550.45 203.9 549.8 200"/><polygon class="cls-29" points="555.97 212.66 560.84 194.81 572.85 199.03 563.76 208.77 555.97 212.66"/><polygon class="cls-8" points="369.02 180.84 384.28 172.73 528.71 228.9 515.07 237.99 369.02 180.84"/><polygon class="cls-27" points="278.47 186.04 312.87 212.01 342.73 194.48 278.47 186.04"/><polygon class="cls-13" points="183.7 249.35 191.81 243.18 190.84 238.31 63.29 238.96 56.47 241.56 57.77 250.32 183.7 249.35"/><polygon class="cls-14" points="183.7 249.35 190.84 238.31 283.01 272.08 287.88 281.17 270.68 290.26 183.7 249.35"/><polygon class="cls-13" points="664.7 315.91 283.01 272.08 270.68 290.26 674.11 350 679.62 328.57 664.7 315.91"/><polygon class="cls-15" points="817.56 230.84 812.69 240.59 680.6 314.29 664.7 315.91 627.05 268.83 738.37 212.34 789.98 219.48 817.56 230.84"/><polygon class="cls-14" points="817.56 230.84 828.6 236.04 826 244.48 674.11 350 664.7 315.91 817.56 230.84"/><polygon class="cls-27" points="288.53 225.32 311.57 229.87 295.02 247.73 280.09 249.35 288.53 225.32"/><polygon class="cls-27" points="329.75 229.55 353.44 224.03 343.71 252.27 329.75 254.55 329.75 229.55"/><polygon class="cls-7" points="125.93 229.55 125.93 227.6 131.77 226.3 137.61 227.27 137.61 229.55 125.93 229.55"/><polygon class="cls-7" points="156.11 223.05 149.3 225.65 149.3 227.27 164.55 227.27 164.23 225.32 156.11 223.05"/><polygon class="cls-5" points="125.93 227.6 128.53 219.16 134.04 218.83 137.61 227.27 125.93 227.6"/><polygon class="cls-5" points="164.23 225.32 155.79 218.18 149.95 218.51 149.3 225.65 164.23 225.32"/><polygon class="cls-13" points="894.48 226.3 846.12 220.78 817.56 230.84 826 244.48 900 242.86 894.48 226.3"/><polygon class="cls-14" points="855.53 208.12 738.37 212.34 817.56 230.84 894.48 226.3 855.53 208.12"/><polygon class="cls-14" points="7.79 219.81 0 232.14 57.77 250.32 67.51 230.52 42.19 224.35 7.79 219.81"/><polygon class="cls-15" points="49.98 208.12 107.43 219.81 62.64 238.96 7.79 219.81 49.98 208.12"/><polygon class="cls-9" points="182.4 68.18 164.88 73.05 197.33 84.09 182.4 68.18"/><polygon class="cls-10" points="74.32 106.49 112.3 106.82 95.1 114.61 74.32 106.49"/><polygon class="cls-10" points="426.47 78.57 404.4 83.12 429.07 89.61 446.59 83.44 426.47 78.57"/><polygon class="cls-8" points="415.11 75.33 404.4 83.12 446.59 83.44 434.26 76.62 415.11 75.33"/><polygon class="cls-10" points="424.85 75.97 446.59 83.44 452.76 78.57 439.13 73.38 424.85 75.97"/><polygon class="cls-9" points="424.85 75.97 452.76 78.57 437.83 69.81 424.85 75.97"/><polygon class="cls-4" points="421.28 101.95 415.76 108.77 429.07 102.6 421.28 101.95"/><polygon class="cls-13" points="196.36 60.06 216.81 72.4 244.07 65.26 275.87 70.78 299.57 58.77 277.17 57.47 255.1 59.09 233.68 54.22 196.36 60.06"/><polygon class="cls-15" points="233.36 45.45 196.36 60.06 226.54 57.47 256.4 61.36 299.57 58.77 283.99 55.84 257.05 55.2 233.36 45.45"/><polygon class="cls-13" points="525.78 32.14 499.82 47.4 465.42 38.64 425.17 45.78 395.31 30.2 423.55 28.57 451.46 30.84 478.72 24.68 525.78 32.14"/><polygon class="cls-15" points="478.72 13.31 525.78 32.14 487.49 28.9 449.84 33.77 395.31 30.2 415.11 26.62 448.86 25.98 478.72 13.31"/><path class="cls-7" d="M252.18,158.77l.33,6.82H260l-.65-7.8Zm-47.06,1.62v6.17h6.49l-1.3-6.17Zm14,0-.33,6.17,6.82-.33-.33-6.16Zm16.22-.65-1,6.17,7.47.32-1-7.14Z"/><polygon class="cls-23" points="595.24 112.99 594.92 122.4 604.98 122.73 603.03 113.31 595.24 112.99"/><polygon class="cls-23" points="616.66 113.64 615.69 123.38 626.4 123.05 626.07 113.64 616.66 113.64"/><polygon class="cls-23" points="641.65 113.64 640.35 123.05 651.39 124.03 650.74 112.66 641.65 113.64"/><polygon class="cls-23" points="667.94 112.99 668.26 123.38 679.95 124.03 679.3 112.34 667.94 112.99"/><polygon class="cls-7" points="713.38 96.75 720.52 81.17 784.78 111.69 769.2 117.53 713.38 96.75"/><polygon class="cls-28" points="312.23 76.62 316.44 78.9 311.9 79.22 312.23 76.62"/></g></g></svg>