<svg xmlns="http://www.w3.org/2000/svg" viewBox="0 0 900 350"><defs><style>.cls-1{isolation:isolate;}.cls-2,.cls-53{fill:#bc8f2d;}.cls-3{fill:#f4d75d;}.cls-27,.cls-4{fill:#ccad14;}.cls-30,.cls-5{fill:#e5c828;}.cls-6,.cls-8{fill:#c4c4c4;}.cls-7{fill:#cececd;}.cls-8{opacity:0.3;mix-blend-mode:multiply;}.cls-59,.cls-9{fill:#dddddc;}.cls-10{fill:#a3a3a3;}.cls-11{fill:#ececeb;}.cls-12,.cls-17,.cls-33{fill:#2b2b2b;}.cls-12{opacity:0.1;}.cls-13,.cls-28{fill:#755800;}.cls-14,.cls-52{fill:#fff;}.cls-15{fill:#ac923c;}.cls-16,.cls-35{fill:#858686;}.cls-17{opacity:0.2;}.cls-18,.cls-20{fill:#b48c71;}.cls-19,.cls-29{fill:#d0ab92;}.cls-20,.cls-24,.cls-26,.cls-27,.cls-28,.cls-29,.cls-30,.cls-34,.cls-35,.cls-47,.cls-48,.cls-49,.cls-50,.cls-51,.cls-52,.cls-53,.cls-54,.cls-55,.cls-58,.cls-59{fill-rule:evenodd;}.cls-21,.cls-24{fill:#83624d;}.cls-22,.cls-34{fill:#4f5253;}.cls-23,.cls-26{fill:#6f7173;}.cls-25,.cls-55{fill:#9e7700;}.cls-31{fill:#d8bca9;}.cls-32,.cls-50{fill:#856400;}.cls-36{fill:#efd3c2;}.cls-37{fill:#a9846c;}.cls-38{fill:#d0af96;}.cls-39{fill:#f7e6dc;}.cls-40{fill:#b58b00;}.cls-41{fill:#9da1a2;}.cls-42{fill:#84614f;}.cls-43{fill:#674736;}.cls-44{fill:#412b23;}.cls-45{fill:#8c6d5d;}.cls-46,.cls-54{fill:#474747;}.cls-47,.cls-56{fill:#dfbda5;}.cls-48,.cls-57{fill:#c3987b;}.cls-49{fill:#8b6651;}.cls-51{fill:#e8cab6;}.cls-58,.cls-60{fill:#e2a942;}</style></defs><title>explorers_Entrepreneur_ESTP_introduction</title><g class="cls-1"><g id="illustration_copy" data-name="illustration copy"><g id="trees2_copy" data-name="trees2 copy"><polygon class="cls-2" points="253.25 81.42 251.88 88.59 253.25 88.59 256 81.42 253.25 81.42"/><polygon class="cls-3" points="195.39 53.22 187.64 63.45 204.24 63.45 195.39 53.22"/><polygon class="cls-4" points="191.52 63.45 186.37 71.3 205.33 71.3 200.85 63.45 191.52 63.45"/><polygon class="cls-4" points="189.13 79.73 186.75 83.42 205.33 84.95 202.63 78.42 189.13 79.73"/><polygon class="cls-3" points="188.97 71.3 185.34 79.69 205.33 79.89 201.58 71.3 188.97 71.3"/><polygon class="cls-2" points="231.99 80.93 231.99 88.59 233 86.88 233.92 80.63 231.99 80.93"/><polygon class="cls-4" points="227.38 77.19 223.14 82.16 241.83 81.69 237.94 76.25 227.38 77.19"/><polygon class="cls-3" points="226.46 71.92 223.14 78.05 241.83 76.19 238.33 70.67 226.46 71.92"/><polygon class="cls-4" points="227.02 65.89 223.14 73 241.83 70.84 235.8 65.36 227.02 65.89"/><polygon class="cls-3" points="231.5 59.37 223.14 67.54 240.83 65.66 231.5 59.37"/><polygon class="cls-3" points="264.5 52.92 253.25 59.88 269.13 62.24 264.5 52.92"/><polygon class="cls-4" points="257.25 60.47 248.5 67.54 269.13 69.63 266.63 61.25 257.25 60.47"/><polygon class="cls-3" points="252.26 67.92 246.38 74.71 268 76.88 266.25 69.33 252.26 67.92"/><polygon class="cls-4" points="250.36 75.11 245.13 80.63 266.88 82.75 265.29 76.6 250.36 75.11"/><polygon class="cls-3" points="277.04 79.17 269.88 84.96 282.88 86.56 277.04 79.17"/><polygon class="cls-4" points="272.16 85.24 268 89.99 282 90.89 281 86.33 272.16 85.24"/><polygon class="cls-2" points="857.75 178.23 857.24 172.58 854.89 172.63 856.04 178.17 857.75 178.23"/><polygon class="cls-2" points="869.55 183.87 869.04 178.23 866.69 178.27 867.84 183.81 869.55 183.87"/><polygon class="cls-5" points="854.17 154.54 859.08 159.29 849 160.86 854.17 154.54"/><polygon class="cls-4" points="856.9 159.62 860.48 164.85 849.35 166.45 851.76 160.43 856.9 159.62"/><polygon class="cls-5" points="858.97 165.07 862.06 168.91 848.29 171.5 851 166.17 858.97 165.07"/><polygon class="cls-4" points="859.8 169.27 863.35 173.35 847.69 173.88 848.29 171.5 859.8 169.27"/><polygon class="cls-5" points="867.1 162.93 870.92 166.61 863.08 167.84 867.1 162.93"/><polygon class="cls-4" points="869.23 166.88 872.73 170.81 863.51 171.78 865.23 167.5 869.23 166.88"/><polygon class="cls-4" points="871.48 174.37 873.82 178.82 863.24 178.5 864.72 175.45 871.48 174.37"/><polygon class="cls-5" points="870.75 171.02 873.78 175.13 863.19 175.69 865.84 171.54 870.75 171.02"/></g><g id="grass1_copy" data-name="grass1 copy"><polygon class="cls-6" points="459.59 122.39 482.25 118.89 529.05 129.72 586.11 129.96 641.9 146 674.78 149.5 716.64 160.68 584.04 204.87 459.59 122.39"/><polygon class="cls-7" points="661.94 163.21 746.25 157.75 807.17 183.57 857.83 175.58 900 205.5 837.59 216.2 689.14 190.5 661.94 163.21"/><polygon class="cls-6" points="746.87 155.11 758.25 168.75 735.86 198.59 677.1 205.5 654.62 171.13 661.94 163.21 746.87 155.11"/><polygon class="cls-8" points="746.87 155.11 758.25 168.75 735.86 198.59 677.1 205.5 654.62 171.13 661.94 163.21 746.87 155.11"/><polygon class="cls-9" points="858.42 173.67 838.96 216.61 769.7 195.72 760.67 152.37 858.42 173.67"/><polygon class="cls-6" points="850.18 192.22 876.18 209.58 863.67 224.9 838.96 216.61 850.18 192.22"/><polygon class="cls-7" points="900 205.5 858.42 173.67 850.18 192.22 876.18 209.58 900 205.5"/><polygon class="cls-7" points="51.96 222.4 64 206.87 41.5 184.19 0.06 179.63 172.62 80.93 265.29 97.27 396.26 98.03 598 175.65 478.05 218.13 51.96 222.4"/><polygon class="cls-10" points="92.88 126.53 96 131.56 41.5 184.19 0.06 179.63 92.88 126.53"/><polygon class="cls-6" points="64 206.87 232.36 116.81 279.26 160.72 51.96 222.4 64 206.87"/><polygon class="cls-9" points="265.29 103.6 318.38 140.67 285.28 166.2 268 153.17 232.36 116.81 265.29 103.6"/><polygon class="cls-10" points="316.67 139.47 265.29 103.6 298.83 92.07 357.32 116.78 388.04 128.41 425.17 154.5 476.31 216.05 316.67 139.47"/><polygon class="cls-6" points="171.46 80.93 231.06 118.21 298.83 92.07 171.46 80.93"/><polygon class="cls-9" points="373.66 122.97 475.21 128.41 516.17 144.17 427.67 155.83 408.1 142.71 373.66 122.97"/><polygon class="cls-9" points="0 236.91 279.06 158.96 620.06 172.74 643.67 146.67 746.25 155.24 900 235.03 900 312.38 716.64 350 166.37 350 102 323 129.56 287.09 59 276.38 0 236.91"/><polygon class="cls-6" points="59 276.38 279.06 158.96 359.47 168.64 489.59 196.75 129.56 287.09 59 276.38"/><polygon class="cls-7" points="166.37 350 388.18 306.95 351 350 166.37 350"/><polygon class="cls-7" points="504.76 268.13 716.64 350 844.8 206.38 780.97 176.59 504.76 268.13"/><polygon class="cls-11" points="389 218.67 601.3 175.54 598.13 171.88 581.42 161.26 516.17 144.17 331.15 155.24 389 218.67"/></g><g id="shadow_copy" data-name="shadow copy"><polygon class="cls-12" points="713.88 232.5 727.63 225.44 758.33 215.5 812.5 219.5 871.5 245 800 256.5 713.88 232.5"/><polygon class="cls-12" points="118.79 320.35 161.88 305.4 220.48 315.37 164.08 325.33 118.79 320.35"/><polygon class="cls-12" points="275.4 262 297.34 267.89 384.84 318.94 522.5 284.69 596.42 271.33 540.29 253.6 499.03 238.55 275.4 262"/><polygon class="cls-12" points="616.34 300.54 674.36 287.82 737.67 300.54 670.48 318.94 616.34 300.54"/></g><g id="plants_copy" data-name="plants copy"><polygon class="cls-12" points="831.92 293.42 843.93 290.67 854.43 292.09 843.76 295.5 831.92 293.42"/><polygon class="cls-13" points="844.8 284.88 844.38 292.55 842.32 292.23 841.19 281.73 844.8 284.88"/><polygon class="cls-5" points="831.92 279.38 844.8 265.92 850.17 277.17 844.8 284.88 831.92 279.38"/><polygon class="cls-3" points="844.8 265.92 844.8 284.88 856.58 279.5 844.8 265.92"/><polygon class="cls-12" points="857.25 300.7 866.25 299.57 875.25 301.7 865 304.57 857.25 300.7"/><polygon class="cls-13" points="866.25 295.95 866.25 302.57 868.17 300.95 871.15 293.76 866.25 295.95"/><polygon class="cls-5" points="866.5 281.92 856.08 290.28 866.25 295.95 873.33 289.17 866.5 281.92"/><polygon class="cls-3" points="866.5 281.92 866.25 295.95 878.92 290.28 866.5 281.92"/><polygon class="cls-12" points="856.86 276.02 862.87 275.18 868.87 276.77 862.03 278.92 856.86 276.02"/><polygon class="cls-13" points="862.87 272.47 862.87 277.43 864.14 276.21 866.13 270.84 862.87 272.47"/><polygon class="cls-5" points="863.03 261.98 856.08 268.24 862.87 272.47 866.83 268.17 863.03 261.98"/><polygon class="cls-3" points="863.03 261.98 862.87 272.47 871.31 268.24 863.03 261.98"/><polygon class="cls-12" points="524.33 315.75 536.75 310.25 546.08 316.5 534.08 318.83 524.33 315.75"/><polygon class="cls-5" points="519.08 301 532.5 309.75 556.83 307.42 540.5 298 519.08 301"/><polygon class="cls-14" points="531.33 302.67 534.75 305.42 542.08 304.33 538.08 302.08 531.33 302.67"/><polygon class="cls-13" points="532.5 309.75 534.25 316.75 537.08 309.33 532.5 309.75"/><polygon class="cls-12" points="573.75 333.17 584.08 331.25 592.92 335.08 577.58 336.25 573.75 333.17"/><polygon class="cls-13" points="578.33 330.33 578.33 335.92 582.92 330 578.33 330.33"/><polygon class="cls-5" points="571.83 320.17 578.33 330.33 598.83 330 589.5 321.83 571.83 320.17"/><polygon class="cls-14" points="580.17 323.83 582 326.5 589.33 326.33 586.83 323.83 580.17 323.83"/><polygon class="cls-12" points="498.33 320.33 505 318.17 512.75 320.33 506 322 498.33 320.33"/><polygon class="cls-13" points="504.08 317.75 506.33 321.33 507.42 315.67 504.08 317.75"/><polygon class="cls-5" points="494.17 313.75 502.58 309.42 513.58 312.83 504.08 317.75 494.17 313.75"/><polygon class="cls-14" points="500.5 313.25 503.83 311.92 507.5 313.25 503.58 314.67 500.5 313.25"/><polygon class="cls-12" points="266.25 287.83 273.83 285.33 282.5 287.75 273.75 290.42 266.25 287.83"/><polygon class="cls-13" points="273.25 284 274.08 289.67 276.58 283.25 273.25 284"/><polygon class="cls-5" points="263 281.17 273.83 277 286.5 280.17 273.17 284.33 263 281.17"/><polygon class="cls-14" points="271 281 274.17 281.42 278.58 280.17 274.25 279.42 271 281"/><polygon class="cls-12" points="220.67 273.58 233.25 268.92 241.33 272.75 229.25 275.83 220.67 273.58"/><polygon class="cls-13" points="233.17 267.42 229.25 275.5 227.08 265.92 233.17 267.42"/><polygon class="cls-5" points="216.25 264.83 233.17 267.42 243.17 258.5 229.67 255.25 216.25 264.83"/><polygon class="cls-14" points="226 262.17 231 258.42 234.5 260.75 226 262.17"/></g><g id="trees1_copy" data-name="trees1 copy"><polygon class="cls-15" points="782.66 122.8 804.78 135.24 819.33 131.66 845 137.86 900 114.2 849.33 107.83 784.33 98.65 745.06 97.71 720.26 102.7 708.77 133.25 733.07 140.5 782.66 122.8"/><polygon class="cls-4" points="900 114.2 873 77.86 817.91 79.99 784.33 98.65 845 116.09 900 114.2"/><polygon class="cls-5" points="896.67 78.38 873 77.86 900 114.2 896.67 78.38"/><polygon class="cls-3" points="878 47 873 77.86 896.67 78.38 878 47"/><polygon class="cls-5" points="849.33 40.99 873 77.86 878 47 849.33 40.99"/><polygon class="cls-15" points="754.39 57.33 763.72 47 788.91 47 826.5 50.42 873 77.86 784.33 98.65 757.94 84.16 754.39 57.33"/><polygon class="cls-4" points="838.33 22.56 741.33 29.54 873 77.86 838.33 22.56"/><polygon class="cls-5" points="679.33 57.33 754.39 57.33 720.26 102.7 673.24 65.74 679.33 57.33"/><polygon class="cls-4" points="704.97 41.33 754.39 57.33 698 57.33 704.97 41.33"/><polygon class="cls-5" points="704.97 41.33 741.33 29.54 788.91 47 754.39 57.33 704.97 41.33"/><polygon class="cls-3" points="741.33 29.54 772.67 0 838.33 22.56 741.33 29.54"/><polygon class="cls-16" points="792.33 157.04 775.67 160.68 760.67 152.37 746.94 143.8 744.74 136.33 733.07 140.5 758.44 168.86 780.89 176.59 792.33 157.04"/><polygon class="cls-16" points="792.33 157.04 789.33 196.75 770.67 241.95 749.32 230.54 780.89 176.59 775.89 166.81 792.33 157.04"/><polygon class="cls-16" points="834.13 135.24 823.27 139.88 823.27 139.88 819.34 131.66 802.33 127.56 802.33 155.77 790.91 239.59 809.1 237.46 829.25 152.37 845 137.86 834.13 135.24"/><polygon class="cls-10" points="802.33 127.56 782.66 122.8 792.33 157.04 770.67 241.95 790.91 239.59 810.96 154.68 802.33 127.56"/><polygon class="cls-10" points="839.64 136.56 825.75 145.06 823 139.92 834.13 135.24 839.64 136.56"/><polygon class="cls-10" points="746.25 155.24 760.67 152.37 792.33 157.04 785.35 168.98 751.62 161.24 746.25 155.24"/><polygon class="cls-10" points="733.07 140.5 760.67 152.37 744.74 136.33 733.07 140.5"/><polygon class="cls-4" points="754.39 57.33 720.26 102.7 736.67 110.99 784.33 98.65 754.39 57.33"/><polygon class="cls-2" points="41.39 155.98 39.19 150.76 41.29 149.7 42.88 155.13 41.39 155.98"/><polygon class="cls-5" points="33.42 133.38 31.32 139.89 40.96 136.53 33.42 133.38"/><polygon class="cls-4" points="33.4 139.16 32.7 145.46 43.28 141.63 38.32 137.45 33.4 139.16"/><polygon class="cls-5" points="34.14 144.94 33.21 149.78 45.59 145.53 40.35 142.69 34.14 144.94"/><polygon class="cls-4" points="35.38 149.04 33.72 153.48 47.47 148.88 43.71 146.18 35.38 149.04"/><polygon class="cls-5" points="25.95 146.87 24.32 151.91 31.8 149.31 25.95 146.87"/><polygon class="cls-4" points="25.93 151.35 24.68 156.47 33.28 153 29.75 150.03 25.93 151.35"/><polygon class="cls-4" points="27.47 159.02 27.49 164.05 36.67 158.8 33.94 156.8 27.47 159.02"/><polygon class="cls-5" points="26.53 155.72 25.79 160.77 35.4 156.3 31.11 153.87 26.53 155.72"/><polygon class="cls-5" points="51.1 145.08 49.56 151.41 60.12 145.38 55.94 144.51 51.1 145.08"/><polygon class="cls-4" points="50.83 141.6 48.2 147.96 60.12 145.38 55.58 141.6 50.83 141.6"/><polygon class="cls-5" points="53.08 137.85 48.2 143.68 57.7 141.6 53.08 137.85"/><polygon class="cls-12" points="73.33 144.67 66.13 150.38 80.88 154.63 86 147.67 104.33 144.67 92.67 136.33 73.33 144.67"/><polygon class="cls-5" points="74.79 111.33 75.2 122.44 84.57 120.84 101.82 108.8 90.19 104.44 74.79 111.33"/><polygon class="cls-5" points="76.77 122.44 73.25 136.29 89.35 138.46 105.19 119.38 95.25 113.06 76.77 122.44"/><polygon class="cls-3" points="88.42 123.06 89.35 138.46 93.45 120.34 88.42 123.06"/><polygon class="cls-17" points="82.43 122.49 88.67 127.14 93.45 120.34 88.42 123.06 82.43 122.49"/><polygon class="cls-4" points="84.45 109.53 88.42 123.06 72.29 124.09 73.25 110.2 84.45 109.53"/><polygon class="cls-17" points="90.57 104.48 85.59 113.06 74.48 110.12 90.57 104.48"/><polygon class="cls-3" points="80.42 92.58 73.25 108.6 84.45 109.53 93.45 102.1 80.42 92.58"/><polygon class="cls-5" points="64.05 137.07 61.1 144.92 75.11 144.63 84.57 137.85 72.29 133.8 64.05 137.07"/><polygon class="cls-5" points="80.42 92.58 84.45 109.53 70.5 110.36 80.42 92.58"/><polygon class="cls-3" points="73.25 136.29 75.11 144.63 89.35 138.46 83.55 131.87 73.25 136.29"/><polygon class="cls-17" points="83.55 131.87 73.93 139.36 64.05 137.07 83.55 131.87"/><polygon class="cls-2" points="75.11 144.63 74.79 152.09 76.57 150.69 78.11 143.33 75.11 144.63"/><polygon class="cls-5" points="63.92 126.34 60.12 137.4 73.25 136.29 88.33 130.61 82.67 122.44 63.92 126.34"/><polygon class="cls-4" points="72.78 126.34 73.25 136.29 60.12 137.4 63.75 126.83 72.78 126.34"/><polygon class="cls-17" points="82.71 122.49 72.84 129.23 63.75 126.83 82.71 122.49"/><polygon class="cls-3" points="69.81 105.48 85.75 121.31 72.78 126.34 57.93 127.14 69.81 105.48"/><polygon class="cls-5" points="69.81 105.48 72.78 126.34 57.93 127.14 69.81 105.48"/><polygon class="cls-2" points="89.35 138.46 89.35 146 90.89 145.04 92.63 137.85 89.35 138.46"/></g><g id="clouds_copy" data-name="clouds copy"><polygon class="cls-11" points="24.65 35.61 60.73 24.19 87.55 29.9 127.04 29.9 140.21 35.61 117.78 42.41 61.22 45.13 24.65 35.61"/><polygon class="cls-6" points="117.78 42.41 140.21 35.61 95.35 37.79 59.75 34.66 24.65 35.61 61.22 45.13 117.78 42.41"/><polygon class="cls-11" points="569.26 25.59 606.8 11.12 710.06 18.36 695.55 31.73 655.45 36.78 612.78 32.61 583.76 33.49 569.26 25.59"/><polygon class="cls-6" points="612.78 32.61 655.45 36.78 695.55 31.73 710.06 18.36 673.37 23.95 569.26 25.59 583.76 33.49 612.78 32.61"/></g><g id="Women2_copy" data-name="Women2 copy"><polygon class="cls-18" points="564.96 165.62 570.6 178.66 582.61 164.8 573.18 136.75 563.71 149.77 564.96 165.62"/><polygon class="cls-19" points="531.41 126.06 525.25 129.53 513.95 154.74 521.91 185.78 557.8 185.78 569.01 136.75 559.25 131.8 531.41 126.06"/><polygon class="cls-20" points="525.25 129.53 521.03 131.79 510.06 154.11 518.1 171.52 525.25 129.53"/><polygon class="cls-19" points="519.21 59.99 510.43 106.11 546.18 117.29 562.95 79.99 549.47 56.2 531.65 52.97 519.21 59.99"/><polygon class="cls-19" points="513.95 221.41 510.79 250.68 521.62 252.89 533.67 225.41 513.95 221.41"/><polygon class="cls-18" points="534.7 136.75 558.97 131.8 575.37 93.44 562.95 79.99 546.18 117.29 534.7 136.75"/><polygon class="cls-21" points="555.15 120.26 534.7 136.75 531.04 112.56 555.15 120.26"/><polygon class="cls-21" points="563.14 98.46 571.34 102.88 568.83 108.74 563.14 98.46"/><polygon class="cls-22" points="569.9 87.53 564.25 97.01 565.06 82.29 569.9 87.53"/><polygon class="cls-4" points="525.25 129.53 531.18 158.8 512.65 158.12 525.25 129.53"/><polygon class="cls-4" points="531.18 158.8 558.97 131.8 573.18 136.75 559.21 185.78 531.18 158.8"/><polygon class="cls-23" points="558.97 131.8 556.73 152.07 570.3 146.87 582.14 135.86 580.24 115.84 595.44 96.19 592.37 63.12 567.24 38.53 532.51 34.66 505.98 62.37 514.82 68.93 519.21 59.99 531.65 52.97 546.88 51.62 562.95 79.99 575.37 93.44 558.97 131.8"/><polygon class="cls-19" points="568.49 86 563.14 98.46 571.34 102.88 575.37 93.44 568.49 86"/><polygon class="cls-21" points="567.07 95.29 573.36 94.12 569.26 90.1 567.07 95.29"/><polygon class="cls-22" points="531.65 52.97 532.51 34.66 567.24 38.53 549.47 56.2 531.65 52.97"/><polygon class="cls-19" points="563.75 223.48 559.84 253.63 549.23 253.63 541.91 224.43 563.75 223.48"/><polygon class="cls-24" points="513.95 221.41 532.73 227.56 535.18 222.52 528.39 219.15 513.95 221.41"/><polygon class="cls-23" points="592.37 63.12 562.95 79.99 575.37 93.44 595.44 96.19 592.37 63.12"/><polygon class="cls-21" points="563.75 223.96 542.73 227.7 541.48 222.84 548.82 218.49 563.75 223.96"/><polygon class="cls-16" points="567.24 38.53 549.47 56.2 562.95 79.99 592.37 63.12 567.24 38.53"/><polygon class="cls-22" points="595.44 96.19 580.24 115.84 558.97 131.8 575.37 93.44 595.44 96.19"/><polygon class="cls-22" points="558.97 131.8 582.14 135.86 570.3 146.87 558.97 131.8"/><polygon class="cls-18" points="529.32 149.61 532.9 144.3 531.18 158.8 529.32 149.61"/><polygon class="cls-2" points="512.65 158.12 566.63 159.73 559.21 185.78 536.12 193.91 521.91 185.78 512.65 158.12"/><polygon class="cls-25" points="521.91 185.78 513.95 221.41 563.75 223.96 566.63 202.95 559.21 185.78 521.91 185.78"/><polygon class="cls-19" points="561.83 191.65 581.42 161.26 588.2 181.29 566.63 202.95 561.83 191.65"/><polygon class="cls-2" points="559.21 185.78 513.95 221.41 553.09 206.91 561.83 191.65 559.21 185.78"/><polygon class="cls-17" points="553.09 206.91 565.78 209.13 566.63 202.95 553.09 206.91"/><polygon class="cls-18" points="561.83 191.65 551.75 191.65 558.47 206.91 566.63 202.95 561.83 191.65"/><polygon class="cls-19" points="551.75 191.65 547.07 199.36 553.09 206.91 558.47 206.91 551.75 191.65"/><polygon class="cls-4" points="521.62 252.89 523.04 257.54 509.25 268.6 494.09 268.6 510.79 250.68 521.62 252.89"/><polygon class="cls-13" points="517.84 261.71 517.28 268.6 521.28 268.6 524.56 259.13 521.62 252.89 517.84 261.71"/><polygon class="cls-26" points="524.88 110.63 519.65 117.07 525.25 129.53 533.08 126.06 531.04 112.56 524.88 110.63"/><polygon class="cls-27" points="549.23 253.63 542.61 274.29 559.21 274.29 559.84 253.63 549.23 253.63"/><polygon class="cls-28" points="559.84 253.63 564.82 261.35 561.83 274.29 559.21 274.29 559.84 253.63"/><polygon class="cls-20" points="492.06 142.39 484.72 139.4 492.3 122.25 501.23 127.46 501.54 135.62 492.06 142.39"/><polygon class="cls-29" points="501.54 135.62 512.65 158.12 517.47 172.52 501.33 170.35 492.06 142.39 501.54 135.62"/><polygon class="cls-30" points="491.9 142.32 501.54 135.62 503.18 138.95 493.21 145.86 491.9 142.32"/><polygon class="cls-3" points="504.76 95.29 482.78 91.92 481.43 110.99 487.77 117.94 484.72 139.4 479.38 143.5 493.21 145.86 490.75 139.22 489.1 130.92 493.13 122.81 493.97 117 501.54 113.63 504.76 95.29"/><polygon class="cls-29" points="501.54 135.62 502.59 127.64 493.97 117 493.13 122.81 496.56 127.69 494.69 133 496.87 138.95 501.54 135.62"/><polygon class="cls-15" points="487.86 92.81 486.38 83.44 479.28 79.75 469.8 84.56 470.86 96.01 482.15 100.79 482.78 91.92 487.86 92.81"/><polygon class="cls-3" points="472.44 86.6 472.44 93.81 480.18 89.81 472.44 86.6"/><polygon class="cls-3" points="474.17 84.52 480.69 88.95 479.73 82.27 474.17 84.52"/><polygon class="cls-3" points="481.76 88.34 482.59 83.22 485.68 84.78 481.76 88.34"/><polygon class="cls-3" points="480.69 91.29 474.17 94.94 480.69 97.89 480.69 91.29"/><polyline class="cls-3" points="486.03 89.47 485.68 87.65 483.19 90.51 486.38 91.29 486.03 89.47"/><polygon class="cls-15" points="521.89 95.15 523.17 99.43 529.66 101.78 536.69 99.43 521.89 95.15"/><polygon class="cls-13" points="527.64 96.19 526.09 94.49 520.74 94.49 527.23 98.22 536.69 99.43 531.04 96.19 527.64 96.19"/><polygon class="cls-31" points="531.04 76.74 534.7 77.48 531.65 89.02 526.44 87.98 531.04 76.74"/><polygon class="cls-21" points="526.44 87.98 528 90.67 531.65 89.02 526.44 87.98"/><polygon class="cls-18" points="534.7 77.48 540.62 73.66 551.75 76.09 540.79 82.29 531.65 89.02 534.7 77.48"/><polygon class="cls-18" points="531.04 76.74 529.29 70.88 521.14 67.67 523.54 78.17 527.64 85.03 531.04 76.74"/><polygon class="cls-32" points="540.62 73.66 543.95 71.58 551.75 76.09 540.62 73.66"/><polygon class="cls-32" points="529.29 70.88 526.42 66.98 521.14 67.67 529.29 70.88"/><path class="cls-33" d="M542.92,80.91a2.38,2.38,0,1,1-2.38-2.54A2.46,2.46,0,0,1,542.92,80.91Z"/><path class="cls-33" d="M527.25,76.74a2.38,2.38,0,1,1-2.37-2.54A2.46,2.46,0,0,1,527.25,76.74Z"/><polygon class="cls-34" points="531.04 112.56 525.25 129.53 533.08 126.06 531.04 112.56"/><polygon class="cls-22" points="519.21 59.99 505.98 62.37 514.71 83.64 519.21 59.99"/><polygon class="cls-35" points="519.65 117.07 528.4 120.29 531.04 112.56 524.88 110.63 519.65 117.07"/><polygon class="cls-5" points="571.81 100.58 570.15 101.15 568.83 100 569.16 98.28 570.82 97.71 572.14 98.86 571.81 100.58"/><polygon class="cls-18" points="525.25 129.53 534.7 136.75 533.08 126.06 525.25 129.53"/><polygon class="cls-29" points="487.77 117.94 482.25 118.89 482.21 136.38 485.07 136.93 490.75 139.22 493.13 122.81 487.77 117.94"/><polygon class="cls-4" points="484.72 96.19 501.54 98.46 499 111.48 491.9 115.46 483.88 110.63 484.72 96.19"/><polygon class="cls-3" points="495.26 99.56 493.97 100.89 495.26 102.23 496.22 100.89 495.26 99.56"/><polygon class="cls-3" points="497.37 101.89 496.08 103.23 497.37 104.56 498.33 103.23 497.37 101.89"/><polygon class="cls-3" points="495.98 104.9 494.69 106.23 495.98 107.56 496.94 106.23 495.98 104.9"/><polygon class="cls-3" points="497.28 98.94 496.68 99.56 497.28 100.19 497.73 99.56 497.28 98.94"/></g><g id="Male_copy" data-name="Male copy"><polygon class="cls-32" points="716.64 244.33 709.06 211.53 701.75 234.13 701.43 247.14 716.64 244.33"/><polygon class="cls-36" points="647.29 89.98 663.22 82.53 689.69 89.98 693.28 107.83 684.81 151.34 641.9 146 647.29 89.98"/><polygon class="cls-37" points="691.31 152.16 671.45 173.57 661.94 163.21 661.94 148.49 691.31 152.16"/><polygon class="cls-38" points="671.45 173.57 699.19 158.73 713.2 121.49 693.28 107.83 684.91 150.81 671.45 173.57"/><polygon class="cls-36" points="703.72 116.94 699.37 129.72 708.77 133.25 713.2 121.49 703.72 116.94"/><polygon class="cls-14" points="652.56 130.58 674.78 133.25 669.26 140.7 656.03 139.57 652.56 130.58"/><path class="cls-37" d="M669.73,141.75l-14.41-1.24L651,129.39l25.58,3.07Zm-13-3.12,12,1L673,134l-18.87-2.27Z"/><polygon class="cls-39" points="661.94 109.38 666.18 109.38 665.28 122.8 659.69 122.29 661.94 109.38"/><polygon class="cls-37" points="659.69 122.29 661.55 126.08 665.28 122.8 659.69 122.29"/><polygon class="cls-32" points="670.48 104.63 679.31 106.36 683.71 108.36 680.34 104.18 671.12 102.19 670.48 104.63"/><polygon class="cls-32" points="659.69 101.93 659.69 104.63 652.56 103.99 647.29 104.89 650.76 101.93 659.69 101.93"/><polygon class="cls-38" points="670.48 104.63 666.18 109.38 665.28 122.29 673.24 116.94 683.71 108.36 678.38 106.04 670.48 104.63"/><polygon class="cls-38" points="659.69 104.63 661.94 109.38 660.27 118.97 647.29 104.89 652.56 103.99 659.69 104.63"/><polygon class="cls-37" points="699.37 129.72 706.28 139.88 708.77 133.25 699.37 129.72"/><polygon class="cls-37" points="703.43 126.08 709.47 122.29 705.1 120.82 703.43 126.08"/><polygon class="cls-25" points="645.75 167.17 642.67 192.88 638.67 199.17 640.95 207.29 638.04 231.55 653.94 237.63 667.59 212.06 667.59 202.1 661.94 163.21 645.75 167.17"/><polygon class="cls-25" points="712.53 174.39 709.06 211.53 704.71 219.43 692.32 229.93 667.59 212.06 666 206.38 667.59 202.1 686.6 179.4 705.62 168.86 712.53 174.39"/><polygon class="cls-32" points="709.06 211.53 727.63 225.44 721.03 181.19 710.05 172.41 709.06 211.53"/><polygon class="cls-4" points="653.46 285.25 642.41 297.84 658.09 300.54 669.55 297.84 671.45 287.82 661.94 281.65 653.46 285.25"/><polygon class="cls-2" points="694.41 228.1 709.06 211.53 727.63 225.44 702.46 238.26 694.41 228.1"/><polygon class="cls-38" points="694.41 228.1 692.32 229.93 702.46 241.95 702.46 238.26 694.41 228.1"/><polygon class="cls-11" points="671.45 173.57 664.32 179.58 661.94 163.21 671.45 173.57"/><polygon class="cls-11" points="699.19 158.73 671.45 173.57 681.13 183.53 699.19 158.73"/><polygon class="cls-9" points="659.07 228.1 667.59 231.47 689.14 227.63 667.59 212.06 659.07 228.1"/><polygon class="cls-32" points="653.94 237.63 667.59 245 692.32 229.93 689.14 227.63 667.59 231.47 659.07 228.1 653.94 237.63"/><polygon class="cls-2" points="653.46 285.25 671.45 287.82 698.93 259.69 667.59 245 653.94 237.63 638.04 231.55 653.46 285.25"/><polygon class="cls-40" points="667.59 245 669.39 264.95 684.03 277.28 698.93 259.69 702.46 241.95 692.32 229.93 667.59 245"/><polygon class="cls-2" points="671.45 287.82 668.53 303.23 684.16 305.93 695.77 303.23 693.8 285.51 682.15 281.65 671.45 287.82"/><polygon class="cls-13" points="642.41 297.84 669.55 297.84 668.53 303.23 642.41 303.23 642.41 297.84"/><polygon class="cls-13" points="668.58 303.23 695.72 303.23 695.77 308.63 668.58 308.63 668.58 303.23"/><polygon class="cls-2" points="642.67 192.88 640.96 207.29 631.45 212.69 610.17 179.4 620.06 172.74 642.67 192.88"/><polygon class="cls-32" points="645.75 167.17 630.36 181.92 642.67 192.88 645.75 167.17"/><polygon class="cls-22" points="647.29 71.74 663.22 82.53 647.29 89.98 647.29 71.74"/><polygon class="cls-41" points="707.93 78.38 689.69 89.98 720.26 102.7 707.93 78.38"/><polygon class="cls-22" points="713.2 121.49 703.72 116.94 701.72 122.8 695.73 119.79 698.16 111.22 693.28 107.83 689.69 89.98 720.26 102.7 713.2 121.49"/><polygon class="cls-23" points="658.01 73.03 663.22 82.53 689.69 89.98 707.93 78.38 673.24 65.74 658.01 73.03"/><polygon class="cls-16" points="663.22 82.53 673.24 65.74 647.29 71.74 663.22 82.53"/><polygon class="cls-6" points="671.45 173.57 667.59 202.1 681.13 183.53 671.45 173.57"/><polygon class="cls-6" points="667.59 212.06 667.59 231.47 689.14 227.63 667.59 212.06"/><polygon class="cls-25" points="646.63 261.47 669.39 264.95 671.45 287.82 653.46 285.25 646.63 261.47"/><polygon class="cls-32" points="698.93 259.69 669.39 264.95 671.45 287.82 693.8 285.51 698.93 259.69"/><polygon class="cls-15" points="601.88 127.73 600.73 118.02 592.23 114.2 582.82 118.34 582.14 131.07 595.91 135.85 595.91 127.73 601.88 127.73"/><polygon class="cls-3" points="584.04 121.31 584.04 128.79 593.31 124.65 584.04 121.31"/><polygon class="cls-3" points="586.11 119.15 593.92 123.75 592.77 116.81 586.11 119.15"/><polygon class="cls-3" points="595.21 123.75 596.2 117.8 599.89 119.42 595.21 123.75"/><polygon class="cls-3" points="593.92 126.18 586.11 129.96 593.92 133.02 593.92 126.18"/><polygon class="cls-3" points="595.59 125.05 600.73 126.18 599.89 122.39 595.59 125.05"/><polygon class="cls-3" points="595.91 127.73 616.34 127.73 615.91 146.26 608.33 151.43 608.07 157.81 607.6 175.2 603.96 177 601.3 175.54 602.59 151.34 595.91 146.38 595.91 127.73"/><polygon class="cls-36" points="611.58 174.77 598 175.65 598.33 155.92 608.15 155.89 611.58 166.29 611.58 174.77"/><polygon class="cls-38" points="611.58 163.21 608.15 155.89 607.6 175.2 610.17 179.4 615.75 175.58 611.58 163.21"/><polygon class="cls-3" points="607.6 175.2 612.35 182.97 596.42 182.97 601.3 175.54 604.52 175.54 607.6 175.2"/><polygon class="cls-4" points="661.94 163.21 650.55 173.57 656.24 180.08 652.82 184.71 667.59 202.1 661.94 163.21"/><polygon class="cls-4" points="667.59 202.1 699.19 158.73 705.62 168.86 695.6 181.97 688.06 182.66 689.94 188.47 667.59 202.1"/><polygon class="cls-9" points="671.45 173.57 667.59 202.1 664.32 179.58 671.45 173.57"/><path class="cls-33" d="M675.68,115.87a2.44,2.44,0,1,1-2.44-2.44A2.44,2.44,0,0,1,675.68,115.87Z"/><path class="cls-33" d="M658,113.43a2.44,2.44,0,1,1-2.44-2.44A2.44,2.44,0,0,1,658,113.43Z"/><rect class="cls-4" x="669.54" y="204.98" width="3.82" height="3.82" transform="translate(50.43 535.49) rotate(-45.01)"/><polygon class="cls-36" points="608.33 151.43 608.15 155.89 611.58 163.21 611.58 170.35 615.75 175.58 620.06 172.74 620.06 160.64 608.33 151.43"/><polygon class="cls-4" points="597.55 130.58 613.57 130.58 613.57 144.3 605.56 150.53 598.16 144.3 597.55 130.58"/><polygon class="cls-3" points="606.12 132.67 604.83 134 606.12 135.33 607.08 134 606.12 132.67"/><polygon class="cls-3" points="608.23 135 606.95 136.33 608.23 137.67 609.2 136.33 608.23 135"/><polygon class="cls-3" points="606.85 138 605.56 139.34 606.85 140.67 607.81 139.34 606.85 138"/><polygon class="cls-3" points="608.15 132.04 607.54 132.67 608.15 133.29 608.6 132.67 608.15 132.04"/></g><g id="Women1_copy" data-name="Women1 copy"><polygon class="cls-42" points="128.03 186.25 140.88 174.82 165.12 166.9 175.84 164.27 167.34 203.07 128.03 186.25"/><polygon class="cls-42" points="165.29 97.9 186.75 140.66 149.46 160.33 127.46 126.53 133.1 96.49 145.71 89.51 165.29 97.9"/><polygon class="cls-43" points="163.95 173.04 162.05 182.21 140.88 174.82 111.64 140.21 127.46 126.53 149.69 160.33 163.95 173.04"/><polygon class="cls-44" points="163.95 173.04 168.28 150.41 145.17 162.75 163.95 173.04"/><polygon class="cls-42" points="121.39 151.76 129.34 145.04 119.64 133.3 111.64 140.21 121.39 151.76"/><polygon class="cls-44" points="129.34 145.04 126.75 158.09 121.39 151.76 129.34 145.04"/><polygon class="cls-44" points="115.26 140.75 123.31 142.53 119.28 138.2 115.26 140.75"/><polygon class="cls-45" points="152.15 118.35 157.6 130.2 162.97 126.89 155.77 116.34 152.15 118.35"/><polygon class="cls-44" points="162.97 126.89 161.74 131.56 157.6 130.2 162.97 126.89"/><polygon class="cls-43" points="155.77 116.34 156.71 111.51 162.88 107.75 166.01 106.42 162.07 125.59 155.77 116.34"/><polygon class="cls-43" points="152.15 118.35 147.34 115.91 139.27 120.27 136.09 122.33 157.6 130.2 152.15 118.35"/><path class="cls-33" d="M165.48,116.34a2.52,2.52,0,1,1-2.51-2.52A2.51,2.51,0,0,1,165.48,116.34Z"/><path class="cls-33" d="M150.21,125.57a2.52,2.52,0,1,1-2.51-2.51A2.51,2.51,0,0,1,150.21,125.57Z"/><polygon class="cls-32" points="156.71 111.51 162.88 107.75 166.01 106.42 161.53 105.34 155.77 108.74 156.71 111.51"/><polygon class="cls-32" points="147.34 115.91 146.16 113.66 137.79 117.86 136.09 122.33 139.27 120.27 147.34 115.91"/><polygon class="cls-33" points="124.35 129.22 127.46 142.77 119.64 133.3 124.35 129.22"/><polygon class="cls-13" points="154.25 141.67 172.25 131.88 165.5 132.75 163.95 134.92 160.89 135 154.25 141.67"/><polygon class="cls-32" points="172.25 131.88 171.84 140.67 163.77 145.04 154.25 141.67 172.25 131.88"/><polygon class="cls-11" points="155.94 140.75 164.25 142.29 169.21 139.42 170.76 132.69 155.94 140.75"/><polygon class="cls-33" points="145.71 89.51 158.2 84.95 163.95 88.59 165.29 97.9 145.71 89.51"/><polygon class="cls-46" points="172.62 80.93 160.46 79.89 158.2 84.95 170.3 107.87 172.62 80.93"/><polygon class="cls-22" points="145.26 67.33 140.88 78.9 145.71 89.51 172.62 80.93 145.26 67.33"/><polygon class="cls-46" points="100.4 88.44 113.25 96.49 133.1 96.49 145.71 89.51 145.26 67.33 100.4 88.44"/><polygon class="cls-23" points="93.41 120.53 115.26 114.82 133.1 96.49 100.4 88.44 93.41 120.53"/><polygon class="cls-22" points="89.1 138.16 101.26 142.77 111.64 140.21 127.46 126.53 133.1 96.49 93.41 120.53 89.1 138.16"/><polygon class="cls-46" points="121.39 151.76 113.25 167.95 89.1 138.16 111.64 140.21 121.39 151.76"/><polygon class="cls-46" points="140.88 174.82 128.03 186.25 118.24 174.15 128.03 171.88 140.88 174.82"/><polygon class="cls-33" points="121.39 151.76 140.88 174.82 118.24 174.15 113.25 167.95 121.39 151.76"/><polygon class="cls-2" points="175.84 178.67 191.04 192.53 188.59 222.4 147.76 230.43 146.69 219 141.69 210.23 147.17 199.77 163.95 197.35 175.84 178.67"/><polygon class="cls-4" points="163.95 197.35 141.69 210.23 128.03 186.25 163.95 197.35"/><polygon class="cls-13" points="132.45 293.29 143.41 297.8 147.27 287.09 143.41 276.38 132.45 293.29"/><polygon class="cls-5" points="191.04 192.53 176.04 197.35 163.95 197.35 175.84 164.27 191.04 192.53"/><polygon class="cls-42" points="212.87 182.87 189.82 206.87 205.89 217.92 222.7 190.38 212.87 182.87"/><polygon class="cls-44" points="217.29 186.25 222.7 190.38 235.58 185.37 228.6 179.65 222.28 173.87 217.29 186.25"/><polygon class="cls-42" points="141.69 210.23 118.79 232.95 123.8 190.02 128.03 186.25 141.69 210.23"/><polygon class="cls-43" points="163.95 197.35 160.46 186.25 165.94 191.8 163.95 197.35"/><polygon class="cls-2" points="188.59 222.4 150.83 229.16 143.41 238.53 143.41 297.8 161.62 303.22 188.75 297.95 197.86 236.24 190.33 232.29 188.59 222.4"/><polygon class="cls-4" points="165.06 225.35 143.41 276.38 197.86 236.24 188.59 222.4 165.06 225.35"/><polygon class="cls-4" points="137.5 320.83 157.17 320.83 152.69 300.57 143.41 297.8 137.5 320.83"/><polygon class="cls-43" points="145.79 298.51 142.81 308.68 152 308.63 150.61 299.95 145.79 298.51"/><polygon class="cls-4" points="175.37 300.55 186.17 318.57 198.69 318.57 188.75 297.95 175.37 300.55"/><polygon class="cls-13" points="175.37 300.55 174.02 300.81 172.56 308.34 177.87 318.57 180.73 318.57 180.73 309.49 175.37 300.55"/><polygon class="cls-43" points="180.73 299.51 187.03 308.27 193.17 307.12 188.75 297.95 180.73 299.51"/><polygon class="cls-43" points="175.84 164.27 202.62 193.53 189.82 206.87 191.04 192.53 175.84 164.27"/><polygon class="cls-2" points="225.68 119.32 223.14 171 227.8 178.67 227.87 125.88 225.68 119.32"/><polygon class="cls-4" points="233.15 154.35 234.99 159.86 227.82 160.86 219.44 160.72 215.17 158.38 213.24 154.03 220.86 153.41 224.28 155.38 233.15 154.35"/><polygon class="cls-3" points="233.15 154.35 230.38 155.93 220.68 155.97 213.24 154.03 221.75 152.13 224.06 152.32 224.02 153.77 227.61 153.98 227.83 152.63 229.89 152.8 233.15 154.35"/><polygon class="cls-4" points="233.14 144.73 233.17 149.62 227.84 149.46 221.35 148.68 216.44 146.35 216.57 143.67 221.95 143.29 225.62 144.5 233.14 144.73"/><polygon class="cls-4" points="233.24 135.74 233.47 138.96 228.27 139.76 223.57 139.54 216.48 136.66 218.51 133.41 224.29 135.2 227.83 135.76 233.24 135.74"/><polygon class="cls-4" points="232.36 130.28 220.48 129.73 221.69 125.43 230.58 124.97 232.36 130.28"/><polygon class="cls-2" points="220.68 155.97 219.44 160.72 215.17 158.38 213.24 154.03 220.68 155.97"/><polygon class="cls-2" points="230.38 155.93 227.82 160.86 234.99 159.86 233.15 154.35 230.38 155.93"/><polygon class="cls-3" points="233.14 144.73 228.39 145.47 222.44 145.18 216.57 143.67 222.14 141.81 224.57 141.94 224.49 143.43 227.79 143.6 227.85 142.44 230.19 142.7 233.14 144.73"/><polygon class="cls-2" points="222.58 145.18 221.35 148.68 216.44 146.35 216.57 143.67 222.58 145.18"/><polygon class="cls-2" points="228.39 145.47 227.84 149.46 233.17 149.62 233.14 144.73 228.39 145.47"/><polygon class="cls-3" points="233.24 135.74 228.16 136.76 222.55 136.6 218.51 133.41 224.95 134.09 224.91 134.9 227.85 135.05 227.86 134.4 228.38 134.45 233.24 135.74"/><polygon class="cls-3" points="221.69 125.43 232.36 130.28 230.58 124.97 221.69 125.43"/><polygon class="cls-43" points="153.35 219.89 135.83 216.05 118.79 232.95 149.82 230.43 153.35 219.89"/><polygon class="cls-15" points="175.42 191.08 175.92 181.92 183.33 178.25 192.91 182.97 192.6 194.34 181.25 198.82 181.25 191.2 175.42 191.08"/><polygon class="cls-3" points="191.04 185.16 191.04 192.19 183.39 188.3 191.04 185.16"/><polygon class="cls-3" points="189.33 183.13 182.89 187.45 183.84 180.93 189.33 183.13"/><polygon class="cls-3" points="181.83 187.45 181.02 181.86 177.97 183.39 181.83 187.45"/><polygon class="cls-3" points="182.89 189.74 189.33 193.29 182.89 196.17 182.89 189.74"/><polygon class="cls-3" points="181.52 188.68 177.28 189.74 177.97 186.18 181.52 188.68"/><polygon class="cls-3" points="182.3 190.71 161.88 190.71 162.3 209.24 169.88 214.41 170.14 220.79 169.54 239.08 173.19 240.87 174.6 232.95 175.62 214.32 182.3 209.36 182.3 190.71"/><polygon class="cls-43" points="166.37 212.01 178.97 217.92 177.5 229.15 164.49 230.43 163.95 221.47 166.37 212.01"/><polygon class="cls-4" points="164.08 192.84 180.1 192.84 180.1 206.56 172.09 212.79 164.69 206.56 164.08 192.84"/><polygon class="cls-3" points="172.65 194.93 171.37 196.26 172.65 197.59 173.62 196.26 172.65 194.93"/><polygon class="cls-3" points="174.77 197.26 173.48 198.59 174.77 199.93 175.73 198.59 174.77 197.26"/><polygon class="cls-3" points="173.38 200.26 172.09 201.6 173.38 202.93 174.34 201.6 173.38 200.26"/><polygon class="cls-3" points="174.68 194.3 174.08 194.93 174.68 195.55 175.13 194.93 174.68 194.3"/><polygon class="cls-42" points="153.35 219.89 166.37 212.01 164.49 230.43 149.82 230.43 153.35 219.89"/><polygon class="cls-43" points="235.5 169.75 227.89 165.88 226.83 175 227.73 180.12 224.38 180.96 227.08 188.68 235.58 185.37 235.5 169.75"/><polygon class="cls-42" points="228.72 179.88 227.89 165.88 220.58 168.14 218.05 168.92 212.87 182.87 217.29 186.25 221.62 183.67 222.72 176.93 223.03 176.4 224.38 180.96 228.72 179.88"/><polygon class="cls-13" points="212.87 182.87 222.7 190.38 220.48 194.65 209.75 186.12 212.87 182.87"/><polygon class="cls-9" points="164.08 240.87 179.4 240.87 174.6 232.95 169.74 232.95 164.08 240.87"/><polygon class="cls-13" points="143.41 297.8 135.25 306 134.75 320.83 137.5 320.83 143.41 297.8"/></g><g id="Main_Character_copy" data-name="Main Character copy"><polygon class="cls-30" points="302.63 131 286.23 138 300.06 177.33 297.02 193.33 336.14 207.67 356.95 184.01 365.09 128.41 347.02 124.73 302.63 131"/><polygon class="cls-28" points="299.59 116.14 310.06 110.02 310.05 115.77 312.69 122.27 299.59 116.14"/><polygon class="cls-28" points="346.45 108.79 357.32 116.78 329.59 140.67 333.66 120.75 346.45 108.79"/><polygon class="cls-47" points="313.75 53.88 348.81 55.81 360.26 52.44 363.16 106.54 346.45 108.79 340.19 119.26 324.32 124.74 313.55 115.43 298.7 92.19 293.24 79.89 293.09 68.13 313.75 53.88"/><polygon class="cls-48" points="317.76 54.1 324.99 111.38 346.45 108.79 338.34 114.88 339.83 121.31 329.59 140.67 319.49 129.41 311.05 120.85 302.12 99.9 302.5 95.27 298.7 92.19 308.81 87.01 302.91 75.12 293.24 79.89 289.15 70.84 308.36 57.6 313.75 53.88 317.76 54.1"/><polygon class="cls-48" points="346.18 85.84 338.5 70.34 326.48 64.31 341.72 62.24 344.72 67.25 348.45 77.39 346.18 85.84"/><polygon class="cls-48" points="350.36 66.84 351.69 62.43 360.73 61.2 350.53 80.87 350.36 66.84"/><polygon class="cls-49" points="308.82 87.01 298.7 92.19 302.12 99.9 308.82 87.01"/><polygon class="cls-49" points="345.34 75.21 326.59 86.1 320.85 78.61 317.96 78.05 316.95 75.9 324.94 73.61 345.34 75.21"/><polygon class="cls-49" points="351 75.07 361.76 80.49 361.64 78.24 360.07 74 351 75.07"/><polygon class="cls-50" points="309.1 59.17 321.81 86.25 311.73 92.87 302.91 75.12 293.24 79.89 289.15 70.84 299.62 61.87 309.1 59.17"/><polygon class="cls-51" points="350.36 66.84 344.72 67.25 346.18 85.84 351.81 85.42 350.36 66.84"/><polygon class="cls-49" points="304.29 85.41 301.76 78.9 295.98 81.59 304.29 85.41"/><polygon class="cls-50" points="326.48 64.31 337.64 59.22 341.72 62.24 326.48 64.31"/><polygon class="cls-50" points="351.69 62.43 356.73 58.71 360.73 61.2 351.69 62.43"/><polygon class="cls-49" points="359.95 89.64 328.18 92.02 338.81 99.59 352.57 98.69 359.95 89.64"/><polygon class="cls-52" points="355.97 91.86 333.66 93.51 339.5 98.03 351.42 97.22 355.97 91.86"/><polygon class="cls-49" points="351.81 85.42 348.85 88.83 346.18 85.84 351.81 85.42"/><polygon class="cls-50" points="317.96 78.05 303.65 76.61 302.91 75.12 310.82 74.28 316.98 75.95 317.96 78.05"/><polygon class="cls-49" points="346.45 108.79 318.38 112.17 339.83 121.31 346.45 108.79"/><polygon class="cls-53" points="352.26 35.07 299.97 39.37 288.31 52.92 321.87 46.35 352.26 35.07"/><polygon class="cls-28" points="317.76 54.1 289.15 70.84 288.31 52.92 312.62 45.72 317.76 54.1"/><polygon class="cls-50" points="317.76 54.1 311.79 50.7 312.62 45.72 352.26 35.07 351.67 45.86 348.81 55.81 317.76 54.1"/><polygon class="cls-2" points="352.26 35.07 348.81 55.81 360.26 52.44 377.35 33.22 352.26 35.07"/><polygon class="cls-54" points="323.74 68.77 295.45 70.86 293.24 79.89 302.91 75.12 324.49 76.31 324.91 72.24 323.74 68.77"/><polygon class="cls-54" points="350.36 66.84 344.72 67.25 344.06 69.47 345.1 72.07 350.73 71.6 351.64 69.76 350.36 66.84"/><path class="cls-34" d="M368,65.57l1.11,14.88L351,75.07l-.64-8.23Zm-22.62,9.64-20.1,8.64-1.5-15.08,21-1.52Z"/><polygon class="cls-55" points="322.96 125.74 299.59 116.14 305.49 131 329.59 140.67 322.96 125.74"/><polygon class="cls-2" points="302.63 131 300.06 177.33 286.23 138 302.63 131"/><polygon class="cls-2" points="359.47 168.64 348.04 124.77 365.09 128.41 359.47 168.64"/><polygon class="cls-2" points="359.47 168.64 384.84 143.3 395.17 153.25 378.12 177.28 359.47 168.64"/><polygon class="cls-13" points="365.09 128.41 375.11 153.44 359.47 168.64 365.09 128.41"/><polygon class="cls-56" points="384.84 143.3 388.04 128.41 392.42 127.05 395.17 135.25 388.97 147.28 384.84 143.3"/><polygon class="cls-57" points="408.29 119.54 410.3 123.07 395.17 135.25 393.42 129.23 408.29 119.54"/><polygon class="cls-57" points="395.17 153.25 403.54 149.5 395.17 135.25 388.97 147.28 395.17 153.25"/><polygon class="cls-13" points="286.23 138 278.37 160.99 300.06 177.33 286.23 138"/><polygon class="cls-2" points="267.55 152.83 300.06 177.33 278.72 189 258.46 164.33 267.55 152.83"/><polygon class="cls-57" points="256.85 145.27 247.84 158.96 258.46 164.33 267.55 152.83 256.85 145.27"/><polygon class="cls-2" points="316.83 246.33 312 257 289.21 257 297.02 240.88 316.83 246.33"/><polygon class="cls-56" points="256.85 145.27 245.17 143.12 239.85 152.48 247.84 158.96 256.85 145.27"/><polygon class="cls-56" points="267.55 152.83 262.76 138.15 256.85 138.15 256.85 152.83 263.96 157.38 267.55 152.83"/><polygon class="cls-2" points="297.02 193.33 297.02 219.32 306.67 242.92 324.22 231.53 336.14 207.67 297.02 193.33"/><polygon class="cls-5" points="310.68 262 289.21 262 289.21 257 312 257 310.68 262"/><polygon class="cls-32" points="297.02 228.25 306.58 240.07 320.45 239.08 325.66 228.66 297.02 219.32 297.02 228.25"/><polygon class="cls-25" points="297.02 228.25 321.53 236.93 316.83 246.33 297.02 240.88 297.02 228.25"/><polygon class="cls-4" points="300.06 177.33 331.64 191.83 356.95 184.01 333.07 167.33 300.06 177.33"/><polygon class="cls-2" points="329.59 140.67 329.02 169.08 331.64 191.83 334.53 168.33 329.59 140.67"/><rect class="cls-2" x="304.57" y="151.67" width="19.32" height="3.17"/><polygon class="cls-2" points="379.5 82.17 399.05 132.31 395.17 135.25 379.5 88.61 379.5 82.17"/><polygon class="cls-4" points="383.25 115.33 383.25 120.75 389.88 119.51 397.25 116.92 400.34 113.58 400.75 109.17 393.84 110.88 391.4 113.63 383.25 115.33"/><polygon class="cls-3" points="383.25 115.33 386.17 115.92 394.75 113.08 400.75 109.17 392.67 110 390.68 110.85 391.15 112.13 388.04 113.38 387.44 112.24 385.67 113 383.25 115.33"/><polygon class="cls-4" points="380.42 106.83 381.84 111.17 386.5 109.44 392 106.83 395.65 103.33 394.75 101 389.88 102.25 386.99 104.41 380.42 106.83"/><polygon class="cls-4" points="377.67 98.92 378.42 101.83 383.25 101 387.34 99.42 392.75 94.78 390 92.5 385.42 95.79 382.46 97.33 377.67 98.92"/><polygon class="cls-4" points="376.84 93.83 387.17 89.83 384.84 86.39 376.84 88.61 376.84 93.83"/><polygon class="cls-2" points="394.75 113.08 397.25 116.92 400.34 113.58 400.75 109.17 394.75 113.08"/><polygon class="cls-2" points="386.17 115.92 389.88 119.51 383.25 120.75 383.25 115.33 386.17 115.92"/><polygon class="cls-3" points="380.42 106.83 384.84 106.08 390 104.06 394.75 101 389.28 101 387.17 101.83 387.68 103.13 384.81 104.25 384.42 103.24 382.42 104.17 380.42 106.83"/><polygon class="cls-2" points="389.88 104.11 392 106.83 395.65 103.33 394.75 101 389.88 104.11"/><polygon class="cls-2" points="384.84 106.08 386.5 109.44 381.84 111.17 380.42 106.83 384.84 106.08"/><polygon class="cls-3" points="377.67 98.92 382.46 98.31 387.38 96.52 390 92.5 384.51 95.01 384.78 95.71 382.23 96.71 382.03 96.14 381.59 96.34 377.67 98.92"/><polygon class="cls-3" points="384.84 86.39 376.84 93.83 376.84 88.61 384.84 86.39"/><polygon class="cls-13" points="328.37 204.17 306.14 262 388.04 307 423.34 258.38 397.59 237.13 328.37 204.17"/><polygon class="cls-25" points="328.37 204.17 397 241.39 404.25 208.31 331.64 191.83 328.37 204.17"/><polygon class="cls-25" points="397.59 237.13 388.04 307 504.84 268.5 494.18 213.5 397.59 237.13"/><polygon class="cls-58" points="331.64 191.83 397.75 224.5 489.59 196.75 397.75 170.92 331.64 191.83"/><polygon class="cls-53" points="489.59 196.75 397.75 224.5 397 241.39 494.18 213.5 489.59 196.75"/><polygon class="cls-55" points="297.02 193.33 324.65 213.83 328.37 204.17 297.02 193.33"/><polygon class="cls-59" points="358 193 399.05 178.33 460.59 195.24 399.5 213.5 358 193"/><polygon class="cls-28" points="364.38 196.15 399.46 181.75 399.05 178.33 358 193 364.38 196.15"/><polygon class="cls-50" points="398.5 182.38 450.41 198.28 460.59 195.24 399.05 178.33 398.5 182.38"/><polygon class="cls-16" points="366.6 197.24 409.3 181.23 417.44 183.39 374.09 200.95 366.6 197.24"/><polygon class="cls-16" points="378.73 203.24 423.34 184.84 432.82 187.61 386.57 207.11 378.73 203.24"/><polygon class="cls-16" points="389.75 208.68 440.84 189.58 450.39 192.44 397.59 212.55 389.75 208.68"/><polygon class="cls-10" points="418 209.75 368.83 187.86 369.75 184.97 374.09 185.34 413.46 205.17 418 209.75"/><polygon class="cls-6" points="390.98 188.1 389.17 185.95 382 186.58 376.52 193.64 378.73 199.05 381.27 202.19 387.61 199.43 387.06 195.97 390.98 188.1"/><polygon class="cls-11" points="390.98 188.1 386.42 188.31 380.83 196.24 381.27 202.19 388.91 199.06 389.87 197.23 387.06 195.97 389.06 192.81 391.2 193.96 391.93 192.17 390.98 188.1"/><polygon class="cls-6" points="400 193.64 397 191.59 393.78 192.9 389.17 199.85 391.63 206.07 393.91 207.09 396.49 202.78 397.03 199.21 400 193.64"/><polygon class="cls-6" points="407.64 198.23 402.5 197.06 399.46 202.19 398.82 208.11 401.25 209.18 404.21 204.23 405.22 201.05 407.64 198.23"/><polygon class="cls-6" points="409.88 201.6 407.52 206.56 407.64 209.79 410.64 209.54 411.75 205.28 414.75 201.6 409.88 201.6"/><polygon class="cls-11" points="400 193.64 395.17 195.01 392 200.37 393.91 207.09 399.14 205.17 400 201.6 397 200.4 398.29 197.58 401.25 199.02 402.5 197.06 400 193.64"/><polygon class="cls-11" points="407.64 198.23 404.54 200.36 401.25 204.17 401.25 209.18 406.27 204.53 404.72 203.84 405.83 201.34 406.37 201.6 407.25 201.98 407.64 198.23"/><polygon class="cls-11" points="411.14 209.5 407.64 209.79 411.5 202.69 414.75 201.6 415.36 203.3 413.83 205.54 413.46 205.17 411.81 206.94 412.6 207.35 411.14 209.5"/><polygon class="cls-10" points="441.61 200.61 392.5 180.17 393.92 175.33 397.82 175.13 406.13 180.25 437.08 196.03 441.61 200.61"/><polygon class="cls-6" points="416.17 178.29 411.81 175.82 401.3 183.98 401.83 189.03 406.51 192.46 411.23 190.28 411.03 186.61 416.17 178.29"/><polygon class="cls-11" points="416.17 178.29 404.33 185.87 406.51 192.46 412.97 189.75 413.49 188.08 414.82 184.81 419.28 182.06 416.17 178.29"/><polygon class="cls-6" points="425.17 183.5 419.28 182.06 412.97 185.37 412.97 195.42 416.59 196.95 420.11 193.63 420.65 190.07 425.17 183.5"/><polygon class="cls-6" points="431.13 187.41 428.55 185.87 424.62 189.75 423.02 193.26 422.33 198.17 426.88 200.65 427.82 195.09 428.84 191.91 431.13 187.41"/><polygon class="cls-6" points="433.5 192.46 430.77 197.1 431.26 200.65 434.85 201.36 435.08 196.03 438.37 192.46 433.5 192.46"/><polygon class="cls-11" points="425.17 183.5 417.92 187.41 416.59 196.95 421.42 194.1 422.33 192.02 421.06 191.46 422.31 188.64 423.91 189.39 425.17 183.5"/><polygon class="cls-11" points="431.13 187.41 426.52 190.25 425.17 195.22 424.93 199.61 426.88 200.65 429.52 195.22 428.34 194.7 429.44 192.19 430.45 192.81 434.19 191.42 431.13 187.41"/><polygon class="cls-3" points="434.4 181.23 428.61 165.19 449.98 141.15 447.42 115.04 456.98 104.18 453.31 116.08 457.58 149.04 437.56 169.97 434.4 181.23"/><polygon class="cls-3" points="420.07 177.15 423.34 158.17 436.59 137.81 430.83 97.09 436.89 77.46 424.72 93.34 427.54 132.14 411.33 155.05 420.07 177.15"/><polygon class="cls-56" points="402.39 129.44 408.1 142.71 403.54 149.5 395.17 135.25 402.39 129.44"/><polygon class="cls-5" points="302.63 242.3 302.63 242.3 297.02 248.88 307.15 248.88 307.15 243.58 307.15 243.58 302.63 242.3"/><polygon class="cls-60" points="302.63 242.3 307.15 243.58 308.5 237.63 303.27 236.24 302.63 242.3"/><polygon class="cls-11" points="433.44 199 434.5 197.06 435.25 197.36 435.86 197.98 437.14 195.49 436.54 193.79 433.82 195.37 431.13 198.56 430.5 202.19 433.02 202.69 434.74 199.68 433.44 199"/></g></g></g></svg>