<svg id="illustration_kopia_3" data-name="illustration kopia 3" xmlns="http://www.w3.org/2000/svg" viewBox="0 0 900 350"><defs><style>.cls-1{fill:#a2a2a2;}.cls-1,.cls-10,.cls-12,.cls-13,.cls-14,.cls-15,.cls-16,.cls-17,.cls-18,.cls-19,.cls-2,.cls-20,.cls-21,.cls-22,.cls-23,.cls-24,.cls-25,.cls-26,.cls-27,.cls-28,.cls-29,.cls-3,.cls-30,.cls-31,.cls-32,.cls-33,.cls-36,.cls-37,.cls-38,.cls-39,.cls-40,.cls-41,.cls-42,.cls-43,.cls-44,.cls-45,.cls-46,.cls-47,.cls-48,.cls-49,.cls-50,.cls-51,.cls-52,.cls-53,.cls-6,.cls-7,.cls-8,.cls-9{fill-rule:evenodd;}.cls-2{fill:#c3c3c3;}.cls-3{fill:#dcdcdb;}.cls-13,.cls-4{fill:#9ca0a1;}.cls-44,.cls-49,.cls-5,.cls-8{fill:#2b2b2b;}.cls-33,.cls-5,.cls-8{opacity:0.2;}.cls-6{fill:#ebebea;}.cls-11,.cls-7{fill:#737373;}.cls-9{fill:#848585;}.cls-10,.cls-33,.cls-43{fill:#33231b;}.cls-10,.cls-12,.cls-44{opacity:0.1;}.cls-14{fill:#4f5253;}.cls-15,.cls-34{fill:#5a753d;}.cls-16{fill:#738c57;}.cls-17{fill:#9fce7e;}.cls-18{fill:#446125;}.cls-19{fill:#709c53;}.cls-20,.cls-35{fill:#98c16d;}.cls-21{fill:#8a6651;}.cls-22{fill:#debca4;}.cls-23{fill:#474747;}.cls-24{fill:#c2977b;}.cls-25{fill:#b08c79;}.cls-26{fill:#e7c9b5;}.cls-27{fill:#b7c645;}.cls-28{fill:#e7ef78;}.cls-29{fill:#d8e254;}.cls-30{fill:#6f7173;}.cls-31{fill:#beda8d;}.cls-32{fill:#cdcdcc;}.cls-36{fill:#35785d;}.cls-37{fill:#54af8a;}.cls-38{fill:#3f8e6f;}.cls-39{fill:#a67e62;}.cls-40{fill:#825940;}.cls-41{fill:#bf9b83;}.cls-42{fill:#72c8a5;}.cls-45{fill:#fce3d4;}.cls-46{fill:#f4c9b2;}.cls-47{fill:#ffefe7;}.cls-48{fill:#c1907d;}.cls-50{fill:#8e8e8e;}.cls-51{fill:#1c7678;}.cls-53{fill:#fff;}</style></defs><title>diplomats_Advocate_INFJ_introduction</title><g id="walls"><polygon class="cls-1" points="19.53 94.14 33.04 54.32 39.44 92.72 19.53 94.14"/><polygon class="cls-1" points="213.66 79.2 226.46 43.65 228.59 78.49 213.66 79.2"/><polygon class="cls-1" points="269.12 57.87 271.26 19.47 281.92 57.16 269.12 57.87"/><polygon class="cls-1" points="366.54 37.96 375.07 6.67 380.05 37.25 366.54 37.96"/><polygon class="cls-1" points="676.93 40.09 663.42 10.23 661.28 47.21 676.93 40.09"/><polygon class="cls-1" points="743.41 63.2 734.17 33.34 729.19 66.05 743.41 63.2"/><polygon class="cls-1" points="843.68 86.31 836.57 45.07 829.46 86.31 843.68 86.31"/><polygon class="cls-2" points="298.24 104.92 420.43 109.56 576.11 96.95 727.42 107.72 822.35 104.92 814.25 204.66 763.33 201.87 687.15 209.05 659.32 211.32 571.67 209.72 401.83 185.46 334.89 206.49 308.87 203.05 298.24 104.92"/><polygon class="cls-2" points="46.64 131.82 201.59 120.4 196.74 193.64 46.64 194.36 46.64 131.82"/><polygon class="cls-1" points="38.02 79.2 55.27 87.92 50.2 194.49 26.64 203.64 29.49 139.27 38.02 79.2"/><polygon class="cls-1" points="242.78 64.94 261.3 84.47 251.69 209.72 231.08 216.37 231.08 131.82 242.78 64.94"/><polygon class="cls-1" points="287.61 46.96 304.84 67.83 308.87 203.05 294 210.04 287.61 139.27 287.61 46.96"/><polygon class="cls-1" points="398.68 26.11 424.49 41.21 397.05 209.72 369.72 221.73 380.19 117.61 398.68 26.11"/><polygon class="cls-1" points="543.69 59.12 515.11 68.98 518.92 214.19 532.49 219.43 544.76 128.5 543.69 59.12"/><polygon class="cls-1" points="701.82 61.78 731.33 53.6 737.01 117.61 737.01 209.72 698.55 208.13 701.82 61.78"/><polygon class="cls-1" points="681.37 216.18 659.32 211.32 647.36 53.52 673 31.49 680.09 131.82 681.37 216.18"/><polygon class="cls-1" points="814.25 204.66 808.48 85.31 831.23 75.67 836.92 135.23 836.21 211.9 814.25 204.66"/><polygon class="cls-3" points="0.33 201.37 3.18 85.98 38.02 79.2 26.64 203.64 0.33 201.37"/><polygon class="cls-3" points="194.6 212.5 198.37 70.38 242.78 64.94 231.08 216.37 194.6 212.5"/><polygon class="cls-3" points="251.69 209.72 254.9 49.69 287.61 46.96 294 210.04 251.69 209.72"/><polygon class="cls-3" points="333.59 215.2 347.68 28.51 398.68 26.11 369.72 221.73 333.59 215.2"/><polygon class="cls-3" points="532.49 219.43 543.69 59.12 585.44 64.94 571.17 217.29 532.49 219.43"/><polygon class="cls-3" points="673 31.49 709 36.27 703.95 214.19 681.37 216.18 673 31.49"/><polyline class="cls-3" points="731.33 53.6 763.33 61.25 763.33 208.35 737.01 209.72"/><polygon class="cls-3" points="831.23 75.67 862.17 81.67 858.97 209.5 836.21 211.9 831.23 75.67"/></g><g id="skulls"><rect class="cls-4" x="365.12" y="95.89" width="5.67" height="141.84"/><rect class="cls-5" x="365.12" y="95.89" width="5.67" height="17.93"/><polygon class="cls-2" points="389.83 71.53 367.79 55.32 345.74 71.53 350.46 79.49 352.5 85.04 347.52 87.89 353.56 97.13 359.25 93.09 359.61 101.75 367.79 101.75 375.96 101.75 376.45 93.09 382.01 97.13 388.05 87.89 383.07 85.04 384.97 80.02 389.83 71.53"/><polygon class="cls-6" points="367.79 55.32 345.74 71.53 352.5 85.04 347.52 87.89 353.56 97.13 358.54 94.64 359.61 101.75 367.79 101.75 367.79 55.32"/><polygon class="cls-7" points="355.65 76.95 365.39 76.95 365.39 86.26 361.65 81.61 355.65 76.95"/><polygon class="cls-7" points="380.19 76.95 370.45 76.95 370.45 86.26 373.92 81.61 380.19 76.95"/><polyline class="cls-7" points="367.25 91.22 365.12 91.22 367.25 86.42"/><polyline class="cls-7" points="368.65 91.22 370.79 91.22 368.65 86.42"/><polygon class="cls-8" points="375.96 101.75 377.03 94.64 382.01 97.13 374.72 90.15 375.96 101.75"/><polygon class="cls-8" points="353.56 97.13 358.54 94.64 359.61 101.75 360.92 90.15 353.56 97.13"/><polygon class="cls-8" points="355.19 83.42 345.74 71.53 352.5 85.04 355.19 83.42"/><polygon class="cls-8" points="383.07 85.04 389.83 71.53 380.12 83.35 383.07 85.04"/><polygon class="cls-9" points="380.19 76.95 373.25 79.75 370.45 86.26 380.19 76.95"/><polygon class="cls-9" points="355.65 76.95 362.05 79.75 365.39 86.26 355.65 76.95"/><rect class="cls-4" x="453.14" y="140.25" width="195.17" height="5.67" transform="translate(320.28 663.34) rotate(-80.67)"/><rect class="cls-5" x="556.11" y="52.8" width="17.93" height="5.67" transform="translate(418.62 604.23) rotate(-80.68)"/><polygon class="cls-2" points="592.06 26.3 572.93 6.73 548.55 19.16 551.92 27.77 553.03 33.58 547.66 35.58 552.13 45.69 558.39 42.62 557.34 51.23 565.41 52.55 573.48 53.87 575.37 45.4 580.19 50.29 587.66 42.15 583.2 38.54 585.89 33.89 592.06 26.3"/><polygon class="cls-6" points="572.93 6.73 548.55 19.16 553.03 33.58 547.66 35.58 552.13 45.69 557.44 44.04 557.34 51.23 565.41 52.55 572.93 6.73"/><polygon class="cls-7" points="557.45 26.11 567.06 27.69 565.55 36.88 562.62 31.68 557.45 26.11"/><polygon class="cls-7" points="581.66 30.09 572.06 28.51 570.55 37.7 574.73 33.66 581.66 30.09"/><polyline class="cls-7" points="566.59 42.07 564.49 41.72 567.37 37.33"/><polyline class="cls-7" points="567.97 42.3 570.08 42.64 568.75 37.56"/><polygon class="cls-8" points="573.48 53.87 575.68 47.03 580.19 50.29 574.13 42.23 573.48 53.87"/><polygon class="cls-8" points="552.13 45.69 557.44 44.04 557.34 51.23 560.51 39.99 552.13 45.69"/><polygon class="cls-8" points="555.95 32.42 548.55 19.16 553.03 33.58 555.95 32.42"/><polygon class="cls-8" points="583.2 38.54 592.06 26.3 580.56 36.39 583.2 38.54"/><polygon class="cls-9" points="581.66 30.09 574.37 31.73 570.55 37.7 581.66 30.09"/><polygon class="cls-9" points="557.45 26.11 563.32 29.91 565.55 36.88 557.45 26.11"/><rect class="cls-4" x="333.21" y="87.8" width="5.67" height="141.84" transform="translate(-26.15 75.45) rotate(-12.34)"/><rect class="cls-5" x="319.98" y="89.23" width="5.67" height="17.93" transform="translate(-13.53 71.26) rotate(-12.34)"/><polygon class="cls-2" points="337.07 60.97 312.07 49.84 294 70.38 300.31 77.15 303.48 82.14 299.23 85.98 307.11 93.72 311.8 88.56 314 96.95 321.99 95.2 329.98 93.45 328.6 84.88 334.89 87.65 338.82 77.33 333.36 75.61 334.14 70.3 337.07 60.97"/><polygon class="cls-6" points="312.07 49.84 294 70.38 303.48 82.14 299.23 85.98 307.11 93.72 311.44 90.23 314 96.95 321.99 95.2 312.07 49.84"/><polygon class="cls-7" points="304.84 73.56 314.35 71.49 316.34 80.58 311.69 76.83 304.84 73.56"/><polygon class="cls-7" points="328.81 68.33 319.3 70.4 321.29 79.5 323.68 74.21 328.81 68.33"/><polyline class="cls-7" points="319.22 85.02 317.13 85.48 318.19 80.33"/><polyline class="cls-7" points="320.58 84.72 322.67 84.27 319.56 80.04"/><polygon class="cls-8" points="329.98 93.45 329.5 86.28 334.89 87.65 326.28 82.39 329.98 93.45"/><polygon class="cls-8" points="307.11 93.72 311.44 90.23 314 96.95 312.8 85.33 307.11 93.72"/><polygon class="cls-8" points="305.76 79.98 294 70.38 303.48 82.14 305.76 79.98"/><polygon class="cls-8" points="333.36 75.61 337.07 60.97 330.11 74.59 333.36 75.61"/><polygon class="cls-9" points="328.81 68.33 322.63 72.54 321.29 79.5 328.81 68.33"/><polygon class="cls-9" points="304.84 73.56 311.69 74.93 316.34 80.58 304.84 73.56"/></g><g id="throne"><polygon class="cls-10" points="340.76 238.67 478.36 213.6 582.36 247.2 454.36 262.13 340.76 238.67"/><polygon class="cls-9" points="428.9 29.87 405.23 17.34 399.38 17.34 392.14 20.9 405.23 39.74 428.9 29.87"/><polygon class="cls-7" points="405.23 17.34 405.23 -0.08 392.14 20.9 405.23 17.34"/><polygon class="cls-7" points="412.93 184.8 399.38 184.8 399.38 67.83 412.93 67.83 415.04 115.51 412.93 184.8"/><polygon class="cls-9" points="426.49 184.8 412.93 184.8 412.93 67.83 426.49 67.83 428.9 115.51 426.49 184.8"/><polygon class="cls-7" points="440.04 184.8 426.49 184.8 426.49 67.83 440.04 67.83 442.62 118.36 440.04 184.8"/><polygon class="cls-9" points="453.6 184.8 440.04 184.8 440.04 67.83 453.6 67.83 454.8 118.36 453.6 184.8"/><polygon class="cls-7" points="467.15 184.8 453.6 184.8 453.6 67.83 467.15 67.83 469.28 122.77 467.15 184.8"/><polygon class="cls-9" points="480.7 184.8 467.15 184.8 467.15 67.83 480.7 67.83 482.37 122.77 480.7 184.8"/><polygon class="cls-7" points="494.26 184.8 480.7 184.8 480.7 67.83 494.26 67.83 495.74 126.06 494.26 184.8"/><polygon class="cls-9" points="507.81 184.8 494.26 184.8 494.26 67.83 507.81 67.83 511.06 123.92 507.81 184.8"/><rect class="cls-11" x="507.81" y="67.83" width="13.55" height="116.97"/><polygon class="cls-12" points="521.37 85.6 399.38 73.87 399.38 67.83 521.37 67.83 521.37 85.6"/><polygon class="cls-9" points="392.14 46.67 392.14 69.96 528.05 76.36 528.05 46.67 392.14 46.67"/><polygon class="cls-7" points="460.09 44.54 392.14 46.67 392.14 54.85 462.23 61.25 528.05 53.78 528.05 46.67 460.09 44.54"/><polygon class="cls-13" points="375.43 49.87 460.09 54.14 465.43 34.14 465.43 14.14 375.43 49.87"/><polygon class="cls-7" points="491.29 29.87 514.96 17.34 520.8 17.34 528.05 20.9 514.96 39.74 491.29 29.87"/><polygon class="cls-9" points="514.96 17.34 514.96 -0.08 528.05 20.9 514.96 17.34"/><polygon class="cls-9" points="544.76 46.67 460.09 54.14 465.43 14.14 544.76 46.67"/><polygon class="cls-7" points="499.96 184.8 420.82 184.8 418.91 235.25 502.43 239.7 499.96 184.8"/><polygon class="cls-9" points="426.49 244.13 378.63 244.18 384.9 167 426.49 167 426.49 244.13"/><polygon class="cls-7" points="411.3 226.33 400.1 226.33 397.05 181.23 411.3 184.8 411.3 226.33"/><polygon class="cls-14" points="378.63 244.18 400.1 226.33 411.3 226.33 422.6 238.81 426.49 244.13 378.63 244.18"/><polygon class="cls-13" points="411.3 184.8 426.49 167 384.9 167 397.05 181.23 411.3 184.8"/><polygon class="cls-9" points="540.05 244.89 494.31 244.13 494.31 167 535.91 167 540.05 244.89"/><polygon class="cls-7" points="520.71 226.33 505.74 230.75 509.51 184.8 522.21 183.04 520.71 226.33"/><polygon class="cls-14" points="494.31 244.13 494.56 239.23 505.74 230.75 520.71 226.33 540.05 244.89 494.31 244.13"/><polygon class="cls-13" points="522.21 183.04 535.91 167 494.31 167 509.51 184.8 522.21 183.04"/><polygon class="cls-2" points="384.9 167 399.38 159.05 420.92 161.58 426.49 167 384.9 167"/><polygon class="cls-2" points="535.91 167 521.37 159.05 502.43 161.58 494.31 167 535.91 167"/></g><g id="tyrant"><polygon class="cls-15" points="437.02 113.81 437.02 123.92 433.64 130.87 408.4 138 383.16 139.71 425.14 104.19 437.02 113.81"/><polygon class="cls-16" points="433.64 130.87 433.64 139.71 429.66 151.01 410.09 139.71 384.9 167 383.16 139.71 433.64 130.87"/><polygon class="cls-17" points="384.9 167 408.77 135.23 429.66 151.01 429.66 159.05 426.49 167 413.18 160.27 384.9 167"/><polygon class="cls-18" points="437.29 112.41 449.47 118.36 446.89 142.18 440.04 163.64 433.64 167 426.49 167 437.29 112.41"/><polygon class="cls-19" points="449.47 118.36 461.44 126.31 460.38 143.78 457.56 159.05 448.76 163.02 440.04 163.64 449.47 118.36"/><polygon class="cls-18" points="461.44 126.31 478.29 141 479.95 152.65 477.36 163.64 457.56 159.05 461.44 126.31"/><polygon class="cls-19" points="478.29 141 491.29 151.11 494.31 167 484.49 167 477.36 163.64 478.29 141"/><polygon class="cls-16" points="494.31 167 489.57 152.65 497.16 155.11 502.43 161.58 494.31 167"/><polygon class="cls-20" points="424.49 104.67 502.43 161.58 521.37 159.05 525.82 159.82 524.4 123.92 505.02 103.26 444.03 90.32 424.49 104.67"/><polygon class="cls-21" points="460.67 114.74 473.74 126.06 485.79 118.36 473.74 115.73 460.67 114.74"/><polygon class="cls-22" points="453.03 72.05 446.36 68.72 442.62 80.24 447.82 82.61 451.61 78.58 453.03 72.05"/><polygon class="cls-22" points="502.66 85.6 508.78 84.47 509.67 95.37 504.06 96.43 502.27 91.47 502.66 85.6"/><polygon class="cls-21" points="447.07 79.83 449.47 74.23 446.89 73.16 447.07 79.83"/><polygon class="cls-21" points="505.11 93.87 504.85 88.54 507.6 87.92 505.11 93.87"/><polygon class="cls-23" points="457.74 62.49 444.03 90.32 450.88 95.37 455.96 78.23 457.74 62.49"/><polygon class="cls-23" points="501.29 76.72 505.02 103.26 497.58 104.67 498.8 90.23 501.29 76.72"/><polygon class="cls-22" points="457.74 62.49 452.68 86.74 449.38 111.29 493.56 117.78 498.65 96.65 501.29 76.72 482.37 67.83 457.74 62.49"/><polygon class="cls-24" points="458.89 76.72 476.36 81.87 496.63 85.6 478.14 92.23 469.28 90.32 458.89 76.72"/><polygon class="cls-25" points="452.68 86.74 447.25 112.8 495.58 119.78 497.58 107.83 498.65 96.65 452.68 86.74"/><polygon class="cls-26" points="479.95 82.53 478.19 92.24 469.28 90.32 470.84 80.24 479.95 82.53"/><polygon class="cls-21" points="460.23 95.47 473.16 95.74 483.29 101.47 481.56 104.67 472.09 98 460.36 98.94 460.23 95.47"/><polygon class="cls-21" points="469.28 90.32 472.95 94.54 478.19 92.24 469.28 90.32"/><polygon class="cls-23" points="459.96 70 457.56 76.54 476.36 85.74 497.16 86 496.63 77.07 476.76 80.24 459.96 70"/><polygon class="cls-27" points="497.58 53.52 481.73 64.78 478.81 45.87 466.39 58.81 499.11 71.55 497.58 53.52"/><polygon class="cls-28" points="460.09 56.36 468.4 37.52 473.74 61.52 490 46.05 490.71 68.28 511.78 55.63 503.25 73.16 496.63 71.55 482.75 66.54 467.51 60.45 460.09 56.36"/><polygon class="cls-29" points="457.74 62.49 460.09 56.36 503.25 73.16 501.29 76.72 457.74 62.49"/><polygon class="cls-27" points="468.4 37.52 465.43 29.61 471.76 31.01 476.76 35.07 468.4 37.52"/><polygon class="cls-27" points="474.62 39.74 478.81 45.87 484.63 42.01 479.95 39.74 474.62 39.74"/><polygon class="cls-27" points="490 46.05 487.26 38.85 492.21 39.74 497.16 42.81 490 46.05"/><polygon class="cls-27" points="494.26 47.87 497.58 53.52 504.23 50.25 499.25 47.87 494.26 47.87"/><polygon class="cls-27" points="511.78 55.63 510.54 49.69 514.96 51.47 518.92 54.82 511.78 55.63"/><polygon class="cls-28" points="465.43 29.61 473.74 26.94 476.76 35.07 465.43 29.61"/><polygon class="cls-28" points="474.62 39.74 480.7 35.07 484.63 42.01 474.62 39.74"/><polygon class="cls-28" points="487.26 38.85 495.02 35.07 497.16 42.81 487.26 38.85"/><polygon class="cls-28" points="494.26 47.87 501.3 42.81 504.23 50.25 494.26 47.87"/><polygon class="cls-28" points="510.54 49.69 518.92 46.05 518.92 54.82 510.54 49.69"/><polygon class="cls-30" points="459.96 70 476.36 85.74 496.63 77.07 475.56 78 459.96 70"/><polygon class="cls-15" points="524.4 123.92 512.09 132.03 502.43 161.58 521.37 159.05 529.76 163.64 524.4 123.92"/><polygon class="cls-16" points="512.09 132.03 529.76 163.64 502.43 161.58 504.23 146.63 512.09 132.03"/><polygon class="cls-31" points="512.09 132.03 497.16 122.77 478.29 143.78 502.43 161.58 512.09 132.03"/><polygon class="cls-21" points="497.16 122.77 505.74 119.78 505.74 108.68 500.13 115.73 497.16 122.77"/><polygon class="cls-21" points="489.57 135.23 492.21 147.49 502.66 132.09 497.16 122.77 492.76 128 489.57 135.23"/><polygon class="cls-24" points="505.74 108.68 498.65 96.65 497.65 104.19 496.45 113.19 501.1 112.41 505.74 108.68"/><polygon class="cls-22" points="485.79 118.36 496.45 113.19 505.74 108.68 489.57 135.23 485.79 118.36"/><polygon class="cls-19" points="456.63 208.13 426.49 208.13 415.04 195.87 426.49 181.23 438.76 176.27 456.63 208.13"/><polygon class="cls-19" points="476.36 176.27 494.26 181.23 494.26 208.13 456.63 208.13 476.36 176.27"/><polygon class="cls-18" points="437.98 178.74 456.63 208.13 476.9 178.34 454.8 173.47 437.98 178.74"/><polygon class="cls-15" points="426.49 167 457.56 159.05 494.31 167 494.26 181.23 455.96 174.84 426.49 181.23 426.49 167"/><polygon class="cls-20" points="457.56 159.05 455.96 174.84 476.9 178.34 477.37 163.33 457.56 159.05"/><polygon class="cls-15" points="460.4 165.07 473.23 165.07 473.96 174 460.4 173.07 460.4 165.07"/><polygon class="cls-15" points="444.42 188.89 441.56 217.2 421.56 216.53 415.04 195.87 428.36 194.4 444.42 188.89"/><polygon class="cls-15" points="467.92 191.53 481.09 196.63 494.26 198.93 494.26 214.67 470.82 217.2 467.92 191.53"/><polygon class="cls-17" points="415.04 195.87 430.89 204.37 444.42 188.89 415.04 195.87"/><polygon class="cls-17" points="467.92 191.53 479.95 205.59 494.26 198.93 467.92 191.53"/><polygon class="cls-18" points="416.63 217.2 445.96 218.13 444.72 223.65 428.23 254 416.12 221.38 416.63 217.2"/><polygon class="cls-18" points="468.75 218.67 495.76 214 495.84 219.34 494.24 244.18 487.82 255.75 468.31 224.01 468.75 218.67"/><polygon class="cls-15" points="429.66 233.33 415.69 244.18 416.12 248.13 429.66 256 444.42 247.73 443.65 244.99 429.66 233.33"/><polygon class="cls-15" points="487.34 233.71 474.77 243.82 471.54 247.49 487.82 255.75 502.48 247.89 500.4 244.23 487.34 233.71"/><polygon class="cls-19" points="448.23 217.2 413.83 215.2 416.12 221.38 444.72 223.65 448.23 217.2"/><polygon class="cls-19" points="468.31 224.01 495.84 219.34 498.09 212.25 464.76 217.2 468.31 224.01"/><polygon class="cls-19" points="410.36 247.73 429.66 256 447.42 248.13 443.65 244.99 429.73 251.23 415.69 244.18 410.36 247.73"/><polygon class="cls-19" points="500.4 244.23 487.82 250.72 474.77 243.82 468.88 248.55 487.82 255.75 504.83 248.19 500.4 244.23"/><polygon class="cls-22" points="388.97 161.58 415.04 155.11 420.43 167 388.97 161.58"/><polygon class="cls-24" points="388.97 161.58 397.05 176.27 413.83 176.27 420.43 167 388.97 161.58"/></g><g id="crate"><polygon class="cls-10" points="688.03 260.4 862.17 281.66 899.5 250.71 787.58 232.26 688.03 260.4"/><polygon class="cls-30" points="825.54 263.82 835.5 231.63 835.5 190.91 758.7 184.18 677.47 187.56 692.4 257.68 825.54 263.82"/><polygon class="cls-14" points="825.54 267.94 873.19 254.46 876.39 184.18 855.86 184.18 835.5 190.91 825.54 267.94"/><polygon class="cls-13" points="835.5 190.91 840.12 172.77 763.68 146.89 677.47 174.07 677.47 187.56 758.8 187.07 835.5 190.91"/><polygon class="cls-30" points="763.68 146.89 876.39 172.77 860.03 185.71 835.5 190.91 835.32 176.15 763.68 146.89"/><polygon class="cls-32" points="835.32 176.15 677.47 174.07 677.47 187.56 835.5 190.91 840.12 183.02 835.32 176.15"/><polygon class="cls-13" points="835.5 190.91 835.32 176.15 876.39 172.77 876.39 184.18 835.5 190.91"/><path class="cls-32" d="M677.47,187.56,688,260.4l137.51,7.54,8.37-30.51,1.59-46.51Zm125,68.5-94.92-11L694,196.67l123,9.86Z"/><path class="cls-9" d="M835.5,190.92l-10,77,50.85-11.33V184.18Zm30,56.45-25.42,6.41,3-52.62,25.6-2.14Z"/><polygon class="cls-33" points="736.13 222.3 744.13 230.32 778.79 222.3 772.88 189.68 752.13 197.31 736.13 222.3"/><polygon class="cls-1" points="764.33 183.24 760.48 214.84 731.33 214.7 738.26 220.89 769.24 219.2 772.88 189.68 764.33 183.24"/><polygon class="cls-30" points="761.55 216.97 768.13 220.44 736.13 222.3 731.33 214.7 747.83 213.6 761.55 216.97"/><polygon class="cls-6" points="731.33 214.7 736.66 177.41 764.33 183.24 761.55 216.97 731.33 214.7"/><polygon class="cls-30" points="740.93 193.33 750.71 186.58 757.11 195.29 748.93 200.62 750.53 208.62 742.71 207.73 745.73 200.09 740.93 193.33"/></g><g id="guard"><polygon class="cls-10" points="553.02 292.68 637.4 278.91 721.21 303.59 627.07 323.11 553.02 292.68"/><rect class="cls-34" x="621.33" y="159.37" width="77.83" height="23.92" transform="translate(170.19 645.8) rotate(-58.62)"/><polygon class="cls-16" points="690.53 136.55 683.91 132.51 680.76 126.47 712.16 73.87 718.88 75.17 725.5 79.21 690.53 136.55"/><rect class="cls-35" x="664.51" y="97.95" width="67.16" height="7.75" transform="translate(247.71 644.83) rotate(-58.63)"/><polygon class="cls-15" points="724.25 81.25 711.02 73.18 709.92 63.21 722.66 68.97 733.61 77.66 724.25 81.25"/><polygon class="cls-17" points="709.92 63.21 726.65 62.43 733.61 77.66 709.92 63.21"/><polygon class="cls-19" points="648.4 120.37 710.97 158.53 716.59 149.3 695.52 136.45 683.91 132.51 675.1 124 654.02 111.15 648.4 120.37"/><polygon class="cls-17" points="675.1 124 695.52 136.45 674.05 148.68 675.1 124"/><polygon class="cls-36" points="618.31 265.9 619.6 290 582.01 286.75 591.29 259.97 618.31 265.9"/><polygon class="cls-36" points="645.82 272.4 644.86 294.41 682.56 292.88 673.18 268.77 645.82 272.4"/><polygon class="cls-37" points="590.14 211.52 578.85 254.42 597.65 274.99 606.02 249.94 610.52 230.11 602.67 219.21 590.14 211.52"/><polygon class="cls-37" points="628.93 246.91 634.91 273.55 665.53 282.21 660.29 254.23 651.4 232.84 639.07 237.28 628.93 246.91"/><polygon class="cls-38" points="610.52 230.11 620.56 237.28 628.93 246.91 624.2 268 597.65 274.99 610.52 230.11"/><polygon class="cls-38" points="673.18 219.21 685.33 263.98 665.53 282.21 651.4 232.84 660.29 225.72 673.18 219.21"/><polygon class="cls-19" points="590.14 211.52 610.52 230.11 628.93 245 651.4 232.84 673.18 219.21 630.66 213.73 590.14 211.52"/><polygon class="cls-15" points="618.31 214.19 610.52 230.11 628.93 246.91 651.4 232.84 641.41 216.27 630.66 213.73 618.31 214.19"/><polygon class="cls-19" points="612.15 145.54 592.82 191.95 630.66 198.27 672.8 201.93 685.33 152.34 612.15 145.54"/><polygon class="cls-29" points="629.77 92.64 618.07 87.57 614.25 82.5 612.34 77.43 612.34 62.31 601.04 80.44 607.17 102.19 611.42 115.02 629.77 92.64"/><polygon class="cls-27" points="620.65 103.78 601.04 80.44 604.95 102.8 611.42 115.02 620.65 103.78"/><polygon class="cls-28" points="618.07 87.57 601.04 80.44 612.34 77.43 618.07 87.57"/><polygon class="cls-38" points="685.33 152.34 677.34 116.53 672.41 104.79 666.08 95.19 657.87 89.49 651.18 80.44 629.77 92.64 618.65 102.19 611.42 115.02 602.67 137.75 620.18 149.69 639.41 167.94 664.76 157.03 685.33 152.34"/><polygon class="cls-36" points="685.33 152.34 667.25 144.78 640.28 163.58 613.8 132.32 602.67 137.75 639.41 167.94 685.33 152.34"/><polygon class="cls-36" points="651.18 80.44 643.14 100.97 654.61 99.75 666.08 95.19 651.18 80.44"/><polygon class="cls-39" points="660.29 123.76 664 123.35 665.75 126.96 667.85 145.03 654.61 155.3 654.61 139.65 660.29 123.76"/><polygon class="cls-40" points="625.5 148.61 643.14 150.93 654.61 155.3 639.41 167.94 625.5 148.61"/><polygon class="cls-41" points="660.29 123.76 654.61 155.3 612.15 145.54 614.81 124.19 617.17 119.97 660.29 123.76"/><polygon class="cls-40" points="619.22 136.61 648.88 139.71 647.16 142.69 619.22 139.65 619.22 136.61"/><polygon class="cls-40" points="665.75 126.96 630.9 136.23 614.81 124.19 615.41 118.95 633 129.09 665.03 121.75 665.75 126.96"/><polygon class="cls-37" points="677.34 116.54 630.9 136.23 614.25 114.43 617.31 99.75 630.13 95.19 643.14 100.97 666.08 95.19 674.42 103.45 677.34 116.54"/><polygon class="cls-42" points="643.14 100.97 630.9 136.23 611.42 115.02 617.31 99.75 629.77 92.64 643.14 100.97"/><polygon class="cls-43" points="624.48 108.09 638.02 115.71 657.78 109.86 659.5 116.54 635.07 124.19 622.33 113.74 624.48 108.09"/><polygon class="cls-29" points="666.08 95.19 676.05 93.79 682.17 89.81 685.33 85.84 689.44 70.93 693.08 91.02 682.56 109.86 677.34 116.54 665.14 108.09 666.08 95.19"/><polygon class="cls-27" points="665.14 108.09 693.08 91.02 683.32 111.58 677.34 116.54 665.14 108.09"/><polygon class="cls-28" points="685.33 85.84 693.08 91.02 676.05 93.79 685.33 85.84"/><polygon class="cls-15" points="592.82 191.95 590.14 211.52 618.32 214.13 631.66 214.19 641.41 216.26 673.18 219.21 672.8 201.93 642.53 198.15 631.66 198.55 620.2 195.37 592.82 191.95"/><polygon class="cls-20" points="620.18 195.53 618.31 214.19 641.41 216.27 642.53 198.15 620.18 195.53"/><polygon class="cls-15" points="625.5 200.13 637.11 200.77 635.1 211.18 624.2 209.02 625.5 200.13"/><polygon class="cls-38" points="574.26 288.86 597.65 274.99 624.2 292.88 617.69 299.38 575.36 297.85 574.26 288.86"/><polygon class="cls-38" points="639.07 295.94 665.53 282.21 682.56 292.88 688.3 295.94 687.15 303.59 647.23 304.93 639.07 295.94"/><polygon class="cls-37" points="668.36 294.41 687.15 303.59 670.12 312.2 668.36 303.3 668.36 294.41"/><polygon class="cls-37" points="617.69 299.38 595.88 287.14 592.2 296.99 590.14 306.84 617.69 299.38"/><polygon class="cls-42" points="595.88 287.14 575.36 297.85 590.14 306.84 595.88 287.14"/><polygon class="cls-42" points="668.36 294.41 647.23 304.93 670.12 312.2 668.36 294.41"/><polygon class="cls-36" points="608.09 155.3 591.72 154.37 578.85 158.28 575.36 188.58 585.62 193.96 591.45 201.93 608.09 155.3"/><polygon class="cls-36" points="668.36 164.87 687.15 167.57 703.41 173.12 693.08 212.14 682.56 212.14 673.18 219.21 665.53 186.49 668.36 164.87"/><polygon class="cls-39" points="620.65 172.16 608.09 155.3 602.87 163.58 602.67 171.47 610.85 173.12 620.65 172.16"/><polygon class="cls-41" points="608.09 155.3 602.67 154.27 597.65 156.36 602.67 171.47 608.09 155.3"/><polygon class="cls-42" points="612.15 145.54 602.67 137.75 579.81 142.69 578.85 158.28 597.65 156.36 608.09 155.3 612.15 145.54"/><polygon class="cls-42" points="685.33 152.34 706.57 158.28 703.41 173.12 668.36 164.87 670.12 157.51 685.33 152.34"/><polygon class="cls-38" points="679.11 205.9 665.53 186.49 648.88 186.7 631.66 190.39 620.65 194.53 673.18 219.21 679.11 205.9"/><polygon class="cls-37" points="585.62 189.77 602.67 171.47 645.79 173.12 648.88 182.74 647.23 189.77 591.45 201.93 585.62 189.77"/><polygon class="cls-39" points="645.79 173.12 665.53 186.49 647.23 189.77 645.79 173.12"/><polygon class="cls-42" points="665.53 186.49 673.18 219.21 693.08 212.14 665.53 186.49"/><polygon class="cls-42" points="575.36 188.58 602.67 171.47 591.45 201.93 575.36 188.58"/><polygon class="cls-27" points="693.08 212.14 688.3 228.16 673.18 219.21 693.08 212.14"/><polygon class="cls-27" points="591.45 201.93 576.26 205.58 575.36 188.58 591.45 201.93"/></g><g id="guard2"><polygon class="cls-44" points="27.8 275.95 117.22 258.74 205.52 276.51 113.89 299.28 27.8 275.95"/><polygon class="cls-15" points="146.47 54.21 136.1 41.31 136.1 57.59 146.47 54.21"/><polygon class="cls-15" points="80.01 59.78 76.49 49.5 70.94 50.34 67.05 58.08 80.01 59.78"/><polygon class="cls-19" points="128.14 56.4 146.47 54.21 137.3 69.54 131.29 64.36 128.14 56.4"/><polygon class="cls-19" points="85.93 58.99 67.05 58.08 79.5 73.46 84.45 66.95 85.93 58.99"/><polygon class="cls-38" points="161.83 115.28 174.56 100.6 174.42 113.72 161.83 115.28"/><polygon class="cls-38" points="64.87 122.68 51.87 109.97 52.79 122.82 64.87 122.68"/><polygon class="cls-38" points="88.6 61.86 76.31 80.65 76.31 116.75 90.23 126.05 115.18 134.81 138.88 124.23 146.47 111.75 141.1 75.09 126.17 59.78 88.6 61.86"/><polygon class="cls-45" points="131.99 79.45 135.56 121.14 90.23 124.23 88.6 83.69 131.99 79.45"/><polygon class="cls-46" points="95.93 90.65 107.35 106.98 116.8 106.43 124.9 88.42 95.93 90.65"/><polygon class="cls-47" points="106.46 89.84 107.35 106.98 116.8 106.43 115.18 89.32 106.46 89.84"/><polygon class="cls-48" points="88.6 83.69 111.56 93.98 131.99 79.45 88.6 83.69"/><polygon class="cls-42" points="108.7 57.59 111.63 73.46 111.39 89.32 76.31 80.65 85.93 58.99 108.7 57.59"/><polygon class="cls-37" points="108.7 57.59 128.14 56.4 141.1 75.09 111.39 89.32 108.7 57.59"/><polygon class="cls-14" points="95.93 90.65 106.46 89.84 106.83 96.09 95.93 90.65"/><polygon class="cls-14" points="115.18 89.32 124.9 88.42 115.85 95.18 115.18 89.32"/><polygon class="cls-14" points="107.35 106.98 98.47 115.38 126.17 113.72 116.8 106.43 107.35 106.98"/><path class="cls-49" d="M122.49,96.85a2.22,2.22,0,1,1-2.22-2.22A2.22,2.22,0,0,1,122.49,96.85Z"/><path class="cls-49" d="M104.72,98.37a2.22,2.22,0,1,1-2.22-2.22A2.22,2.22,0,0,1,104.72,98.37Z"/><polygon class="cls-49" points="107.35 106.98 112.32 110.91 116.8 106.43 107.35 106.98"/><polygon class="cls-48" points="126.17 113.72 112.32 116.84 98.47 115.38 126.17 113.72"/><polygon class="cls-36" points="90.23 124.23 115.92 140.55 135.56 121.14 90.23 124.23"/><polygon class="cls-38" points="79.27 122.82 77.79 140.2 76.33 174.02 77.79 193.39 116.8 190.43 118.88 164.72 115.92 138.04 79.27 122.82"/><polygon class="cls-36" points="146.47 118.54 115.92 138.04 116.8 190.43 155.26 187.84 154.89 169.86 152.02 136.35 146.47 118.54"/><polygon class="cls-42" points="76.31 116.75 115.92 138.04 76.33 174.02 72.65 138.2 76.31 116.75"/><polygon class="cls-37" points="115.92 138.04 154.89 169.86 156.28 133.04 146.47 111.75 115.92 138.04"/><polygon class="cls-38" points="77.79 193.39 54.18 269.29 95.93 270.7 116.8 215.77 116.8 190.43 77.79 193.39"/><polygon class="cls-38" points="116.8 215.77 141.1 270.26 180.49 265.38 155.26 187.84 116.8 190.43 116.8 215.77"/><polygon class="cls-37" points="64.87 234.92 88.71 225.97 105.29 246.06 78.34 254.92 64.87 234.92"/><polygon class="cls-37" points="129.9 245.16 148.13 227.08 170.58 234.92 156.28 252.75 129.9 245.16"/><polygon class="cls-36" points="72.65 237.36 87.5 233.84 94.03 244.04 81.81 250.13 72.65 237.36"/><polygon class="cls-36" points="140.54 241.24 148.73 231.52 163.17 239.67 152.48 247.25 140.54 241.24"/><polygon class="cls-42" points="54.18 269.29 78.34 254.92 95.93 270.7 73.71 278.85 54.18 269.29"/><polygon class="cls-42" points="141.1 270.26 156.28 252.75 180.49 265.38 164.05 278.85 141.1 270.26"/><polygon class="cls-36" points="70.94 279.7 73.71 285.39 95.93 278.73 95.93 270.7 73.71 276.63 70.94 279.7"/><polygon class="cls-36" points="161.83 279.7 164.42 285.39 180.49 274.5 180.49 265.38 164.05 276.63 161.83 279.7"/><polygon class="cls-38" points="73.71 276.63 73.71 285.39 54.18 277.44 54.18 269.29 73.71 276.63"/><polygon class="cls-38" points="141.1 270.26 164.05 276.63 164.42 285.39 141.1 278.73 141.1 270.26"/><polygon class="cls-14" points="112.13 223.04 84.08 236.18 54.09 202.09 82.97 168.05 112.13 179.57 112.13 223.04"/><polygon class="cls-9" points="112.4 216.01 85.94 224.73 72.97 202.1 85.08 179.5 112.4 187.15 112.4 216.01"/><polygon class="cls-14" points="121.84 223.04 149.89 236.18 179.88 202.09 151 168.05 121.84 179.57 121.84 223.04"/><polygon class="cls-9" points="121.57 216.01 148.04 224.73 161 202.1 148.89 179.5 121.57 187.15 121.57 216.01"/><polygon class="cls-50" points="121.84 290.95 116.98 290.95 113.1 288.73 113.21 181.65 116.98 179.57 121.84 179.57 121.84 290.95"/><rect class="cls-4" x="112.13" y="179.58" width="4.86" height="111.37"/><polygon class="cls-8" points="116.98 201.87 62.84 212.03 54.11 202.11 60.54 194.49 108.7 175.53 164.42 181.67 171.82 192.59 179.86 202.11 169.91 213.42 116.98 201.87"/><polygon class="cls-19" points="73.71 139.09 62.42 139.09 48.54 142.04 42.06 170.18 62.51 171.38 82.97 168.05 73.71 139.09"/><polygon class="cls-19" points="154.15 133.61 168.27 130.96 181.27 132.85 191.08 164.72 170.58 167.29 150.86 166.57 154.15 133.61"/><polygon class="cls-15" points="191.08 164.72 158.04 196.37 151.86 180.55 150.86 166.57 191.08 164.72"/><polygon class="cls-15" points="42.06 170.18 76.04 196.37 80.93 182.21 82.97 168.05 42.06 170.18"/><polygon class="cls-19" points="150.86 166.57 134.43 171.38 131.99 183.28 134.43 194.49 158.04 196.37 150.86 166.57"/><polygon class="cls-19" points="82.97 168.05 93.97 165.39 100.28 176.91 101.38 186.57 76.04 196.37 82.97 168.05"/><polygon class="cls-20" points="134.43 171.38 121.84 173.03 116.28 184.7 116.8 191.47 134.43 194.49 134.43 171.38"/><polygon class="cls-16" points="116.8 191.47 100.97 196.37 101.38 186.57 121.84 173.03 116.8 191.47"/><polygon class="cls-31" points="101.38 186.57 112.13 179.57 115.18 170.18 116.28 159.33 93.97 165.39 101.38 186.57"/><polygon class="cls-19" points="116.28 159.33 134.43 171.38 112.13 179.57 116.28 159.33"/><polygon class="cls-17" points="73.71 139.09 48.54 142.04 52.79 122.82 76.31 116.75 73.71 139.09"/><polygon class="cls-17" points="146.47 111.75 174.42 113.72 181.27 132.85 154.15 133.61 146.47 111.75"/><polygon class="cls-18" points="191.08 164.72 185.53 189.32 158.04 196.37 191.08 164.72"/><polygon class="cls-18" points="42.06 170.18 50.2 194.49 76.04 196.37 42.06 170.18"/></g><g id="infj"><polygon class="cls-44" points="211.55 320.16 277.63 309.66 334.23 322.21 275.32 338.6 211.55 320.16"/><polygon class="cls-44" points="288.64 338.6 350.11 327.58 406.72 339.37 347.55 349.36 288.64 338.6"/><polygon class="cls-24" points="339.88 339.64 347 341.08 353.33 338.44 351.75 337.19 343.99 331.02 341.48 334.48 339.88 339.64"/><polygon class="cls-21" points="347 341.08 354.14 339.08 354.14 335.24 347 341.08"/><polygon class="cls-22" points="335.37 332.03 330.35 337.08 327.61 340.48 336.67 341.08 339.88 339.64 337.65 334.66 335.37 332.03"/><polygon class="cls-21" points="336.67 341.08 330.35 337.08 326.37 341.08 336.67 341.08"/><polygon class="cls-21" points="348.1 322.4 339.88 339.64 338.65 321.15 348.1 322.4"/><polygon class="cls-15" points="339.88 322.4 354.14 322.4 351.93 312.26 339.88 313.86 338.65 319.2 339.88 322.4"/><polygon class="cls-24" points="329.67 322.4 339.88 339.64 339.88 322.4 335.79 321.15 329.67 322.4"/><polygon class="cls-24" points="308.87 290.42 318.15 302.3 320.5 290.42 308.87 290.42"/><polygon class="cls-24" points="360.89 281.42 358.16 292.71 353.03 284.35 360.89 281.42"/><polygon class="cls-38" points="315.17 270.13 305.03 289.57 319.24 292.71 321.56 282.04 321.56 271.4 315.17 270.13"/><polygon class="cls-38" points="351.03 267.6 364.59 278.31 356.1 285.45 353.03 278.31 351.03 267.6"/><polygon class="cls-19" points="339.88 313.86 339.88 322.4 324.76 322.4 327.25 313.86 339.88 313.86"/><polygon class="cls-22" points="321.56 265.15 315.17 270.13 321.56 272.17 340.83 280.62 351.03 267.6 321.56 265.15"/><polygon class="cls-28" points="322.9 233.47 316.63 231.9 308.87 224.62 337.69 212.53 353.03 224.62 340.83 229.6 322.9 233.47"/><polygon class="cls-29" points="322.9 233.47 308.87 224.62 305.43 233.47 310.1 246.7 321.56 265.15 322.96 247.47 322.9 233.47"/><polygon class="cls-27" points="305.43 233.47 305.03 255.73 321.56 265.15 305.43 233.47"/><polygon class="cls-27" points="353.03 224.62 361.3 230.75 358.21 243.3 354.36 233.47 353.03 224.62"/><polygon class="cls-19" points="292.89 319.32 280.7 316.16 290.87 312.91 293.17 316.07 292.89 319.32"/><polygon class="cls-24" points="301.73 308.96 306.48 313.3 300.21 317.62 290.87 312.91 294.5 310.2 301.73 308.96"/><polygon class="cls-20" points="306.48 313.3 313.99 318.4 292.89 319.32 290.87 312.91 306.48 313.3"/><polygon class="cls-16" points="268.88 195.46 278.63 209.73 283.3 221.2 286.03 248.09 263.43 244.93 243.14 239.7 235.54 203.62 235.54 193.87 268.88 195.46"/><polygon class="cls-21" points="287.87 169.19 284.2 189.96 275.99 181.46 273.54 173.63 280.76 168.8 287.87 169.19"/><polygon class="cls-22" points="304.12 117.67 313.28 161.32 273.54 173.63 259.09 149.19 265.22 123.92 283.02 119.67 304.12 117.67"/><polygon class="cls-22" points="274.07 112.41 276.32 107.97 283.45 104.19 290 105.09 295.02 109.75 284.37 112.37 274.07 112.41"/><polygon class="cls-24" points="284.46 126.06 286.93 128.88 290.01 146.63 281.05 133.27 274.53 132.81 284.46 126.06"/><polygon class="cls-24" points="291.88 128.04 299.91 122.77 294.12 138 291.88 128.04"/><polygon class="cls-24" points="265.22 123.92 273.54 173.63 263.18 160.75 259.09 149.19 260.21 135.47 265.22 123.92"/><polygon class="cls-20" points="227.19 118.36 252.41 113.48 273.61 112.47 284.41 111.1 294.8 109.78 298.46 108.68 302.23 108.84 304.12 117.67 265.22 123.92 255.77 127.56 244.99 127.18 236.35 130.87 226.33 130.18 227.19 118.36"/><polygon class="cls-15" points="282.95 116.14 286.78 110.8 292.19 114.72 288.22 120.22 282.95 116.14"/><polygon class="cls-37" points="227.19 118.36 229.71 94.1 279.69 94.39 283.83 99.19 283.45 104.19 274.07 112.41 227.19 118.36"/><polygon class="cls-38" points="279.69 94.39 298.59 94.66 302.23 108.84 295.02 109.75 283.45 104.19 279.69 94.39"/><polygon class="cls-51" points="274.53 132.81 278.03 127.62 284.46 126.06 274.53 132.81"/><polygon class="cls-51" points="291.88 128.04 294.81 123.8 299.91 122.77 291.88 128.04"/><polygon class="cls-26" points="291.88 128.04 286.93 128.88 290.01 146.63 295.77 145.33 291.88 128.04"/><polygon class="cls-21" points="290.01 146.63 293.55 149.65 295.77 145.33 290.01 146.63"/><polygon class="cls-38" points="265.22 123.92 259.09 149.19 249.04 138.52 244.99 127.18 265.22 123.92"/><polygon class="cls-37" points="244.99 127.18 226.33 130.18 222.32 163.64 219.45 172.85 220.44 179.41 239.63 167.51 259.09 149.19 244.99 127.18"/><polygon class="cls-38" points="259.09 149.19 269.62 167 262.9 184.83 254.06 194.95 250.01 206.7 242.78 215.21 229.17 198.21 220.44 179.41 259.09 149.19"/><polygon class="cls-37" points="220.44 179.41 209.99 185.21 194.6 199.19 213.86 205.59 230.39 213.75 242.78 215.21 220.44 179.41"/><polygon class="cls-37" points="269.62 167 273.54 173.63 284.2 189.96 278.5 193.2 268.88 195.46 254.06 194.95 260.57 178.34 269.62 167"/><polygon class="cls-36" points="254.06 194.95 261.88 214.58 260.73 231.9 245.35 222.45 242.78 215.21 254.06 194.95"/><polygon class="cls-16" points="286.93 254.42 290.95 270.47 273.54 292.53 238.7 289.51 238.7 258.43 264.65 221.29 286.93 254.42"/><polygon class="cls-15" points="243.14 239.7 285.83 244.17 238.7 258.43 243.14 239.7"/><polygon class="cls-20" points="238.7 289.51 239.27 321.35 266.31 321.84 301.73 308.96 271.97 293.49 238.7 289.51"/><polygon class="cls-20" points="294.38 202.67 313.28 213.42 309.17 223.87 305.43 233.47 287.84 213.61 294.38 202.67"/><polygon class="cls-38" points="260.73 231.9 231.7 223.12 213.86 205.59 242.78 215.21 260.73 231.9"/><polygon class="cls-42" points="194.6 199.19 222.32 163.64 220.44 179.41 194.6 199.19"/><polygon class="cls-16" points="242.78 215.21 240.37 224.62 237.29 228.82 224.77 234.67 231.08 205.46 242.78 215.21"/><polygon class="cls-15" points="238.7 289.51 290.95 270.47 301.73 308.96 238.7 289.51"/><polygon class="cls-15" points="284.2 189.96 294.38 202.67 283.3 221.2 268.88 195.46 284.2 189.96"/><polygon class="cls-31" points="231.08 205.46 235.54 181.23 250.63 174.84 270.5 183.04 279.58 201.61 281.63 207.64 286.52 215.81 294.02 228.9 292.53 249.42 271.83 263.06 254.91 253.37 240.37 224.62 236.58 216.8 235.54 211.65 231.08 205.46"/><polygon class="cls-20" points="270.5 265.15 294.38 253.15 294.02 245.11 280.88 237.26 251.1 246.76 254.06 252.89 270.5 265.15"/><polygon class="cls-17" points="286.52 215.81 279.45 201.67 231.08 205.46 236.58 216.8 286.52 215.81"/><polygon class="cls-20" points="250.63 173.63 235.54 181.23 270.5 183.04 250.63 173.63"/><polygon class="cls-24" points="281.27 229.87 286.93 224.62 294.02 228.9 287.17 230.75 281.27 229.87"/><polygon class="cls-22" points="233.41 192.79 260.57 178.34 272.34 202.23 245.03 216.8 233.41 192.79"/><polygon class="cls-24" points="242.42 198.02 247.47 192.37 251.84 190.19 258.85 189.12 254.95 196.41 250.84 198.54 242.42 198.02"/><polygon class="cls-26" points="247.47 192.37 250.84 198.54 254.95 196.41 251.84 190.19 247.47 192.37"/><polygon class="cls-19" points="242.42 198.02 245.08 192.32 247.47 192.37 242.42 198.02"/><polygon class="cls-19" points="251.84 190.19 253.07 188.32 258.85 189.12 251.84 190.19"/><path class="cls-52" d="M248.2,198.08a1.85,1.85,0,1,1-1.85-1.85A1.85,1.85,0,0,1,248.2,198.08Z"/><path class="cls-52" d="M259.14,192.21a1.86,1.86,0,1,1-1.86-1.85A1.85,1.85,0,0,1,259.14,192.21Z"/><polygon class="cls-3" points="250.84 198.54 254.12 199.52 254.95 196.41 250.84 198.54"/><polygon class="cls-20" points="272.34 202.23 262.73 216.28 245.03 216.8 272.34 202.23"/><polygon class="cls-37" points="257.07 196.77 254.75 200.69 250.22 200.19 249.6 205.86 257.88 206.97 261.98 199.68 257.07 196.77"/><path class="cls-31" d="M257.62,202.66a1.69,1.69,0,1,1-2.27-.75A1.7,1.7,0,0,1,257.62,202.66Z"/><polygon class="cls-24" points="239.27 321.35 253.34 317.18 266.31 321.84 251.69 326.74 239.27 321.35"/><polygon class="cls-20" points="266.31 321.84 259.7 330.2 244.24 330.2 239.27 321.35 251.7 325.94 266.31 321.84"/><polygon class="cls-22" points="281.27 229.87 274.05 240.76 294.02 245.11 294.72 240.84 294.02 228.9 281.27 229.87"/><polygon class="cls-24" points="294.02 228.9 294.02 245.11 298.1 241.56 301.2 231.9 294.02 228.9"/><polygon class="cls-22" points="322.9 233.47 353.03 224.62 361.3 254.42 346.21 260.11 337.69 267.68 323.03 263.06 322.9 233.47"/><polygon class="cls-24" points="330.63 239.7 351.03 232.53 348.1 244.13 342.5 246 330.63 239.7"/><polygon class="cls-24" points="337.69 270.49 346.21 260.11 333.16 264.13 322.9 233.47 321.56 265.15 337.69 270.49"/><polygon class="cls-21" points="346.21 260.11 329.67 265.15 337.69 270.49 346.21 260.11"/><polygon class="cls-26" points="338.65 236.88 342.5 246 348.1 244.13 344.96 234.67 338.65 236.88"/><polygon class="cls-21" points="342.5 246 346.21 247.47 348.1 244.13 342.5 246"/><path class="cls-52" d="M337.69,242.23a1.9,1.9,0,1,1-1.9-1.9A1.9,1.9,0,0,1,337.69,242.23Z"/><path class="cls-52" d="M351.86,237.33a1.9,1.9,0,1,1-1.9-1.9A1.9,1.9,0,0,1,351.86,237.33Z"/><polygon class="cls-27" points="330.63 239.7 336.76 234.67 338.65 236.88 330.63 239.7"/><polygon class="cls-27" points="344.96 234.67 345.3 231.9 351.03 232.53 344.96 234.67"/><polygon class="cls-21" points="340.83 251.6 351.03 248.09 351.03 249.31 341.43 253.06 340.83 251.6"/><polygon class="cls-22" points="313.28 213.42 330.63 215.49 308.87 224.62 313.28 213.42"/><polygon class="cls-24" points="330.63 215.49 329.58 221.39 321.12 227.29 308.87 224.62 330.63 215.49"/><polygon class="cls-15" points="285.28 157.58 293.63 152.65 302.15 154.21 294.28 156.65 285.28 157.58"/><polygon class="cls-20" points="285.28 157.58 295.52 161.58 302.15 154.21 294.28 156.65 285.28 157.58"/><polygon class="cls-53" points="288.36 157.26 299.22 155.11 294.88 159.05 288.36 157.26"/><polygon class="cls-37" points="321.56 272.17 316.23 319.2 333.12 295.68 340.83 278.31 321.56 272.17"/><polygon class="cls-37" points="351.03 267.6 340.83 278.31 348 292 363.52 311.55 351.03 267.6"/><polygon class="cls-38" points="340.83 278.31 316.23 319.2 363.52 311.55 340.83 278.31"/><polygon class="cls-24" points="233.41 192.79 250.64 213.81 245.03 216.8 233.41 192.79"/><polygon class="cls-24" points="260.57 178.34 267.52 204.79 272.34 202.23 260.57 178.34"/><polygon class="cls-19" points="224.77 234.67 240.36 224.62 281.27 229.87 280.14 260.11 224.77 234.67"/><path class="cls-49" d="M285.43,134.89a2.64,2.64,0,1,1-2.92-2.32A2.64,2.64,0,0,1,285.43,134.89Z"/><path class="cls-49" d="M300.63,131.94a2.64,2.64,0,1,1-2.92-2.33A2.62,2.62,0,0,1,300.63,131.94Z"/></g><g id="box"><polygon class="cls-44" points="376.84 323.73 451.43 341.08 563.16 327.47 476.76 299.1 376.84 323.73"/><polygon class="cls-37" points="483.69 296.36 408.23 318.13 456.49 332.03 532.49 317.63 483.69 296.36"/><polygon class="cls-36" points="400.5 322.4 483.69 296.36 483.69 290.57 482.09 285.45 448.85 294.66 401.83 311.55 402.63 317.63 400.5 322.4"/><polygon class="cls-38" points="401.83 311.55 404.23 305.13 402.63 298.75 483.69 272.89 483.69 280.62 482.09 285.45 401.83 311.55"/><polygon class="cls-42" points="402.63 298.75 451.43 317.33 453.65 322.4 451.43 328.08 427.74 322.4 401.83 311.55 402.63 298.75"/><polygon class="cls-37" points="401.83 311.55 451.43 328.08 452.94 335.24 451.43 341.08 400.5 322.4 401.83 311.55"/><polygon class="cls-37" points="483.69 272.89 482.09 285.45 506.09 300.18 537.56 313.86 538.27 305.13 542.09 298.75 483.69 272.89"/><polygon class="cls-42" points="482.09 285.45 483.69 296.36 534.09 324.8 534 319.2 537.56 313.86 482.09 285.45"/><polygon class="cls-38" points="451.43 317.33 542.09 298.75 537.56 313.86 495.43 322.4 451.43 328.08 451.43 317.33"/><polygon class="cls-36" points="451.43 341.08 534.09 324.8 537.56 313.86 451.43 328.08 451.43 341.08"/></g></svg>