<svg xmlns="http://www.w3.org/2000/svg" viewBox="0 0 900 350"><defs><style>.cls-1{opacity:0.1;}.cls-2{fill:#dddddc;}.cls-3{fill:#858686;}.cls-4{fill:#a3a3a3;}.cls-5{fill:#96637c;}.cls-6{fill:#734d60;}.cls-7{fill:#d1a1b8;}.cls-8{fill:#b3889d;}.cls-9{fill:#785d88;}.cls-10{fill:#9075a0;}.cls-11{fill:#ececeb;}.cls-12{fill:#737373;}.cls-13{opacity:0.14;}.cls-14{fill:#a688ba;}.cls-15{fill:#594165;}.cls-16{fill:none;stroke:#a3a3a3;stroke-miterlimit:10;}.cls-17{fill:#fde4d5;}.cls-18{fill:#f5cab3;}.cls-19{fill:#fff0e8;}.cls-20{fill:#c2917d;}.cls-21{fill:#2b2b2b;}.cls-22{fill:#8f8f8f;}.cls-23{fill:#4f5253;}.cls-24{fill:#6f7173;}.cls-25{fill:#c3987b;}.cls-26{fill:#dfbda5;}.cls-27{fill:#8b6651;}.cls-28{fill:#e8cab6;}.cls-29{fill:#474747;}.cls-30{fill:#cececd;}</style></defs><title>analysts_Architect_INTJ_introduction</title><g id="illustration_copy_2" data-name="illustration copy 2"><g id="shadows_copy" data-name="shadows copy"><polygon class="cls-1" points="769.69 235.22 733.72 229.72 726.25 225.31 732.67 220.33 754.31 217.29 758.41 214.67 758.41 210.44 737.33 212.01 701.13 206.96 695.42 200.69 738.75 196 766.62 208.69 769.69 235.22"/><polygon class="cls-1" points="787.66 307.25 734.71 303.38 712.5 288.14 763.5 282.72 787.66 307.25"/><polygon class="cls-1" points="659 284.36 634.26 282.72 621.7 275.42 635.31 267.25 659 284.36"/><polygon class="cls-1" points="581.09 306.25 540.86 300.56 522.5 302.39 494.11 289.03 513.5 280.39 551.99 286.33 581.09 306.25"/><polygon class="cls-1" points="177.86 240.75 159.53 242.47 136.58 241.61 129.71 232.97 117.75 234.11 88.37 227.38 76 235.99 31.75 231.31 25 224.65 0 212.19 59.41 204.28 153.63 201.06 177.86 240.75"/><polygon class="cls-1" points="849.5 222.05 831.26 222.05 819.23 219.41 835.58 213.18 849.5 222.05"/></g><g id="rocks3_copy_2" data-name="rocks3 copy 2"><polygon class="cls-2" points="86.31 186.16 90.75 171.37 12.33 175.84 36.67 195.19 86.31 186.16"/><polygon class="cls-3" points="12.33 175.84 0 212.19 32.5 221.18 38.07 203.31 36.67 192.19 12.33 175.84"/><polygon class="cls-4" points="86.31 186.16 82 220.57 32.5 221.18 36.67 192.19 86.31 186.16"/><polygon class="cls-2" points="674 160.65 720.33 168.2 768.69 162.06 763.35 150.36 677.67 153.77 674 160.65"/><polygon class="cls-3" points="720.33 166.2 720.42 179.98 712 205.7 665.67 200.11 674 160.65 720.33 166.2"/><polygon class="cls-4" points="712 205.7 720.33 205.13 768.69 176.04 768.69 162.06 720.33 166.2 712 205.7"/><polygon class="cls-2" points="766 116.25 784.67 115.56 805.67 118.75 779.67 124.45 766 116.25"/><polygon class="cls-3" points="766 116.25 755 206.96 782.33 214.67 782.38 146.97 779.67 122.45 766 116.25"/><polygon class="cls-4" points="779.67 122.45 805.67 118.75 814 210.44 782.33 214.67 779.67 122.45"/><polygon class="cls-2" points="809.12 156.78 863.5 169.31 810.65 175.63 796.83 162.71 809.12 156.78"/><polygon class="cls-3" points="796.83 162.71 793.51 213.18 805.67 220.33 811.03 188.82 810.65 173.63 796.83 162.71"/><polygon class="cls-4" points="810.65 173.63 805.67 220.33 865.5 216.24 863.5 169.31 810.65 173.63"/><polygon class="cls-2" points="864.55 193.88 864.17 185.13 890 200.11 849.5 211.46 833.5 201.96 864.55 193.88"/><polygon class="cls-3" points="833.5 201.96 831.26 218.58 849.5 222.05 851.5 215.5 849.5 209.46 833.5 201.96"/><polygon class="cls-4" points="890 200.11 900 216.82 849.5 222.05 849.5 209.46 890 200.11"/><polygon class="cls-2" points="728.83 176.04 758.98 174.18 766 186.67 737.33 187.13 728.83 176.04"/><polygon class="cls-4" points="766 186.67 768.69 210.98 737.33 212.01 735.33 199.19 737.33 185.13 766 186.67"/><polygon class="cls-3" points="728.83 176.04 720.33 205.13 737.33 212.01 737.33 185.13 728.83 176.04"/><polygon class="cls-2" points="757.5 203.38 781.83 197.3 819.23 219.41 776.5 221.41 757.5 203.38"/><polygon class="cls-3" points="757.5 203.38 752.01 227.31 769.69 235.22 777.48 225.98 776.5 219.41 757.5 203.38"/><polygon class="cls-4" points="819.23 219.41 823 232.05 769.69 235.22 776.5 219.41 819.23 219.41"/><polygon class="cls-2" points="306 149.04 224.21 146.36 247.01 165.71 309.86 159.09 306 149.04"/><polygon class="cls-3" points="247.01 162.71 248.61 181.33 243.5 222.36 224 218.05 224.21 146.36 247.01 162.71"/><polygon class="cls-4" points="247.01 162.71 309.86 159.09 306 212.38 243.5 222.36 247.01 162.71"/><polygon class="cls-2" points="171.33 166.2 224.21 165.26 234.5 175 183.97 188.67 171.33 166.2"/><polygon class="cls-3" points="171.33 166.2 168.33 189.66 185.48 205.13 187.73 195.94 183.97 186.67 171.33 166.2"/><polygon class="cls-4" points="234.5 175 224 218.05 172.64 219.05 178.03 185.13 234.5 175"/><polygon class="cls-2" points="88.37 159.14 139.78 147.71 187.06 166.9 132 181.97 88.37 159.14"/><polygon class="cls-3" points="88.37 159.14 83.3 201.96 116.5 228.43 134.58 187.98 132 170.96 88.37 159.14"/><polygon class="cls-4" points="132 170.96 187.06 166.9 171.64 224.05 116.5 228.43 132 170.96"/><polygon class="cls-2" points="64.5 206.39 83.3 201.96 110.64 208.28 74.33 223.18 64.5 206.39"/><polygon class="cls-3" points="64.5 206.39 48.75 230.72 76 235.99 77.33 222 74.33 217.17 64.5 206.39"/><polygon class="cls-4" points="110.64 208.28 117.75 234.11 76 235.99 74.33 217.17 110.64 208.28"/><polygon class="cls-2" points="325.01 127.25 310 132.25 288.7 120.16 325.01 119.25 325.01 127.25"/><polygon class="cls-4" points="310 129.25 310.84 149.04 317.78 161.8 325.01 170.82 325.01 127.25 310 129.25"/><polygon class="cls-3" points="288.7 120.16 293.45 170.88 317.78 161.8 310 129.25 288.7 120.16"/><polygon class="cls-4" points="296.78 173.96 293.45 231.31 344.5 227.43 333.76 186.13 325.01 174.18 296.78 173.96"/><polygon class="cls-3" points="274.56 170.82 276.68 227.43 293.45 231.31 299.79 176.97 294.56 171.72 274.56 170.82"/><polygon class="cls-2" points="325.01 160.29 274.56 170.82 299.79 176.97 325.01 174.18 325.01 160.29"/><polygon class="cls-2" points="144.48 205.13 178.61 201.06 211.25 205.7 175.01 216.82 144.48 205.13"/><polygon class="cls-3" points="144.48 205.13 138.57 233.25 177.86 240.75 180.5 227.5 175.01 211.9 144.48 205.13"/><polygon class="cls-4" points="211.25 205.7 219.25 235 177.86 240.75 175.01 211.9 211.25 205.7"/></g><g id="bat_copy_2" data-name="bat copy 2"><polygon class="cls-5" points="676.5 75.39 667.17 69.75 668.75 52.63 672.21 42.04 680.63 39.88 676.5 75.39"/><polygon class="cls-6" points="672.21 42.04 667.17 69.75 656.08 71 660.08 54.25 665.67 41.33 672.21 42.04"/><polygon class="cls-5" points="665.67 41.33 656.08 71 650 57.33 652.5 48.5 656.92 43.17 665.67 41.33"/><polygon class="cls-7" points="657.88 37.95 687.5 36.59 686.83 40.96 681.67 42.81 679.31 41.51 656.92 43.17 656.38 41.22 657.88 37.95"/><polygon class="cls-8" points="686.83 40.96 678.67 76.67 676.5 75.39 679.31 41.51 686.83 40.96"/><polygon class="cls-5" points="598.67 14.33 613 26 626.5 22.56 637.38 17.75 636.33 10.75 598.67 14.33"/><polygon class="cls-6" points="637.38 17.75 641 22.33 641 25.97 631.06 33.28 618.02 38.96 617.5 33 613 26 637.38 17.75"/><polygon class="cls-5" points="641 25.97 643.5 29.38 644.1 33 636.38 40.96 627 46.25 618.02 38.96 641 25.97"/><polygon class="cls-6" points="644.1 33 646.81 35.13 646.81 39.88 640.42 50.16 627 46.25 644.1 33"/><polygon class="cls-7" points="649.38 36.25 644.74 23.33 639.33 7.17 635 9.63 635 12.33 646.27 37.95 649.38 36.25"/><polygon class="cls-8" points="635 12.33 598.67 14.33 599.49 12.33 639.33 7.17 635 12.33"/><polygon class="cls-9" points="656.08 47.67 650 57.33 640.42 50.16 643.5 42.81 650.3 43.43 656.08 47.67"/><polygon class="cls-10" points="657.88 37.95 656.08 47.67 643.5 42.81 648.08 34.78 657.88 37.95"/><polygon class="cls-5" points="663.67 27 670 26 666.5 34.25 662.78 29.86 663.67 27"/><polygon class="cls-5" points="653.67 22.33 650.34 16.13 644.74 23.33 650.13 23.33 653.67 22.33"/><polygon class="cls-8" points="644.74 23.33 646.03 27.76 648.25 29.88 648.08 34.78 648.61 36.59 650.34 40.38 654.61 39.35 657.88 37.95 660.81 35.75 663.51 35.53 666.5 34.25 663.67 27 653.67 22.33 644.74 23.33"/><polygon class="cls-9" points="663.51 35.53 660 29 654.61 30.83 652.5 26 646.03 27.76 648.08 34.78 653.83 33 657.88 37.95 663.51 35.53"/><polygon class="cls-5" points="648.61 36.59 654.61 39.35 650 41.33 648.61 36.59"/><polygon class="cls-11" points="648.92 29.33 650.92 28.67 651.77 31.08 650 31.08 648.92 29.33"/><polygon class="cls-11" points="656.92 33 659.5 31.98 660.08 34.58 657.83 34.58 656.92 33"/></g><g id="rocks2_copy_2" data-name="rocks2 copy 2"><polygon class="cls-2" points="698.33 213.18 732.67 220.33 721.33 249.26 619.67 247.26 618.17 229.43 698.33 213.18"/><polygon class="cls-4" points="732.67 220.33 737.33 261.82 723.67 266 720.33 257.4 720.33 247.26 732.67 220.33"/><polygon class="cls-12" points="720.33 247.26 619.03 239.68 638.26 258.78 723.67 266 720.33 247.26"/><polygon class="cls-2" points="678.57 173.37 695.33 175 707.33 186.67 676.36 193.49 656.27 194.62 650 180.33 678.57 173.37"/><polygon class="cls-4" points="707.33 186.67 701 229.43 648 239.68 656.27 194.62 707.33 186.67"/><polygon class="cls-2" points="649 107.84 681.33 114.83 666.67 118.39 654.61 117.67 649 107.84"/><polygon class="cls-4" points="681.33 114.83 678 180.32 669.5 181.04 654.61 117.67 681.33 114.83"/><polygon class="cls-2" points="697.67 252.91 706.96 264.59 661 272.25 634.26 256.78 653.67 253.36 697.67 252.91"/><polygon class="cls-4" points="706.96 264.59 710 281.74 659 284.36 658.04 277 661 270.25 706.96 264.59"/><polygon class="cls-12" points="659 284.36 633 273.88 634.26 256.78 661 270.25 659 284.36"/></g><g id="torch_copy_2" data-name="torch copy 2"><polygon class="cls-13" points="695.42 230.38 712 237.11 727.91 230.72 705.98 225.31 695.42 230.38"/><polygon class="cls-9" points="713.13 171.69 710.33 143.47 716 147 713.13 171.69"/><polygon class="cls-9" points="697.67 117.25 722 112.25 743.67 120.45 723.5 129 697.67 117.25"/><polygon class="cls-10" points="714.41 202.03 723.5 145.47 720.04 144.18 716 147 707.33 186.67 710.33 201.7 714.41 202.03"/><polygon class="cls-9" points="707.33 186.67 695.42 230.38 704.02 230.72 714.41 202.03 707.33 186.67"/><polygon class="cls-5" points="716 147 717.58 134.06 726.82 130 734.33 128.75 723.5 145.47 716 147"/><polygon class="cls-6" points="719.33 135.25 713.01 130.97 704.92 130.06 702 144.06 716 147 719.33 135.25"/><polygon class="cls-14" points="719.33 135.25 718.87 129.61 723.5 126 743.67 120.45 734.33 128.75 719.33 135.25"/><polygon class="cls-10" points="723.5 126 697.67 117.25 704.92 130.06 719.33 135.25 723.5 126"/><polygon class="cls-7" points="723.5 126 717.67 115.16 731.27 101.03 736.67 113.52 723.5 126"/><polygon class="cls-8" points="723.5 126 720.67 117.16 716.27 110.41 708.53 106.81 712.13 122.06 723.5 126"/><polygon class="cls-7" points="720.67 117.16 731.27 101.03 725.28 91.89 719.33 88.77 708.53 106.81 720.67 117.16"/><polygon class="cls-8" points="731.27 101.03 736.67 93.66 725.17 76.67 719.16 79.92 719.33 88.77 731.27 101.03"/><polygon class="cls-7" points="719.33 88.77 712.13 80.94 720.67 62 725.17 76.67 719.33 88.77"/></g><g id="machine_copy_2" data-name="machine copy 2"><polygon class="cls-14" points="435.32 35 439 15.25 482.49 42.75 525.25 15.25 530 36.67 481.88 55.82 435.32 35"/><polygon class="cls-9" points="440.5 33.38 442.75 23.75 451.27 30 444.02 34.25 440.5 33.38"/><polygon class="cls-9" points="511.81 30.73 521.83 23.75 523 34.25 515 34.25 511.81 30.73"/><polygon class="cls-10" points="431.47 56.92 435.32 35 481.03 20.67 530 36.67 533.5 52.67 480.01 56.92 431.47 56.92"/><polygon class="cls-7" points="444.02 56.39 446.75 43.63 453.35 40.01 456.61 39.19 468.89 36.07 475.75 36.63 481.03 33 494.11 36.07 500 40.5 507.14 39.14 518.25 41.75 519.74 53.24 482.49 56.92 444.02 56.39"/><polygon class="cls-5" points="507.14 39.14 508.5 53.71 495.4 55.25 494.11 36.07 507.14 39.14"/><polygon class="cls-5" points="481.03 33 481.88 55.82 468.01 55.4 468.89 36.07 481.03 33"/><polygon class="cls-5" points="456.61 39.19 456.61 56.87 444.02 56.39 445.5 42 456.61 39.19"/><polygon class="cls-10" points="450 217.29 491.99 222.05 546 219.41 551.99 193.04 551.99 166.68 491.99 165.26 426.5 171.47 430.83 193.75 450 217.29"/><polygon class="cls-9" points="641.67 249 633 273.88 594.67 279.07 633.67 243.78 641.67 249"/><polygon class="cls-9" points="657.33 214.67 654 253 596.94 272.88 657.33 214.67"/><polygon class="cls-14" points="431.47 56.92 533.5 52.67 549.5 111.92 551.99 166.68 426.5 171.47 419.5 107.56 431.47 56.92"/><polygon class="cls-10" points="358.99 30 431.47 56.92 426.5 171.47 385.01 184.6 342.5 190.44 345.5 107.56 358.99 30"/><polygon class="cls-9" points="533.5 52.67 617.5 33 640.5 108.5 652.5 185.13 599.25 183.8 551.99 166.68 533.5 52.67"/><polygon class="cls-14" points="617.5 33 650 57.33 669.5 181.04 663.5 183.8 652.5 185.13 617.5 33"/><polygon class="cls-9" points="358.99 30 325.01 40.32 316.51 183.13 333.76 193.04 342.5 190.44 358.99 30"/><polygon class="cls-14" points="342.5 190.44 426.5 171.47 450 217.29 380.5 245.24 342.5 190.44"/><polygon class="cls-14" points="551.99 166.68 546 219.41 593 234.11 652.5 185.13 551.99 166.68"/><polygon class="cls-10" points="450 217.29 453.5 249 452.99 276.33 381.96 286.07 375 268.66 380.5 245.24 450 217.29"/><polygon class="cls-9" points="546 219.41 541.5 250.92 546 282.99 589.5 289.39 596.94 259.25 593 234.11 546 219.41"/><polygon class="cls-10" points="652.5 185.13 661 195.84 666.5 220.33 589.5 289.39 593 234.11 652.5 185.13"/><polygon class="cls-14" points="669.5 181.04 666.5 220.33 652.5 185.13 669.5 181.04"/><polygon class="cls-9" points="380.5 245.24 381.96 286.07 328.5 222.05 333.5 200.4 342.5 190.44 380.5 245.24"/><polygon class="cls-10" points="316.51 183.13 342.5 190.44 328.5 222.05 316.51 183.13"/><polygon class="cls-15" points="450 217.29 546 219.41 546 272.99 452.99 276.33 450 217.29"/><polygon class="cls-11" points="430.83 71.75 536.27 69.75 546 111.52 550.13 155.26 427.04 159.07 422.99 117.67 430.83 71.75"/><polygon class="cls-11" points="430.83 71.75 371.47 48.5 358.99 169.31 427.04 159.07 430.83 71.75"/><polygon class="cls-2" points="536.27 69.75 605.43 50.5 628 162.06 550.13 155.26 536.27 69.75"/><polygon class="cls-5" points="480.01 275.36 480.01 229.87 513.5 229.43 513.5 274.15 480.01 275.36"/><rect class="cls-7" x="484.75" y="237.26" width="23.75" height="5.74"/><rect class="cls-7" x="484.75" y="247.26" width="23.75" height="5.74"/><rect class="cls-7" x="484.75" y="257.26" width="23.75" height="5.74"/><polygon class="cls-7" points="560.33 178.35 596.94 186.13 578.64 199.19 555.67 193.04 560.33 178.35"/><polygon class="cls-5" points="555.67 193.04 555.67 198.19 576.3 204.1 578.64 198.19 555.67 193.04"/><polygon class="cls-8" points="567.15 201.48 596.94 180.33 619.67 185.13 585 208.91 567.15 201.48"/><polygon class="cls-6" points="567.15 201.48 565.01 210.98 585.33 219.41 587.25 212.25 585 206.91 567.15 201.48"/><polygon class="cls-5" points="619.67 185.13 627.14 193.62 585.33 219.41 585 206.91 619.67 185.13"/><polygon class="cls-7" points="437.02 191.99 402.94 198.86 368.25 208.35 375 219.41 405.73 209.85 439.69 197.19 437.02 191.99"/><polygon class="cls-8" points="437.02 191.99 491.99 189.41 549.48 188.77 548.52 197.19 491 198.19 439.69 197.19 437.02 191.99"/><polygon class="cls-8" points="547.41 206.96 444.02 205.63 439.69 197.19 548.52 197.19 547.41 206.96"/><polygon class="cls-8" points="549.48 188.77 437.02 191.99 432.33 182.84 550.44 180.33 549.48 188.77"/><polygon class="cls-7" points="432.33 182.84 362.25 199.19 368.25 208.35 437.02 191.99 432.33 182.84"/><polygon class="cls-7" points="439.69 197.19 444.02 205.63 381 229.43 375 219.41 439.69 197.19"/><polygon class="cls-5" points="457.75 197.19 459.29 205.82 475.5 206.03 475.5 197.19 457.75 197.19"/><polygon class="cls-5" points="486.56 197.19 486.56 206.18 503.25 206.39 504.25 197.19 486.56 197.19"/><polygon class="cls-5" points="517.25 197.19 516.25 206.56 530.25 206.74 532.25 197.19 517.25 197.19"/><polygon class="cls-5" points="456.75 191.42 455.25 182.35 475.5 181.92 475.5 190.88 456.75 191.42"/><polygon class="cls-5" points="486.56 190.57 486.56 181.69 504.25 181.31 504.25 190.06 486.56 190.57"/><polygon class="cls-5" points="518.25 189.66 519.49 180.99 536.27 180.63 533.5 189.22 518.25 189.66"/><polygon class="cls-5" points="456.75 191.42 437.02 191.99 439.69 197.19 457.75 197.19 456.75 191.42"/><polygon class="cls-5" points="475.5 190.88 486.56 190.57 486.56 197.19 475.5 197.19 475.5 190.88"/><polygon class="cls-5" points="504.25 190.06 518.25 189.66 517.25 197.19 504.25 197.19 504.25 190.06"/><polygon class="cls-5" points="533.5 189.22 549.48 188.77 548.52 197.19 532.25 197.19 533.5 189.22"/><polygon class="cls-5" points="426.5 194.49 421.69 185.32 408.24 188.46 414.7 197.3 426.5 194.49"/><polygon class="cls-5" points="397.86 201.31 391.76 192.3 377.63 195.6 384.88 204.4 397.86 201.31"/><polygon class="cls-5" points="389.96 214.27 394.91 224.18 409.51 218.66 403.97 209.46 389.96 214.27"/><polygon class="cls-5" points="417.37 204.85 430.35 200.4 435.32 208.91 422.99 213.57 417.37 204.85"/><polygon class="cls-5" points="384.88 204.4 389.96 214.27 375 219.41 368.25 208.35 384.88 204.4"/><polygon class="cls-5" points="397.86 201.31 414.7 197.3 417.37 204.85 403.97 209.46 397.86 201.31"/><polygon class="cls-10" points="437.5 80.5 479 81.75 481.01 129 437.5 130 437.5 80.5"/><polygon class="cls-11" points="441.75 83.83 475.94 85.5 477.5 124.75 472.16 125.11 460.11 125.17 448.06 126.73 440.25 127.25 441.75 83.83"/><polygon class="cls-8" points="438.5 139.25 445 139.25 444.02 151 438.5 151 438.5 139.25"/><polygon class="cls-8" points="447.39 139.25 453.5 139.25 453.5 150 447.39 151 447.39 139.25"/><polygon class="cls-8" points="456.75 139.25 464.38 139.25 463 149.75 456.75 149.75 456.75 139.25"/><rect class="cls-8" x="467.01" y="139.25" width="6.94" height="10.5"/><polygon class="cls-5" points="486.56 105.38 498 105.25 498 116.25 486.56 116.25 486.56 105.38"/><rect class="cls-5" x="502.3" y="105.38" width="12.2" height="10.88"/><polygon class="cls-5" points="518.41 105.38 529.5 105.25 529.5 116.25 518.41 116.25 518.41 105.38"/><polygon class="cls-10" points="486.56 125.25 489.24 123.5 491.23 128 495.4 121.25 496.5 122.63 491.23 130.88 486.56 125.25"/><polygon class="cls-10" points="487.63 136.25 490.25 134.13 491.23 137.25 495.4 132.75 496.5 133.88 491.23 140.38 487.63 136.25"/><polygon class="cls-10" points="488.25 145.88 490.5 143.88 492.28 147.25 496.5 142.63 498 144 491.53 150.38 488.25 145.88"/><line class="cls-16" x1="502.3" y1="123.06" x2="531" y2="123.06"/><line class="cls-16" x1="502.3" y1="127.06" x2="516" y2="127.06"/><line class="cls-16" x1="502.3" y1="134.06" x2="531" y2="134.06"/><line class="cls-16" x1="502.3" y1="138.06" x2="516" y2="138.06"/><line class="cls-16" x1="502.3" y1="144.06" x2="531" y2="144.06"/><line class="cls-16" x1="502.3" y1="148.06" x2="516" y2="148.06"/><line class="cls-16" x1="487.63" y1="83" x2="523.95" y2="83"/><line class="cls-16" x1="487.63" y1="88" x2="513.95" y2="88"/><line class="cls-16" x1="487.63" y1="93" x2="503.95" y2="93"/><polygon class="cls-5" points="377.63 66 387.75 69.75 386.99 83 375 78.67 377.63 66"/><polygon class="cls-5" points="375 95.33 386.99 97.76 384.67 110.81 373.67 108.91 375 95.33"/><polygon class="cls-5" points="372 124.25 382.5 126.06 381.37 137.2 370 137.2 372 124.25"/><line class="cls-16" x1="394.91" y1="75.67" x2="419.5" y2="83"/><line class="cls-16" x1="393.91" y1="80.67" x2="409.24" y2="84.94"/><line class="cls-16" x1="393.58" y1="103.61" x2="418.67" y2="108.99"/><line class="cls-16" x1="392.98" y1="108.67" x2="408.6" y2="111.73"/><line class="cls-16" x1="391.18" y1="131.32" x2="416.78" y2="133.18"/><line class="cls-16" x1="391.29" y1="136.42" x2="407.18" y2="137.28"/><polygon class="cls-7" points="369 148.82 419.5 145.72 419.5 154.1 368.25 160.29 369 148.82"/><polyline class="cls-16" points="560.76 80.5 569.22 142.63 593 141.1"/><line class="cls-16" x1="566.72" y1="124.25" x2="590.41" y2="122.25"/><line class="cls-16" x1="564.27" y1="107.3" x2="590.41" y2="103.61"/><line class="cls-16" x1="562.46" y1="93" x2="586.25" y2="89"/><polygon class="cls-17" points="447.43 94.83 449.27 107.3 450.43 118.75 455.28 118.51 459.83 118.75 464.38 118.06 471.13 117.72 468.17 91.31 458.47 95.64 447.43 94.83"/><polygon class="cls-18" points="452.08 101.84 456.61 101.11 458 101.67 459.59 100.63 465.25 99.58 460.37 108.34 457.52 109.21 452.08 101.84"/><polygon class="cls-12" points="448.06 95.45 449.27 107.3 447.12 104.42 445.3 92.5 457.39 88.03 471.13 88.9 471.13 101.84 469.85 106.3 467.23 92.5 458.47 96.64 448.06 95.45"/><polygon class="cls-12" points="452.08 101.84 455.75 99.62 456.61 101.11 452.08 101.84"/><polygon class="cls-12" points="459.59 100.63 459.59 98.53 465.25 99.58 459.59 100.63"/><polygon class="cls-19" points="459.59 100.63 460.37 108.34 457.52 109.21 456.61 101.11 459.59 100.63"/><polygon class="cls-20" points="460.37 108.34 458.67 110.81 457.52 109.21 460.37 108.34"/><polygon class="cls-20" points="453.17 112.5 459.59 113.25 466.5 111.25 466.5 112.25 459.59 114.83 453.17 113.83 453.17 112.5"/><polygon class="cls-18" points="447.12 104.42 445.3 104.42 446.81 109.88 449.56 110.22 449.27 107.3 447.12 104.42"/><polygon class="cls-18" points="471.13 101.84 473.13 101.84 472.69 107.32 470.07 108.34 469.85 106.3 471.13 101.84"/><polygon class="cls-5" points="455.28 118.51 448.06 126.83 472.16 125.11 464.38 118.06 459.28 119.08 455.28 118.51"/><polygon class="cls-20" points="455.28 118.51 459.59 124.25 464.38 118.06 455.28 118.51"/><polygon class="cls-8" points="548.52 77.67 571.67 72.33 573 79.33 550.13 84.94 548.52 77.67"/><polygon class="cls-8" points="581.33 85.5 598.15 81.7 599.49 88.7 582.94 92.77 581.33 85.5"/><polygon class="cls-8" points="584.45 101.34 601.47 98.53 602.39 105.6 585.63 108.7 584.45 101.34"/><polygon class="cls-8" points="588.12 119.42 605.28 117.67 605.76 124.78 588.85 126.83 588.12 119.42"/><polygon class="cls-8" points="589.77 137.73 606.97 136.48 607.25 143.6 590.28 145.17 589.77 137.73"/><circle class="cls-21" cx="462.81" cy="103.63" r="0.94"/><circle class="cls-21" cx="454.35" cy="104.56" r="0.94"/><polygon class="cls-5" points="426.5 194.49 437.02 191.99 439.69 197.19 430.35 200.4 426.5 194.49"/></g><g id="rocks_copy_2" data-name="rocks copy 2"><polygon class="cls-2" points="450.79 235.5 465.25 243.78 451.27 255 432.33 243.78 450.79 235.5"/><polygon class="cls-12" points="432.33 243.78 430.83 255.91 444.02 281.44 455.28 270.15 451.27 253 432.33 243.78"/><polygon class="cls-4" points="465.25 243.78 480.01 275.36 444.41 296.85 439.69 282.86 446.99 271.32 451.27 253 465.25 243.78"/><polygon class="cls-2" points="430.83 255.91 446.99 271.32 426.5 287.05 352.86 275.12 358.99 257.4 381.34 268.66 430.83 255.91"/><polygon class="cls-22" points="446.99 271.32 444.41 296.85 358.37 291.8 352.86 275.12 446.99 271.32"/><polygon class="cls-2" points="527.26 271.12 513.5 273.88 524.5 292.35 568.69 286.33 560.76 278 540.86 280.36 527.26 271.12"/><polygon class="cls-2" points="546 240.13 556.75 250.13 541.5 258.78 530.25 240.33 546 240.13"/><polygon class="cls-12" points="530.25 240.33 527.26 271.12 540.86 284.36 543.27 266.75 541.5 256.78 530.25 240.33"/><polygon class="cls-4" points="556.75 250.13 560.76 278 540.86 284.36 541.5 256.78 556.75 250.13"/><polygon class="cls-12" points="513.5 273.88 506.5 288.42 522.5 298.25 526.41 293.85 525.5 291.35 513.5 273.88"/><polygon class="cls-4" points="525.5 291.35 568.69 286.33 570.5 295.97 522.5 298.25 525.5 291.35"/><polygon class="cls-2" points="555.67 271.82 577.34 255.91 619.03 263 582.13 287.36 555.67 271.82"/><polygon class="cls-12" points="555.67 271.82 551.99 296.85 581.09 306.25 584.75 292.48 582.13 284.36 555.67 271.82"/><polygon class="cls-4" points="619.03 263 625.33 292.35 581.09 306.25 582.13 284.36 619.03 263"/><polygon class="cls-2" points="755.66 269.43 791.66 263 839.32 271 788.99 289.08 755.66 269.43"/><polygon class="cls-12" points="755.66 269.43 742.66 292.09 787.66 307.25 794.32 295.37 788.99 287.08 755.66 269.43"/><polygon class="cls-4" points="839.32 271 845.49 297.04 787.66 307.25 788.99 287.08 839.32 271"/></g><g id="chair_copy_2" data-name="chair copy 2"><polygon class="cls-23" points="184.69 64.66 171.35 80.99 166.03 112.33 184.69 97.66 184.69 64.66"/><polygon class="cls-3" points="182.02 97.66 184.69 64.66 222.13 80.67 237.88 87.99 284.52 62.66 296.45 86.99 240.9 100.24 182.02 97.66"/><polygon class="cls-23" points="191.93 93.46 192.46 76.66 214.3 83.98 203.66 90.44 191.93 93.46"/><polygon class="cls-23" points="267.48 80.81 280.42 74.33 285.94 84.75 272.76 84.75 267.48 80.81"/><polygon class="cls-1" points="169.34 329.33 273.33 317.99 336.57 293.55 287.52 267.39 214 266.06 66 298.25 169.34 329.33"/><polygon class="cls-23" points="203.66 235.99 192.9 272.25 213.38 302.33 203.66 235.99"/><polygon class="cls-23" points="182.02 97.66 166.03 112.33 203.14 211.32 208.04 215.06 213.69 212.99 206.82 164.62 182.02 97.66"/><polygon class="cls-24" points="182.02 97.66 237.1 74.33 296.45 86.99 303.14 199.4 299.79 204.4 299.79 216.35 299.81 234.33 247.64 246.35 229.66 245.24 213.69 212.99 182.02 97.66"/><polygon class="cls-23" points="199.02 103.99 237.88 87.99 282.54 97.49 289.38 177.34 293.85 187.89 291.52 202.28 228.13 211.55 206.82 136.92 199.02 103.99"/><polygon class="cls-13" points="183.23 82.64 191.46 72.66 202.35 79.95 211.82 73.95 189.69 66.35 173.69 74.5 172.35 78.99 183.23 82.64"/><polygon class="cls-5" points="196.03 32.66 204.02 19.66 206.87 37.32 201.69 36.32 196.03 32.66"/><polygon class="cls-8" points="169.77 37.32 157.19 27.16 163.02 46.66 168.19 42.82 169.77 37.32"/><polygon class="cls-6" points="177.1 73.95 188.98 66.7 202.92 72.45 203.66 49.74 187.06 61.84 169.77 55.66 177.1 73.95"/><polygon class="cls-5" points="187.06 61.84 186.85 47.66 183 37.32 169.77 37.32 163.02 46.66 171.35 80.99 183.23 82.64 175.36 59.98 187.06 61.84"/><polygon class="cls-8" points="183 37.32 196.03 32.66 206.87 37.32 211.82 76.67 202.35 79.95 201.08 55.66 187.06 61.84 183 37.32"/><polygon class="cls-6" points="174.35 47.82 181.85 55.66 174.19 54.32 174.35 47.82"/><polygon class="cls-6" points="191.35 53.82 197.19 44.32 199.19 50.99 191.35 53.82"/><polygon class="cls-7" points="191.93 59.69 186.03 55.66 186.03 58.75 187.06 61.84 191.93 59.69"/><polygon class="cls-8" points="186.03 55.66 182.5 61.12 187.06 61.84 186.03 55.66"/><polygon class="cls-24" points="203.14 211.32 213.69 212.99 225.89 243.24 228.13 269.66 213.38 302.33 195.52 232.24 203.14 211.32"/><polygon class="cls-23" points="291.52 202.28 325.01 221.18 336.57 255 336.57 293.55 313 285.33 291.52 202.28"/><polygon class="cls-3" points="303.14 199.4 352.67 221.3 330.35 230.72 316.17 227.08 291.52 202.28 303.14 199.4"/><polygon class="cls-12" points="316.17 227.08 330.35 255.65 342.5 255 358.99 251.68 352.67 221.3 316.17 227.08"/><polygon class="cls-23" points="358.99 251.68 358.37 291.8 336.57 293.55 330.35 255.65 358.99 251.68"/><polygon class="cls-12" points="313 285.33 244.61 291.35 241.5 261.76 315.6 252.91 313 285.33"/><polygon class="cls-3" points="231.5 241.68 299.81 234.33 315.6 252.91 245.27 263 231.5 241.68"/><polygon class="cls-3" points="213.69 212.99 216 235.99 236.82 245.24 245.64 234.11 228.13 211.55 213.69 212.99"/><polygon class="cls-12" points="216 235.99 214 268.38 238.54 271.29 253.19 266.2 245.64 234.11 216 235.99"/><polygon class="cls-23" points="252.2 262.01 246.48 301.29 213.38 302.33 214 268.38 252.2 262.01"/></g><g id="intj_copy_2" data-name="intj copy 2"><polygon class="cls-13" points="297.56 208.35 296.29 220.74 279.03 230.59 238.88 223.22 232.79 224.65 224.39 228.49 214.65 221.92 213.69 212.99 195.13 145.4 233.86 143.27 234.5 180.33 283.36 204.28 297.56 208.35"/><polygon class="cls-5" points="267.35 180.74 276.2 180.74 292.33 193.04 296.45 198.19 297.56 208.35 279.77 203.41 274.33 198.13 267.35 180.74"/><polygon class="cls-25" points="274.33 172.16 281.4 180.74 288.52 178.49 287.02 172.13 274.33 172.16"/><polygon class="cls-8" points="283.36 204.28 251.4 209.53 236.77 212.99 249.64 237.91 265.46 237.49 279.03 230.59 283.36 204.28"/><polygon class="cls-5" points="247.03 240.01 279.03 235.99 300.02 245.24 279.94 257.74 252.2 262.01 247.03 240.01"/><polygon class="cls-15" points="219.33 188.81 216.59 193.01 208.04 192.43 214.65 183.63 219.33 188.81"/><polygon class="cls-9" points="214.65 183.63 216.59 193.01 235.05 194.15 241.9 186.57 228.13 179.67 214.65 183.63"/><polygon class="cls-10" points="214.65 183.63 233.26 185.64 237.82 185.64 238.88 181.9 209.9 160.62 214.65 183.63"/><polygon class="cls-15" points="209.9 160.62 238.88 181.9 224.84 146.05 209.9 160.62"/><polygon class="cls-26" points="265.53 262.16 270 289.12 278.19 288.39 282.69 270.88 281.5 264 265.53 262.16"/><polygon class="cls-7" points="238.88 181.9 267.35 180.74 283.36 204.28 236.77 212.99 233.26 185.64 238.88 181.9"/><polygon class="cls-15" points="271.13 113.41 285.16 128.1 278.99 156.3 271.13 113.41"/><polygon class="cls-26" points="271.13 113.41 274.23 128.45 277.98 133.97 277.18 142.69 282.76 169.7 262.76 175.54 254.02 186.57 241.9 183.57 220.04 152.76 244.58 130.43 271.13 113.41"/><polygon class="cls-15" points="206.82 136.92 222.51 107.23 261.86 97.44 234.22 117.99 206.82 136.92"/><polygon class="cls-25" points="238.88 138.06 248.93 179.33 253.77 182.84 255.6 190.13 238.88 181.9 220.04 152.76 238.88 138.06"/><polygon class="cls-27" points="245.28 180.09 262.76 175.54 255.6 190.13 245.28 180.09"/><polygon class="cls-28" points="267.35 153.68 261.5 155.03 256.23 133.35 262.07 132 267.35 153.68"/><polygon class="cls-5" points="244.44 148.74 242.32 140.09 256.9 136.13 256.23 133.35 238.88 138.06 242.36 152.25 259.73 147.64 259.05 144.87 244.44 148.74"/><polygon class="cls-5" points="276.99 127.79 262 131.87 262.67 134.62 274.81 131.36 276.61 140.05 264.75 143.27 265.43 146.04 279.94 142.09 276.99 127.79"/><polygon class="cls-29" points="256.23 133.35 249.91 135.07 243.05 135.07 246.57 132.36 256.23 133.35"/><polygon class="cls-29" points="262.07 132 266.87 127.17 273.76 126.18 265.2 124.19 262.07 132"/><polygon class="cls-15" points="225.93 145.26 231.88 154.74 233.86 153.47 233.56 142.25 225.93 145.26"/><polygon class="cls-27" points="267.35 153.68 265.26 156.18 261.5 155.03 267.35 153.68"/><line class="cls-11" x1="116.54" y1="310.85" x2="127.58" y2="313.19"/><polygon class="cls-26" points="234.22 158.46 226.69 163.03 220.04 152.76 227.2 147.28 234.22 158.46"/><polygon class="cls-25" points="257.07 145.4 252.42 139.53 242.73 141.79 242.32 140.09 256.9 136.13 259.05 144.87 257.07 145.4"/><polygon class="cls-25" points="264.75 143.27 265.22 136.17 271.19 132.36 262.67 134.62 264.75 143.27"/><polygon class="cls-27" points="282.69 270.88 265.53 262.16 275.5 261 284.86 262.38 282.69 270.88"/><polygon class="cls-25" points="266.06 148.39 273.76 143.77 265.46 146.04 266.06 148.39"/><polygon class="cls-25" points="242.36 152.25 260.36 150.68 259.73 147.64 242.36 152.25"/><polygon class="cls-27" points="226.98 163.49 231.69 170.79 234.22 158.46 226.69 163.03 226.98 163.49"/><polygon class="cls-27" points="222.43 153.29 226.5 150.48 230.09 155.95 222.43 153.29"/><polygon class="cls-9" points="195.13 145.4 209.9 160.62 276.2 109.53 263.91 100.24 195.13 145.4"/><polygon class="cls-14" points="195.13 145.4 235.47 126.11 276.2 109.53 266.23 94.56 195.13 145.4"/><polygon class="cls-26" points="291.52 260.69 289.83 270.02 300.51 286.43 305.67 284.75 308.01 281.04 303.77 262.58 291.52 260.69"/><polygon class="cls-27" points="303.77 262.58 289.83 270.02 284.86 262.38 292.44 260.69 303.77 262.58"/><polygon class="cls-27" points="272.37 119.42 247.48 131.66 271.14 113.43 272.37 119.42"/><polygon class="cls-7" points="254.19 165.22 263.77 167.28 271.75 163.4 264.33 163.4 254.19 165.22"/><polygon class="cls-5" points="271.75 163.4 254.19 165.22 262.98 161.17 271.75 163.4"/><polygon class="cls-11" points="255.6 190.13 268.48 196.87 260.21 180.74 255.6 190.13"/><polygon class="cls-11" points="238.88 181.9 255.6 190.13 251.4 204.28 238.88 181.9"/><polygon class="cls-6" points="300.02 245.24 303.77 262.58 252.2 262.01 300.02 245.24"/><polygon class="cls-14" points="292.33 193.04 293.85 187.89 302.51 188.89 309.66 202.28 297.56 208.35 292.33 193.04"/><polygon class="cls-26" points="302.51 188.89 292.75 172.13 289.02 173.13 286.94 176.61 292.33 193.04 302.51 188.89"/><polygon class="cls-28" points="292.75 172.13 281.74 165.34 274.33 172.16 286.94 176.61 292.75 172.13"/><polygon class="cls-6" points="300.02 245.24 247.03 240.01 262.76 234.11 279.03 230.59 300.02 245.24"/><polygon class="cls-5" points="236.77 212.99 250.6 219.08 258.31 220.87 279.03 230.59 247.03 240.01 245.64 234.11 237.93 224.18 236.77 212.99"/><polygon class="cls-5" points="233.26 185.64 236.77 212.99 234.22 217.74 224.39 228.49 222.39 193.49 233.26 185.64"/><polygon class="cls-14" points="236.77 212.99 246.27 216.47 244.2 223.93 240.41 227.38 224.39 228.49 236.77 212.99"/><polygon class="cls-27" points="255.33 233.15 254.59 237.78 262.76 235.38 258.24 232.97 255.33 233.15"/><polygon class="cls-27" points="249.96 226.08 250.92 230.95 255.33 233.15 256.12 225.65 249.96 226.08"/><polygon class="cls-26" points="246.27 216.47 258.31 220.87 257.59 224.88 255.44 226.99 240.41 227.38 246.27 216.47"/><polygon class="cls-25" points="258.31 220.87 262.76 235.38 255.33 233.15 255.44 226.99 258.31 220.87"/><circle class="cls-21" cx="271.45" cy="136.47" r="2.32"/><circle class="cls-21" cx="253.43" cy="141.01" r="2.32"/><polygon class="cls-15" points="270.86 296.56 269.06 298.61 268.98 301.36 285.41 301.29 285.42 298.4 270.86 296.56"/><polygon class="cls-9" points="278.19 288.39 285.42 298.4 269.06 298.61 270 289.12 278.19 288.39"/><polygon class="cls-15" points="309.83 287.57 303.53 293.28 304.67 295.67 323.33 284.58 322.1 282.58 309.83 287.57"/><polygon class="cls-9" points="308.01 281.04 322.1 282.58 303.53 293.28 300.51 286.43 308.01 281.04"/></g><g id="torch2_copy_2" data-name="torch2 copy 2"><polygon class="cls-9" points="95.34 114.41 119.34 105.05 143.5 108.15 123.04 121.06 95.34 114.41"/><polygon class="cls-9" points="159.53 243.25 153.63 210.17 141.38 199.97 148.12 249.34 159.53 243.25"/><polygon class="cls-10" points="153.63 210.17 125.92 187.1 128.57 180.92 131.49 178.3 150.34 196.45 153.63 210.17"/><polygon class="cls-9" points="125.92 187.1 123.04 137.99 131.83 128.49 131.49 178.3 125.92 187.1"/><polygon class="cls-6" points="123.44 144.67 113.38 136.13 106.53 123.41 125.04 125.37 125.64 131.62 123.44 144.67"/><polygon class="cls-5" points="124.04 127.37 131 119.64 139.78 114.41 131.83 134.04 123.44 144.67 124.04 127.37"/><polygon class="cls-10" points="124.04 127.37 125.45 121.98 123.04 118.31 95.34 114.41 106.53 123.41 124.04 127.37"/><polygon class="cls-14" points="123.04 118.31 143.5 108.15 139.78 114.41 124.04 127.37 123.04 118.31"/><polygon class="cls-7" points="123.04 116.31 122.21 101.41 118.05 95.96 110.4 91.62 104.68 103.24 110.77 116.58 123.04 116.31"/><polygon class="cls-7" points="110.4 91.62 111.7 85.2 121.68 79.99 129.71 92.02 122.21 101.41 110.4 91.62"/><polygon class="cls-8" points="122.21 101.41 110.77 116.58 123.04 118.31 127.44 105.74 122.21 101.41"/><polygon class="cls-8" points="121.68 79.99 117.34 74.23 111.9 74.23 106.68 82.33 110.4 91.62 121.68 79.99"/><polygon class="cls-7" points="111.9 74.23 121.68 61.49 127.44 71.93 121.68 79.99 111.9 74.23"/></g><g id="table_copy_2" data-name="table copy 2"><polygon class="cls-15" points="229.9 313.19 215.03 307.66 212.88 299.53 229.9 296.57 229.9 313.19"/><polygon class="cls-15" points="130.34 306.38 152.01 300.64 149.01 292.05 129.01 284.35 130.34 306.38"/><polygon class="cls-14" points="166.76 252.19 249.78 281.44 172 305.33 119.76 259.88 166.76 252.19"/><polygon class="cls-10" points="249.78 281.44 250.75 309.66 229.9 313.19 227.53 299.33 183.01 310.85 181.01 324.99 169.34 329.33 169.34 313.19 172 302.33 249.78 281.44"/><polygon class="cls-9" points="172 302.33 119.76 259.88 118.57 297.57 130.34 306.38 131.01 286.58 157.34 307.99 155.03 321.66 169.34 329.33 170.76 314.97 172 302.33"/><polygon class="cls-13" points="119.76 259.88 148.01 282.83 176.05 274.63 168.59 259.88 119.76 259.88"/><polygon class="cls-13" points="186.12 281.38 218.51 278.11 215.59 284.86 206.71 286.43 186.12 281.38"/><polygon class="cls-30" points="148.01 272.33 136.51 257.14 136.51 266.06 148.01 282.83 148.01 272.33"/><polygon class="cls-11" points="178.68 267.39 148.01 272.33 147.01 277 148.01 282.83 178.01 276.39 178.68 267.39"/><polygon class="cls-5" points="148.01 273.33 136.51 257.14 166.76 252.19 178.68 267.39 148.01 273.33"/><polygon class="cls-8" points="157.59 258.14 176.05 245.24 136.58 238.62 115.57 250.09 157.59 258.14"/><polygon class="cls-2" points="176.05 255.69 157.59 266.06 156.14 260.88 157.59 257.14 176.05 245.24 176.05 255.69"/><polygon class="cls-6" points="157.59 257.14 115.57 250.09 115.68 259.33 157.59 266.06 157.59 257.14"/><polygon class="cls-11" points="230.35 250.2 215.59 243.25 215.59 254.5 214.4 261.51 215.59 284.86 224.76 281.45 218.51 278.11 218.51 270.42 230.35 250.2"/><polygon class="cls-30" points="200.84 250.2 215.59 243.25 215.59 284.86 206.43 281.45 212.68 278.11 212.68 269 200.84 250.2"/><polygon class="cls-11" points="200.84 250.2 215.59 254.5 216.26 249.63 215.59 243.25 200.84 250.2"/><polygon class="cls-30" points="215.59 243.25 215.59 254.5 230.35 250.2 215.59 243.25"/><polygon class="cls-9" points="206.71 251.91 215.59 248.1 223.63 251.91 215.59 254.5 206.71 251.91"/><polygon class="cls-9" points="205.72 253.66 215.59 256.75 215.59 268.38 205.72 253.66"/><polygon class="cls-10" points="215.59 256.75 224.84 253.83 215.59 268.38 215.59 256.75"/></g><g id="mouse_copy" data-name="mouse copy"><polygon class="cls-1" points="745.5 317.31 725.3 312.13 713.77 313.2 700.66 313.46 661 320.79 640.92 315.89 622.12 314.63 611.75 317.69 576.13 321.14 606.92 329.67 650 326.52 665 324.06 665 324.06 694.5 326.52 730.9 323.14 757.5 319.75 745.5 317.31"/><polygon class="cls-8" points="736.83 309.45 746.33 313.89 747.12 315.23 745.5 317.31 732.91 314.89 736.83 309.45"/><polygon class="cls-8" points="730.9 323.14 723.66 317.31 711.16 319.56 711.16 323.14 730.9 323.14"/><polygon class="cls-5" points="705.33 274.06 690.16 276.73 686.92 279.07 689.15 282.72 699.66 290.06 703.33 284.46 705.33 274.06"/><polygon class="cls-6" points="690.16 276.73 682.5 278.08 689.15 282.72 690.16 276.73"/><circle class="cls-21" cx="696.5" cy="278.64" r="2"/><polygon class="cls-8" points="705.33 274.06 713.77 281.1 712.5 288.14 706.08 291.89 699.66 290.06 705.33 274.06"/><polygon class="cls-7" points="712.5 288.14 705.33 274.06 714.75 280.39 712.5 288.14"/><polygon class="cls-8" points="727.66 292.72 712.5 288.14 709 299.14 724.41 309.56 736.83 309.45 727.66 292.72"/><polygon class="cls-5" points="736.83 309.45 730.9 323.14 713.77 313.2 717.14 304.64 736.83 309.45"/><polygon class="cls-8" points="714.75 280.39 721 276.64 717.14 265.45 713.51 270.64 710.16 275.64 714.75 280.39"/><polygon class="cls-5" points="714.75 280.39 713.51 270.64 701.13 265.75 707.21 277.75 714.75 280.39"/><polygon class="cls-7" points="736.83 309.45 712.5 288.14 730.29 290.74 736.83 309.45"/><polygon class="cls-8" points="703.35 293.64 695.5 296.06 690.16 299.22 693.5 301.22 697.33 298.72 709 299.14 703.35 293.64"/><polygon class="cls-5" points="699.66 290.06 712.5 288.14 715.11 297.43 713.77 300.56 709 299.14 699.66 290.06"/><polygon class="cls-7" points="709 299.14 702 308.64 700.66 313.46 703.83 315.23 705.33 309.65 717.14 304.64 715.11 297.43 709 299.14"/><polygon class="cls-5" points="746.33 313.89 756.25 304.64 758.41 307.64 758.41 309.56 745.5 317.31 746.33 313.89"/><polygon class="cls-7" points="756.25 304.64 777 315.23 758.41 309.56 756.25 304.64"/><polygon class="cls-9" points="657.87 306.53 665.67 310.53 667.38 311.59 665 312.98 655.55 313.06 656.33 309.06 657.87 306.53"/><polygon class="cls-10" points="611.75 317.69 609 321.83 612.22 322.33 616.05 318.81 624 316.84 620 312.13 611.75 317.69"/><polygon class="cls-9" points="658.04 312.98 650 326.52 646.17 326.52 648.21 320.5 651 316.84 658.04 312.98"/><polygon class="cls-10" points="604.03 299.04 595.52 311.56 595.3 314.63 599.25 316.01 613.57 312.98 612 307.56 604.03 299.04"/><polygon class="cls-9" points="595.52 311.56 591.36 317.69 599.25 316.01 595.52 311.56"/><circle class="cls-21" cx="601.62" cy="309.56" r="2"/><polygon class="cls-14" points="604.03 299.04 611.83 298.25 622.4 304.38 613.57 312.98 604.03 299.04"/><polygon class="cls-14" points="616.05 299.67 619.03 294.33 613.22 290.67 610.83 295.96 610.83 298.52 616.05 299.67"/><polygon class="cls-9" points="622.4 304.38 634.26 303.44 653.67 303.38 652.5 314.56 625.33 317.69 613.57 312.98 622.4 304.38"/><polygon class="cls-14" points="657.87 306.53 648.61 309.8 639.17 309.06 620.19 306.53 616.05 299.67 622.4 299.67 633.62 293.96 652.16 298.83 657.87 306.53"/><polygon class="cls-10" points="658.04 312.98 657.87 306.53 639.17 309.06 640.92 315.89 648.21 320.5 658.04 312.98"/><polygon class="cls-14" points="623.2 316.84 628.38 312.98 630.58 316.51 634.26 326.52 630.17 326.52 623.2 316.84"/><polygon class="cls-14" points="620.19 306.53 604.03 299.04 609.62 298.25 616.05 299.67 622.4 299.67 620.19 306.53"/><polygon class="cls-9" points="612.22 302.83 610.83 295.96 601.62 295.25 607.05 303.44 612.22 302.83"/><polygon class="cls-14" points="657.87 306.53 633.62 293.96 652.5 297.5 657.87 306.53"/><polygon class="cls-10" points="665.67 310.53 672.83 307.56 673.05 309.96 671.35 312.13 665 312.98 665.67 310.53"/><polygon class="cls-14" points="672.83 307.56 684.02 318.92 671.35 312.13 672.83 307.56"/></g></g></svg>