<svg id="illustration" xmlns="http://www.w3.org/2000/svg" viewBox="0 0 900 350"><defs><style>.cls-1,.cls-47{fill:#2b2b2b;}.cls-1,.cls-11,.cls-12,.cls-13,.cls-14,.cls-15,.cls-2,.cls-3,.cls-32,.cls-33,.cls-35,.cls-36,.cls-37,.cls-39,.cls-4,.cls-40,.cls-41,.cls-42,.cls-43,.cls-44,.cls-45,.cls-46,.cls-47,.cls-48,.cls-5,.cls-6,.cls-7,.cls-8,.cls-9{fill-rule:evenodd;}.cls-1{opacity:0.1;}.cls-2,.cls-30{fill:#c4c4c4;}.cls-3{fill:#dddddc;}.cls-23,.cls-4{fill:#858686;}.cls-27,.cls-5{fill:#a3a3a3;}.cls-19,.cls-6{fill:#737373;}.cls-7{fill:#6f7173;}.cls-28,.cls-8{fill:#9da1a2;}.cls-31,.cls-9{fill:#fff;}.cls-10,.cls-16,.cls-20,.cls-37,.cls-38,.cls-49,.cls-50,.cls-51,.cls-52{fill:none;stroke-miterlimit:10;}.cls-10{stroke:#a3a3a3;}.cls-11,.cls-29{fill:#d1a1b8;}.cls-12,.cls-25{fill:#9075a0;}.cls-13,.cls-24{fill:#a688ba;}.cls-14{fill:#ececeb;}.cls-15{fill:#b3889d;}.cls-16{stroke:#858686;}.cls-17{fill:#cececd;}.cls-18,.cls-33{fill:#8f8f8f;}.cls-20{stroke:#9da1a2;}.cls-20,.cls-37,.cls-38,.cls-50{stroke-width:3px;}.cls-21,.cls-35{fill:#734d60;}.cls-22,.cls-32{fill:#96637c;}.cls-26,.cls-36{fill:#785d88;}.cls-34,.cls-42{fill:#543042;}.cls-37,.cls-38{stroke:#b3889d;}.cls-39{fill:#c3987b;}.cls-40{fill:#dfbda5;}.cls-41{fill:#8b6651;}.cls-43{fill:#594165;}.cls-44{fill:#e8cab6;}.cls-46{fill:#474747;}.cls-47{opacity:0.2;}.cls-48{fill:#4f5253;}.cls-49,.cls-50,.cls-51,.cls-52{stroke:#734d60;}.cls-49{stroke-width:5px;}.cls-51{stroke-width:2px;}</style></defs><title>analysts_INTP_scene_med_introduction</title><g id="lab"><polygon class="cls-1" points="285.47 244.1 313.72 240.44 326.14 236.2 343.67 242.02 391.73 231.27 326.14 215.47 285.47 244.1"/><polygon class="cls-2" points="109.17 64.27 109.17 182.78 115.56 182.78 114.85 61.44 109.17 64.27"/><polygon class="cls-2" points="97.47 64.27 97.47 182.78 103.85 182.78 103.14 61.44 97.47 64.27"/><polygon class="cls-3" points="338.29 175.75 285.47 202.29 42.66 193.38 83.35 165.7 339.41 167.37 338.29 175.75"/><polygon class="cls-4" points="285.47 244.1 42.66 238.66 42.66 193.38 285.47 199.1 288.67 218.57 285.47 244.1"/><polygon class="cls-2" points="218.07 78.08 218.07 176.68 263.95 178.83 267.44 130.56 266.8 78.08 218.07 78.08"/><polygon class="cls-4" points="263.95 178.83 278.76 173.68 280.89 126.84 278.76 76.24 266.8 78.08 263.95 178.83"/><polygon class="cls-5" points="278.76 173.68 320.29 175.75 320.29 80.86 278.76 76.24 278.76 173.68"/><path class="cls-6" d="M308.93,137.36c-1.06.36-30.17-1.77-30.17-1.77l-3.18,1.81,3.18,4.4L310,143.4Z"/><polygon class="cls-6" points="306.27 146.94 278.76 146.06 276.47 148.36 278.76 151.56 307.69 153.05 306.27 146.94"/><polygon class="cls-7" points="285.47 199.1 285.47 244.1 329.33 227.04 338.29 175.75 285.47 199.1"/><polygon class="cls-8" points="127.89 106.63 199.2 109.33 199.46 155.9 126.83 154.11 127.89 106.63"/><polygon class="cls-9" points="133.75 113.35 191.38 117.03 190.31 149.55 135.34 146.06 133.75 113.35"/><line class="cls-10" x1="169.4" y1="135.61" x2="164.15" y2="138.41"/><circle class="cls-10" cx="162.17" cy="139.49" r="1.93"/><line class="cls-10" x1="177.76" y1="135.97" x2="178.82" y2="141.82"/><circle class="cls-10" cx="179.29" cy="143.74" r="1.93"/><line class="cls-10" x1="178.24" y1="130.64" x2="182.12" y2="126.12"/><circle class="cls-10" cx="183.31" cy="124.55" r="1.93"/><polygon class="cls-11" points="179.91 128.72 182.24 139.49 178.19 138.07 172.54 130.39 179.91 128.72"/><polygon class="cls-12" points="168.34 131.45 173.66 126 179.91 128.72 171.4 133.15 174.13 138.07 168.34 136.34 168.34 131.45"/><polygon class="cls-13" points="168.34 131.45 171.4 133.15 174.13 138.07 178.19 138.07 174.67 131.45 170.32 129.42 168.34 131.45"/><polygon class="cls-12" points="236.2 115.99 260.15 117.05 259.35 144.73 236.46 144.19 236.2 115.99"/><polygon class="cls-14" points="240.45 122.64 254.82 122.37 254.82 139.67 240.45 139.14 240.45 122.64"/><polygon class="cls-15" points="224.62 113.86 228.48 113.99 228.08 124.9 224.75 124.9 224.62 113.86"/><polygon class="cls-15" points="224.89 130.89 228.08 130.62 228.21 141.13 224.89 140.87 224.89 130.89"/><polygon class="cls-15" points="225.02 148.19 228.21 147.92 228.48 159.5 224.89 159.36 225.02 148.19"/><line class="cls-16" x1="237.08" y1="150.67" x2="252.16" y2="151.02"/><line class="cls-16" x1="237.08" y1="153.86" x2="252.16" y2="154.22"/><line class="cls-16" x1="237.08" y1="157.06" x2="252.16" y2="157.41"/><line class="cls-16" x1="237.08" y1="160.25" x2="252.16" y2="160.6"/><line class="cls-16" x1="237.08" y1="163.44" x2="252.16" y2="163.8"/><polygon class="cls-15" points="203.6 109.47 207.86 109.6 208.12 114.66 203.73 114.52 203.6 109.47"/><polygon class="cls-15" points="203.86 117.98 208.12 117.98 208.25 122.51 203.86 122.51 203.86 117.98"/><polygon class="cls-15" points="204 126.9 208.39 126.77 208.52 131.55 204.13 131.29 204 126.9"/><polygon class="cls-15" points="204.26 135.41 208.39 135.41 208.39 140.07 204.13 139.8 204.26 135.41"/><polygon class="cls-7" points="272.52 207.93 275.18 207.79 274.65 237.07 271.85 237.47 272.52 207.93"/><polygon class="cls-7" points="267.46 207.79 266.93 237.07 264.27 237.07 264.94 207.53 267.46 207.79"/><polygon class="cls-7" points="259.88 207.66 259.35 236.8 256.69 236.8 257.35 207.13 259.88 207.66"/><polygon class="cls-2" points="172.6 203.27 234.07 204.6 233 235.2 174.19 233.61 172.6 203.27"/><polygon class="cls-8" points="227.41 208.59 229.54 206.86 231.27 208.86 228.61 211.12 227.41 208.59"/><polygon class="cls-8" points="227.15 231.08 229.41 229.08 231.54 231.61 228.88 233.07 227.15 231.08"/><polygon class="cls-11" points="238.06 204.87 246.44 205 246.44 208.46 237.79 208.19 238.06 204.87"/><polygon class="cls-11" points="237.79 211.25 245.91 211.39 246.04 214.85 237.79 214.58 237.79 211.25"/><polygon class="cls-11" points="237.93 217.64 245.78 217.77 245.78 220.97 237.79 220.7 237.93 217.64"/><polygon class="cls-1" points="133.73 185.07 132.1 185.94 137.94 187.51 148.11 186.29 143.85 185.53 133.73 185.07"/><polygon class="cls-1" points="153.71 176.46 150.64 177.14 159.97 180.61 167.16 179.61 169.4 177.99 167.16 177.07 153.71 176.46"/><polygon class="cls-1" points="169.4 182.93 166.23 183.61 173.26 186.98 186.79 185.77 182.93 183.54 169.4 182.93"/><polygon class="cls-1" points="186.79 179 184.04 179.15 190.29 187.79 216.1 185.07 218.07 182.24 186.79 179"/><polygon class="cls-1" points="257.86 190.13 255.89 191.53 269.19 195.29 273.52 191.53 295.01 187.51 282.96 183.58 257.86 190.13"/><polygon class="cls-8" points="290.49 184.97 290.04 187.79 282.11 186.6 270.07 190.36 269.46 193.31 259.27 191.92 259.47 189.76 257.86 190.13 258.18 187.79 262.67 185.43 270.55 185.25 282.56 181.65 282.89 179.18 288.23 178.57 287.71 182.58 290.49 184.97"/><polygon class="cls-5" points="258.18 187.79 261.42 182.48 266.55 184.25 280.8 180.91 281.35 177.99 288.23 178.57 283.77 179.99 286.21 181.32 290.31 180.45 290.49 184.97 282.96 183.58 269.03 187.61 270.07 190.36 259.47 189.76 265.63 188.06 263.1 186.16 258.18 187.79"/><polygon class="cls-4" points="282.96 183.58 282.11 186.6 290.04 187.79 290.49 184.97 282.96 183.58"/><polygon class="cls-4" points="270.07 190.36 269.46 193.31 259.27 191.92 259.47 189.76 270.07 190.36"/><polygon class="cls-4" points="263.1 186.16 262.73 188.86 265.63 188.06 263.1 186.16"/><polygon class="cls-2" points="187.39 171.46 203.42 169.96 214.28 177.14 195.04 181.13 187.39 171.46"/><polygon class="cls-6" points="214.28 177.14 195.04 179 192.74 181.92 194.64 186.01 214.28 182.2 214.28 177.14"/><polygon class="cls-5" points="187.39 171.46 186.79 179 194.64 186.01 195.04 179 187.39 171.46"/><polygon class="cls-4" points="201.36 176.34 207.61 175.72 203.82 173.22 198.43 173.68 201.36 176.34"/><polygon class="cls-17" points="166.23 172.7 160.34 170.5 153.71 172.7 159.17 177.14 164.39 176.46 166.23 172.7"/><polygon class="cls-18" points="163.17 172.7 159.97 172.16 158.21 173.65 161.36 175.27 163.17 172.7"/><polygon class="cls-18" points="153.71 172.7 153.71 176.46 159.17 178.99 161.55 178.32 164.28 178.99 167.16 177.07 166.23 172.7 164.39 175.79 159.17 176.46 153.71 172.7"/><polygon class="cls-19" points="159.17 176.46 159.17 178.99 164.28 178.99 164.39 175.79 159.17 176.46"/><polygon class="cls-17" points="182.67 179.15 176.07 176.94 169.4 179.15 172.86 183.61 180.15 182.93 182.67 179.15"/><polygon class="cls-18" points="178.91 179.15 175.7 178.61 172.86 180.61 177.66 180.61 178.91 179.15"/><polygon class="cls-18" points="169.4 179.15 169.4 182.93 172.86 185.48 177.29 184.8 180.03 185.48 182.93 183.54 182.67 179.15 180.15 182.25 172.86 182.93 169.4 179.15"/><polygon class="cls-19" points="172.86 182.93 172.86 185.48 180.03 185.48 180.15 182.25 172.86 182.93"/><polygon class="cls-17" points="144.51 182.24 138.72 180.59 134.41 182.24 137.84 185.58 141.77 185.07 144.51 182.24"/><polygon class="cls-18" points="140.85 182.24 138.44 181.84 137.12 182.96 139.91 183.34 140.85 182.24"/><polygon class="cls-18" points="134.41 182.24 133.73 185.07 137.84 186.98 139.63 186.47 141.69 186.98 143.85 185.53 144.51 182.24 141.77 184.57 137.84 185.07 134.41 182.24"/><polygon class="cls-19" points="137.84 185.07 137.84 186.98 141.69 186.98 141.77 184.57 137.84 185.07"/></g><g id="tools_trash" data-name="tools+trash"><polygon class="cls-1" points="803.71 275.38 799.46 277.25 812.3 284.21 835.83 278.98 829.41 276.54 803.71 275.38"/><polygon class="cls-1" points="854.63 312.64 849.66 315.12 866.69 321.51 879.82 314.1 875.84 313.6 854.63 312.64"/><polygon class="cls-1" points="184.71 332.89 182.62 335.93 194.33 339.38 209.41 334.11 205.93 331.93 193.19 331.93 184.71 332.89"/><polygon class="cls-1" points="136.94 316.01 127.27 323.21 143.06 336.94 182.62 326.72 189.07 316.01 159.74 310.6 136.94 316.01"/><polygon class="cls-1" points="215.54 304.39 270.07 270.33 307.7 275.47 299.52 292.99 252.16 318.14 215.54 304.39"/><polygon class="cls-1" points="299.71 319.82 299.52 329.12 353.33 343.77 412.55 318.76 344.88 303.86 299.71 319.82"/><polygon class="cls-1" points="565.46 331.27 559.96 344.57 505.32 344.57 517.03 337.39 565.46 331.27"/><polygon class="cls-3" points="577.92 297.74 589.05 326.21 658.07 304.52 641.03 285.5 577.92 297.74"/><polygon class="cls-14" points="585.68 299.07 609.81 327.81 675.01 304.52 650.61 286.05 643.16 280.97 585.68 299.07"/><line class="cls-10" x1="640.86" y1="287.45" x2="660.19" y2="302.88"/><line class="cls-10" x1="635.53" y1="289.58" x2="654.87" y2="305.01"/><line class="cls-10" x1="629.68" y1="291.17" x2="649.02" y2="306.61"/><polyline class="cls-20" points="353.33 263.77 367.03 255.25 373.95 266.03 368.88 276.81"/><polyline class="cls-20" points="303.7 319.79 290.13 319.31 286.4 327.1 267.24 320.8"/><polygon class="cls-21" points="316.74 308.2 348.4 295.96 379.54 306.61 349.74 327.1 316.74 308.2"/><polygon class="cls-22" points="379.54 306.61 348.94 315.12 316.74 308.2 318.07 320.98 348.67 328.16 378.48 318.85 379.54 306.61"/><polygon class="cls-23" points="352.4 315.39 376.08 285.32 369.43 281.6 348.94 310.33 322.86 287.18 318.07 292.5 345.48 315.66 352.4 315.39"/><polygon class="cls-24" points="338.56 265.63 349.47 259.51 359.05 265.63 347.61 272.55 338.56 265.63"/><polygon class="cls-25" points="338.56 265.63 338.29 279.73 348.4 285.32 349.04 277.88 347.61 271.48 338.56 265.63"/><polygon class="cls-26" points="347.61 271.48 359.05 265.63 358.52 278.93 348.4 285.32 347.61 271.48"/><polygon class="cls-27" points="352.4 315.39 349.86 270.33 346.19 270.33 344.41 315.66 352.4 315.39"/><polygon class="cls-27" points="316.74 308.2 305.56 311.53 313.72 283.63 318.07 292.5 316.74 308.2"/><polygon class="cls-27" points="379.54 306.61 376.08 285.32 380.78 277.87 389.12 310.25 379.54 306.61"/><polygon class="cls-28" points="313.72 283.63 338.56 265.63 338.29 279.73 318.07 292.5 313.72 283.63"/><polygon class="cls-28" points="358.52 278.93 376.08 285.32 380.78 277.87 359.05 265.63 358.52 278.93"/><polygon class="cls-25" points="316.74 308.2 305.56 311.53 300.77 319.82 305.56 325.77 318.07 320.98 320.29 313.97 316.74 308.2"/><polygon class="cls-25" points="379.54 306.61 375.01 313.79 378.48 318.85 390.05 321.38 394.62 317.39 391.78 309.36 379.54 306.61"/><polygon class="cls-26" points="320.29 313.97 307.7 317.55 300.77 319.82 305.56 327.1 318.07 320.98 320.29 313.97"/><polygon class="cls-26" points="375.01 313.79 387.8 316.02 393.73 317.39 390.54 323.73 378.48 318.85 375.01 313.79"/><polygon class="cls-25" points="348.14 310.25 340.7 313.36 339.41 325.99 349.04 335.62 355.46 324.44 354.79 313.99 348.14 310.25"/><polygon class="cls-26" points="348.14 310.25 348.4 321.03 348.73 334.2 357.72 325.34 356.13 313.12 348.14 310.25"/><polygon class="cls-29" points="305.56 311.53 307.7 317.55 305.56 327.1 299.71 319.82 305.56 311.53"/><polygon class="cls-29" points="339.41 325.99 348.4 321.03 357.72 325.34 348.8 337.21 339.41 325.99"/><polygon class="cls-29" points="390.54 323.73 387.8 316.02 391.78 309.36 395.68 317.39 390.54 323.73"/><polygon class="cls-27" points="301.91 254.41 273.52 247.84 247.99 262.48 215.54 275.47 262.88 290.77 293.75 273.21 301.91 254.41"/><polygon class="cls-30" points="247.99 262.48 292.69 272.15 262.88 297.16 207.03 275.47 247.99 262.48"/><polygon class="cls-18" points="301.91 254.41 292.69 272.15 262.88 295.03 260.75 300.8 262.88 306.65 297.3 279.51 306.88 265.76 301.91 254.41"/><polygon class="cls-19" points="207.03 275.47 211.79 289.4 262.88 306.65 262.88 295.03 207.03 275.47"/><polygon class="cls-22" points="256.48 284.74 242.83 281.9 250.72 290.77 256.48 284.74"/><polygon class="cls-22" points="220.84 275.47 233.43 278 228.2 282.89 220.84 275.47"/><polygon class="cls-31" points="220.84 275.47 216.4 278.76 222.43 289.4 228.2 282.89 220.84 275.47"/><polygon class="cls-31" points="242.83 281.9 238.41 286.46 244.08 297.16 250.72 290.77 242.83 281.9"/><polygon class="cls-18" points="182.62 310.6 182.62 317.43 173.22 318.14 173.22 326.12 162.75 330.82 158.49 323.82 154.06 322.74 149.44 324.35 142.35 330.82 134.01 324.35 130.82 314.64 135.43 314.64 133.83 302.53 161.86 303.86 168.6 296.85 169.2 306.24 182.62 310.6"/><polygon class="cls-19" points="150.51 316.82 149.44 324.35 158.49 323.82 158.67 316.82 150.51 316.82"/><polygon class="cls-19" points="143.06 321.78 142.35 330.82 132.06 324.17 130.82 314.64 143.06 321.78"/><polygon class="cls-19" points="172.15 310.6 173.22 318.14 167.72 312.93 172.15 310.6"/><polygon class="cls-27" points="162.57 322.74 162.75 330.82 173.22 326.12 173.22 318.14 162.57 322.74"/><polygon class="cls-17" points="144.12 296.85 150.69 301.82 156.19 300.27 157.78 296.85 168.6 296.85 165.41 301.82 170.56 303.86 179.6 303.06 182.62 310.6 172.15 310.6 167.72 312.93 173.22 318.14 162.57 322.74 158.67 316.82 150.51 316.82 143.06 321.78 130.82 314.64 139.16 312.93 142.53 306.96 133.83 302.53 144.12 296.85"/><polygon class="cls-19" points="145.19 310.6 154.06 303.86 160.8 307.58 152.99 312.93 145.19 310.6"/><polygon class="cls-18" points="154.06 303.86 152.99 312.93 163.99 307.58 154.06 303.86"/><polygon class="cls-17" points="186.18 325.99 195.46 322.53 205.93 325.99 197.31 333 189.07 331.93 186.18 325.99"/><polygon class="cls-18" points="191.01 325.99 196.05 325.15 198.83 327.5 192.98 328.3 191.01 325.99"/><polygon class="cls-18" points="205.93 325.99 205.93 331.93 197.31 335.93 193.55 334.86 189.25 335.93 184.71 332.89 186.18 325.99 189.07 330.87 197.31 331.93 205.93 325.99"/><polygon class="cls-19" points="197.31 331.93 197.31 335.93 189.25 335.93 189.07 330.87 197.31 331.93"/><polygon class="cls-17" points="827.64 268.18 816.39 263.99 803.71 268.18 814.15 276.67 824.13 275.38 827.64 268.18"/><polygon class="cls-18" points="821.78 268.18 815.67 267.16 812.3 270.01 818.34 273.1 821.78 268.18"/><polygon class="cls-18" points="803.71 268.18 803.71 275.38 814.15 280.22 818.7 278.93 823.91 280.22 829.41 276.54 827.64 268.18 824.13 274.09 814.15 275.38 803.71 268.18"/><polygon class="cls-19" points="814.15 275.38 814.15 280.22 823.91 280.22 824.13 274.09 814.15 275.38"/><polygon class="cls-17" points="875.45 306.7 865.1 303.24 854.63 306.7 860.05 313.7 871.48 312.64 875.45 306.7"/><polygon class="cls-18" points="869.55 306.7 864.5 305.86 860.05 309 867.58 309 869.55 306.7"/><polygon class="cls-18" points="854.63 306.7 854.63 312.64 860.05 316.63 867 315.57 871.31 316.63 875.84 313.6 875.45 306.7 871.48 311.58 860.05 312.64 854.63 306.7"/><polygon class="cls-19" points="860.05 312.64 860.05 316.63 871.31 316.63 871.48 311.58 860.05 312.64"/><polygon class="cls-17" points="828.95 294.87 819.87 292.28 813.1 294.87 818.49 300.12 824.65 299.32 828.95 294.87"/><polygon class="cls-18" points="823.2 294.87 819.43 294.24 817.35 296 821.73 296.6 823.2 294.87"/><polygon class="cls-18" points="813.1 294.87 812.04 299.32 818.49 302.31 821.3 301.51 824.51 302.31 827.91 300.04 828.95 294.87 824.65 298.52 818.49 299.32 813.1 294.87"/><polygon class="cls-19" points="818.49 299.32 818.49 302.31 824.51 302.31 824.65 298.52 818.49 299.32"/><polygon class="cls-8" points="565.46 320.65 580.63 315.57 582.22 318.11 564.4 325.41 565.46 320.65"/><polygon class="cls-32" points="578.58 316.25 582.22 309.71 590.47 313.17 587.15 320.65 579.79 319.01 578.58 316.25"/><polygon class="cls-15" points="582.22 309.71 587.15 320.65 593.67 312.37 582.22 309.71"/><polygon class="cls-33" points="517.03 325.95 543.28 315.35 565.46 320.65 546.3 335.53 517.03 325.95"/><polygon class="cls-7" points="565.46 320.65 565.46 331.27 547.36 343.77 544.75 339.57 546.3 334.46 565.46 320.65"/><polygon class="cls-6" points="517.03 325.95 546.3 334.46 547.36 343.77 517.03 337.39 517.03 325.95"/><polygon class="cls-11" points="534.41 323.37 542.84 319.47 552.33 322.04 542.66 327.01 534.41 323.37"/><polygon class="cls-32" points="552.33 322.04 552.69 323.91 543.37 328.87 533.79 325.95 534.41 323.37 543.24 325.95 552.33 322.04"/></g><g id="shadows"><polygon class="cls-1" points="428.33 271.66 392.13 281.77 430.45 304.66 517.03 325.95 564.98 320.54 565.46 331.27 724.24 323.24 760.16 309.98 798.31 314.1 846.2 299.07 771.07 278.98 700.82 259.51 428.33 271.66"/><polygon class="cls-1" points="88.24 253.83 201.01 273.1 82.53 309 88.24 253.83"/></g><g id="car"><polygon class="cls-21" points="165.66 124.89 92.18 121.4 124.07 109.28 165.66 124.89"/><polygon class="cls-11" points="120.84 102.77 109.17 103.82 71.56 110.4 74.63 121.7 78 130.61 103.47 117.98 120.84 102.77"/><polygon class="cls-6" points="109.17 103.82 74.63 121.7 67.31 108.74 109.17 103.82"/><path class="cls-34" d="M109.33,288s-10.63,2.06-18.88-4.35C77.1,273.3,81,257.87,81,257.87l46.29-10.05-1.37,5.62S142.66,279.83,109.33,288Z"/><path class="cls-21" d="M126.94,253.72c-.28,11.9-.89,29.37-17.61,34.32,0,0,17.31-5.24,33.89-10.83,6-2.72,13.68-17,11.17-29.39Z"/><polygon class="cls-15" points="202.22 227.14 196.01 242.09 84.12 274.19 82.53 253.13 139.72 238.41 202.22 227.14"/><polygon class="cls-11" points="81.57 174.75 196.5 208.86 123.67 222.27 79.37 222.23 81.57 174.75"/><polygon class="cls-32" points="160.46 212.33 168.77 219.31 165.41 235.23 82.53 253.13 79.37 222.23 160.46 212.33"/><polygon class="cls-35" points="162.34 221.01 80.61 234.29 81.5 243.02 163.89 228.21 162.34 221.01"/><polygon class="cls-11" points="105.49 230.25 106.82 238.47 129.69 234.36 128.02 226.59 105.49 230.25"/><polygon class="cls-9" points="160.46 212.33 165.41 235.23 202.22 227.14 196.5 208.86 160.46 212.33"/><polygon class="cls-32" points="78 130.61 120.84 102.77 170.2 108.23 165.66 124.89 120.88 113.59 78 161.35 78 130.61"/></g><g id="walls"><polygon class="cls-2" points="343.67 242.02 313.72 240.44 299.71 90.24 308.27 85.11 333.05 80.86 347.07 169.47 343.67 242.02"/><polygon class="cls-6" points="333.05 80.86 299.71 90.24 76.89 55.28 78.31 27.64 333.05 80.86"/><polygon class="cls-12" points="316.74 122.34 209.67 99.7 81.81 96.28 81.3 45.58 313.72 86.3 316.74 122.34"/><polygon class="cls-36" points="315.51 107.69 217.57 89.28 82.41 72.38 82.41 76.8 217.04 92.93 315.99 113.35 315.51 107.69"/><polygon class="cls-36" points="314.58 96.5 199.2 74.47 80.28 56.68 82.41 62.66 200.27 77.65 314.58 100.96 314.58 96.5"/><polygon class="cls-2" points="899.29 11.98 881.89 244.13 369.65 230.68 369.65 57.98 899.29 11.98"/><polygon class="cls-2" points="44.95 4.67 15.86 8.75 0 327.76 40.7 339.38 51.34 162.5 44.95 4.67"/><polygon class="cls-8" points="369.65 57.98 44.95 4.67 40.7 339.38 96.05 316.18 80.43 29.77 333.05 80.86 343.67 242.02 369.65 230.68 369.65 57.98"/><polygon class="cls-12" points="342.69 141.76 356.65 141.13 356.65 167.31 344.41 171.07 342.69 141.76"/><polygon class="cls-36" points="347.07 146.06 353.28 144.73 353.28 154.22 347.07 155.28 347.07 146.06"/><polygon class="cls-1" points="390.94 231.08 387.8 56.4 369.65 57.98 369.65 230.68 390.94 231.08"/></g><g id="thought_bubble"><polygon class="cls-14" points="470.16 8.75 571.85 15.13 592.65 86.54 476.99 108.86 461.61 49.96 470.16 8.75"/><polygon class="cls-14" points="434.23 34.52 447.83 23.12 459.73 34.52 445.37 45.58 434.23 34.52"/><polygon class="cls-12" points="495.29 29.77 507.96 38.82 495.29 50.9 485.13 40.33 495.29 29.77"/><polygon class="cls-12" points="531.31 38.55 543.11 29.77 553.13 41.4 540.09 50.9 531.31 38.55"/><polygon class="cls-12" points="509.26 70.16 520.66 62.69 531.31 72.08 519.07 82.72 509.26 70.16"/><polygon class="cls-12" points="549.23 61.44 557.39 55.28 563.42 63.3 553.71 69.15 549.23 61.44"/><polyline class="cls-37" points="496.55 40.33 520.24 57.44 541.87 41.2 556.32 62.22"/><line class="cls-38" x1="520.24" y1="57.44" x2="520.24" y2="73.68"/></g><g id="intp_bed" data-name="intp+bed"><polygon class="cls-39" points="404.91 280.97 401.14 272.99 414.22 276.98 404.91 280.97"/><polygon class="cls-40" points="426.6 262.88 404.91 280.97 432.85 283.1 435.27 266.6 426.6 262.88"/><polygon class="cls-41" points="424.88 264.31 432.85 283.1 437.59 269.8 429.75 262.88 424.88 264.31"/><polygon class="cls-39" points="423.44 299.07 416.44 291.09 431.36 295.08 423.44 299.07"/><polygon class="cls-40" points="439.9 280.97 423.44 299.07 457.6 299.07 455.31 285.5 439.9 280.97"/><polygon class="cls-41" points="437.93 283.64 457.6 299.07 455.31 285.5 439.9 280.97 437.93 283.64"/><polygon class="cls-7" points="492.71 309.98 514.05 295.08 512.68 285.5 495.19 286.05 488.79 297.74 492.71 309.98"/><polygon class="cls-7" points="682.72 312.96 665.5 294.14 665.5 280.97 683.79 285.5 686.45 299.07 682.72 312.96"/><polygon class="cls-33" points="455.31 285.5 457.58 308.61 492.71 309.98 495.19 286.05 455.31 285.5"/><polygon class="cls-33" points="683.79 285.5 682.72 312.96 721.04 313.17 724.24 284.21 683.79 285.5"/><polygon class="cls-35" points="464.21 151.56 447.02 173.92 445.53 183.39 449.08 193.29 465.34 179.85 469.77 161.72 464.21 151.56"/><polygon class="cls-42" points="449.08 193.29 409.34 173.24 411.49 165.04 419.28 159.5 447.02 173.92 449.08 193.29"/><polygon class="cls-14" points="492.71 210.19 520.13 167.31 683.74 175.51 712 218.57 492.71 210.19"/><polygon class="cls-13" points="512.22 178.94 592.65 175.94 683.74 175.51 672.08 143.4 668.36 104.58 602.35 115.04 522 109.36 512.22 178.94"/><polygon class="cls-12" points="512.22 178.94 585.33 162.5 683.74 175.51 658.07 183.39 573.31 187.3 512.68 186.64 512.22 178.94"/><polygon class="cls-41" points="419.28 159.5 414.49 146.97 412.57 143.4 405.82 154.96 419.28 159.5"/><polygon class="cls-36" points="442.77 211.52 424.25 213.83 431.34 230.15 441.1 240.44 449.21 232 447.66 221.81 442.77 211.52"/><polygon class="cls-43" points="424.25 213.83 416.44 257.47 438.97 275.74 441.1 240.44 424.25 213.83"/><polygon class="cls-12" points="444.99 218.57 430.51 223.72 449.21 253.83 455.31 251.44 455.31 230.15 444.99 218.57"/><polygon class="cls-36" points="430.51 223.72 432.85 283.1 455.31 285.5 457.6 275.74 455.31 251.44 430.51 223.72"/><polygon class="cls-39" points="419.28 159.5 406.88 150.7 404.75 169.47 409.34 173.24 419.28 159.5"/><polygon class="cls-32" points="466.51 208.86 442.77 211.52 455.31 251.44 480.75 228.02 476.8 216.84 466.51 208.86"/><polygon class="cls-40" points="411.65 147.56 414.49 146.97 453 143.67 467.4 149.43 467.8 143.57 476.75 138.98 472.18 130.32 473.44 124.23 471.44 115.29 476.06 114.07 478.66 99.52 469.97 97.02 462.94 109.38 456.47 107.47 461.56 69.89 447.92 63.83 413.4 74.8 401.14 72.22 405.19 116.89 411.65 147.56"/><polygon class="cls-39" points="406.12 94.15 420.77 100.57 429.75 118.09 433.33 96.5 442.77 86.34 428.73 90.41 419.28 90.24 413.77 88.61 406.12 94.15"/><polygon class="cls-35" points="415.52 83.27 406.12 94.15 419.28 90.24 415.52 83.27"/><polygon class="cls-35" points="428.73 90.41 442.77 86.34 433.33 96.5 428.73 90.41"/><polygon class="cls-44" points="419.28 90.24 423.44 119.08 429.75 118.09 428.73 90.41 419.28 90.24"/><path class="cls-45" d="M415.42,101c-1.27,0-2.34,1.56-2.39,3.56s.94,3.64,2.22,3.67,2.35-1.56,2.4-3.56S416.7,101,415.42,101Z"/><path class="cls-45" d="M435.42,97.67c-1.28,0-2.38,1.53-2.45,3.52s.89,3.65,2.16,3.7,2.37-1.52,2.45-3.52S436.69,97.72,435.42,97.67Z"/><polygon class="cls-41" points="423.44 119.08 427.07 122.88 429.75 118.09 423.44 119.08"/><polygon class="cls-41" points="422.67 129.62 439.9 128.26 440.05 130.86 423.44 132.22 422.67 129.62"/><polygon class="cls-41" points="473.2 101.63 467.4 109.28 473.7 107.29 473.2 101.63"/><polygon class="cls-41" points="472.41 115.04 466.1 116.56 473.44 124.23 472.41 115.04"/><polygon class="cls-39" points="447.92 63.83 442.77 86.34 452.05 139.18 458.84 140.2 464.21 151.56 477.56 141.8 485.41 130.24 472.41 115.04 466.1 116.56 462.94 109.38 456.47 107.47 461.56 69.89 447.92 63.83"/><polygon class="cls-46" points="391.73 69.77 401.14 72.22 413.49 76.24 411.97 60.87 405.27 47.7 391.73 69.77"/><polygon class="cls-4" points="405.27 47.7 461.61 49.96 455.53 59.3 447.32 65.03 413.49 76.24 405.27 47.7"/><polygon class="cls-7" points="447.32 65.03 460.2 70.42 466.96 67.7 471.46 62.66 461.61 49.96 447.32 65.03"/><polygon class="cls-46" points="460.2 70.42 455.31 108.6 463.23 110.42 470.13 97.9 478.02 100 476.99 108.86 493.06 91.92 471.46 62.66 460.2 70.42"/><polygon class="cls-41" points="466.1 116.56 478.66 122.34 472.41 115.04 466.1 116.56"/><polygon class="cls-41" points="414.49 146.97 452.05 139.18 461.86 137.36 464.21 151.56 451.74 145.07 414.49 146.97"/><polygon class="cls-15" points="485.41 130.24 467.4 152.98 464.9 168.67 466.51 208.86 480.75 228.02 512.68 221.1 508.16 155.37 485.41 130.24"/><polygon class="cls-32" points="471.32 178.56 495.19 174.26 494.12 180.12 471.32 183.39 471.32 178.56"/><polygon class="cls-44" points="404.75 169.47 398.54 151.03 409.35 136.62 414.49 146.97 404.75 169.47"/><polygon class="cls-13" points="696.03 173.62 466.51 208.86 464.21 225.98 455.31 251.44 534.22 266.07 730.09 244.78 731.16 230.15 737.54 213.91 731.87 206.64 724.31 201.07 696.03 173.62"/><polygon class="cls-13" points="466.51 208.86 480.75 228.02 455.31 251.44 466.51 208.86"/><polygon class="cls-12" points="480.75 228.02 455.31 251.44 476.02 221.66 706.14 204.07 737.54 213.91 735.59 230.15 730.09 244.78 707.21 221.44 548.09 230.15 480.75 228.02"/><polygon class="cls-12" points="455.31 251.44 455.31 285.5 514.05 295.08 525.19 290.02 534.95 290.02 585.33 299.07 592.6 295.08 599.98 295.5 641.03 285.5 645.82 283.1 650.61 286.05 739.67 291.09 730.09 244.78 534.22 262.88 455.31 251.44"/><polygon class="cls-36" points="514.05 295.08 534.22 262.88 534.95 290.02 514.05 295.08"/><polygon class="cls-36" points="585.33 299.07 593.85 269.35 599.98 295.5 585.33 299.07"/><polygon class="cls-36" points="641.03 285.5 644.62 252.68 650.61 286.05 641.03 285.5"/><polygon class="cls-47" points="507.09 234.54 503.24 228.82 495.19 223.72 502.11 213.83 504.15 203.08 517.21 204.07 518.3 225.98 507.09 234.54"/><polygon class="cls-35" points="502.11 174.69 504.7 210.72 514.05 211.52 524.92 209.66 518.3 166.39 507.8 170.01 502.11 174.69"/><polygon class="cls-32" points="474.18 150.31 502.11 174.69 510.01 171.45 518.3 166.39 489.39 133.75 474.18 150.31"/><polygon class="cls-39" points="504.7 210.72 492.71 220.38 495.19 223.72 504.7 219.85 506.38 215.47 504.7 210.72"/><polygon class="cls-11" points="489.39 133.75 464.9 168.67 464.21 151.56 485.41 130.24 489.39 133.75"/><polygon class="cls-40" points="504.7 210.72 504.7 219.85 514.05 221.28 526.39 217.81 524.92 209.66 504.7 210.72"/><polygon class="cls-39" points="504.7 219.85 507.09 234.54 524.5 229.4 526.39 217.81 504.7 219.85"/><polygon class="cls-36" points="707.21 221.44 733.19 231.94 730.09 244.78 707.21 221.44"/></g><g id="robot"><polygon class="cls-11" points="723.17 113.83 694.51 106.63 682.19 105.45 666.93 99.7 640.76 120.48 634.29 129.38 625.42 132.66 599.42 129 579.83 128.14 578.76 140.03 598.07 145.97 631.81 151.8 641.74 140.03 651 134.7 669.65 118.09 680.72 117.67 690.14 124.23 716.79 132.22 723.17 113.83"/><polygon class="cls-32" points="690.15 124.23 694.51 106.63 666.93 99.7 669.65 118.09 690.15 124.23"/><polygon class="cls-32" points="651 134.7 640.76 120.48 625.42 132.66 631.81 151.8 651 134.7"/><polygon class="cls-32" points="598.07 145.97 599.42 129 575.75 125.66 570.78 134.88 573.98 141.8 598.07 145.97"/><polygon class="cls-32" points="723.17 113.83 708.45 142.33 727.03 154.22 723.17 113.83"/><polygon class="cls-11" points="831.21 128.26 845.01 141.76 849.37 148.13 863.14 159.5 850.09 179.13 831.92 204.34 822.7 187.89 832.27 171.07 838.31 161.85 835.06 156.59 829.26 153.04 816.57 140.7 831.21 128.26"/><polygon class="cls-32" points="809.92 107.23 831.21 128.26 808.86 150.49 809.92 107.23"/><polygon class="cls-32" points="725.97 66.89 720.78 64.1 718.91 69.68 721.71 74.21 726.37 70.48 727.03 69.02 725.97 66.89"/><polygon class="cls-15" points="720.78 64.1 721.71 74.21 716.79 69.68 720.78 64.1"/><polygon class="cls-36" points="734.08 66.22 725.97 66.89 726.37 70.48 734.08 69.82 734.08 66.22"/><polygon class="cls-12" points="742.33 60.24 731.42 61.57 732.35 74.87 743 74.61 742.33 60.24"/><polygon class="cls-32" points="804.55 62.9 809.54 59.76 811.77 65.21 809.29 69.92 804.39 66.51 803.63 65.1 804.55 62.9"/><polygon class="cls-15" points="809.54 59.76 809.29 69.92 813.9 65.07 809.54 59.76"/><polygon class="cls-36" points="796.4 62.79 804.55 62.9 804.39 66.51 796.65 66.37 796.4 62.79"/><polygon class="cls-12" points="787.77 57.37 798.75 57.96 798.72 71.3 788.08 71.75 787.77 57.37"/><polygon class="cls-32" points="739.67 45.58 765.04 22.76 765.04 49 753.74 49 739.67 45.58"/><polygon class="cls-35" points="765.04 22.76 788.63 39.79 775.54 45.93 762.82 47.7 765.04 22.76"/><polygon class="cls-14" points="723.17 113.83 743.53 97.67 788.63 94.79 809.92 107.23 766.28 115.45 723.17 113.83"/><polygon class="cls-8" points="739.67 45.58 743.53 97.67 765.04 104.31 766.28 72.05 762.82 47.7 739.67 45.58"/><polygon class="cls-4" points="765.04 104.31 788.63 94.79 788.63 39.79 762.82 47.7 765.04 104.31"/><polygon class="cls-33" points="761.49 282.48 773.62 301.2 800.88 293.48 771.07 278.98 766.55 277.25 761.49 282.48"/><polygon class="cls-48" points="761.76 302 772.4 309.98 775.6 304.52 773.62 299.07 761.49 282.48 759.36 293.48 761.76 302"/><polygon class="cls-7" points="773.62 299.07 800.88 293.48 800.88 302 772.4 309.98 773.62 299.07"/><polygon class="cls-33" points="751.74 279.47 731.69 299.07 747.6 303.59 761.76 302 761.49 282.48 756.32 278.98 751.74 279.47"/><polygon class="cls-7" points="731.69 299.07 731.69 306.52 760.16 309.98 761.76 302 731.69 299.07"/><polygon class="cls-11" points="765.04 230.68 765.04 252.68 761.49 282.48 751.74 279.47 749.6 266.97 750.85 262.57 747.6 255.25 746.07 246.33 745.79 238.77 765.04 230.68"/><polygon class="cls-15" points="765.04 230.68 761.49 282.48 771.07 278.98 773.95 267.01 773.62 262.57 776.58 256.03 779.43 244.19 780.92 230.68 765.04 230.68"/><polygon class="cls-32" points="744.46 236.89 765.04 230.68 766.55 238.77 763.93 246.87 746.07 246.33 744.46 236.89"/><polygon class="cls-32" points="747.6 255.25 763.22 257.3 765.04 262.88 762.36 269.89 749.6 266.97 747.6 255.25"/><polygon class="cls-35" points="765.04 230.68 783.31 228.02 779.43 244.19 763.93 246.87 765.04 230.68"/><polygon class="cls-35" points="763.22 257.3 776.58 256.03 773.95 267.01 762.36 269.89 763.22 257.3"/><polygon class="cls-47" points="746.07 246.33 776.58 256.03 783.31 228.02 744.46 234.54 746.07 246.33"/><polygon class="cls-4" points="795.55 209.66 794.49 230.15 730.09 244.78 737.54 213.91 795.55 209.66"/><polygon class="cls-47" points="737.54 213.91 794.49 230.15 795.55 209.66 737.54 213.91"/><polygon class="cls-5" points="723.17 113.83 809.92 107.23 809.92 214.71 737.54 213.91 724.24 201 723.17 113.83"/><polygon class="cls-13" points="737.19 128.26 794.31 124.23 795.38 188.96 738.25 190.23 737.19 128.26"/><circle class="cls-22" cx="754.22" cy="62.77" r="3.99"/><circle class="cls-31" cx="754.22" cy="62.77" r="1.86"/><circle class="cls-22" cx="775.32" cy="62.22" r="8.77"/><circle class="cls-31" cx="775.32" cy="62.22" r="4.24"/><polygon class="cls-35" points="748.59 82.72 764.33 86.19 781.32 80.86 781.32 86.18 764.54 91.5 748.59 87.65 748.59 82.72"/><polygon class="cls-9" points="742.33 133.99 752.62 133.46 752.8 137.54 742.33 138.07 742.33 133.99"/><polygon class="cls-9" points="742.33 140.56 752.62 140.03 752.8 144.11 742.33 144.64 742.33 140.56"/><polygon class="cls-9" points="742.33 147.65 752.62 147.12 752.8 151.2 742.33 151.73 742.33 147.65"/><polygon class="cls-9" points="742.33 154.75 752.62 154.22 752.8 158.3 742.33 158.83 742.33 154.75"/><polygon class="cls-9" points="768.06 131.87 788.99 130.45 788.99 133.64 767.88 134.88 768.06 131.87"/><polygon class="cls-35" points="831.92 206.46 804.55 199.1 820.57 188.96 829.26 197.71 831.92 206.46"/><polygon class="cls-32" points="829.26 153.05 845.01 141.76 863.14 159.5 838.31 161.85 829.26 153.05"/><polygon class="cls-32" points="832.27 171.07 850.09 179.13 831.92 206.46 820.57 188.96 832.27 171.07"/><polygon class="cls-36" points="785.04 151.8 773.07 150.67 773.07 165.48 783.31 166.99 786.51 163.09 776.58 162.5 776.58 155.24 785.04 155.24 785.04 151.8"/><polygon class="cls-7" points="724.04 184.91 786.64 165.48 842.71 190.23 784.38 207.79 724.04 184.91"/><polygon class="cls-43" points="781.32 141.8 800.48 134.7 817.71 141.8 798.75 148.9 781.32 141.8"/><polygon class="cls-47" points="743.63 178.82 741.27 184.91 759.63 191.3 773.62 190.23 804.55 199.1 824.88 182.36 798.31 170.63 774.93 172.18 743.63 178.82"/><polygon class="cls-32" points="789.6 145.17 799.78 141.8 808.86 145.17 798.75 148.9 789.6 145.17"/><polygon class="cls-36" points="817.71 141.8 811.77 160.97 814.85 168.94 820.04 174.26 813.9 186.64 798.75 192.94 782.38 185.57 777.65 174.69 786.64 161.85 781.32 141.8 798.75 147.83 817.71 141.8"/><polygon class="cls-12" points="798.75 147.83 800.88 165.48 798.31 183.39 798.75 192.94 781.32 186.64 776.58 174.69 786.64 161.85 781.32 141.8 798.75 147.83"/><polygon class="cls-12" points="811.77 160.97 800.88 165.48 798.84 174.31 798.31 183.39 820.04 174.26 811.77 160.97"/><polygon class="cls-13" points="800.88 165.48 786.64 161.85 776.58 174.69 798.31 183.39 800.88 165.48"/><polygon class="cls-35" points="741.27 173.24 758.57 167.37 774.93 172.18 758.03 179.99 741.27 173.24"/><polygon class="cls-14" points="748.38 176.1 753.51 172.62 756.44 174.36 759.1 171.51 761.67 173.38 766.9 172.62 769.76 174.56 758.03 179.99 748.38 176.1"/><polygon class="cls-2" points="753.97 178.35 756.44 174.36 759.72 175.75 761.67 173.38 765.29 176.63 758.03 179.99 753.97 178.35"/><polygon class="cls-11" points="741.27 173.24 744.86 181.72 758.1 187.3 759.63 182.65 758.03 178.92 741.27 173.24"/><polygon class="cls-32" points="774.93 172.18 771.87 181.18 758.1 187.3 758.03 178.92 774.93 172.18"/><polygon class="cls-35" points="575.75 125.66 559.61 122.34 557.96 138.52 564.75 144.46 573.98 141.8 575.75 125.66"/><polygon class="cls-32" points="575.75 125.66 569.72 115.04 559.61 122.34 565.11 131.33 575.75 125.66"/><polygon class="cls-15" points="552.51 122.34 566.52 122.34 565.11 131.33 552.51 131.33 552.51 122.34"/><polygon class="cls-15" points="552.51 137.36 565.46 136.14 564.75 144.46 552.51 144.64 552.51 137.36"/><polygon class="cls-36" points="559.61 122.34 547.36 123 547.36 116.25 559.61 116.25 559.61 122.34"/><polygon class="cls-36" points="546.12 131.01 559.25 131.33 558.98 136.75 546.12 138.25 546.12 131.01"/><polygon class="cls-43" points="512.68 110.42 532.64 103.13 549.85 111.32 529.8 118.69 512.68 110.42"/><polygon class="cls-32" points="518.3 113.14 532.11 109.69 543.02 113.83 529.8 118.69 518.3 113.14"/><polygon class="cls-36" points="549.85 111.32 547.54 144.64 529.45 150.7 527.5 131.33 529.8 117.63 549.85 111.32"/><polygon class="cls-12" points="512.68 110.42 529.8 117.63 529.45 150.7 508.33 141.76 512.68 110.42"/><polygon class="cls-9" points="812.76 56.82 822.7 65.34 813.83 75.27 815.6 78.47 826.25 64.81 815.78 52.74 812.76 56.82"/><polygon class="cls-9" points="818.79 48.84 832.81 63.21 821.81 78.64 823.94 80.95 838.13 62.15 821.99 44.4 818.79 48.84"/><polygon class="cls-9" points="718.86 60.65 709.75 70.04 719.49 79.12 718.01 82.47 706.16 69.84 715.48 56.87 718.86 60.65"/><polygon class="cls-9" points="712.12 53.26 699.48 68.85 711.85 83.21 709.94 85.7 694.08 68.28 708.53 49.13 712.12 53.26"/></g><g id="book"><polygon class="cls-47" points="548.09 238.47 538.67 244.1 607.86 256.08 644.62 252.68 660.19 223.72 660.19 207.79 596.42 212.13 548.09 238.47"/><polygon class="cls-32" points="544.75 230.15 580.54 176.13 653.51 171.51 630.3 223.76 544.75 230.15"/><polygon class="cls-9" points="630.3 221.63 633.99 237.73 632.16 253.83 546.12 244.13 544.75 230.15 630.3 221.63"/><polygon class="cls-2" points="653.51 171.51 660.19 207.79 632.16 253.83 630.3 221.63 653.51 171.51"/><polygon class="cls-8" points="643.61 215.47 630.88 231.74 614.34 234.54 631.14 236.2 643.61 215.47"/><polygon class="cls-8" points="655.72 183.5 638.21 214.71 656.42 187.3 655.72 183.5"/><ellipse class="cls-49" cx="598.43" cy="209.64" rx="9.53" ry="5.1" transform="translate(-27.42 107.76) rotate(-10.06)"/><ellipse class="cls-50" cx="592.76" cy="195.19" rx="4.88" ry="2.61" transform="translate(-24.98 106.55) rotate(-10.06)"/><ellipse class="cls-50" cx="572.85" cy="212.13" rx="4.88" ry="2.61" transform="translate(-28.25 103.33) rotate(-10.06)"/><ellipse class="cls-50" cx="621.39" cy="197.19" rx="4.88" ry="2.61" transform="translate(-24.89 111.58) rotate(-10.06)"/><line class="cls-51" x1="593.21" y1="197.76" x2="595.38" y2="204.62"/><line class="cls-51" x1="589.05" y1="211.3" x2="577.65" y2="211.28"/><line class="cls-51" x1="607.04" y1="206.46" x2="617.99" y2="199.9"/><line class="cls-52" x1="603.42" y1="183.05" x2="632.16" y2="180.12"/><line class="cls-52" x1="601.83" y1="186.51" x2="620.19" y2="185.18"/></g></svg>