<svg id="ILLUSTRATION" xmlns="http://www.w3.org/2000/svg" viewBox="0 0 900 350"><defs><style>.cls-1,.cls-21,.cls-31{fill:#2b2b2b;}.cls-1,.cls-10,.cls-11,.cls-12,.cls-13,.cls-14,.cls-15,.cls-16,.cls-17,.cls-18,.cls-19,.cls-2,.cls-20,.cls-21,.cls-22,.cls-23,.cls-24,.cls-25,.cls-26,.cls-27,.cls-28,.cls-29,.cls-3,.cls-30,.cls-4,.cls-5,.cls-6,.cls-7,.cls-8,.cls-9{fill-rule:evenodd;}.cls-1{opacity:0.1;}.cls-2{fill:#c3c3c3;}.cls-3{fill:#5ebfd8;}.cls-4{fill:#dcdcdb;}.cls-5{fill:#74cee4;}.cls-6{fill:#cecdcc;}.cls-7{fill:#ebebea;}.cls-8{fill:#c2977a;}.cls-9{fill:#318ea5;}.cls-10{fill:#28788b;}.cls-11{fill:#8a6651;}.cls-12{fill:#3a9fb9;}.cls-13{fill:#50a8a9;}.cls-14{fill:#72cbcb;}.cls-15{fill:#369395;}.cls-16{fill:#fff;}.cls-17{fill:#4f5353;}.cls-18{fill:#92d5d5;}.cls-19{fill:#debca4;}.cls-20{fill:#e8c9b6;}.cls-22{fill:#6f7273;}.cls-23{fill:#1d7678;}.cls-24{fill:#a2a1a1;}.cls-25{fill:#66493b;}.cls-26{fill:#906a59;}.cls-27{fill:#474748;}.cls-28{fill:#b08c79;}.cls-29{fill:#b89d8d;}.cls-30{fill:#848585;}</style></defs><title>sentinels_Defender_ISFJ_introduction</title><polygon class="cls-1" points="294.5 287.5 202.5 316.17 441.25 350.13 552.5 324.17 684.5 334.83 698.5 330.17 800.5 341.5 855.17 317.5 518.5 277.5 294.5 287.5"/><polygon class="cls-2" points="178.5 110.5 352.5 29.5 900.5 0.5 887.5 308.5 337.5 249.5 178.5 110.5"/><polygon class="cls-3" points="178.5 110.5 352.5 29.5 900.5 0.5 896.57 39.6 352 59.5 178.5 110.5"/><polygon class="cls-4" points="352.5 29.5 0.5 1.5 23.5 315.5 347.5 248.5 352.5 29.5"/><polygon class="cls-5" points="352.5 29.5 0.5 1.5 3 40.5 351.83 57.17 352.5 29.5"/><g id="calendar"><polygon class="cls-1" points="260.93 111 202.33 102.01 193.04 169.6 260.53 163.13 260.93 111"/><polygon class="cls-2" points="213.85 149.29 208.7 155.81 204.55 155.18 201.72 154.75 202.33 102.01 207.84 101.1 213.85 149.29"/><polygon class="cls-6" points="223.7 134.29 226.28 153.84 208.7 155.81 207.84 101.1 223.7 134.29"/><polygon class="cls-7" points="207.84 101.1 265.38 101.65 270.53 150.5 215.47 157.68 207.84 101.1"/><polygon class="cls-6" points="220.85 116.86 231.97 113.53 236.88 122.57 233.08 136.22 240.06 135.43 240.22 142.25 225.14 143.68 224.5 135.11 229.9 125.27 228.63 121.62 221.33 122.73 220.85 116.86"/><polygon class="cls-6" points="257.55 114.13 244.66 114.28 241.18 123.53 252.7 127.77 253.76 134.74 243.91 135.2 244.46 141.76 259.21 140.2 260.43 128.23 251.03 122.01 251.03 118.83 259.97 119.28 257.55 114.13"/></g><polygon class="cls-8" points="413.33 188.67 392.17 180.33 377.75 184 372.75 202.25 392.5 196.67 411.5 201.83 413.33 188.67"/><polygon class="cls-9" points="569.75 292 558.83 310 544.5 308.17 525.5 272.5 566.25 274 569.75 292"/><polygon class="cls-10" points="279 283.5 279.83 323.17 299 318.83 314.5 280.5 279 283.5"/><polygon class="cls-8" points="362.13 268.45 373.14 286.6 379.17 287.77 381.97 285.12 380.61 270.39 362.13 268.45"/><polygon class="cls-8" points="351.35 267.38 349.44 287.78 341.82 290.3 340.12 286.87 333.28 265.52 351.35 267.38"/><polygon class="cls-10" points="381.97 285.12 390.32 292.81 382.29 301.73 372.52 300.38 373.14 286.6 381.97 285.12"/><polygon class="cls-10" points="349.44 287.78 355.15 302.9 345.11 304.4 335.16 302.9 340.12 286.87 349.44 287.78"/><polygon class="cls-11" points="380.61 270.39 365.69 274.32 362.13 268.45 371.37 267.57 380.61 270.39"/><polygon class="cls-11" points="333.28 265.52 350.86 272.62 351.35 267.38 342.7 265.52 333.28 265.52"/><polygon class="cls-12" points="348.91 297.06 341.5 297.06 335.16 302.9 335.16 305.28 355.15 305.28 355.15 302.9 348.91 297.06"/><polygon class="cls-12" points="390.32 292.81 379.56 300.38 372.52 300.38 372.52 302.67 401.09 302.67 401.09 297.49 390.32 292.81"/><polygon class="cls-13" points="328.91 150.76 307.01 197.21 331.71 186.44 337.34 181.04 328.91 150.76"/><polygon class="cls-13" points="367.59 144.82 374.98 148.15 392.17 180.33 372 187.25 367.59 167.09 367.59 144.82"/><polygon class="cls-14" points="367.59 144.82 359.31 165.97 347.66 170.95 359.56 162.02 344.06 143.08 328.91 150.76 334.05 179.47 327.52 199.02 318.3 219 341.5 219 367.59 214.34 374.57 204.81 369 199.67 381.61 176.08 367.59 144.82"/><polygon class="cls-15" points="334.05 179.47 327.52 199.02 374.57 204.81 381.61 176.08 334.05 179.47"/><polygon class="cls-15" points="367.59 214.34 354.08 238.72 331.44 259.98 318.3 219 367.59 214.34"/><polygon class="cls-13" points="367.59 214.34 373.41 224.12 379.8 255.08 379.8 270.7 334.28 268.65 331.44 259.98 367.59 214.34"/><polygon class="cls-15" points="334.28 268.65 379.8 255.08 381.61 273.52 334.28 268.65"/><polygon class="cls-15" points="367.59 214.34 379.8 255.08 374.57 204.81 367.59 214.34"/><polygon class="cls-16" points="367.59 144.82 341.5 144.21 341.5 174.38 359.31 165.97 379.04 170.34 367.59 144.82"/><polygon class="cls-17" points="411.34 82.05 424.49 95.61 408.37 109.24 408.2 95.25 411.34 82.05"/><polygon class="cls-14" points="341.09 65.37 336.07 59.22 331.78 44.39 389.24 33.58 390.51 48.47 388.66 59.38 362.71 66.28 341.09 65.37"/><polygon class="cls-18" points="389.24 33.58 421.71 57.15 411.34 82.05 397.48 71.88 388.66 59.38 389.24 33.58"/><polygon class="cls-15" points="331.78 44.39 327.6 76.12 336.23 71.66 341.09 65.37 331.78 44.39"/><polygon class="cls-10" points="389.13 38.81 386.85 39.17 386.56 45.38 381.1 46.19 380.92 50.31 386.56 49.58 386.44 55.29 388.76 55.08 390.51 48.47 389.13 38.81"/><polygon class="cls-9" points="389.13 38.81 391.29 40.6 391.27 45.95 395.76 49.59 394.85 53.11 391.14 50.27 390.91 56.38 388.76 55.08 389.13 38.81"/><polygon class="cls-19" points="411.34 82.05 404.4 145.56 372.76 143.22 352.68 149.48 338.1 129.88 324.9 109.36 338.16 105.69 340.37 109.8 358.17 84.65 369.66 80.99 383.4 78.42 411.34 82.05"/><polygon class="cls-8" points="358.17 84.65 352.48 142.2 372.76 143.22 365.27 147.58 365.92 154.08 359.31 165.97 341.5 144.21 333.1 126.05 332.08 120.75 329.35 118.3 322.67 104.51 336.75 97.37 339.25 110.83 345.97 100.3 358.17 84.65"/><polygon class="cls-8" points="402.41 96.94 387.48 109.78 380.33 115.72 368.26 94.42 402.41 96.94"/><polygon class="cls-20" points="382.14 95.4 380.33 115.72 386.92 116.36 388.65 95.86 382.14 95.4"/><polygon class="cls-11" points="386.92 116.36 383.14 119.95 380.33 115.72 386.92 116.36"/><polygon class="cls-11" points="372.76 143.22 365.92 154.08 346.66 140.88 372.76 143.22"/><polygon class="cls-11" points="338 115.36 333.11 126.05 329.35 118.3 338 115.36"/><polygon class="cls-11" points="335.99 112.89 333.56 104.75 327.25 106.69 335.99 112.89"/><polygon class="cls-17" points="380.47 83.56 387.02 72.05 388.66 59.38 341.09 65.37 314.1 86.71 336.24 86.82 358.17 84.65 367.85 84.18 380.47 83.56"/><polygon class="cls-21" points="358.17 84.65 339.62 112.4 335.92 100.85 322.67 104.51 314.1 86.71 358.17 84.65"/><polygon class="cls-22" points="388.66 59.38 411.34 82.05 380.47 83.56 388.66 59.38"/><polygon class="cls-17" points="382.14 95.4 382.52 90.89 368.26 94.42 382.14 95.4"/><polygon class="cls-17" points="388.65 95.86 402.41 96.94 389.16 91.54 388.65 95.86"/><polygon class="cls-23" points="375.37 126.85 382.84 124.34 389.52 127.91 382.25 130.2 375.37 126.85"/><polygon class="cls-13" points="370.06 124.85 382.17 133.78 394.56 126.79 382.42 129.49 370.06 124.85"/><path class="cls-21" d="M377.62,104.65a3.08,3.08,0,1,1-2.29-3.72A3.09,3.09,0,0,1,377.62,104.65Z"/><path class="cls-21" d="M397.06,106.09a3.09,3.09,0,1,1-2.3-3.72A3.1,3.1,0,0,1,397.06,106.09Z"/><polygon class="cls-12" points="417.17 303.5 440.5 342 460.83 336.33 470.83 308.83 558.33 287.33 558.83 310 581.21 304.7 589.83 236.83 417.17 259.5 417.17 303.5"/><polygon class="cls-9" points="248.5 250.83 256 318.83 279.83 323.17 285.5 301.17 413.5 315.5 416.67 338.33 440.5 342 444.5 265.5 248.5 250.83"/><polygon class="cls-6" points="419.5 224 455.25 281.75 605 246 610 219.5 419.5 224"/><polygon class="cls-24" points="315 230.5 226.83 230 237.5 261.5 455.25 281.75 456 254 315 230.5"/><polygon class="cls-7" points="428.25 204.25 226.83 230 456 254 610 219.5 428.25 204.25"/><polygon class="cls-1" points="377.83 210.5 319 218.33 379.17 227.83 436.74 234.33 432.5 223.17 377.83 210.5"/><polygon class="cls-12" points="422.13 208.17 398.72 225.5 425.46 229.83 451.11 224 451.64 218.21 435.67 219 422.13 208.17"/><polygon class="cls-3" points="469.16 222.5 451.64 218.21 425.46 229.83 436.74 234.33 469.16 222.5"/><polygon class="cls-12" points="425.99 215.58 435.67 219 462.25 200.75 439.71 186.5 415.13 183.96 396.25 198.71 425.99 215.58"/><polygon class="cls-7" points="375.85 204.51 352.31 194.45 394.67 189.17 433.06 196.99 413.68 208.61 375.85 204.51"/><polygon class="cls-4" points="387.99 209.49 401.94 201.09 433.06 196.99 435.67 219 398.72 225.5 387.99 209.49"/><polygon class="cls-6" points="352.31 194.45 357.42 208.9 353.92 221.79 400.7 210.21 401.94 201.09 352.31 194.45"/><polygon class="cls-12" points="352.31 194.45 353.33 221.67 398.72 225.5 400.7 210.21 383.78 207.33 352.31 194.45"/><polygon class="cls-8" points="355.5 209.25 360.5 203.25 368.67 212 363.58 217.83 353 216.21 355.5 209.25"/><polygon class="cls-19" points="360.5 203.25 348.25 201.5 343 202.5 341 208.75 353 216.21 360.5 203.25"/><polygon class="cls-8" points="348.25 201.5 331.8 186.25 307.01 197.21 341 208.75 348.25 201.5"/><polygon class="cls-3" points="415.13 183.96 444.7 181.58 481.25 198.25 462.25 200.75 415.13 183.96"/><polygon class="cls-3" points="352.31 194.45 400.7 210.21 382.24 214.33 352.31 194.45"/><g id="gift_box" data-name="gift box"><polygon class="cls-12" points="679.17 282.83 725.83 275.5 725.83 307.5 677.17 324.83 653.83 300.83 679.17 282.83"/><polygon class="cls-3" points="629.17 306.83 599.83 286.17 657.17 270.83 725.83 275.5 677.17 292.17 629.17 306.83"/><polygon class="cls-9" points="599.83 318.83 599.83 286.17 677.17 292.17 677.17 324.83 599.83 318.83"/><polygon class="cls-12" points="608.75 293.5 602.25 300.5 610.38 300.88 608.75 293.5"/><polygon class="cls-12" points="612.75 307.25 613.25 312.88 621.38 309.88 612.75 307.25"/><polygon class="cls-12" points="632.75 296.5 628.13 302.63 637 304.5 632.75 296.5"/><polygon class="cls-12" points="651.13 310.25 655.25 319.63 661.88 314 651.13 310.25"/><polygon class="cls-12" points="661.25 303.38 667.25 297.5 671 305.38 661.25 303.38"/><polygon class="cls-3" points="690.63 292.75 690.25 300 697.5 296.88 690.63 292.75"/><path class="cls-3" d="M700.38,300.25l5.37,8.37s5-7.5,4.63-7.5S700.38,300.25,700.38,300.25Z"/><path class="cls-3" d="M687,312.62l7.12.88s-1.62-6.62-2-6.62S687,312.62,687,312.62Z"/><polygon class="cls-3" points="716.25 292 711.5 297.75 718.63 296.63 716.25 292"/><polygon class="cls-12" points="686.38 233.47 723.83 227.58 723.83 270.92 684.77 284.83 666.04 265.57 686.38 233.47"/><polygon class="cls-3" points="646.25 270.39 622.7 236.14 668.72 223.83 723.83 227.58 684.77 240.96 646.25 270.39"/><polygon class="cls-9" points="622.7 280.02 622.7 236.14 684.77 240.96 684.77 284.83 622.7 280.02"/><polygon class="cls-12" points="640.33 281.5 646.5 237.75 657.08 237.25 659.47 238.94 659.5 282.92 645.08 282.33 640.33 281.5"/><polygon class="cls-5" points="680 224.63 646.5 237.75 659.47 238.94 696 225.63 680 224.63"/><polygon class="cls-12" points="793.04 278.46 830.5 272.58 830.5 315.92 791.44 329.83 772.71 310.57 793.04 278.46"/><polygon class="cls-3" points="752.91 315.39 729.37 281.14 775.39 268.83 830.5 272.58 791.44 285.96 752.91 315.39"/><polygon class="cls-9" points="729.37 325.02 729.37 281.14 791.44 285.96 791.44 329.83 729.37 325.02"/><polygon class="cls-13" points="752.88 282.88 752.75 326.88 765.13 327.75 766.75 284.13 752.88 282.88"/><polygon class="cls-14" points="749.71 275.67 806.75 280.75 815.88 277.75 764.13 271.83 749.71 275.67"/><polygon class="cls-18" points="789.31 269.69 752.88 282.88 766.75 284.13 802.88 270.63 789.31 269.69"/><polygon class="cls-13" points="807 324.33 806.75 280.75 815.88 277.75 818.83 320 807 324.33"/></g><polygon class="cls-1" points="60.25 325.25 127.5 343 190.75 316.75 124.5 305.75 60.25 325.25"/><polygon class="cls-7" points="496.5 43.5 616 20 699 47.5 724.33 128.17 639.5 187.5 534.33 170.67 469.83 121.67 496.5 43.5"/><polygon class="cls-7" points="457.5 140.75 465.25 135 474 138.5 474.25 149.25 463.25 152.17 456.67 148.33 457.5 140.75"/><polygon class="cls-7" points="435.95 140.02 442.77 143.08 443.72 150.31 436.42 153.92 431.08 149.92 430.51 142.32 435.95 140.02"/><polygon class="cls-7" points="418.48 135.79 419.19 140.53 415.62 143.55 411.15 140.85 411.46 136.59 415.36 133.66 418.48 135.79"/><polygon class="cls-4" points="533.25 160 555.5 146.17 692.75 150.25 639.77 187.58 555.5 174.13 533.25 160"/><polygon class="cls-8" points="674.5 157 671.5 159.75 670 166.25 677 161.38 677.13 155.63 673 152 668.5 155.88 669.38 158.13 674.5 157"/><path class="cls-19" d="M675.88,149.38,673,152l-1.5,7.75a49.13,49.13,0,0,0,5.5,1.63c.38-.13,3.12-2.26,3.12-2.26l-.37-4.74Z"/><polygon class="cls-9" points="606.5 61.08 618.83 69.42 614.75 76.17 598 69.58 594.17 59.83 606.5 61.08"/><polygon class="cls-13" points="591 77.33 613.33 86.83 605.67 99.17 580 103.67 591 77.33"/><polygon class="cls-25" points="570.81 100.88 573.38 97.88 579.19 91.5 565.5 84.88 567.06 97.88 570.81 100.88"/><polygon class="cls-14" points="567.83 72 564.67 65.5 594.17 59.83 613.33 86.83 588.5 96.17 567.83 72"/><polygon class="cls-12" points="520.75 134.88 507.13 134.25 501.63 146 516.88 157.75 520.75 134.88"/><polygon class="cls-26" points="565.25 94.75 558.63 115.88 560.63 126.13 571.38 122.5 573.38 97.88 565.25 94.75"/><polygon class="cls-12" points="541.5 134.88 545.75 122.88 558.63 115.5 571.38 122.5 555.5 146.17 541.5 134.88"/><polygon class="cls-12" points="545.5 142.83 555.5 146.17 555.5 174.13 533.92 170.88 516.88 157.75 545.5 142.83"/><polygon class="cls-3" points="545.75 122.88 514.46 128.73 507.63 134.25 516.88 157.75 555.5 146.17 545.75 122.88"/><polygon class="cls-17" points="503.04 79.28 489.45 83.05 498.13 101.9 517.55 107.49 513.44 82.71 503.04 79.28"/><polygon class="cls-27" points="506.93 68.44 495.05 74.95 489.45 83.05 508.98 89.45 529.77 77.69 506.93 68.44"/><polygon class="cls-17" points="537.53 62.61 532.85 58.96 506.24 60.33 495.05 74.95 517 76.47 537.53 62.61"/><polygon class="cls-22" points="544.73 72.66 549.98 62.95 532.85 58.96 517 76.47 544.73 72.66"/><polyline class="cls-17" points="543.58 76.54 550.18 71.02 549.98 62.95 542.1 66.61 543.36 77"/><polygon class="cls-25" points="511.04 117.08 508.52 118.91 505.1 113.89 511.72 107.11 511.04 117.08"/><polygon class="cls-26" points="525.43 80.31 517 76.47 508.98 89.45 511.27 101.55 508.75 102.69 505.56 98.13 498.13 101.9 505.1 113.89 509.21 112.06 508.52 118.91 514.46 128.73 535.88 129.42 525.43 80.31"/><polygon class="cls-25" points="536.16 110.46 528.4 119.75 520.4 123.71 535.88 129.42 540.5 110.92 536.16 110.46"/><polygon class="cls-28" points="550.18 71.02 559.84 108.56 528.4 119.75 517 76.47 542.1 66.61 550.18 71.02"/><polygon class="cls-26" points="529.4 84.22 525.64 86.23 532.75 88.94 538.46 94.63 540.8 91.65 544 93.53 544.59 88.16 548.13 81.63 544.24 80.78 540.85 83.17 540.71 85.14 538.36 89.81 536.46 86.79 534.05 84.61 529.4 84.22"/><polygon class="cls-25" points="539.8 91.16 538.46 94.63 542.07 96.67 544 93.53 539.8 91.16"/><polygon class="cls-29" points="540.71 85.14 544 93.53 538.46 94.63 536.46 86.79 540.71 85.14"/><path class="cls-21" d="M533.57,89.24a1.89,1.89,0,1,1-2-1.83A1.87,1.87,0,0,1,533.57,89.24Z"/><path class="cls-21" d="M548.12,85.86a1.89,1.89,0,1,1-2-1.82A1.89,1.89,0,0,1,548.12,85.86Z"/><polygon class="cls-25" points="535.41 101.36 548.32 97.52 547.9 103.93 540.79 106.47 535.41 101.36"/><polygon class="cls-16" points="537.79 101.94 547.15 98.91 547.03 101.03 539.17 103.49 537.79 101.94"/><polygon class="cls-17" points="533.23 82.02 525.23 84.33 525.64 86.23 534.05 84.61 533.23 82.02"/><polygon class="cls-17" points="547.46 79.74 540.33 80.44 540.85 83.17 548.13 81.63 547.46 79.74"/><polygon class="cls-25" points="502.13 104.03 504.99 102.47 507.1 107.57 502.13 104.03"/><polygon class="cls-15" points="559 74.5 580 103.67 588.5 96.17 564.67 65.5 559 74.5"/><polygon class="cls-28" points="568.94 96.23 565.25 94.75 560.5 86 567.67 76.17 569.67 78.67 566.67 84.17 569.5 89.5 568.94 96.23"/><polygon class="cls-4" points="578.38 73.38 589.63 89.44 606 83.06 594.13 68.44 578.38 73.38"/><polygon class="cls-13" points="576.28 68.84 579.66 67.84 580.5 65.91 586.5 64.5 588.28 65.5 591.59 64.94 592.28 66.63 577.38 70.75 576.28 68.84"/><polygon class="cls-17" points="627 162.67 616 166.83 613.83 183.5 627.67 185.67 631.75 174.75 627 162.67"/><polygon class="cls-22" points="645.13 150 631.17 142.17 616 166.83 631.75 174.75 651 162.88 645.13 150"/><polygon class="cls-22" points="644.75 172.5 642.75 176.88 645.09 183.88 652.55 178.59 644.75 172.5"/><polygon class="cls-30" points="643.33 152.33 638.83 161.67 642.75 176.88 652.55 178.59 662.09 171.89 664.55 150.31 643.33 152.33"/><polygon class="cls-17" points="639.5 134.33 631.17 142.17 638.83 161.67 664.5 150.17 639.5 134.33"/><polygon class="cls-8" points="677.5 130 687.5 135.17 679.75 154.38 673 152 672.63 137.75 677.5 130"/><polygon class="cls-15" points="660.67 126.33 676.5 117.5 687.5 135.17 672.63 137.75 660.67 126.33"/><polygon class="cls-13" points="641 115 633.88 121.25 631.17 142.17 664.5 150.17 672.13 130.5 641 115"/><polygon class="cls-3" points="638.08 53.25 640.08 46.08 614 45.5 594.17 59.83 611.92 69.67 638.08 53.25"/><polygon class="cls-11" points="624.33 77.67 621.17 75.83 619.08 70.08 628.17 63.33 635.83 61.08 627.92 75.42 624.33 77.67"/><polygon class="cls-12" points="614.75 76.17 631.13 63.5 645.25 54.17 640.08 46.08 611.92 69.67 614.75 76.17"/><polygon class="cls-8" points="641.75 116.75 626.5 100.63 621.17 75.83 630.25 74.25 645.25 102.38 641.75 116.75"/><polygon class="cls-13" points="636.25 118 626.5 100.63 630.67 98.33 644.5 96.5 653.88 110.75 636.25 118"/><polygon class="cls-14" points="649.13 106.25 643.88 99 641.13 100.63 633.88 121.25 672.13 130.5 676.5 117.5 671.13 111.63 649.13 106.25"/><polygon class="cls-27" points="670.19 65.25 679.25 62.63 684.69 77.75 683.44 82.13 669.5 87.69 666.19 69.19 670.19 65.25"/><polygon class="cls-11" points="671.38 91.63 678 95.5 679.75 91.25 677.13 86.88 670.31 87 671.38 91.63"/><polygon class="cls-8" points="671.13 87.5 674.63 89.25 679.75 91.25 683.44 82.13 676.5 79.88 675.75 83.63 671.13 87.5"/><polygon class="cls-8" points="652.75 107.5 650.63 112.63 671.13 111.63 678 95.5 674.63 89.25 675.75 83.63 672.69 82.69 673.25 74.63 669.17 69.83 648.38 78.75 652.75 107.5"/><polygon class="cls-11" points="641.63 98 630.67 98.33 645.25 102.38 650.63 112.63 668.5 105.5 663.83 103.5 641.63 98"/><polygon class="cls-17" points="651.88 57.38 652.75 56.75 663.75 52 679.25 62.63 669.17 69.83 652 70.63 651.88 57.38"/><polygon class="cls-22" points="643.75 60.13 644.75 53.38 663.75 52 650.63 68.88 643.75 60.13"/><polygon class="cls-17" points="637.88 68.25 631.13 63.5 644.75 53.38 650.83 63.83 637.88 68.25"/><polygon class="cls-27" points="649.75 68 633.38 75.75 631.13 63.5 650.83 63.83 649.75 68"/><polygon class="cls-19" points="634.67 65.83 630.67 98.33 663.83 103.5 669.17 69.83 650.83 63.83 634.67 65.83"/><polygon class="cls-8" points="642.72 71.97 643.19 71.5 638.53 72.22 645.68 84.57 649.34 81.59 651.02 85.96 661.94 76.13 658.81 74.25 654.53 74.41 651.72 78.3 647.56 81.56 646.99 77.68 645.94 73.44 642.72 71.97"/><polygon class="cls-11" points="645.68 84.57 648.08 87.2 651.02 85.96 648.93 82.94 645.68 84.57"/><path class="cls-20" d="M647,77.68c-.07.23-1.31,6.89-1.31,6.89L651,86l.7-7.66Z"/><polygon class="cls-11" points="641.88 88.05 654.41 90.03 647.26 95.33 641.88 88.05"/><polygon class="cls-16" points="643.61 89.04 652.55 90.44 650.56 91.58 644.94 90.84 643.61 89.04"/><circle class="cls-31" cx="642.25" cy="77.37" r="1.74"/><circle class="cls-31" cx="657.06" cy="79.11" r="1.74"/><polygon class="cls-17" points="646.31 71 638.78 70.69 638.53 72.22 645.94 73.44 646.31 71"/><polygon class="cls-17" points="655 72.03 654.53 74.41 661.94 76.13 662.13 74.47 655 72.03"/><polygon class="cls-11" points="680 83.88 678.25 83.25 677.69 86.5 680 83.88"/><polygon class="cls-19" points="624.83 75.33 630.25 74.25 631.83 68.42 626.33 60 624.08 61.75 626.83 67.42 624.08 72.92 624.83 75.33"/><polygon class="cls-4" points="612.88 49.96 627.88 50.92 616.29 60.29 602.29 56.83 612.88 49.96"/><polygon class="cls-12" points="601 57.96 614.42 62.21 612.25 64.33 599.83 58.79 601 57.96"/><g id="picture"><polygon class="cls-1" points="776 205.5 774.5 242.5 849.5 250.5 844.5 82 776 205.5"/><polygon class="cls-14" points="762.5 82.83 761.83 234.83 841.17 242.17 844.5 82 762.5 82.83"/><polygon class="cls-4" points="775.17 98.17 771.83 223.83 830.17 228.83 831.83 97.5 775.17 98.17"/><polygon class="cls-14" points="784.5 110.5 822.17 110.33 822 116.17 784.83 116.83 784.5 110.5"/><polygon class="cls-14" points="779.75 195.5 820.25 197.75 819.75 205 780.08 201.83 779.75 195.5"/><polygon class="cls-14" points="779.5 206.75 820 209 819.5 216.25 779.83 213.08 779.5 206.75"/><polygon class="cls-13" points="799.17 127.83 786.33 147.17 792.33 151 786.33 162.5 792.5 165.5 786.5 176.83 795.33 178.33 795.83 189 801.83 189.67 803.33 178.33 815.5 177.67 805.67 166.5 811.5 162.33 803.5 151.33 809.67 148 799.17 127.83"/></g><g id="tree"><polygon class="cls-10" points="100.08 302.46 89.92 286.63 126.08 277.21 162.42 286.79 137.83 308.71 100.08 302.46"/><polygon class="cls-30" points="138.46 257.33 134.96 304.58 126.33 304.21 117.33 256.21 138.46 257.33"/><polygon class="cls-22" points="107.58 304.71 118.83 296.33 114.96 253.08 123.33 252.46 127.36 268 127.83 293.96 118.58 305.71 107.58 304.71"/><polygon class="cls-12" points="115.33 307.21 128.58 330.71 155.08 322.71 160.42 297.29 127.83 293.96 115.33 307.21"/><polygon class="cls-3" points="115.33 307.21 128.08 304.13 160.42 297.29 162.42 286.79 127.83 293.96 115.33 307.21"/><polygon class="cls-14" points="114.06 232.67 127.36 268 192.06 245.97 139.29 178.06 106.26 218.44 114.06 232.67"/><polygon class="cls-13" points="100.75 191.83 63.58 254.23 127.36 268 133.33 212.94 100.75 191.83"/><polygon class="cls-13" points="114.97 122.09 133.33 212.94 192.52 180.36 142.5 129.43 114.97 122.09"/><polygon class="cls-15" points="103.96 136.77 64.5 190.91 133.33 212.94 127.36 148.7 103.96 136.77"/><polygon class="cls-14" points="115.89 108.32 124.61 45.46 167.28 128.05 127.36 148.7 115.89 108.32"/><polygon class="cls-13" points="124.61 45.46 127.36 148.7 77.35 134.47 124.61 45.46"/><polygon class="cls-9" points="91.92 298.79 120.08 295 128.08 304.13 128.58 330.71 96.08 323.46 91.92 298.79"/><polygon class="cls-12" points="89.92 286.63 127.83 293.96 128.08 304.13 91.92 298.79 89.92 286.63"/><polygon class="cls-13" points="136.92 105.25 136.23 109.6 132.54 111.77 136.33 113.6 136.35 118.56 140.15 114.96 145.08 114.83 142.21 111.33 143.88 108.46 140.4 108.4 136.92 105.25"/><polygon class="cls-14" points="106.89 123.09 103.34 125.7 99.19 124.66 100.61 128.62 97.14 132.17 102.37 132.26 105.97 135.64 106.38 131.13 109.59 130.26 107.16 127.77 106.89 123.09"/><polygon class="cls-14" points="143.71 165.33 143.21 170.27 139.83 172.46 143.65 173.27 143.27 177.65 146.9 173.83 152.27 173.83 149.02 171.15 150.58 167.46 147.15 168.71 143.71 165.33"/><polygon class="cls-13" points="109.92 178.13 108.5 181.79 104.67 183.71 107.42 184.54 107.17 188.96 110.67 185.38 116.5 187.79 112.08 183.38 115.33 181.29 110.83 181.29 109.92 178.13"/><polygon class="cls-13" points="150.42 221.96 147.25 226.54 140.75 227.63 146.33 229.96 144.67 235.13 150.92 231.79 157.83 235.46 154.92 230.71 158.67 227.79 152 227.63 150.42 221.96"/><polygon class="cls-14" points="102.42 226.38 104.33 231.79 99.83 234.88 105.75 234.71 109.17 243.38 109.5 235.21 117.75 234.21 110.75 232.46 114.67 228.29 107.25 230.46 102.42 226.38"/></g></svg>