<svg xmlns="http://www.w3.org/2000/svg" viewBox="0 0 900 350"><defs><style>.cls-1,.cls-10{fill:#dddddc;}.cls-1,.cls-2,.cls-36,.cls-37,.cls-38,.cls-39,.cls-40,.cls-41,.cls-42,.cls-43,.cls-44,.cls-46,.cls-48,.cls-49,.cls-52,.cls-53,.cls-54,.cls-55,.cls-56,.cls-59,.cls-60,.cls-61,.cls-62,.cls-63,.cls-64,.cls-65,.cls-66{fill-rule:evenodd;}.cls-2,.cls-50{fill:#ececeb;}.cls-3{fill:#5e5e5e;}.cls-4{fill:#686868;}.cls-5{fill:#a0a0a0;}.cls-53,.cls-6{fill:#be8e00;}.cls-36,.cls-7{fill:#cbac14;}.cls-37,.cls-8{fill:#e4c728;}.cls-9{fill:#6f7173;}.cls-11{fill:#cfcecd;}.cls-12,.cls-65{fill:#858686;}.cls-13{fill:#707070;}.cls-14{fill:#bfbfbf;}.cls-15,.cls-66{fill:#8f8f8f;}.cls-16{fill:#6c6d6d;}.cls-17{fill:#c4c4c3;}.cls-18{fill:#9da1a2;}.cls-19{fill:#858584;}.cls-20{fill:#818181;}.cls-21,.cls-64{fill:#f3d65d;}.cls-22,.cls-39{fill:#bb8e2d;}.cls-23{fill:#737474;}.cls-24,.cls-35,.cls-44,.cls-68{fill:#2b2b2b;}.cls-24{fill-opacity:0.1;}.cls-25{fill:#737373;}.cls-26,.cls-48{fill:#755800;}.cls-27,.cls-38{fill:#846400;}.cls-28,.cls-40{fill:#debca4;}.cls-29,.cls-41{fill:#8a6651;}.cls-30,.cls-42{fill:#c2977b;}.cls-31,.cls-43{fill:#e7c9b5;}.cls-32,.cls-55{fill:#b48a00;}.cls-33{fill:#464646;}.cls-34,.cls-49{fill:#9d7700;}.cls-45,.cls-46{fill:#484848;}.cls-47{fill:#2a2b2a;}.cls-47,.cls-52,.cls-68{opacity:0.1;}.cls-51{fill:#e1a842;}.cls-54{fill:#474747;}.cls-56{fill:#fff;}.cls-57{fill:#9b9fa0;}.cls-58{fill:#c7c7c6;}.cls-59{fill:#802d00;}.cls-60{fill:#a84000;}.cls-61{fill:#cc4e00;}.cls-62{fill:#ed8600;}.cls-63{fill:#ff9b01;}.cls-67{fill:#7c7c7c;}</style></defs><title>explorers_Adventurer_ISFP_introduction</title><g id="ILLUSTRATION_copy" data-name="ILLUSTRATION copy"><g id="clouds_copy" data-name="clouds copy"><polygon class="cls-1" points="798.25 8.93 756.04 18.94 796.51 41.59 831.88 34.84 851.38 39.19 894.03 22.43 846.29 7.18 815.14 16.77 798.25 8.93"/><polygon class="cls-2" points="894.03 22.43 849.2 0.22 826.06 10.45 803.93 0 756.04 18.94 812.52 23.73 840.76 14.59 894.03 22.43"/><polygon class="cls-1" points="43.05 57.8 6.6 64.91 41.54 80.98 72.08 76.19 88.92 79.28 125.74 67.38 84.52 56.56 57.63 63.36 43.05 57.8"/><polygon class="cls-2" points="125.74 67.38 87.03 51.61 67.05 58.88 47.95 51.46 6.6 64.91 55.36 68.31 79.75 61.82 125.74 67.38"/></g><g id="land_copy" data-name="land copy"><path class="cls-3" d="M350.92,261.54l43.76-42.93-25.76-97.14-47.75-47.2L309.54,57.33,151.15,95.23s-22.26,52.59-24.26,47.82,0,59,0,59l27.88,50.32,20.51,10.85,175.77-1.81Z"/><polygon class="cls-4" points="198.81 95.87 227.85 131.05 223.84 205.93 250.87 224.52 265.95 217.03 337.47 222.01 314.95 100.89 198.81 95.87"/><polygon class="cls-5" points="421.9 255.18 372.66 202.89 164.27 202.16 155.59 279.31 421.9 255.18"/><polygon class="cls-3" points="672.09 266.05 624.46 239.82 587.58 209.07 608.21 133.39 666.59 93.85 743.6 120.21 771.48 174.43 820.86 245.09 749.6 275.85 672.09 266.05"/><polygon class="cls-4" points="676.53 113.62 640.83 147.63 636.82 221.68 589.43 213.63 590.1 150.31 657.84 104.75 676.53 113.62"/><polygon class="cls-5" points="602.11 243.46 597.15 207.94 638.07 204.8 761.97 209.45 779.99 241.44 752.29 271.6 602.11 243.46"/><polygon class="cls-6" points="835.24 141.8 825.36 141.17 834.24 147.44 836.23 145.19 835.24 141.8"/><polygon class="cls-7" points="821.73 218.24 837.49 129.37 852.24 127.49 865.37 134.27 871.12 150.71 826.11 232.04 821.73 218.24"/><path class="cls-6" d="M821.86,217.86l4.25-23.72h0L850,120.21l1.62-1.26-2.37,12.93L821.86,218Zm10.38,3.39-6,10.79-1.87-6L850,144.56l13.62-6.9Z"/><polygon class="cls-8" points="837.49 129.37 851.49 118.83 868.11 127.24 871.12 150.71 863.49 137.66 849.86 144.56 849.24 131.76 837.49 129.37"/><polygon class="cls-6" points="805.48 160.63 815.11 213.22 826.73 211.33 824.49 154.73 820.86 150.96 805.48 160.63"/><polygon class="cls-7" points="818.61 212.71 821.61 212.21 819.48 151.71 813.74 155.35 818.61 212.71"/><polygon class="cls-8" points="805.48 160.63 824.49 154.73 824.23 148.82 814.48 144.81 805.48 160.63"/><polygon class="cls-6" points="848.11 178.57 867.24 186.73 874.24 195.52 871.37 186.6 888.49 175.31 884.37 167.91 849.74 174.56 848.11 178.57"/><polygon class="cls-8" points="851.36 169.91 849.74 174.56 873.11 178.07 884.37 167.91 873.11 165.27 859.86 170.92 851.36 169.91"/><polygon class="cls-9" points="588.45 260.66 393.18 247.99 326.69 210.15 290.92 73.25 396.93 34.48 494.81 31.09 599.46 64.23 618.33 122.34 608.21 133.39 602.78 155.67 594.44 211.29 588.45 260.66"/><polygon class="cls-10" points="371.18 263.22 392.54 242.45 449.27 204.25 588.01 207.06 737.94 246.13 752.72 283.13 632.82 316.83 478.64 279.98 371.18 263.22"/><polygon class="cls-10" points="143.25 292.37 168.53 250.91 255.38 230.39 345.48 240.1 348.15 263.89 294.92 310.97 188.93 313.78 143.25 292.37"/><polygon class="cls-11" points="260.05 233.74 286 223.1 372.66 202.89 442.93 227.71 348.15 263.89 260.05 233.74"/><polygon class="cls-12" points="71.39 162 114.39 160.63 138.77 132.13 154.52 129.75 169.9 102.01 199.78 93.1 182.27 75.53 175.28 63.1 132.52 77.53 71.39 162"/><polygon class="cls-13" points="172.77 63.85 136.14 76.28 136.02 76.41 135.27 92.85 129.14 117.2 145.9 99.12 146.15 87.45 172.77 63.85"/><polygon class="cls-10" points="255.71 7.25 171.77 51.55 166.27 56.83 159.65 66.61 162.15 73.27 195.53 77.03 315.29 65.86 424.18 41.38 467.19 33.23 441.19 18.29 386.43 21.68 255.71 7.25"/><polygon class="cls-14" points="166.02 57.08 139.27 73.39 136.02 76.41 147.27 72.64 153.77 72.26 162.15 73.27 177.4 59.84 177.65 56.83 175.53 53.44 166.02 57.08"/><polygon class="cls-15" points="243.16 99.25 203.53 88.46 182.27 75.53 424.18 41.38 406.55 75.9 243.16 99.25"/><polygon class="cls-12" points="141.88 167.03 172.62 130.21 182.4 114.81 157.24 102.01 140.68 130.5 141.88 167.03"/><polygon class="cls-16" points="130.11 132.13 124.66 153.22 141.88 167.03 157.24 102.01 130.11 132.13"/><polygon class="cls-17" points="243.16 99.25 172.62 130.21 157.35 101.38 182.27 75.53 243.16 99.25"/><polygon class="cls-18" points="71.39 162 79.67 180.33 98.4 178.2 124.01 186.98 141.88 167.03 130.11 132.13 71.39 162"/><polygon class="cls-9" points="116.82 210.83 102.33 200.16 98.4 178.2 141.88 167.03 153.32 202.17 116.82 210.83"/><polygon class="cls-15" points="74.87 291.66 79.45 216.23 98.4 178.2 114.86 202.17 119.54 262.04 108.21 290.28 74.87 291.66"/><polygon class="cls-12" points="38.01 271.96 75.39 291.66 98.4 178.2 71.39 161.75 62.64 190.62 36.76 214.47 43.88 252.88 38.01 271.96"/><polygon class="cls-18" points="641.08 39.83 568.74 69.23 479.94 47.41 467.19 33.23 386.43 21.68 537.04 7.58 641.08 39.83"/><polygon class="cls-19" points="768.85 105.77 747.22 99 724.97 79.92 749.48 43.52 768.85 105.77"/><polygon class="cls-15" points="536.2 83.68 548.08 58.96 538.95 47.16 467.19 33.23 424.18 41.38 463.69 78.16 536.2 83.68"/><polygon class="cls-10" points="583.45 46.28 580.58 66.87 536.2 83.68 538.95 47.16 583.45 46.28"/><polygon class="cls-18" points="609.08 75.15 616.33 57.7 583.45 46.28 536.2 83.68 598.11 92.68 607.45 88.96 609.08 75.15"/><polygon class="cls-12" points="602.28 155 598.11 92.68 609.08 75.15 621.46 104.39 619.97 131.05 602.28 155"/><polygon class="cls-10" points="736.85 80.42 609.08 75.15 583.45 46.28 670.21 18.29 749.48 43.52 736.85 80.42"/><polygon class="cls-20" points="753.1 123.47 727.1 118.95 702.47 106.15 669.34 107.03 627.64 92.85 609.08 75.15 736.85 80.42 757.6 117.45 753.1 123.47"/><polygon class="cls-17" points="731.97 132.13 619.97 131.05 609.46 75.43 661.46 92.09 701.22 105.65 723.35 117.7 731.97 132.13"/><polygon class="cls-18" points="753.1 123.47 731.97 132.13 701.22 105.65 753.1 123.47"/><polygon class="cls-12" points="771.1 242.71 756.26 200.79 731.97 132.13 753.1 123.47 763.98 164.52 771.1 242.71"/><polygon class="cls-17" points="806.61 271.2 771.1 242.71 753.1 123.47 808.48 230.66 806.61 271.2"/><polygon class="cls-18" points="871.76 286.34 819.03 304.35 796.36 284 785.74 254.18 753.1 123.47 736.85 80.42 768.85 105.77 834.24 217.48 880.24 234.18 871.76 286.34"/><polygon class="cls-12" points="844.99 235.81 899.87 233.3 900 249.9 871.76 286.34 847.61 240.33 844.99 235.81"/><polygon class="cls-18" points="874.87 217.73 899.87 233.3 844.99 235.81 852.74 223.13 874.87 217.73"/><polygon class="cls-15" points="834.24 217.48 874.87 217.73 844.99 235.81 834.24 217.48"/><polygon class="cls-9" points="29.51 194.01 37.88 205.43 59.01 202.92 62.64 190.62 29.51 194.01"/><polygon class="cls-12" points="22.38 216.6 29.51 194.01 59.01 202.92 43.51 218.61 22.38 216.6"/><polygon class="cls-18" points="0 226.02 22.38 216.6 59.01 202.92 50.38 231.16 27 236.94 0 226.02"/><polygon class="cls-9" points="0.5 244.85 0 226.02 29.01 229.03 50.38 231.16 43.88 252.88 0.5 244.85"/><polygon class="cls-21" points="175.53 53.44 171.65 51.43 166.15 56.07 166.52 61.22 175.53 53.44"/><polygon class="cls-22" points="177.65 56.83 175.53 53.44 172.65 55.95 175.9 58.46 177.65 56.83"/><polygon class="cls-22" points="174.15 59.59 172.02 56.45 169.53 58.58 172.52 61.09 174.15 59.59"/><polygon class="cls-22" points="170.77 62.72 168.9 59.08 166.52 61.22 169.15 63.98 170.77 62.72"/><polygon class="cls-22" points="153.77 72.26 150.02 70.26 144.52 74.9 144.89 80.05 153.77 72.26"/><polygon class="cls-21" points="156.02 75.65 153.77 72.26 151.02 74.78 154.27 77.28 156.02 75.65"/><polygon class="cls-21" points="152.4 78.54 150.27 75.28 147.9 77.41 150.9 79.92 152.4 78.54"/><polygon class="cls-21" points="149.02 81.55 147.27 78.03 144.89 80.05 147.4 82.81 149.02 81.55"/><polygon class="cls-21" points="166.15 56.07 157.52 53.56 144.64 60.84 129.77 81.43 135.64 84.56 140.14 76.78 144.52 74.9 150.02 70.26 166.52 61.22 166.15 56.07"/><polygon class="cls-22" points="166.15 56.07 157.52 53.56 144.64 60.84 150.02 70.26 166.52 61.22 166.15 56.07"/><polygon class="cls-22" points="139.77 93.35 140.14 76.78 129.77 81.43 130.77 92.34 134.52 95.73 139.77 93.35"/><polygon class="cls-21" points="135.77 103.64 139.77 93.35 130.77 92.34 131.77 101.76 132.77 105.77 135.77 103.64"/><polygon class="cls-22" points="129.14 117.2 135.77 103.64 131.77 101.76 129.14 117.2"/><polygon class="cls-7" points="162.9 46.16 162.9 55.07 162.77 63.35 145.39 58.71 145.77 52.18 159.02 44.65 162.9 46.16"/><polygon class="cls-21" points="152.4 48.41 162.9 55.07 162.77 63.35 154.02 60.97 152.4 48.41"/><path class="cls-10" d="M162.45,40.69a4.68,4.68,0,1,0,2.93,5.94A4.67,4.67,0,0,0,162.45,40.69Z"/><path class="cls-10" d="M145.42,49.68a4.68,4.68,0,1,0,2.93,5.93A4.66,4.66,0,0,0,145.42,49.68Z"/><polygon class="cls-23" points="163.9 44.65 159.77 43.15 159.27 47.79 160.9 44.4 163.9 44.65"/><polygon class="cls-23" points="146.9 53.94 142.9 52.43 142.4 57.08 144.02 53.69 146.9 53.94"/><path class="cls-24" d="M41.81,299.43c.74-.12,31.13-6.65,31.13-6.65L101.56,304,67.94,315.24,41.81,299.31Z"/><polygon class="cls-6" points="54.18 301.69 43.93 248.22 38.05 242.94 43.18 243.7 43.06 239.06 60.43 238.68 65.56 281.23 62.69 305.58 58.31 306.21 54.18 301.69"/><polygon class="cls-7" points="49.06 238.93 52.69 238.93 58.31 306.21 54.18 301.69 49.06 238.93"/><polygon class="cls-7" points="71.31 236.67 60.43 238.68 62.69 305.58 66.44 302.44 71.31 236.67"/><polygon class="cls-8" points="56.18 227.38 43.06 239.06 60.56 242.82 71.31 236.67 56.18 227.38"/><polygon class="cls-6" points="51.81 272.44 38.18 272.57 31.8 264.54 34.68 256.88 42.05 266.92 51.31 267.05 51.81 272.44"/><polygon class="cls-8" points="42.8 263.78 34.68 256.88 40.18 268.68 51.56 268.8 51.18 264.66 42.8 263.78"/><polygon class="cls-6" points="69.93 254.24 77.56 255.87 69.68 258.39 69.93 254.24"/><polygon class="cls-6" points="73.06 303.44 74.69 276.21 98.94 281.11 86.94 304.33 78.94 306.08 73.06 303.44"/><polygon class="cls-7" points="80.69 277.46 89.44 279.09 78.94 306.08 75.94 304.83 80.69 277.46"/><polygon class="cls-8" points="88.81 270.56 74.69 276.21 80.19 280.73 98.94 281.11 88.81 270.56"/><polygon class="cls-20" points="418.43 127.11 243.16 99.25 321.04 74.27 377.93 79.92 451.94 80.17 536.2 83.68 598.11 92.68 448.93 123.97 418.43 127.11"/><polygon class="cls-18" points="424.18 41.38 536.2 83.68 454.82 92.29 378.05 105.77 321.04 74.27 401.3 48.67 424.18 41.38"/><polygon class="cls-17" points="348.15 263.89 378.42 284.72 408.81 280.56 431.33 284.33 475.63 279.31 494.9 277.04 512.02 252.81 506 235.75 493.43 236.01 445.46 208.09 348.15 263.89"/><polygon class="cls-11" points="423.32 280.81 396.04 304.43 394.04 315.49 379.8 323.72 360 341.62 164.18 327.21 188.93 313.78 348.15 263.89 423.32 280.81"/><polygon class="cls-10" points="475.97 350 360 341.62 422.07 279.81 475.63 279.31 497.41 286.84 527.44 346.15 475.97 350"/><polygon class="cls-11" points="475.63 279.31 527.44 346.15 567.74 292.71 566.13 255.24 520.02 247.81 512.02 252.81 475.63 279.31"/><polygon class="cls-17" points="566.13 255.24 527.44 346.15 756.96 336.1 737.94 314.99 721.92 322.86 566.13 255.24"/><polygon class="cls-11" points="566.13 255.24 577.08 241.78 597.92 246.47 685.88 246.81 774.65 281.31 733.26 316.16 721.92 322.86 566.13 255.24"/><polygon class="cls-17" points="585.43 204.59 669.73 228.7 675.53 244.79 647.16 246.81 597.92 246.47 574.41 227.04 585.43 204.59"/></g><g id="character_4_copy" data-name="character 4 copy"><polygon class="cls-24" points="632.69 247.21 539.04 267.24 474.09 241.8 498.66 232.73 571.89 231.35 605.73 239.75 632.69 247.21"/><polygon class="cls-9" points="566.13 255.24 597.92 246.47 595.69 230.97 566.69 237.5 563.34 246.65 566.13 255.24"/><polygon class="cls-18" points="512.02 252.81 566.13 255.24 566.69 237.5 514.07 234.7 509.42 241.61 512.02 252.81"/><polygon class="cls-25" points="493.43 236.01 512.02 252.81 514.07 234.7 500.86 225.74 493.43 236.01"/><polygon class="cls-15" points="595.69 230.97 566.5 242.73 513.51 239.75 500.86 225.74 517.6 219.96 581.19 221.26 595.69 230.97"/><polygon class="cls-7" points="529.5 133.52 553.86 135.58 579.51 136.7 580.26 133.15 580.08 127.55 554.41 130.16 529.5 133.52"/><polygon class="cls-8" points="580.08 127.55 554.41 125.5 527.83 124.94 527.83 128.49 529.5 133.52 580.08 127.55"/><polygon class="cls-26" points="553.3 119.52 548.84 126.06 559.25 126.62 553.3 119.52"/><polygon class="cls-26" points="580.08 127.55 583.42 130.16 586.39 134.46 579.14 140.61 578.77 138 579.51 136.7 580.08 127.55"/><polygon class="cls-7" points="580.08 127.55 580.82 123.44 583.42 118.77 585.84 127.74 586.39 134.46 580.08 127.55"/><polygon class="cls-6" points="583.42 118.77 593.46 131.1 586.39 134.46 583.42 118.77"/><polygon class="cls-27" points="580.08 127.55 583.42 118.77 585.46 113.92 572.83 120.65 570.96 127.18 580.08 127.55"/><polygon class="cls-6" points="581.38 116.35 573.2 105.9 569.85 110 567.8 113.55 570.4 118.03 573.38 121.02 581.38 116.35"/><polygon class="cls-7" points="573.38 121.02 567.8 113.55 563.71 118.4 559.25 126.62 570.96 127.18 573.38 121.02"/><polygon class="cls-7" points="573.2 105.9 556.09 108.7 563.71 112.24 567.8 113.55 573.2 105.9"/><polygon class="cls-6" points="567.8 113.55 556.09 108.7 556.64 115.42 559.25 126.62 567.8 113.55"/><polygon class="cls-26" points="522.25 134.27 530.8 139.5 530.43 135.77 529.5 133.52 526.15 133.15 522.25 134.27"/><polygon class="cls-7" points="559.25 126.62 553.49 120.27 549.76 117.1 547.91 114.11 550.51 110.38 553.3 107.58 555.34 104.96 556.09 108.7 559.25 126.62"/><polygon class="cls-6" points="547.91 114.11 544.37 111.49 541.4 107.02 541.96 102.54 553.3 107.58 547.91 114.11"/><polygon class="cls-27" points="547.91 114.11 541.4 107.02 535.63 111.12 536.56 117.28 538.8 125.5 545.12 118.77 547.91 114.11"/><polygon class="cls-27" points="523.73 124.75 518.53 134.83 529.5 133.52 527.83 124.94 526.15 124.38 523.73 124.75"/><polygon class="cls-6" points="535.63 111.12 530.61 113.92 528.2 116.72 531.92 120.09 538.8 125.5 535.63 111.12"/><polygon class="cls-7" points="535.63 111.12 521.5 110.94 528.2 116.72 535.63 111.12"/><polygon class="cls-7" points="528.2 116.72 517.79 124.56 527.83 124.94 538.8 125.5 528.2 116.72"/><polygon class="cls-6" points="547.91 114.11 538.8 125.5 541.96 134.27 548.84 126.06 553.49 120.27 547.91 114.11"/><polygon class="cls-28" points="579.51 136.7 576.36 171.61 560.37 171.79 557.39 174.59 554.6 178.51 546.98 180.75 540.1 184.3 536.75 164.89 533.78 153.87 531.73 143.98 532.11 139.68 529.5 133.52 579.51 136.7"/><polygon class="cls-29" points="539.54 150.51 538.43 145.47 534.89 146.22 539.54 150.51"/><polygon class="cls-30" points="549.21 134.65 550.51 171.98 560.37 171.79 554.6 178.51 546.79 185.05 538.24 174.96 533.78 153.87 542.88 152 541.96 146.4 546.79 145.47 544.74 134.46 549.21 134.65"/><polygon class="cls-30" points="555.16 142.11 559.44 143.42 562.22 152 562.6 138.75 555.16 142.11"/><polygon class="cls-30" points="568.73 138.94 568.36 149.21 571.71 143.42 576.17 142.49 568.73 138.94"/><polygon class="cls-27" points="562.6 138.75 554.79 138.94 555.16 142.11 562.6 138.75"/><polygon class="cls-27" points="568.73 138.94 576.54 139.31 576.17 142.49 568.73 138.94"/><polygon class="cls-31" points="568.73 138.94 562.6 138.75 562.22 152 568.36 152.19 568.73 138.94"/><polygon class="cls-29" points="568.36 152.19 565.2 155.18 562.22 152 568.36 152.19"/><polygon class="cls-26" points="558.32 159.1 565.01 157.23 570.96 159.66 565.01 161.53 558.32 159.1"/><polygon class="cls-32" points="572.83 159.1 564.83 161.15 556.09 158.35 564.64 163.95 572.83 159.1"/><path class="cls-26" d="M543.63,151.82l2,9.89-9.86,2.06-2-9.9Zm-7.25,3.92h0l1.11,5.41,5.39-1.12-1.11-5.41Z"/><polygon class="cls-32" points="538.99 148.46 536.75 149.02 538.24 156.49 540.66 156.11 538.99 148.46"/><polygon class="cls-27" points="544.74 134.46 546.79 145.47 541.96 146.4 541.03 142.11 531.73 143.98 529.5 133.52 544.74 134.46"/><polygon class="cls-29" points="560.37 171.79 546.98 171.98 554.6 178.51 558.7 174.96 560.37 171.79"/><polygon class="cls-33" points="558.7 174.96 568.92 178.51 576.91 194.01 575.25 195.75 568.3 202.85 530.11 204.25 524.06 194.56 522.31 193.37 530.24 178.33 538.24 174.96 546.79 185.05 558.7 174.96"/><polygon class="cls-27" points="569.1 224.25 562.6 235.64 534.15 235.64 527.64 225 529.68 198.3 533.03 194.38 536.38 192.51 562.41 191.21 565.58 192.7 568.92 197.18 569.1 224.25"/><polygon class="cls-6" points="568.92 178.51 568.87 200.78 562.41 191.21 563.15 176.46 568.92 178.51"/><polygon class="cls-6" points="535.26 176.28 536.38 192.51 529.57 198.58 530.24 178.33 535.26 176.28"/><polygon class="cls-34" points="540.84 215.1 558.5 215.1 558.5 197.18 540.84 197.18 540.84 215.1"/><polygon class="cls-28" points="538.8 221.26 548.28 222.38 548.28 232.09 546.98 233.96 545.86 234.52 537.49 225.56 538.8 221.26"/><path class="cls-30" d="M548.28,222.38l-3.16-.37,3.16,3.18Zm0,3.18-1.12,5.79-1.85,2.05-2,2.42,4.83,4.49V225.56Z"/><polygon class="cls-29" points="548.28 230.59 546.61 238.63 548.28 240.31 548.28 230.59"/><polygon class="cls-29" points="537.49 225.56 537.68 223.13 538.8 221.26 543.44 221.82 538.99 227.05 537.49 225.56"/><polygon class="cls-6" points="510.91 228.91 512.21 210.43 528.57 213.24 526.15 222.75 522.43 232.09 510.91 228.91"/><polygon class="cls-8" points="528.57 213.24 534.7 215.66 529.31 224.06 522.43 232.09 528.57 213.24"/><polygon class="cls-7" points="534.7 215.66 522.43 232.09 534.15 235.64 535.26 225.74 534.7 215.66"/><polygon class="cls-8" points="534.7 215.66 539.91 217.91 534.15 235.64 534.7 215.66"/><polygon class="cls-35" points="575.8 145.84 570.22 145.66 570.4 147.15 575.8 146.78 575.8 145.84"/><polygon class="cls-35" points="553.86 145.28 559.99 145.28 559.81 146.78 553.86 146.4 553.86 145.28"/><polygon class="cls-28" points="517.32 207.19 524.06 194.56 529.57 198.58 528.95 208.02 525.41 212.68 519.83 208.57 517.32 207.19"/><polygon class="cls-30" points="520.12 202.35 505.44 203.42 506 210.7 525.41 212.68 520.12 202.35"/><polygon class="cls-30" points="498.38 202.12 506 209.4 505.44 203.42 502.47 195.03 499.87 195.03 499.87 199.13 498.38 202.12"/><polygon class="cls-28" points="494.66 204.36 506 210.7 505.44 203.42 500.79 201.37 502.47 198.95 499.87 195.03 491.69 199.69 494.66 204.36"/><polygon class="cls-28" points="581.7 205.89 575.87 195.19 568.87 200.78 568.87 205.99 573.2 212.68 578.77 208.57 581.7 205.89"/><polygon class="cls-30" points="578.69 201.22 594.01 203.72 593.27 209.7 573.2 212.49 578.69 201.22"/><polygon class="cls-30" points="601.08 202.42 593.27 209.7 594.01 203.72 596.99 195.33 599.59 195.33 599.59 199.43 601.08 202.42"/><polygon class="cls-28" points="603.41 204.8 593.27 209.7 594.01 203.72 598.66 201.67 596.8 199.25 599.59 195.33 606.38 200.13 603.41 204.8"/><polygon class="cls-28" points="557.95 221.26 548.28 222.38 548.28 232.09 549.76 233.96 550.88 234.52 559.25 225.56 557.95 221.26"/><path class="cls-30" d="M548.28,222.38l3.16-.37-3.16,3.18Zm0,3.18,1.11,5.79,1.86,2.05,2,2.42-4.84,4.49V225.56Z"/><polygon class="cls-29" points="548.28 230.59 550.14 238.63 548.28 240.31 548.28 230.59"/><polygon class="cls-29" points="559.25 225.56 559.07 223.13 557.95 221.26 553.3 221.82 557.76 227.05 559.25 225.56"/><polygon class="cls-6" points="589.56 227.98 587.33 210.62 573.2 212.49 568.17 213.24 570.59 222.75 574.31 232.09 589.56 227.98"/><polygon class="cls-8" points="568.17 213.24 562.04 215.66 567.43 224.06 574.31 232.09 568.17 213.24"/><polygon class="cls-7" points="562.04 215.66 574.31 232.09 562.6 235.64 561.48 225.74 562.04 215.66"/><polygon class="cls-8" points="562.04 215.66 556.83 217.91 562.6 235.64 562.04 215.66"/></g><g id="character_3_copy" data-name="character 3 copy"><polygon class="cls-9" points="736.1 237.26 734.77 261.38 716.7 276.52 703.98 274.7 711.91 241.95 736.1 237.26"/><polygon class="cls-15" points="742.44 252.17 730.18 255.43 711.57 275.79 740.44 280.81 747.78 259.87 742.44 252.17"/><polygon class="cls-10" points="712.91 230.68 730.8 235.83 739.44 216.48 723.16 208.85 712.91 230.68"/><polygon class="cls-15" points="708.4 219 723.29 228.29 739.44 216.48 751.95 254.68 740.47 254.51 730.26 255.26 708.4 219"/><polygon class="cls-10" points="747.45 242.11 763.47 256.44 741.69 260.96 730.18 255.43 747.45 242.11"/><polygon class="cls-30" points="659.85 204.67 649.17 215.14 638.15 204.92 643.83 192.86 659.85 204.67"/><polygon class="cls-36" points="732.55 164.91 703.08 157.74 672.38 148.69 672.8 144.25 675.31 137.76 704.5 151.05 732.55 164.91"/><polygon class="cls-37" points="675.31 137.76 706.46 145.51 737.93 155.63 736.59 159.69 732.55 164.91 675.31 137.76"/><polygon class="cls-38" points="709.91 138.96 712.75 148.44 700.29 144.89 709.91 138.96"/><polygon class="cls-38" points="675.31 137.76 670.32 139.44 664.89 143.41 671.23 153.46 672.62 150.59 672.38 148.69 675.31 137.76"/><polygon class="cls-36" points="675.31 137.76 675.95 132.66 674.72 126.01 668.36 135.52 664.89 143.41 675.31 137.76"/><polygon class="cls-39" points="674.72 126.01 657.1 137.03 664.89 143.41 674.72 126.01"/><polygon class="cls-38" points="675.31 137.76 674.72 126.01 674.37 119.55 686.49 132.34 686.2 140.87 675.31 137.76"/><polygon class="cls-39" points="678.19 123.94 691.93 114.85 694.31 121.08 695.21 126.01 690.34 130.25 685.73 132.59 678.19 123.94"/><polygon class="cls-36" points="685.73 132.59 695.21 126.01 698.17 133.43 700.29 144.89 686.2 140.87 685.73 132.59"/><polygon class="cls-36" points="691.93 114.85 711.13 125.07 700.63 126.22 695.21 126.01 691.93 114.85"/><polygon class="cls-39" points="695.21 126.01 711.13 125.07 707.75 132.71 700.29 144.89 695.21 126.01"/><polygon class="cls-38" points="740.75 168.82 728.67 171.51 730.56 167.25 732.55 164.91 736.56 165.88 740.75 168.82"/><polygon class="cls-36" points="700.29 144.89 709.39 139.86 715.08 137.42 718.5 134.83 717.07 129.24 714.77 124.79 713.35 120.96 711.13 125.07 700.29 144.89"/><polygon class="cls-39" points="718.5 134.83 723.75 133.15 728.98 129.01 730.09 123.54 714.77 124.79 718.5 134.83"/><polygon class="cls-38" points="718.5 134.83 728.98 129.01 733.31 134.7 730.72 142.95 724.79 151.88 719.92 141.23 718.5 134.83"/><polygon class="cls-38" points="742.72 157.06 745.1 170.89 732.55 164.91 737.93 155.63 740.22 155.5 742.72 157.06"/><polygon class="cls-39" points="733.31 134.7 739 141.5 740.68 145.58 735.03 148.08 724.79 151.88 733.31 134.7"/><polygon class="cls-36" points="733.31 134.7 750.99 141.7 740.68 145.58 733.31 134.7"/><polygon class="cls-36" points="740.68 145.58 749.93 159.21 737.93 155.63 724.79 151.88 740.68 145.58"/><polygon class="cls-39" points="718.5 134.83 724.79 151.88 717.66 160.9 712.75 148.44 709.39 139.86 718.5 134.83"/><polygon class="cls-40" points="672.38 148.69 662.08 191.12 680.81 197.82 683.29 202.28 685.02 208.04 693.08 213.66 699.77 220.62 711.44 199.01 719.38 187.28 725.73 176.51 727.07 171.2 732.55 164.91 672.38 148.69"/><polygon class="cls-41" points="714.06 180.97 717.25 175.58 722.43 178.27 717.93 180.4 714.06 180.97"/><polygon class="cls-42" points="708.72 158.49 692.41 201.88 685.73 201.84 682.85 216.8 699.77 220.62 709.98 203.26 711.13 199.58 713.01 198.11 719.38 187.28 709.53 181.41 712.77 175.25 707.38 172.08 714.28 159.99 708.72 158.49"/><polygon class="cls-42" points="698.95 164.83 693.27 164.54 686.66 173.73 687.92 163.2 691.55 157.86 698.95 164.83"/><polygon class="cls-42" points="684.03 155.66 679.29 171.49 679.19 160.06 673.97 156.95 684.03 155.66"/><polygon class="cls-38" points="691.55 157.86 700.51 161.23 698.95 164.83 691.55 157.86"/><polygon class="cls-38" points="684.03 155.66 674.8 153.11 673.97 156.95 684.03 155.66"/><polygon class="cls-38" points="688.4 183.63 681.14 178.69 673.36 179.22 679.58 183.9 688.4 183.63"/><polygon class="cls-39" points="671.21 177.84 679.84 183.38 691.35 183.72 679.05 186.77 671.21 177.84"/><polygon class="cls-38" points="714.28 159.99 707.38 172.08 712.77 175.25 715.58 170.67 725.73 176.51 732.55 164.91 714.28 159.99"/><polygon class="cls-41" points="680.81 197.82 696.61 203.34 688.29 214.79 680.81 197.82"/><polygon class="cls-41" points="709.59 184.72 712 194.22 717 188.69 709.59 184.72"/><polygon class="cls-41" points="702.21 191.67 709.98 203.26 712.98 198.09 709.39 194.22 702.21 191.67"/><path class="cls-38" d="M708.61,180.86l10.77,6.42L713,198.09l-10.77-6.42,6.4-10.81Zm1,3.86-3.53,6,5.94,3.54,3.53-6Z"/><polygon class="cls-39" points="715.32 178.84 717.93 180.4 713.03 188.69 710.41 187.13 715.32 178.84"/><polygon class="cls-43" points="684.03 155.66 691.55 157.86 686.66 173.73 679.29 171.49 684.03 155.66"/><polygon class="cls-41" points="679.29 171.49 681.86 176.31 686.66 173.73 679.29 171.49"/><path class="cls-44" d="M690.48,169.22a2.31,2.31,0,1,0,2.3-2.32A2.3,2.3,0,0,0,690.48,169.22Z"/><path class="cls-44" d="M674.91,164a2.31,2.31,0,1,0,2.31-2.31A2.31,2.31,0,0,0,674.91,164Z"/><polygon class="cls-28" points="659.85 201.91 652.09 190.6 655.59 202.91 649.17 215.14 676.85 228.7 659.85 201.91"/><polygon class="cls-45" points="669.69 202.41 658.85 200.57 660.47 207.75 662.54 225.78 669.73 228.7 679.2 231.84 669.69 202.41"/><polygon class="cls-40" points="706.43 206.08 726.36 232.69 727.61 243.87 717.33 246.89 714.04 245.5 706.43 228.42 706.43 206.08"/><polyline class="cls-46" points="723.16 208.85 726.36 232.69 716.42 233.96"/><polyline class="cls-47" points="664.72 268.08 739.62 280.24 757.4 283.12 690.24 298.45 592.85 284.36 638.58 274.26 654.68 266.45 664.72 268.08"/><polygon class="cls-46" points="710.11 202.85 687.61 215.16 695.93 235.32 716.57 232.7 712.05 203.74 710.11 202.85"/><polygon class="cls-46" points="682.46 201.56 679.2 202.57 669.73 228.7 689.06 236.84 699.09 236.18 682.46 201.56"/><polygon class="cls-39" points="723.16 208.85 712.05 203.74 702.33 236.32 716.42 233.96 723.16 208.85"/><polyline class="cls-39" points="669.73 228.7 678.63 233.18 679.2 202.57 669.69 202.41 669.73 228.7"/><polygon class="cls-38" points="716.42 233.96 715.75 254.37 693.32 264.63 669.73 242.01 669.73 228.7 678.87 220.65 705.9 224.36 716.42 233.96"/><polygon class="cls-48" points="715.75 254.37 704.36 252.04 690.24 255.59 679.93 244.96 669.73 242.01 668.8 255.95 714.56 261.17 715.75 254.37"/><polygon class="cls-49" points="698.27 230.64 680.27 228.04 679.93 244.96 697.52 245.59 698.27 230.64"/><polygon class="cls-34" points="653.1 235.88 669.73 242.01 688.04 257.79 675.88 272.87 668.2 272.08 660.45 263.89 643.4 254.6 653.1 235.88"/><polygon class="cls-34" points="679.62 262.93 678.18 261.33 679.5 262.13 679.38 261.33 681.39 256.72 682.3 250.89 683.58 251.69 684.77 248.96 694.48 255.81 704.36 252.04 714.56 261.17 709.65 284 693.94 283.03 685.22 269.18 680.27 267.24 679.62 262.93"/><polygon class="cls-40" points="648.5 273.97 647.73 281.68 636.39 281.68 632.64 279.83 629.44 276.72 639.47 266.6 644.36 266.43 648.5 273.97"/><polygon class="cls-42" points="647.73 281.68 648.33 275.65 641.69 281.68 627.38 274.36 618.09 281.68 647.73 281.68"/><polygon class="cls-41" points="641.99 264.05 645.99 264.44 649.26 266.26 648.5 273.97 639.47 266.6 641.99 264.05"/><polygon class="cls-40" points="688.9 276.61 693.94 283.03 695.65 293.21 686.65 293.21 682.47 289.56 678.02 284.18 681.46 278.2 688.9 276.61"/><polygon class="cls-42" points="678.47 283.71 669.39 293.21 695.65 293.21 694.49 286.31 689.74 293.21 678.47 283.71"/><polygon class="cls-41" points="692.66 275.38 689.43 273.38 684.17 273.48 681.46 278.2 693.94 283.03 692.66 275.38"/><polygon class="cls-22" points="679.93 244.96 704.36 252.04 701 280.19 673.63 277.31 679.93 244.96"/><polygon class="cls-8" points="676.1 264.63 702.33 268.99 701 280.19 673.63 277.31 676.1 264.63"/><polygon class="cls-7" points="675.07 269.93 702.33 268.99 701 280.19 675.07 269.93"/><polygon class="cls-22" points="653.1 235.88 664.12 267.98 658.69 274.22 635.79 266.64 653.1 235.88"/><polygon class="cls-8" points="644.81 250.62 664.12 267.98 658.69 274.22 635.79 266.64 644.81 250.62"/><polygon class="cls-7" points="641.06 257.27 664.12 267.98 658.69 274.22 641.06 257.27"/><polygon class="cls-50" points="627.64 173.76 625.64 163.55 634.15 162.54 639.99 166.73 659.85 169.41 662.52 173.09 630.65 179.29 627.64 173.76"/><polygon class="cls-51" points="633.32 186.33 638.49 170.58 662.52 173.09 660.51 207.94 638.15 204.92 633.32 186.33"/><polygon class="cls-22" points="625.64 163.55 638.49 170.58 638.15 204.92 625.14 197.38 625.64 163.55"/><polygon class="cls-50" points="627.6 178.11 625.47 174.06 622.63 183.79 625.19 192.97 627.6 178.11"/><polygon class="cls-30" points="630.1 178.08 625.47 174.06 625.19 192.97 629.98 185.99 630.1 178.08"/><polygon class="cls-42" points="692.55 243.29 688.21 239.52 679.93 244.96 688.55 247.43 692.55 243.29"/><polygon class="cls-40" points="702.23 247.81 697.68 242.3 688.21 239.52 688.55 247.43 698.06 250.22 702.23 247.81"/><polygon class="cls-30" points="697.68 242.3 727.61 243.87 715.79 255.18 698.06 250.22 697.68 242.3"/></g><g id="character_2_copy" data-name="character 2 copy"><polygon class="cls-42" points="472.38 127.43 474.8 121.17 480.61 110.64 493.47 114.78 490.67 130.56 472.81 130.13 472.38 127.43"/><polygon class="cls-41" points="479.33 147.92 482.92 145.36 490.67 130.56 473.94 124.58 472.24 145.36 479.33 147.92"/><polygon class="cls-40" points="472.72 143.56 472.06 137.11 468.75 129.33 473.32 117.22 476.51 118.23 475.08 126.01 479.61 134.54 475.08 146.5 472.72 143.56"/><polygon class="cls-42" points="341.3 139.15 335.2 138.29 328.69 124.13 340.48 117.98 351.36 130.54 351.22 138.43 341.3 139.15"/><path class="cls-41" d="M349.73,152.23l-6-2.18-8.55-11.76L351.36,131s3.54,10.46,3.47,10.75S349.73,152.23,349.73,152.23Z"/><polygon class="cls-40" points="355.75 162.76 355.66 144.65 356.7 133.45 350.08 124.63 347.25 126.91 350.18 134.12 347.53 140.85 355.75 162.76"/><polygon class="cls-41" points="466.39 168.74 467.9 185.34 444.47 204.22 453.35 170.07 456.18 163.43 466.39 168.74"/><polygon class="cls-41" points="380.22 195.3 364.35 187.9 365.86 168.36 371.25 163.71 380.22 195.3"/><polygon class="cls-52" points="491.93 323.28 416.31 312.48 345.04 322.15 414.06 333.33 491.93 323.28"/><polygon class="cls-40" points="436.84 315.27 437.56 322.51 448.22 322.51 451.74 320.78 454.75 317.86 445.32 308.34 440.73 308.18 436.84 315.27"/><polygon class="cls-42" points="437.56 322.51 437 316.85 443.23 322.51 458.53 314.75 465.41 322.51 437.56 322.51"/><polygon class="cls-40" points="398.06 308.18 402.78 314.19 404.38 323.72 395.96 323.72 392.04 320.31 387.88 315.27 391.09 309.68 398.06 308.18"/><polygon class="cls-42" points="388.29 314.83 379.8 323.72 404.38 323.72 403.3 317.26 398.85 323.72 388.29 314.83"/><polygon class="cls-41" points="442.95 305.95 439.19 306.31 436.12 308.02 436.84 315.27 445.32 308.34 442.95 305.95"/><polygon class="cls-41" points="401.58 307.04 398.55 305.16 393.63 305.26 391.09 309.68 402.78 314.19 401.58 307.04"/><polygon class="cls-53" points="445.72 250.11 429.92 256.52 414.44 265.3 424.15 291.45 439.14 288.27 453.72 282.65 445.72 250.11"/><polygon class="cls-37" points="424.15 291.45 427.59 301.29 440.98 293.06 453.72 282.65 424.15 291.45"/><polygon class="cls-36" points="427.59 301.29 453.72 282.65 458.87 301.11 443.27 302.65 427.59 301.29"/><polygon class="cls-37" points="427.59 301.29 431.02 309.57 458.87 301.11 427.59 301.29"/><polygon class="cls-53" points="414.44 265.3 412.29 290.59 396.77 288.86 378.42 284.72 381.09 251.49 400.73 258.27 414.44 265.3"/><polygon class="cls-37" points="378.42 284.72 395.66 294.74 411.43 301.29 412.29 290.59 378.42 284.72"/><polygon class="cls-36" points="378.42 284.72 376.7 301.46 395.66 302.33 411.43 301.29 378.42 284.72"/><polygon class="cls-37" points="411.43 301.29 376.7 301.46 410.57 309.05 411.43 301.29"/><polygon class="cls-54" points="429.57 173.35 436.62 175.72 440.52 179.45 445.03 170.83 456.18 163.43 458.64 200.42 445.46 208.09 384 206.97 372.66 202.89 371.25 163.71 384 171.68 390.36 177.9 393.01 175.19 400.89 171.8 413.06 180.59 429.57 173.35"/><polygon class="cls-38" points="445.72 250.11 414.44 265.3 381.09 251.49 384 206.97 389.45 203.72 394.67 200.75 435.41 198.51 440.22 201.07 445.46 208.09 445.72 250.11"/><polygon class="cls-53" points="445.03 170.83 445.46 208.09 435.41 198.51 436.62 175.72 445.03 170.83"/><polygon class="cls-53" points="393.01 175.19 394.67 200.75 384 206.97 384 171.68 393.01 175.19"/><rect class="cls-34" x="401.2" y="208.51" width="27.5" height="28.14"/><polygon class="cls-36" points="369.97 119.26 406.93 110.26 445.43 98.92 444.9 93.35 441.76 85.21 405.14 101.88 369.97 119.26"/><polygon class="cls-37" points="441.76 85.21 402.69 94.93 363.22 107.61 364.9 112.7 369.97 119.26 441.76 85.21"/><polygon class="cls-48" points="398.37 86.71 394.8 98.61 410.43 94.15 398.37 86.71"/><polygon class="cls-48" points="441.76 85.21 448.01 87.31 454.82 92.29 446.88 104.89 445.13 101.3 445.43 98.92 441.76 85.21"/><polygon class="cls-36" points="441.76 85.21 440.95 78.81 442.49 70.47 450.47 82.4 454.82 92.29 441.76 85.21"/><polygon class="cls-53" points="442.49 70.47 463.48 83.59 454.82 92.29 442.49 70.47"/><polygon class="cls-38" points="441.76 85.21 442.49 70.47 442.93 62.37 427.73 78.41 428.1 89.11 441.76 85.21"/><polygon class="cls-53" points="438.14 67.87 420.91 56.47 417.93 64.29 416.8 70.47 422.9 75.79 428.69 78.73 438.14 67.87"/><polygon class="cls-36" points="428.69 78.73 416.8 70.47 413.09 79.78 410.43 94.15 428.1 89.11 428.69 78.73"/><polygon class="cls-36" points="420.91 56.47 396.84 69.3 410 70.73 416.8 70.47 420.91 56.47"/><polygon class="cls-53" points="416.8 70.47 396.84 69.3 401.06 78.87 410.43 94.15 416.8 70.47"/><polygon class="cls-48" points="359.68 124.16 374.84 127.53 372.47 122.19 369.97 119.26 364.94 120.48 359.68 124.16"/><polygon class="cls-36" points="410.43 94.15 399.01 87.84 391.88 84.78 387.59 81.53 389.39 74.52 392.26 68.94 394.05 64.14 396.84 69.3 410.43 94.15"/><polygon class="cls-53" points="387.59 81.53 381.01 79.43 374.45 74.23 373.06 67.38 392.26 68.94 387.59 81.53"/><polygon class="cls-38" points="387.59 81.53 374.45 74.23 367.84 83.08 372.27 91.72 379.71 102.91 385.81 89.55 387.59 81.53"/><polygon class="cls-38" points="357.21 109.41 354.23 126.76 369.97 119.26 363.22 107.61 360.35 107.46 357.21 109.41"/><polygon class="cls-53" points="367.84 83.08 361.89 89.9 359.12 96.12 364.38 102.65 379.71 102.91 367.84 83.08"/><polygon class="cls-36" points="367.84 83.08 346.86 88.7 359.12 96.12 367.84 83.08"/><polygon class="cls-36" points="359.12 96.12 348.17 112.11 363.22 107.61 379.71 102.91 359.12 96.12"/><polygon class="cls-53" points="387.59 81.53 379.71 102.91 388.64 114.23 394.8 98.61 399.01 87.84 387.59 81.53"/><polygon class="cls-40" points="445.43 98.92 458.35 152.13 434.86 160.53 431.75 166.12 429.57 173.35 419.47 180.38 411.07 189.12 396.45 162.01 386.49 147.31 378.53 133.8 376.84 127.15 369.97 119.26 445.43 98.92"/><polygon class="cls-41" points="393.16 139.39 389.16 132.64 382.66 136.02 388.3 138.68 393.16 139.39"/><polygon class="cls-42" points="399.85 111.2 420.31 165.61 428.69 165.57 429.57 173.35 411.07 189.12 398.28 167.36 396.84 162.73 394.48 160.89 386.49 147.31 398.83 139.94 394.78 132.23 401.53 128.25 392.88 113.08 399.85 111.2"/><polygon class="cls-42" points="412.11 119.16 419.3 119.11 427.52 130.31 425.94 117.11 421.39 110.41 412.11 119.16"/><polygon class="cls-42" points="430.81 107.66 434.08 125.14 437.5 112.92 443.44 109.28 430.81 107.66"/><polygon class="cls-38" points="421.39 110.41 410.15 114.64 412.11 119.16 421.39 110.41"/><polygon class="cls-38" points="430.81 107.66 442.39 104.46 443.44 109.28 430.81 107.66"/><polygon class="cls-38" points="392.88 113.08 401.53 128.25 394.78 132.23 391.26 126.48 378.53 133.8 369.97 119.26 392.88 113.08"/><polygon class="cls-41" points="434.86 160.53 415.04 167.45 429.57 173.35 434.86 160.53"/><polygon class="cls-41" points="398.76 144.1 395.74 156.02 389.47 149.07 398.76 144.1"/><polygon class="cls-41" points="408.01 152.81 398.28 167.35 394.51 160.87 399.01 156.02 408.01 152.81"/><path class="cls-48" d="M400,139.25l8,13.56-13.51,8.06-8-13.56,13.5-8.06Zm-8.67,9.29,4.42,7.48,7.45-4.44-4.43-7.48Z"/><polygon class="cls-55" points="391.58 136.73 388.3 138.68 394.45 149.07 397.73 147.12 391.58 136.73"/><polygon class="cls-43" points="430.81 107.66 421.39 110.41 427.52 130.31 436.77 127.51 430.81 107.66"/><polygon class="cls-41" points="436.77 127.51 433.54 133.56 427.52 130.31 436.77 127.51"/><path class="cls-44" d="M422.73,124.66a2.89,2.89,0,1,1-2.89-2.9A2.89,2.89,0,0,1,422.73,124.66Z"/><ellipse class="cls-35" cx="439.36" cy="118.17" rx="2.89" ry="2.9"/><polygon class="cls-48" points="426.04 144.69 434.4 148.58 441.21 147.02 443.81 137.96 426.04 144.69"/><polygon class="cls-56" points="445.72 136.12 423.54 143.1 427.66 145.47 443.52 141.06 445.72 136.12"/><polygon class="cls-48" points="421.64 143.14 435.08 136.97 446.74 135.38 445.47 138.51 444.56 137.46 436.04 141.12 425.27 143.19 424.87 144.02 421.64 143.14"/><polygon class="cls-55" points="446.74 135.38 444.56 137.46 440.45 145.07 433.84 147.17 425.27 143.19 421.64 143.14 433.87 150.63 442.5 147.69 446.74 135.38"/><polygon class="cls-42" points="343.19 149.39 364.35 187.9 371.25 163.71 355.66 144.65 343.19 149.39"/><polygon class="cls-42" points="472.06 137.11 456.18 163.43 467.9 185.34 482.92 145.36 472.06 137.11"/></g><g id="character_1_copy" data-name="character 1 copy"><polygon class="cls-52" points="194.97 258.2 240.69 252.84 241.03 261.21 270.73 258.87 328.96 265.94 273.4 276.12 231.85 268.58 171.28 270.76 194.97 258.2"/><polygon class="cls-6" points="188.72 268.27 180.33 266.24 184.37 222.42 187.25 221.92 194.63 221.54 198.97 251.83 188.72 268.27"/><polygon class="cls-8" points="202.56 265.65 188.72 268.27 192.59 221.72 200.26 221.28 202.56 265.65"/><polygon class="cls-6" points="219.21 260.79 209.63 220.79 216 220.54 226.63 241.88 226.37 261.8 219.21 260.79"/><polygon class="cls-8" points="235.76 259.67 226.37 261.8 216 220.54 224.76 220.16 235.76 259.67"/><polygon class="cls-57" points="161.12 147.7 178 218.86 186.5 216.73 178.5 171.17 165.75 142.05 161.12 147.7"/><polygon class="cls-6" points="184 145.19 182.25 133.26 186 129.62 191.63 134.39 193.5 146.82 184 145.19"/><polygon class="cls-8" points="198.75 130.5 186 129.62 191.13 146.44 201.63 146.07 198.75 130.5"/><polygon class="cls-50" points="225.5 162.88 194 148.95 169.5 155.48 171.88 164.39 179 174.06 176.63 181.21 186.5 216.73 238.63 216.1 227.76 172.3 224.38 170.04 226.63 167.65 225.5 162.88"/><polygon class="cls-58" points="219.88 140.34 165.75 142.05 169.5 155.48 186.88 155.48 205 164.77 213.63 164.77 215.88 163.13 225.5 162.88 219.88 140.34"/><polygon class="cls-21" points="219.88 140.34 203.61 140.72 200.75 147.7 202.13 155.1 209.38 159.87 217.25 160 224.01 156.73 219.88 140.34"/><polygon class="cls-58" points="172.13 165.02 176.63 181.21 194.38 180.96 198.5 174.56 212.38 175.06 215.63 172.67 227.76 172.3 226.63 167.65 214.13 168.16 209.63 171.17 198.63 170.92 192.63 164.52 184.75 164.64 182 166.77 175.38 166.9 172.13 165.02"/><polygon class="cls-21" points="233.26 194.39 229.88 180.83 219.13 182.09 219.63 184.47 212.25 185.1 212.5 186.98 217.25 187.11 218.63 190.5 223.13 190.62 227.76 194.64 233.26 194.39"/><polygon class="cls-27" points="183.75 207.06 186.5 216.73 238.01 216.1 238.26 214.59 238.26 214.59 209.5 191.38 193.5 192.88 183.75 207.06"/><polygon class="cls-15" points="177.63 217.23 185.88 214.72 189.5 217.86 187.25 222.63 178.75 224.14 177.63 217.23"/><polygon class="cls-50" points="241.45 211.98 185.88 214.72 187.25 222.63 241.28 220.04 241.45 211.98"/><polygon class="cls-21" points="205.13 186.48 212.63 193.88 207.75 193.13 204.5 197.9 200.25 194.14 193.13 201.42 191.5 195.77 194.63 186.98 205.13 186.48"/><polygon class="cls-40" points="264.56 261.11 264.05 266.2 256.57 266.2 254.1 264.98 251.99 262.93 258.6 256.25 261.83 256.14 264.56 261.11"/><polygon class="cls-42" points="264.05 266.2 264.44 262.22 260.07 266.2 249.34 260.75 244.51 266.2 264.05 266.2"/><polygon class="cls-40" points="291.76 256.14 288.45 260.36 287.33 267.04 293.24 267.04 295.99 264.65 298.9 261.11 296.65 257.19 291.76 256.14"/><polygon class="cls-42" points="298.62 260.81 304.57 267.04 287.33 267.04 288.09 262.51 291.21 267.04 298.62 260.81"/><polygon class="cls-41" points="260.26 254.57 262.9 254.83 265.06 256.03 264.56 261.11 258.6 256.25 260.26 254.57"/><polygon class="cls-41" points="289.29 255.34 291.41 254.02 294.87 254.09 296.65 257.19 288.45 260.36 289.29 255.34"/><polygon class="cls-53" points="258.32 215.4 269.4 219.9 280.27 226.06 273.46 244.4 262.94 242.17 252.71 238.22 258.32 215.4"/><polygon class="cls-37" points="273.46 244.4 271.05 251.3 261.65 245.53 252.71 238.22 273.46 244.4"/><polygon class="cls-36" points="271.05 251.3 252.71 238.22 249.09 251.18 260.04 252.26 271.05 251.3"/><polygon class="cls-37" points="271.05 251.3 268.63 257.12 249.09 251.18 271.05 251.3"/><polygon class="cls-53" points="280.27 226.06 281.78 243.79 292.67 242.59 305.54 239.68 303.67 216.37 289.88 221.13 280.27 226.06"/><polygon class="cls-37" points="305.54 239.68 293.44 246.71 282.38 251.3 281.78 243.79 305.54 239.68"/><polygon class="cls-36" points="305.54 239.68 306.75 251.42 293.45 252.04 282.38 251.3 305.54 239.68"/><polygon class="cls-37" points="282.38 251.3 306.75 251.42 282.99 256.75 282.38 251.3"/><polygon class="cls-54" points="269.65 161.54 264.71 163.2 261.97 165.82 258.38 165.33 251.63 172.23 253.57 178.56 258.5 185.91 301.44 187 306.58 182.66 310.48 177.32 300.83 165.21 297.16 164.73 295.3 162.83 289.77 160.46 281.24 166.62 269.65 161.54"/><polygon class="cls-38" points="258.32 215.4 280.27 226.06 303.67 216.37 301.44 187 297.8 182.85 294.14 180.77 265.56 179.19 262.18 180.99 258.5 185.91 258.32 215.4"/><polygon class="cls-37" points="318.2 176.35 341.6 179.86 349.08 199.96 338.46 216.79 317.12 224.3 295.95 219.56 297.94 199.48 313.02 196.57 318.2 176.35"/><polygon class="cls-42" points="323.63 186.64 326.2 189.16 329.9 191.49 324.71 199.72 318.93 194.88 321.99 190.25 323.63 186.64"/><polygon class="cls-41" points="320.75 196.4 322.67 190.64 329.9 191.49 323.63 186.64 318.93 194.88 320.75 196.4"/><polygon class="cls-40" points="322.67 190.64 329.9 191.49 331.95 199.26 329.69 200.51 322.67 190.64"/><polygon class="cls-54" points="334.04 187.14 338.57 185.47 340.23 190.02 335.7 191.69 334.04 187.14"/><polygon class="cls-59" points="336.94 195.13 341.47 193.46 343.13 198.01 338.6 199.68 336.94 195.13"/><polygon class="cls-60" points="334.04 204.09 338.57 202.42 340.23 206.97 335.7 208.64 334.04 204.09"/><polygon class="cls-61" points="326.69 210.15 331.21 208.48 332.88 213.02 328.35 214.69 326.69 210.15"/><polygon class="cls-62" points="318.48 213.17 323.01 211.5 324.68 216.05 320.15 217.72 318.48 213.17"/><polygon class="cls-63" points="309.2 213.42 313.73 211.75 315.39 216.29 310.86 217.96 309.2 213.42"/><polygon class="cls-64" points="301 208.69 305.52 207.03 307.19 211.57 302.66 213.24 301 208.69"/><polygon class="cls-40" points="301.44 187 313.02 196.57 316.21 184.1 310.48 177.32 301.44 187"/><polygon class="cls-40" points="242.22 180.28 251.63 172.23 258.5 185.91 251.57 188.28 245.22 186.06 242.22 180.28"/><polygon class="cls-53" points="258.38 165.33 258.5 185.91 265.56 179.19 264.71 163.2 258.38 165.33"/><polygon class="cls-53" points="295.3 162.83 294.14 180.77 301.44 187 300.83 165.21 295.3 162.83"/><rect class="cls-34" x="270.26" y="186.21" width="19.29" height="19.74"/><polygon class="cls-49" points="258.44 196.63 260.61 195.06 262.78 199.05 259.89 198.57 258.4 202.08 258.44 196.63"/><polygon class="cls-36" points="271.11 208.38 274.24 210.92 273.76 213.46 269.66 216.49 268.09 210.07 271.11 208.38"/><polygon class="cls-36" points="289.56 203.9 284.49 202.2 284.98 198.09 282.56 197.12 284.01 193.12 285.34 193.6 285.22 195.54 288.35 195.3 289.56 198.33 290.01 200.81 289.56 203.9"/><polygon class="cls-49" points="279.67 209.71 282.8 208.86 282.08 212.25 279.79 211.89 279.67 209.71"/><polygon class="cls-55" points="289.56 198.33 293.66 198.93 291.73 203.9 289.56 203.9 289.56 198.33"/><polygon class="cls-41" points="322.67 190.64 324.71 199.72 326.8 196.4 322.67 190.64"/><polygon class="cls-36" points="326.8 196.4 329.69 200.51 324.71 199.72 326.8 196.4"/><polygon class="cls-42" points="251.57 188.28 234.78 173.73 229.21 173.41 230.15 180 239.57 192.16 251.57 188.28"/><polygon class="cls-41" points="234.78 173.73 230.15 180 225.9 178.51 229.28 169.73 234.78 173.73"/><polygon class="cls-42" points="222.12 167.24 216.84 174.86 218.01 176.51 225.47 173.41 231.18 166.62 222.12 167.24"/><polygon class="cls-65" points="249.61 152.78 227.58 176.69 225.15 174.76 223.78 172.18 249.61 152.78"/><polygon class="cls-53" points="218.92 182.85 218.25 186.44 212.22 187.29 213.55 184.14 216.24 183.48 217.84 182.25 218.92 182.85"/><polygon class="cls-38" points="218.01 176.51 216.24 183.48 222.72 181.96 220.59 178.79 218.01 176.51"/><polygon class="cls-66" points="230.43 173.6 222.72 181.96 218.01 176.51 223.78 172.18 230.43 173.6"/><polygon class="cls-40" points="232.13 177.32 230.43 173.6 225.09 174.23 223.78 172.18 231.18 166.62 234.78 173.73 232.13 177.32"/><polygon class="cls-36" points="311.47 123.59 285.54 117.28 258.53 109.32 258.9 105.42 261.1 99.71 286.79 111.4 311.47 123.59"/><polygon class="cls-37" points="261.1 99.71 288.52 106.53 316.2 115.42 315.02 119 311.47 123.59 261.1 99.71"/><polygon class="cls-48" points="291.55 100.76 294.05 109.1 283.08 105.98 291.55 100.76"/><polygon class="cls-48" points="261.1 99.71 256.72 101.18 251.94 104.67 257.51 113.51 258.74 111 258.53 109.32 261.1 99.71"/><polygon class="cls-36" points="261.1 99.71 261.67 95.21 260.59 89.37 254.99 97.74 251.94 104.67 261.1 99.71"/><polygon class="cls-53" points="260.59 89.37 243.16 99.25 251.94 104.67 260.59 89.37"/><polygon class="cls-38" points="261.1 99.71 260.59 89.37 260.28 83.68 270.94 94.93 270.69 102.44 261.1 99.71"/><polygon class="cls-53" points="263.64 87.54 275.73 79.54 277.82 85.03 278.61 89.37 274.33 93.09 270.27 95.16 263.64 87.54"/><polygon class="cls-36" points="270.27 95.16 278.61 89.37 281.22 95.9 283.08 105.98 270.69 102.44 270.27 95.16"/><polygon class="cls-36" points="275.73 79.54 292.62 88.54 283.38 89.55 278.61 89.37 275.73 79.54"/><polygon class="cls-53" points="278.61 89.37 292.62 88.54 289.65 95.26 283.08 105.98 278.61 89.37"/><polygon class="cls-48" points="318.69 127.03 308.05 129.4 309.72 125.65 311.47 123.59 315 124.45 318.69 127.03"/><polygon class="cls-36" points="283.08 105.98 291.1 101.55 296.1 99.4 299.11 97.12 297.85 92.21 295.83 88.29 294.58 84.92 292.62 88.54 283.08 105.98"/><polygon class="cls-53" points="299.11 97.12 303.72 95.65 308.33 92 309.3 87.2 295.83 88.29 299.11 97.12"/><polygon class="cls-38" points="299.11 97.12 308.33 92 312.96 98.21 309.85 104.27 304.64 112.13 300.35 102.75 299.11 97.12"/><polygon class="cls-38" points="320.42 116.68 322.51 128.86 311.47 123.59 316.2 115.42 318.22 115.31 320.42 116.68"/><polygon class="cls-53" points="312.96 98.21 317.14 103 318.63 106.58 313.65 108.78 304.64 112.13 312.96 98.21"/><polygon class="cls-36" points="312.96 98.21 327.69 103.17 318.63 106.58 312.96 98.21"/><polygon class="cls-36" points="318.63 106.58 326.76 118.58 316.2 115.42 304.64 112.13 318.63 106.58"/><polygon class="cls-53" points="299.11 97.12 304.64 112.13 298.37 120.06 294.05 109.1 291.1 101.55 299.11 97.12"/><polygon class="cls-40" points="258.53 109.32 249.47 146.65 265.94 152.55 268.13 156.47 269.65 161.54 276.74 166.48 282.63 172.61 292.89 153.59 299.88 143.27 305.46 133.79 306.65 129.13 311.47 123.59 258.53 109.32"/><polygon class="cls-41" points="295.2 137.72 298 132.98 302.56 135.35 298.61 137.22 295.2 137.72"/><polygon class="cls-42" points="290.5 117.94 276.15 156.12 270.27 156.09 269.65 161.54 282.63 172.61 291.61 157.34 292.62 154.09 294.28 152.8 299.88 143.27 291.22 138.11 294.06 132.69 289.32 129.9 295.4 119.26 290.5 117.94"/><polygon class="cls-42" points="281.9 123.52 276.86 123.49 271.09 131.35 272.2 122.09 275.39 117.39 281.9 123.52"/><polygon class="cls-42" points="268.78 115.46 266.49 127.72 264.09 119.15 259.93 116.59 268.78 115.46"/><polygon class="cls-38" points="275.39 117.39 283.28 120.36 281.9 123.52 275.39 117.39"/><polygon class="cls-38" points="268.78 115.46 260.66 113.21 259.93 116.59 268.78 115.46"/><polygon class="cls-48" points="272.62 140.06 266.23 135.72 259.39 136.18 264.86 140.3 272.62 140.06"/><polygon class="cls-55" points="257.5 134.97 265.09 139.84 275.21 140.14 264.4 142.83 257.5 134.97"/><polygon class="cls-38" points="295.4 119.26 289.32 129.9 294.06 132.69 296.53 128.66 305.46 133.79 311.47 123.59 295.4 119.26"/><polygon class="cls-41" points="265.94 152.55 279.85 157.41 269.65 161.54 265.94 152.55"/><polygon class="cls-41" points="291.27 141.02 293.39 149.38 297.79 144.51 291.27 141.02"/><polygon class="cls-41" points="284.78 147.13 291.61 157.34 294.25 152.78 291.1 149.38 284.78 147.13"/><path class="cls-48" d="M290.4,137.62l9.48,5.65-5.63,9.52-9.47-5.66,5.62-9.51Zm.87,3.4-3.11,5.25,5.23,3.11,3.1-5.24Z"/><polygon class="cls-55" points="296.31 135.85 298.61 137.22 294.3 144.51 291.99 143.14 296.31 135.85"/><polygon class="cls-43" points="268.78 115.46 275.39 117.39 271.09 131.35 264.61 129.38 268.78 115.46"/><polygon class="cls-41" points="264.61 129.38 266.87 133.62 271.09 131.35 264.61 129.38"/><ellipse class="cls-35" cx="276.48" cy="127.38" rx="2.03" ry="2.04"/><path class="cls-44" d="M260.75,122.83a2,2,0,1,0,2-2A2,2,0,0,0,260.75,122.83Z"/></g><g id="front_rock_copy" data-name="front rock copy"><polygon class="cls-18" points="130.11 220.25 114.86 202.17 164.27 202.24 153.97 228.15 130.11 220.25"/><polygon class="cls-9" points="130.98 321.91 108.21 290.28 114.86 202.17 130.11 220.25 154.08 269.82 130.98 321.91"/><polygon class="cls-15" points="164.21 306.1 130.98 321.91 130.11 220.25 164.27 202.24 180.46 274.61 179.68 289.4 164.21 306.1"/><polygon class="cls-9" points="130.98 321.91 164.18 327.21 171.81 305.24 163.18 280.64 143.58 277.96 130.98 321.91"/><polygon class="cls-15" points="188.93 313.78 164.18 327.21 163.18 280.64 165.31 272.23 180.46 274.61 188.93 313.78"/><polygon class="cls-10" points="157.76 271.6 180.46 274.61 163.18 280.64 143.58 277.96 157.76 271.6"/><polygon class="cls-9" points="756.96 336.1 771.1 287.39 760.23 265.3 757.1 254.01 737.44 259.2 721.92 322.86 756.96 336.1"/><polygon class="cls-67" points="819.53 304.43 756.96 336.1 760.23 265.3 762.6 254.51 773.73 255.39 785.74 254.18 819.53 304.43"/><polygon class="cls-15" points="737.44 259.2 771.1 242.71 785.74 254.18 760.23 265.3 737.44 259.2"/></g><g id="flowers_copy" data-name="flowers copy"><polygon class="cls-68" points="534.52 330.84 545.83 327.01 557.09 331.28 546.81 334.48 534.52 330.84"/><polygon class="cls-27" points="545.31 332.16 543.3 315.19 548.69 314.86 546.46 332.49 545.31 332.16"/><polygon class="cls-22" points="532.99 314.04 547.88 321.92 559.98 313.54 544.28 306.81 532.99 314.04"/><polygon class="cls-50" points="545.75 311.41 542.23 313.38 546.57 316.09 548.61 313.63 545.75 311.41"/><polygon class="cls-68" points="510.48 287.9 515.98 286.04 521.47 288.12 516.46 289.68 510.48 287.9"/><polygon class="cls-27" points="515.73 288.54 514.75 280.28 517.38 280.12 516.29 288.7 515.73 288.54"/><polygon class="cls-22" points="509.73 279.72 516.98 283.56 522.87 279.48 517.3 276.92 509.73 279.72"/><polygon class="cls-50" points="516.98 278.78 515.27 279.74 517.38 281.06 518.37 279.86 516.98 278.78"/><polygon class="cls-68" points="565.81 307.04 573.09 304.57 580.33 307.32 573.72 309.38 565.81 307.04"/><polygon class="cls-27" points="572.75 307.88 571.46 296.96 574.93 296.75 573.49 308.1 572.75 307.88"/><polygon class="cls-22" points="564.82 296.22 572.02 301.58 582.19 295.91 573.21 291.64 564.82 296.22"/><polygon class="cls-50" points="573.03 294.53 570.77 295.8 573.56 297.55 575.6 296.01 573.03 294.53"/><polygon class="cls-68" points="331.69 324.15 339.23 321.6 346.72 324.44 339.88 326.57 331.69 324.15"/><polygon class="cls-27" points="338.88 325.03 337.54 313.73 341.13 313.51 339.64 325.25 338.88 325.03"/><polygon class="cls-22" points="330.68 312.96 338.34 318.72 348.65 312.64 338.19 308.15 330.68 312.96"/><polygon class="cls-50" points="339.17 311.21 336.83 312.53 338.41 314.79 341.08 312.69 339.17 311.21"/><polygon class="cls-68" points="345.85 280.14 351.56 278.21 357.25 280.36 352.06 281.98 345.85 280.14"/><polygon class="cls-27" points="351.3 280.8 350.28 272.24 353.01 272.07 351.88 280.97 351.3 280.8"/><polygon class="cls-22" points="345.08 271.66 352.6 275.64 358.7 271.41 352.49 269.31 345.08 271.66"/><polygon class="cls-50" points="352.4 271.16 349.8 271.91 351.99 273.27 353.79 272.03 352.4 271.16"/><polygon class="cls-68" points="616.96 329.34 628.58 325.4 640.13 329.79 629.58 333.07 616.96 329.34"/><polygon class="cls-27" points="628.04 330.69 625.97 313.26 631.51 312.93 629.22 331.02 628.04 330.69"/><polygon class="cls-22" points="615.39 312.08 630.67 320.18 643.1 311.58 630.45 307.31 615.39 312.08"/><polygon class="cls-50" points="630.28 311.07 624.99 312.59 629.44 315.37 633.11 312.84 630.28 311.07"/><polygon class="cls-68" points="298.15 292.78 305.82 290.18 313.47 293.08 306.49 295.25 298.15 292.78"/><polygon class="cls-27" points="305.47 293.68 304.1 282.16 307.77 281.94 306.25 293.9 305.47 293.68"/><polygon class="cls-22" points="297.11 281.38 304.88 288.73 315.43 281.04 306.38 278.15 297.11 281.38"/><polygon class="cls-50" points="306.82 280.65 303.6 282.77 305.44 285 308.77 282.16 306.82 280.65"/><polygon class="cls-68" points="264.14 320.36 275.18 316.63 286.16 320.79 276.14 323.91 264.14 320.36"/><polygon class="cls-27" points="274.67 321.64 272.7 305.09 277.97 304.77 275.79 321.96 274.67 321.64"/><polygon class="cls-22" points="262.65 303.97 273.56 311.66 288.98 303.49 278.61 295.96 262.65 303.97"/><polygon class="cls-50" points="276.54 300.93 273.1 302.85 275.52 305.94 279.33 303.09 276.54 300.93"/></g></g></svg>