<svg xmlns="http://www.w3.org/2000/svg" viewBox="0 0 900 350"><defs><style>.a{fill:#dcdcdb;}.b{fill:#ebebea;}.c{fill:#cfcfcd;}.d{fill:#dddddc;}.e,.q{fill:#2b2b2b;}.e{opacity:0.1;}.ac,.f{fill:#72cbcb;}.g{fill:#a2a1a1;}.h{fill:#318ea5;}.i{fill:#3a9fb9;}.j{fill:#debca4;}.k{fill:#c2977a;}.l{fill:#8a6651;}.m{fill:#e8c9b6;}.n{fill:#4f5353;}.o{fill:#474748;}.p{fill:#6f7273;}.r{fill:#c3c3c3;}.ab,.s{fill:#369395;}.t{fill:#50a8a9;}.u{fill:#74cee4;}.v{fill:#92d5d5;}.w{fill:#5ebfd8;}.x{fill:#9b9fa0;}.y{fill:#848585;}.z{fill:#28788b;}.aa{fill:#737474;}.ab,.ac,.ad{fill-rule:evenodd;}.ad{fill:#185e60;}.ae{fill:#cecdcc;}.af,.ag{fill:#fff;}.ag{opacity:0.3;}.ah{fill:#8e8e8e;}</style></defs><title>sentinels_Logistician_ISTJ_introduction</title><polygon class="a" points="479.5 12.5 565.5 22.75 660.25 14.75 566.25 0 479.5 12.5"/><polygon class="b" points="566 7 526.75 11.75 565.5 17.25 613.75 14 566 7"/><polygon class="c" points="518.34 100.84 563.75 39.25 899.58 11.75 890.25 279.25 561.75 242.25 518.34 100.84"/><polygon class="d" points="563.75 39.25 561.75 242.25 8.25 297.25 0 0 563.75 39.25"/><polygon class="e" points="111.05 71 74.9 50.17 68.49 111.25 117.71 109.45 116.94 74.33 111.05 71"/><polygon class="b" points="122.01 51.99 122.58 105.55 73.94 107.66 74.9 50.17 122.01 51.99"/><polygon class="a" points="89.11 58.87 108.97 59.1 109.03 61.85 88.93 61.39 89.11 58.87"/><polygon class="a" points="80.5 87.33 117.48 87.56 117.58 90.31 80.18 89.85 80.5 87.33"/><polygon class="f" points="81.05 83.14 81.63 65.17 116.62 65.45 117.2 84.59 81.05 83.14"/><polygon class="b" points="83.84 79.78 84.51 68.53 113.45 68.63 113.83 81.51 83.84 79.78"/><polygon class="f" points="82.2 77.38 91.63 73.05 99.7 76.22 106.24 73.34 115.66 78.34 115.37 83.53 82.39 81.89 82.2 77.38"/><polygon class="a" points="80.7 95.76 117.67 95.99 117.78 98.73 80.38 98.28 80.7 95.76"/><polygon class="e" points="517.07 91.36 480.92 70.53 474.51 131.61 523.74 129.81 522.97 94.69 517.07 91.36"/><polygon class="b" points="528.5 73.25 528.61 125.91 479.96 128.02 480.92 70.53 528.5 73.25"/><polygon class="a" points="495.13 79.23 515 79.46 515.05 82.21 494.96 81.75 495.13 79.23"/><polygon class="a" points="486.53 107.69 523.5 107.92 523.61 110.66 486.21 110.21 486.53 107.69"/><polygon class="a" points="486.65 98.69 523.63 98.92 523.74 101.66 486.33 101.21 486.65 98.69"/><polygon class="a" points="486.78 89.69 523.75 89.92 523.86 92.66 486.46 92.21 486.78 89.69"/><polygon class="a" points="486.72 116.12 523.7 116.34 523.8 119.09 486.4 118.64 486.72 116.12"/><polygon class="e" points="191.25 66.25 160.42 50.85 154.58 162.25 237.58 157.92 237.25 75.92 191.25 66.25"/><polygon class="g" points="169.46 59.59 234.85 61.26 235.56 134.17 164.19 133.26 169.46 59.59"/><polyline class="h" points="176.58 117.65 171.47 129.52 172.48 137.08 227.53 133.09 214.94 117.18"/><polygon class="i" points="187.47 114.4 176.58 117.65 177.23 142.94 213.19 138.43 214.94 117.18 210.36 115.02 187.47 114.4"/><polygon class="j" points="219.66 80.37 218.84 113.14 208.81 112.87 200.42 116.89 190.02 116.94 185.73 109.83 182.26 87.03 189.79 75.67 205.21 72.98 213.72 79.28 219.66 80.37"/><polygon class="k" points="192.68 75.27 195.58 80.02 195.66 112.58 201.39 118.76 198.68 127.11 184.09 115.44 183.32 102.27 183.51 97.85 183.09 97.63 182.33 88.24 189.79 75.67 192.68 75.27"/><polygon class="k" points="200.96 89.72 207.62 98.51 211.34 98.63 216.48 90.2 214.7 89.13 211.31 89.81 210.79 90.74 208.24 90.67 207.77 89.68 202.69 87.92 200.96 89.72"/><polygon class="l" points="183.09 97.63 187.82 96.96 183.32 102.27 183.09 97.63"/><polygon class="l" points="186.47 93.52 186.25 90.59 183.58 91.03 186.47 93.52"/><polygon class="m" points="208.24 90.67 207.62 98.51 211.34 98.63 210.79 90.74 208.24 90.67"/><polygon class="l" points="211.34 98.63 209.27 100.51 207.62 98.51 211.34 98.63"/><polygon class="n" points="207.31 73.02 202.77 71.64 198.13 72.08 197.12 72.99 193.36 72.53 186.9 73.14 187.85 76.65 191.72 80.59 195.58 80.02 201.35 77.22 204.23 78.77 211.4 80.72 207.31 73.02"/><polygon class="o" points="186.9 73.14 182.1 80.75 182.41 89.44 185.93 86.62 187.74 86.37 188.67 92.13 190.66 92.18 193.5 86.84 190.89 84.61 191.72 80.59 186.9 73.14"/><polygon class="p" points="219.66 80.53 215.97 74.7 202.77 71.64 211.4 80.72 219.66 80.53"/><polygon class="n" points="191.72 80.59 182.41 89.44 193.5 86.84 191.72 80.59"/><polygon class="p" points="204.23 78.77 198.13 72.08 193.36 72.53 195.58 80.02 204.23 78.77"/><polygon class="o" points="200.96 89.72 200.53 88.42 202.01 86.52 207.69 88.54 207.77 89.68 202.75 88.46 200.96 89.72"/><polygon class="o" points="211.31 89.81 211.36 88.75 216.62 87.9 216.48 90.2 211.31 89.81"/><path class="q" d="M203.87,92A1.26,1.26,0,0,0,205,93.36a1.31,1.31,0,0,0,1.43-1.14,1.26,1.26,0,0,0-1.18-1.37A1.3,1.3,0,0,0,203.87,92Z"/><path class="q" d="M212.17,92.51a1.27,1.27,0,0,0,1.18,1.37,1.32,1.32,0,0,0,1.43-1.15,1.26,1.26,0,0,0-1.18-1.36A1.31,1.31,0,0,0,212.17,92.51Z"/><polygon class="l" points="208.81 112.87 191.43 112.4 198.68 127.11 208.81 112.87"/><polygon class="p" points="200.95 104.81 207.62 98.51 209.32 100.22 211.34 98.63 215.57 105.5 200.95 104.81"/><path class="b" d="M160.42,50.85l.7,104.8,82.4-4.4-.49-96Zm71.84,77.29-60.79,1.38-.05-66.93,61.29,2Z"/><polygon class="r" points="181.23 136.77 179.14 140.98 177.53 138.97 176.07 140.92 174.39 136.31 170.94 137.55 174.7 146.68 178.14 144.76 180.5 146.69 185 137.37 181.23 136.77"/><path class="r" d="M187.45,137l-4.15,9.38,3.5,1,1.37-2.7,2.39.08,1.5,2.5,3-1.85-4.84-8.56Zm.87,5.31.44-1.86,1.48,1.81Z"/><polygon class="r" points="203.45 140.77 199.12 136.37 196.46 136.63 196.81 146.25 200.02 145.97 199.7 141.2 203.42 145.55 206.28 145.28 206.42 136.34 203.49 136.33 203.45 140.77"/><polygon class="r" points="208.18 138.62 210.84 138.69 210.84 144.63 213.57 144.64 213.23 138.5 216.51 138.56 216.66 135.97 208.26 136.16 208.18 138.62"/><polygon class="r" points="220.95 140.81 223.18 140.6 222.91 138.78 220.68 138.84 220.51 137.38 223.72 137.24 223.47 135.54 217.95 135.94 218.42 144.33 224.9 144.11 224.95 142.33 221.1 142.26 220.95 140.81"/><path class="r" d="M230.57,135.72l-4.71-.51.36,8.8,4.7-.1,2-2,.19-2.74Zm-.2,5.67-2,.11v-3.68l1.76.5,1.29,1.27Z"/><polygon class="e" points="850.25 64.25 857.75 90.25 857.75 218.75 620.25 200.75 618.25 184.75 763.75 93.25 850.25 64.25"/><polygon class="s" points="829.58 68.25 842.75 57.75 850.25 62.92 848.58 205.25 841.75 207.75 829.58 68.25"/><polygon class="t" points="607.25 70.75 607.25 189.75 841.75 207.75 842.75 57.75 607.25 70.75"/><polygon class="b" points="620.25 83.75 619.5 177.75 825.5 191.25 825.75 75.75 620.25 83.75"/><polygon class="e" points="761.75 170.83 761.75 176.58 786 178.58 786.5 146.92 761.75 170.83"/><polygon class="e" points="765.75 111.42 788.5 100.67 789.17 134.17 761.92 134 762.67 113.25 765.75 111.42"/><polygon class="e" points="700.33 153.42 700.58 161.25 727.58 162.75 726 131 700.33 153.42"/><polygon class="e" points="660.64 124.25 671.54 111.58 672.84 146.4 646.1 145.62 649.74 127.36 660.64 124.25"/><polygon class="a" points="646.16 112.51 642.93 142.96 670.85 144.81 671.54 111.58 646.16 112.51"/><polygon class="u" points="649.22 116.03 647.84 129.59 657.35 135.49 667.34 125.13 667.74 115.51 649.22 116.03"/><polygon class="a" points="760 100.67 759.25 132.17 787.25 132.42 788.5 100.67 760 100.67"/><polygon class="a" points="759 146.42 786.5 146.92 784.25 176.67 758.5 174.42 759 146.42"/><polygon class="a" points="698.5 130.5 726 131 726.08 160.33 698 158.5 698.5 130.5"/><polygon class="a" points="682.5 92.25 751.75 90.25 751.5 97 682.5 98.25 682.5 92.25"/><polygon class="v" points="701.75 133.92 701.92 156.08 722.25 157.58 722.42 134.67 701.75 133.92"/><polygon class="v" points="762.94 103.98 762.69 129.35 773.58 125.54 784.06 129.6 785.13 103.73 762.94 103.98"/><polygon class="u" points="761.88 149.48 761.5 171.85 771.88 169.21 781.06 173.35 782.94 149.85 761.88 149.48"/><polygon class="w" points="656.91 122.31 649.34 128.31 651.03 128.41 650.94 129.81 647.84 129.59 646.66 140.28 666.81 141.5 667.34 125.13 656.91 122.31"/><polygon class="u" points="655.28 126.16 655.03 129.59 659 129.66 658.97 126.22 655.28 126.16"/><polygon class="w" points="656.75 125.44 656.69 130.56 657.31 130.53 657.41 125.34 656.75 125.44"/><polygon class="w" points="654.53 127.56 660.22 127.72 660.16 128.44 654.5 128.13 654.53 127.56"/><polygon class="f" points="705.63 142.06 717.69 142.91 720.69 151.13 716.28 152 715.38 148.56 712.38 148.44 711.38 146.16 703.13 145.5 703.13 141.09 704.88 141.25 705.63 142.06"/><polygon class="f" points="715.22 143.78 716.25 142.06 717.81 142.28 717.69 142.91 715.22 143.78"/><polygon class="v" points="712.94 146.28 713.31 147.53 715.41 147.56 714.38 145.94 712.94 146.28"/><polygon class="f" points="775.75 109.46 770.88 109.58 767.67 113.92 769.83 119.04 770.92 119.21 770.92 120.33 764.33 123.25 762.69 129.35 784.06 129.6 782.75 122.67 776.75 120.42 776.67 118.75 777.79 118.54 778.71 113.25 775.75 109.46"/><polygon class="w" points="774.29 154.92 769.13 154.75 767.33 157.71 767.04 162.63 765.38 163.63 769.04 165.5 769.08 166.21 764.13 167.21 761.5 171.85 781.06 173.35 779.25 168.42 774.17 166.5 774.17 165.96 778.13 164.54 775.96 162.79 775.83 157.29 774.29 154.92"/><polygon class="a" points="711.58 101.75 711.42 110.58 678.06 110.63 677.75 113.58 753.75 114.92 753.56 110.69 715.25 110.58 714.92 101.58 711.58 101.75"/><polygon class="a" points="773.58 135.92 773.58 143.75 775.58 143.92 775.92 135.75 773.58 135.92"/><polygon class="a" points="753.75 126.25 740.25 126.58 739.58 138.42 728.25 138.42 728.33 142.67 743.25 142.25 744.5 130.17 753.75 129.83 753.75 126.25"/><polygon class="e" points="868.58 310.58 836.25 299.25 740.58 297.25 666.68 308.41 447.25 266.25 138.25 297.75 394.25 349.67 611.75 330 726.25 346.58 868.58 310.58"/><polygon class="x" points="277.92 279.92 290.92 290.92 309.92 286.92 316.25 253.92 344.58 255.92 354.92 303.25 377.92 294.92 370.25 242.92 275.58 238.25 277.92 279.92"/><polygon class="y" points="275.25 201.25 267.92 208.58 269.92 287.92 290.92 290.92 297.58 265.75 329.42 269.42 333.42 298.92 355.42 302.75 359.25 275.25 331.58 244.25 275.25 201.25"/><polygon class="y" points="297.58 127.58 272.92 116.58 254.33 125.08 267.92 208.58 305.58 207.25 297.58 127.58"/><polygon class="x" points="272.92 116.58 286.5 203.5 341 199.75 345.75 116 325.5 118 272.92 116.58"/><polygon class="s" points="362.5 149.59 374.76 136.94 390.64 142.91 408.42 159.92 408.25 173.92 362.88 164.38 362.5 149.59"/><polygon class="j" points="407.01 45.92 383.88 42.29 369.42 43.04 360.13 35.46 344.78 29.73 345.68 39.06 351.04 44.82 343.52 53.06 340.91 63.25 340.08 76.6 343.29 88.74 340.16 87.97 336.87 89.47 337.08 83.4 335.64 73.24 326.94 71.98 320.58 73.3 323.45 89.7 326.57 98.72 324.91 103.79 326.33 111.56 327.65 115.35 326.14 118.32 333.71 128.09 346.8 139.99 352.67 137.23 356.63 132.73 360.25 123.04 391.38 127.67 399.09 92.28 402.81 86.27 404.69 73.93 403.21 69.67 407.01 45.92"/><polygon class="k" points="357.1 36.38 355.32 61.74 351.91 84.56 347.5 120.89 360.25 123.04 357.42 127.27 356.63 132.73 346.8 139.99 325.78 118.34 324.76 103.11 325 90.28 336.87 89.47 336.38 83.05 337.56 77.78 341.16 80.88 340.91 63.25 344.4 54.07 351.04 44.82 346.99 38.3 344.78 29.73 352.91 33.28 357.1 36.38"/><polygon class="l" points="325 90.28 336.87 89.47 324.76 103.11 323.46 95.17 325 90.28"/><polygon class="l" points="360.25 123.04 342.15 119.97 346.8 139.99 353.13 137.23 356.63 132.73 360.25 123.04"/><polygon class="k" points="357.92 80.08 362.34 70.97 372.31 72.19 373.12 83.6 351.91 84.56 371.68 89.72 374.11 94.33 378.89 65.71 359.96 68.2 356.03 73.39 357.92 80.08"/><polygon class="k" points="390.02 84.67 393.29 76.56 402.59 76.96 404.47 79.08 400.08 89.63 383.11 89.61 382.52 92.86 399.09 92.28 405.03 84.13 405.96 72.35 389.22 70.99 385.95 83.55 390.02 84.67"/><polygon class="l" points="374.11 94.33 377.27 99.16 382.04 95.82 374.11 94.33"/><polygon class="m" points="378.15 71.35 385.99 72.46 382.04 95.82 374.11 94.33 378.15 71.35"/><polygon class="z" points="378.15 71.35 377.45 68.19 378.89 65.71 386.85 66.97 388.12 70.12 385.99 72.46 378.15 71.35"/><path class="h" d="M378.89,65.71l-23.57-4-2.14,8.31.12,5.63-1.39,8.88,23.29,3.52,2.95-16.73ZM360,68.2h0l12.65,2.11-2,11.8-12.74-2Z"/><path class="h" d="M386.85,67,410,70.82l-3.86,22.53-23-3.74L386,72.46Zm5,6.66h0L390,84.68l10.94,2,1.87-11.26Z"/><polygon class="l" points="361.96 105.22 385.03 109.01 384.75 110.84 361.65 107.1 361.96 105.22"/><polygon class="l" points="332.41 85.68 331.15 75.66 325.89 76.03 332.41 85.68"/><polygon class="a" points="407.01 45.92 368.07 25.79 367.49 35.71 369.42 43.04 407.01 45.92"/><polygon class="r" points="344.78 29.73 334.35 30.67 325.67 47.36 336.84 48.23 351.04 44.82 344.78 29.73"/><polygon class="a" points="325.67 47.36 310.52 75.69 326.94 71.98 340.96 66.17 351.04 44.82 325.67 47.36"/><polygon class="g" points="341.18 67.73 342.67 82.58 336.38 83.05 335.58 72.64 322.05 74.42 324.9 89.78 324.76 103.11 311.05 75.49 318.7 73 341.18 67.73"/><polygon class="r" points="369.42 43.04 368.07 25.79 344.78 29.73 369.42 43.04"/><polygon class="z" points="355.32 61.74 318.7 73 318.98 81.87 322.05 74.42 353.88 71.68 355.32 61.74"/><polygon class="l" points="341.77 72.68 353.88 71.68 353.72 72.87 353.3 75.68 341.94 75.36 341.77 72.68"/><polygon class="aa" points="335.64 73.24 341.77 72.68 341.94 75.36 335.77 75.33 335.64 73.24"/><path class="q" d="M370.25,78.09a2.37,2.37,0,1,1-1.38-3A2.37,2.37,0,0,1,370.25,78.09Z"/><path class="q" d="M399.54,83.29a2.31,2.31,0,0,1-3,1.38,2.32,2.32,0,1,1,1.62-4.35A2.29,2.29,0,0,1,399.54,83.29Z"/><path class="ab" d="M363.56,106c-6.34-5.21-8.66,9.7-8.79.88a1.84,1.84,0,0,0-.85-1.76c-2.2-1.67-8.11-1.69-10,1.53-1.66,2.88.91,11.77,7,11.45,5.79-.31,6.61-10.69,10.53-11,.48,0,.55-.56,1.1-.38Z"/><path class="ac" d="M365.07,105.73a4.79,4.79,0,0,0-6.88.39c.62.36.89,1.43,1.09,2.41a4.25,4.25,0,0,1,1.84-1.17,3.72,3.72,0,0,1,1.77,0Z"/><path class="ad" d="M352.62,105.82c-1.6-.79-5.08-.87-6.55.47-1.29,1.18-1.46,1.91-.69,2.24,1.37.59,5.51.84,6.84.18C353.93,107.86,354,106.52,352.62,105.82Z"/><polygon class="a" points="325.78 118.34 321.84 128.29 342.82 144.09 351.74 148.43 359.76 141.65 364.96 132.31 359.13 125.98 350.62 135.07 325.78 118.34"/><polygon class="r" points="364.96 132.31 374.76 136.94 364.4 151.84 353 163.43 330.52 149.08 312.01 133.74 321.84 128.29 351.74 148.43 364.96 132.31"/><polygon class="z" points="312.01 133.74 344.31 157.13 348.4 159 353 163.43 366.67 208.75 336.33 208 331.75 194.44 305.44 184.21 302.48 138.38 312.01 133.74"/><polygon class="z" points="353 163.43 355.64 158.47 360.56 154.21 374.76 136.94 371.98 193.49 359.85 203.44 352.46 199.5 347.83 180.85 353 163.43"/><polygon class="n" points="350.62 135.07 343.77 143.04 351.74 148.43 358.36 140.48 350.62 135.07"/><polygon class="aa" points="351.74 148.43 344.31 157.13 353 163.43 360.56 154.21 351.74 148.43"/><polygon class="s" points="372.08 193.2 349.98 206.48 305.44 184.21 304 216.81 369.77 225.94 372.08 193.2"/><polygon class="i" points="600.53 266.56 590.25 308.25 568.02 303.73 539.2 227.14 575.62 229.97 600.53 266.56"/><polygon class="h" points="214.22 263.09 232.35 308.37 249.65 305.98 267.68 251.73 222.74 239.91 214.22 263.09"/><polygon class="w" points="366.7 289.26 392.2 333.24 415.69 330.4 421.08 287.25 580.25 268.42 590.25 308.25 609.63 305.8 612.05 220.51 361.34 233.44 366.7 289.26"/><polygon class="i" points="207.59 218.32 211.81 305.17 232.35 308.37 237.58 264.25 361.92 285.92 365.66 329.11 392.2 333.24 392.64 252.62 207.59 218.32"/><polygon class="r" points="363.75 194.85 392.64 252.62 634.75 229.03 634.28 208.21 363.75 194.85"/><polygon class="x" points="354.13 203.28 187.43 202.07 187.43 221.33 392.64 252.62 393.24 231.56 354.13 203.28"/><polygon class="ae" points="187.43 202.07 451.21 183.62 634.28 208.21 393.24 231.56 187.43 202.07"/><polygon class="e" points="348.38 189.75 355.25 190.13 395.13 187.5 337.88 200.55 304.88 193.75 321.75 192.75 348.38 189.75"/><polygon class="f" points="403.27 163.43 408.25 173.92 443.08 143.75 394.42 152.75 403.27 163.43"/><polygon class="h" points="394.75 131.73 386.91 153.18 394.1 155.51 400.13 135.11 394.75 131.73"/><polygon class="k" points="390.04 153.38 390.64 142.91 403.49 147.69 403.27 163.43 400.33 163.43 390.04 153.38"/><polygon class="j" points="367.97 173.01 378.13 157.3 390.64 142.91 400.33 163.43 385.16 172.25 367.97 173.01"/><polygon class="s" points="378.13 157.3 345.05 171.09 323 179.66 337.88 200.55 385.16 172.25 378.13 157.3"/><polygon class="f" points="302.48 138.38 340.41 172.91 337.88 200.55 293.85 178.79 302.48 138.38"/><path class="af" d="M396.12,128.9c.2.19.41.37.62.54Z"/><path class="ag" d="M397.87,130.18a12.74,12.74,0,0,0,4.25,1.15,10.74,10.74,0,0,0,6.55-1.39,19.31,19.31,0,0,0,7.94-12.48c1.1-6.37-1.93-12.61-7.1-15.31s-11.05,1.55-11.05,1.55h0a17.44,17.44,0,0,0-6.29,9.81c-1.48,6.06.23,12,3.95,15.39Z"/><path class="i" d="M407.82,96.38c-9.17-2.11-18.76,5-21.44,15.94s2.59,21.47,11.76,23.58,18.75-5,21.43-15.94S417,98.49,407.82,96.38Zm-11.7,32.52c.2.19.41.37.62.54Zm20.49-11.44a19.31,19.31,0,0,1-7.94,12.48,10.74,10.74,0,0,1-6.55,1.39,12.74,12.74,0,0,1-4.25-1.15l-1.75-1.28c-3.72-3.43-5.43-9.33-3.95-15.39a17.44,17.44,0,0,1,6.29-9.81s5.87-4.26,11.05-1.55S417.71,111.09,416.61,117.46Z"/><path class="h" d="M408.63,101.27a12.26,12.26,0,0,0-10.17,2.43,11.38,11.38,0,0,1,8.62-1.62c6.65,1.53,10.47,9.19,8.53,17.11s-8.91,13.09-15.55,11.56a10.44,10.44,0,0,1-3.94-1.85,11.17,11.17,0,0,0,5.08,2.72c7,1.62,14.41-3.86,16.46-12.24S415.67,102.89,408.63,101.27Z"/><path class="ag" d="M408,105s3.46.79,5.29,5.25.63,6.63.63,6.63-2.5-6.09-4.17-7.75a8.28,8.28,0,0,0-2.79-2Z"/><polygon class="b" points="417.59 86.93 401.28 155.77 446.13 153.02 462.25 90.82 417.59 86.93"/><polygon class="j" points="447.32 128.09 455.13 118.41 456.8 131.88 448.34 144.8 447.32 128.09"/><polygon class="k" points="438.19 124.32 455.13 118.41 448.34 144.8 439.05 140.11 438.19 124.32"/><polygon class="e" points="426.42 200.5 412.33 203.83 437.67 210.58 453.22 203.54 426.42 200.5"/><polygon class="e" points="403.08 206.67 386.17 207.17 409.75 217.58 428.42 211.08 403.08 206.67"/><polygon class="e" points="372.06 211.44 362.13 212.38 371.92 222.25 372.06 211.44"/><path class="e" d="M546.25,197.58c1.33,0,34,6.34,34,6.34l-61.67,9.33-87.83-17.67,60.17-4.66Z"/><polygon class="b" points="386.17 207.17 411.67 215 433.5 210.67 407.67 204 386.17 207.17"/><polygon class="b" points="383.5 207.75 399.42 219.08 371.92 222.25 364.5 210.25 383.5 207.75"/><polygon class="b" points="411.71 201.85 436.84 208.63 453.22 203.54 427.81 198.46 411.71 201.85"/><polygon class="u" points="386.47 211.94 393.53 217.78 373.38 220.34 370.44 215.97 377 209.91 386.47 211.94"/><polygon class="u" points="412.46 206.5 401.36 206.22 402 210.29 411.44 213.13 426.63 210.25 412.46 206.5"/><polygon class="u" points="435.08 200.96 425.77 199.95 428.67 205 436.13 207 447.88 203.56 435.08 200.96"/><polygon class="b" points="535.19 194.43 562.42 194.43 562.08 202.91 518.5 207.85 497.02 192.51 535.19 194.43"/><polygon class="t" points="466.73 195.86 456.32 188.94 515.63 187.52 562.42 194.43 518.7 198.84 466.73 195.86"/><polygon class="a" points="456.32 188.94 518.7 198.84 518.5 207.85 455.75 196.8 456.32 188.94"/><polygon class="b" points="535.19 184.07 562.42 184.07 562.08 192.56 518.5 197.5 497.02 182.15 535.19 184.07"/><polygon class="t" points="466.73 185.51 456.32 178.59 515.63 177.17 562.42 184.07 518.7 188.48 466.73 185.51"/><polygon class="a" points="456.32 178.59 518.7 188.48 518.5 197.5 455.75 186.45 456.32 178.59"/><polygon class="b" points="535.19 173.72 562.42 173.72 562.08 182.2 518.5 187.14 497.02 171.79 535.19 173.72"/><polygon class="t" points="466.73 175.15 456.32 168.23 503.35 165.18 562.42 173.72 518.7 178.13 466.73 175.15"/><polygon class="a" points="456.32 168.23 518.7 178.13 518.5 187.14 455.75 176.09 456.32 168.23"/><polygon class="w" points="386.47 211.94 383.78 214.88 379.03 214.16 376.66 216.16 370.44 215.97 367.28 211.25 382.94 209.09 386.47 211.94"/><polygon class="w" points="412.33 208.42 413.13 208.71 414.88 208.88 416.04 210.13 412.92 211.75 411.21 210.96 411.29 209.46 409.92 209.04 406.42 210.58 402 210.29 392.81 207.5 407.81 205.25 412.46 206.5 412.29 207.46 411.75 207.92 412.33 208.42"/><polygon class="w" points="435.21 200.96 434.17 201.67 432.92 201.38 432.33 201.75 436.54 203.46 435 204.92 432.17 203.88 431.33 205.08 429.29 204.04 428.67 205 417.09 201.91 427.91 199.47 435.21 200.96"/><polygon class="e" points="117.58 292.92 176.58 308.08 91.58 325.92 8.25 296.92 6.58 234.58 49.92 213.92 117.58 292.92"/><polygon class="f" points="111.75 242.25 159.25 210.58 112.58 195.92 32.75 202.25 94.75 250.75 111.75 242.25"/><polygon class="t" points="57.25 272.25 93.75 317 158.25 306.58 159.25 210.58 93.75 215.75 57.25 272.25"/><polygon class="s" points="30.75 300.75 93.75 317 93.75 215.75 32.75 202.25 30.75 300.75"/><polygon class="f" points="105.25 238.58 104.92 306.25 148.92 299.75 149.08 234.25 105.25 238.58"/><polygon class="f" points="104.92 231.08 104.75 223.75 148.75 219.25 148.75 226.58 104.92 231.08"/><polygon class="t" points="111 270.25 130.5 268 130.38 271.5 111.25 274.13 111 270.25"/><ellipse class="t" cx="140.44" cy="266.5" rx="5.38" ry="8.06"/><ellipse class="f" cx="140.44" cy="266.5" rx="3.94" ry="6.44"/><path class="t" d="M143.66,266.5c0,3-1.44,5.44-3.22,5.44s-3.22-2.44-3.22-5.44,1.44-5.44,3.22-5.44S143.66,263.5,143.66,266.5Z"/><rect class="t" x="140.19" y="259.29" width="0.65" height="14.1"/><rect class="t" x="140.19" y="260.5" width="0.65" height="11.7" transform="translate(229.52 -21.34) rotate(45.01)"/><rect class="t" x="140.19" y="261.54" width="0.65" height="9.6" transform="translate(406.85 125.83) rotate(90)"/><rect class="t" x="140.19" y="260.7" width="0.65" height="11.28" transform="translate(428.2 355.32) rotate(135)"/><polygon class="i" points="109.93 140.71 107.03 142.72 105.07 150.54 106.38 153.75 109.91 143.3 109.93 140.71"/><polygon class="i" points="93.05 148.03 93.05 151.29 97.42 167.75 97.77 158.96 96.31 149.72 93.05 148.03"/><polygon class="s" points="110.59 155.79 105.07 150.54 102.33 161.61 109.42 168.19 113.76 158.41 110.59 155.79"/><polygon class="t" points="105.07 150.54 125.89 163.97 112.13 163.48 105.07 150.54"/><polygon class="s" points="88 164.66 97.77 158.96 103.2 173.62 97.77 176.6 93.45 173.22 88 164.66"/><polygon class="t" points="110.23 168.97 102.33 161.61 97.86 173.91 102.81 175.79 105.23 173.37 110.23 168.97"/><polygon class="ah" points="93.6 181.21 97.86 173.91 105.23 173.37 110.46 185.57 98.11 194 93.16 187.75 93.6 181.21"/><polygon class="y" points="91.56 190.66 86.48 185.14 93.45 173.22 97.86 173.91 96.51 185.77 91.56 190.66"/><polygon class="e" points="101.25 200.38 128.08 207.08 96.17 210.08 65.13 203.13 101.25 200.38"/><polygon class="y" points="92.15 199.72 97.47 206.5 106.97 205.72 110.46 185.57 96.51 185.77 92.15 199.72"/><polygon class="aa" points="90.11 204.76 86.48 185.14 96.51 185.77 97.47 206.5 90.11 204.76"/><polygon class="f" points="116.39 176.03 113.31 158.78 102.33 161.61 116.39 176.03"/><polygon class="t" points="82.03 179.95 85.19 154.52 97.77 158.96 82.03 179.95"/><polygon class="h" points="87.19 139.04 83.28 124.18 92.27 123.79 97.35 135.65 93.05 148.03 87.19 139.04"/><polygon class="w" points="90.7 147.38 93.18 145.42 92.27 123.79 101 132 99.17 141.12 95.27 147.77 90.7 147.38"/><polygon class="i" points="92.14 148.03 85.62 144.9 77.93 140.47 83.28 124.18 93.18 145.81 92.14 148.03"/><polygon class="u" points="93.18 145.42 85.62 144.9 93.05 151.29 96.31 149.72 99.17 141.12 93.18 145.42"/><polygon class="w" points="93.18 145.42 85.62 144.9 93.05 151.29 96.31 149.72 93.18 145.42"/><polygon class="h" points="109.21 131.88 110.25 121.32 119.98 124.46 117.48 134.66 108.62 140.6 109.21 131.88"/><polygon class="w" points="107.42 139.03 109.98 138.97 119.98 124.46 121.5 138 115.99 139.11 110.19 141.52 107.42 139.03"/><polygon class="i" points="108.03 140.15 105.33 134.93 102.5 128.29 110.25 121.32 109.79 139.22 108.03 140.15"/><polygon class="u" points="109.98 138.97 105.33 134.93 107.03 142.72 109.91 143.3 115.99 139.11 109.98 138.97"/><polygon class="w" points="109.98 138.97 105.33 134.93 107.03 142.72 109.98 138.97"/><polygon class="y" points="863.58 290.25 805 289.25 836.25 299.25 863.58 290.25"/><polygon class="x" points="791.5 280 815 299.25 836.25 299.25 802.25 275.75 791.5 280"/><polygon class="x" points="716.5 264.75 707.25 234.25 769 249.88 767.5 270.13 716.5 264.75"/><polygon class="y" points="728.63 258.63 754.92 262.08 769 249.88 780.25 255.38 776.5 276.13 722.13 283.38 728.63 258.63"/><polygon class="n" points="785.63 283.5 792 303.5 775.75 301 750.88 308 740.25 286.38 745.13 272.5 763.25 268.42 785.63 283.5"/><polygon class="x" points="776.88 308.63 766.75 312.25 773 320.25 785.88 318 787.63 311.88 776.88 308.63"/><polygon class="aa" points="784.67 299.25 775.75 301 766.75 312.25 787.63 311.88 787.25 308.83 784.67 299.25"/><polygon class="y" points="671 297.88 660.13 287.75 643.75 310.42 661.33 318.17 669.92 309.25 671 297.88"/><polygon class="n" points="646.42 312.67 661.33 307.17 661.33 318.17 641.17 317.83 646.42 312.67"/><path class="s" d="M680.42,267.25l-12-5.37-8.25,25.87,9.79,21.5,22.16,13s12.67-16.83,12-17.5S680.42,267.25,680.42,267.25Z"/><polygon class="p" points="691.42 321.75 683.25 333.25 667.58 329.92 661.33 318.17 669.92 309.25 691.42 321.75"/><polygon class="y" points="689.25 293.58 689.92 309.08 669.92 309.25 683.25 333.25 701.63 321.25 704.25 300.92 689.25 293.58"/><path class="t" d="M707.13,295.38c-.63,0-27.71-3.88-27.71-3.88l-11-29.62L682.5,245.5,719.25,265Z"/><polygon class="v" points="725.63 256 707.25 234.25 682.5 245.5 707.75 266.75 733.13 274.5 725.63 256"/><polygon class="f" points="741.5 284 745.13 272.5 754.92 262.08 707.25 234.25 729.13 267.88 741.5 284"/><polygon class="y" points="743.17 312.83 718.92 320.25 701.63 321.25 689.92 309.08 679.42 291.5 723.63 292.88 743.17 312.83"/><polygon class="n" points="716.92 298.75 701.63 321.25 689.92 309.08 679.42 291.5 723.63 292.88 716.92 298.75"/><polygon class="p" points="734.5 300.5 716.92 298.75 689.5 292.88 689.13 290.88 708.88 275 734.5 300.5"/><polygon class="y" points="736.88 278.75 729.13 267.88 707.75 266.75 695.75 278.44 700.63 282.88 707.17 279.92 728.38 297.13 743.5 303.13 736.88 278.75"/><polygon class="x" points="752 293.25 755.92 289.58 745.13 272.5 729.13 267.88 738 297.94 748.75 305.13 752 293.25"/><polygon class="aa" points="751.83 312.75 755.92 289.58 752.42 292.42 744.63 297.88 741.08 299.75 738 297.94 727.42 294.58 716.92 298.75 733.17 306.75 751.83 312.75"/><polygon class="ah" points="739.58 323.33 734.58 327.75 718.92 320.25 725.17 314.5 737.83 316.33 739.58 323.33"/><polygon class="g" points="737.75 306.67 733.17 306.75 725.17 314.5 731.92 317.67 747.42 318.08 748.08 311.75 737.75 306.67"/><polygon class="x" points="751.33 316.5 757.75 317.5 759.83 323.42 753.33 328.08 734.58 327.75 731.92 317.67 744 314.67 751.33 316.5"/><polygon class="x" points="749.83 309.83 748.83 315.75 744 314.67 733.17 306.75 738 297.94 749.83 309.83"/><polygon class="ae" points="755.19 313.56 756.42 311.75 744.63 297.88 738 297.94 746.56 312.5 755.19 313.56"/><polygon class="n" points="746.56 312.5 744 314.67 745.67 319.25 754.25 320.42 757.75 317.5 756.42 311.75 746.56 312.5"/><polygon class="o" points="751.73 320.07 752.13 317.56 748.5 315.75 745.67 319.25 751.73 320.07"/><polygon class="o" points="756.31 315.21 754.98 317.31 755.47 319.42 757.75 317.5 756.31 315.21"/><path class="q" d="M730.92,297a3,3,0,1,1-3-3A3,3,0,0,1,730.92,297Z"/><path class="q" d="M753.94,296.06a3,3,0,1,1-3-3A3,3,0,0,1,753.94,296.06Z"/><polygon class="x" points="695.75 278.44 679.42 291.5 693.88 301.63 707.17 279.92 695.75 278.44"/><polygon class="p" points="638.75 303.17 661.33 307.17 647.92 321.92 632.25 316.33 638.75 303.17"/><polygon class="x" points="780.25 255.38 763.25 268.42 794.75 300.75 802.25 275.75 794.42 260.92 780.25 255.38"/><polygon class="y" points="787.25 308.83 775.75 301 802.25 275.75 815 299.25 787.25 308.83"/><polygon class="s" points="754.92 262.08 752.42 284.17 745.13 272.5 754.92 262.08"/></svg>