<svg xmlns="http://www.w3.org/2000/svg" viewBox="0 0 900 350"><defs><style>.cls-1{fill:#ececeb;}.cls-2{fill:#dddddc;}.cls-3{fill:#fff;}.cls-4{fill:#f4d75d;}.cls-5{fill:#b58b00;}.cls-6{fill:#ccad14;}.cls-29,.cls-31,.cls-7{fill:#2b2b2b;}.cls-19,.cls-7{fill-opacity:0.1;}.cls-8{fill:#755800;}.cls-9{fill:#9e7700;}.cls-10{fill:#8f8f8f;}.cls-11{fill:#e5c828;}.cls-12{fill:#737373;}.cls-13{fill:#856400;}.cls-14{fill:#a3a3a3;}.cls-15{fill:#c4c4c4;}.cls-16{fill:#4f5253;}.cls-17{fill:#858686;}.cls-18{fill:#6f7173;}.cls-20{fill:#8d7c2f;}.cls-21{fill:#bc8f2d;}.cls-22{fill:#bf8f00;}.cls-23{fill:#dfbda5;}.cls-24{fill:#c3987b;}.cls-25{fill:#c09c84;}.cls-26{fill:#a77e62;}.cls-27{fill:#8b6651;}.cls-28{fill:#474747;}.cls-30{fill:#e8cab6;}.cls-31{fill-opacity:0.2;}.cls-32{fill:#9da1a2;}.cls-33{fill:#cececd;}.cls-34{fill:#7f5d4e;}.cls-35{fill:#a27e6e;}.cls-36{fill:#593e35;}.cls-37{fill:#aa8d80;}.cls-38{fill:#d0af96;}.cls-39{fill:#efd3c2;}.cls-40{fill:#a9846c;}</style></defs><title>explorers_Virtuoso_ISTP_introduction</title><g id="illustration_copy" data-name="illustration copy"><g id="Layer_1"><g id="_371852336" data-name=" 371852336"><polygon class="cls-1" points="8.88 37.8 52.8 0 178.13 9.18 197.87 44.69 227.87 49.58 262.61 16.68 389.63 6.73 472.73 55.25 430.64 128.86 406.46 127.02 344.18 143.55 366.21 123.81 366.21 123.81 353.2 122.89 239.96 114.32 224.81 61.37 193.28 59.38 129.31 91.36 46.37 88.46 8.88 37.8"/><polygon class="cls-2" points="415.8 51.73 407.23 38.11 398.66 52.34 415.8 51.73"/><polygon class="cls-3" points="365.29 36.73 346.93 93.35 398.5 108.5 400.49 94.58 407.23 38.11 365.29 36.73"/><polygon class="cls-4" points="350.91 32.44 350.91 80.96 385.5 83.1 389.78 30.15 350.91 32.44"/><path class="cls-5" d="M355.81,67.34l24.94.3-.15,2.61-24.79-.31Zm-.16-21.89,24.8.31-.16,2.6-24.79-.31Zm0,7.35,24.8.3v2.61l-24.8-.31Zm.16,7.19,24.79.31-.15,2.75-24.8-.3Z"/><polygon class="cls-6" points="402.48 62.9 404.01 66.88 399.27 68.1 402.02 81.26 414.27 80.35 414.57 85.86 403.25 86.62 404.17 91.36 409.52 90.91 409.83 95.19 415.64 94.27 414.57 90.45 419.47 90.14 419.01 74.68 405.54 76.21 404.63 71.01 415.64 69.02 413.96 64.28 408.14 65.81 407.99 61.83 402.48 62.9"/><polygon class="cls-7" points="50.81 61.52 79.73 76.52 102.99 74.07 121.82 77.28 137.27 57.08 61.83 46.98 52.64 49.74 50.81 61.52"/><path class="cls-8" d="M101.31,68.25l6.89-2.44s-5.36-3.83-5.67-4c-.3,1.53-1.22,6.42-1.22,6.42Z"/><path class="cls-8" d="M71.93,56.47l7-2.6s-5.51-3.83-5.67-4c-.46,1.53-1.37,6.58-1.37,6.58Z"/><polygon class="cls-6" points="137.27 57.08 136.81 49.74 133.6 44.84 122.12 47.14 114.78 55.86 114.78 64.28 116.46 69.17 137.27 57.08"/><polygon class="cls-9" points="136.35 44.23 114.78 55.86 107.13 54.48 103.76 50.96 113.25 43.77 125.49 41.17 136.35 44.23"/><polygon class="cls-8" points="123.96 42.09 107.58 50.66 114.78 54.02 132.53 44.38 123.96 42.09"/><polygon class="cls-10" points="118.6 30.91 122.28 36.42 103.76 50.96 99.01 44.53 97.64 39.48 108.04 32.44 118.6 30.91"/><polygon class="cls-11" points="93.66 23.57 118.6 30.91 97.64 39.48 84.32 36.73 72.54 30.45 93.66 23.57"/><polygon class="cls-6" points="60.45 35.2 72.54 30.45 70.09 38.41 64.58 37.8 60.45 35.2"/><polygon class="cls-5" points="116.46 69.17 61.83 46.98 60.45 35.2 67.33 36.73 72.54 30.45 97.64 39.48 103.76 50.96 114.78 55.86 116.46 69.17"/><polygon class="cls-4" points="136.81 49.74 132.07 52.95 131.3 46.98 136.35 44.23 136.81 49.74"/><polygon class="cls-4" points="121.05 52.49 121.66 58.77 115.54 62.59 114.78 55.86 121.05 52.49"/><path class="cls-12" d="M99.63,49.58,95.8,41.17l-11.32-4L84,43.31ZM82,36.42l-8.11-3.06-4.75,4.29,12.7,4.74Z"/><path class="cls-13" d="M98.25,56.93c-2.6,0-4.13,2.6-3.52,5.82.46,3.06,3.06,5.66,5.51,5.66,2.6,0,4.13-2.6,3.52-5.66-.46-3.22-3.06-5.82-5.51-5.82Z"/><path class="cls-11" d="M98.86,60.76c-.92,0-1.38.76-1.22,2,.3,1.07,1.07,2,2,2s1.37-.92,1.22-2c-.31-1.23-1.07-2-2-2Z"/><path class="cls-13" d="M68.87,45c-2.61,0-4.14,2.6-3.52,5.82.61,3.06,3.06,5.66,5.66,5.66,2.45,0,4-2.6,3.52-5.66C73.92,47.59,71.31,45,68.87,45Z"/><path class="cls-11" d="M69.48,48.82c-.77,0-1.38.76-1.07,2a2.12,2.12,0,0,0,1.83,2c.92,0,1.38-.92,1.23-2a2.13,2.13,0,0,0-2-2Z"/><polygon class="cls-11" points="130.69 33.52 115.39 40.4 105.59 51.73 125.49 41.17 135.28 32.29 130.69 33.52"/><polygon class="cls-6" points="115.69 41.32 105.59 51.73 103.76 50.96 114.93 39.79 134.06 31.07 135.28 32.29 115.69 41.32"/><polygon class="cls-14" points="136.35 44.23 131.3 35.96 130.08 37.03 134.98 44.99 136.35 44.23"/><polygon class="cls-3" points="264.29 38.56 312.96 35.81 315.25 84.78 268.27 85.4 264.29 38.56"/><path class="cls-2" d="M269,43.62l.76,4.59,39-2.91-.15-4.74Zm.76,9.18,3.52,27.55,37.34.3L309.59,50Z"/><path class="cls-14" d="M279.29,58l7-1.07,2.14,3.37-3.37,3.82,4.6,1.38-2,9-7.5-.92.15-3.21,4.74.3.46-2.9L279.9,66l4.29-5.66-4.44.76Zm14.54-1.22-3.06,6,1.83,10.4,7.5.46,1.07-7h-2.9l-.46,4.13-2.3-.45-1.38-6.59,2-3.52,2.45,4-.3,2.45h2.9l.46-3.21-3.06-6Z"/><path class="cls-14" d="M305.76,68.71,309,65.5l4.13,1.68-2.76,5.21Zm4.29-5.66,7.35-15.3L323.82,52l-9.49,12.71Z"/></g><polygon class="cls-1" points="0 308.07 130.69 350 381.82 322.3 294.59 284.96 212.87 271.34 79.88 288.02 0 308.07"/><polygon class="cls-2" points="158.7 146.15 52.64 152.43 104.06 169.41 182.57 164.98 203.54 155.03 158.7 146.15"/><polygon class="cls-7" points="61.52 327.81 157.93 328.57 209.2 297.51 79.88 288.02 0 308.07 61.52 327.81"/><polygon class="cls-2" points="158.09 268.43 381.82 322.3 401.72 281.29 158.09 268.43"/><polygon class="cls-2" points="656.67 255.27 655.45 350 900 306.23 870.46 280.52 656.67 255.27"/><polygon class="cls-15" points="401.72 281.29 384.42 322.45 666.93 350 671.06 254.96 401.72 281.29"/><path class="cls-7" d="M403.09,281.13l84.63,19,83.56-22-28.46-10.56ZM821,292l-160.38-4.9-55.09-25.71,51.27-5.05Z"/><g id="_454443496" data-name=" 454443496"><polygon class="cls-15" points="512.82 212.88 443.04 218.08 502.87 235.22 564.85 222.82 512.82 212.88"/><polygon class="cls-10" points="455.13 243.03 452.06 266.29 455.28 280.37 466.14 278.84 471.35 247.16 464.61 242.26 455.13 243.03"/><polygon class="cls-14" points="537.76 245.47 545.42 278.84 556.74 281.29 558.88 274.86 552.92 244.56 537.76 245.47"/><polygon class="cls-14" points="443.04 218.08 438.29 277.77 455.28 280.37 460.79 245.47 481.3 248.84 483.9 285.11 502.87 288.63 510.83 251.44 502.87 228.79 443.04 218.08"/><polygon class="cls-10" points="502.87 228.79 502.87 288.63 515.88 286.49 520.63 250.22 550.31 246.7 557.05 280.98 571.28 278.07 564.85 222.82 502.87 228.79"/></g><g id="_454443976" data-name=" 454443976"><polygon class="cls-16" points="507.16 166.05 513.43 163.44 520.63 180.74 514.35 183.34 507.16 166.05"/><polygon class="cls-17" points="525.06 161.76 497.82 173.09 497.98 187.63 529.81 175.08 525.06 161.76"/><polygon class="cls-18" points="497.98 187.63 505.78 189.31 535.01 178.44 531.64 174.31 528.43 174.31 497.98 187.63"/><polygon class="cls-16" points="526.9 194.82 520.63 180.74 514.35 183.34 520.32 197.88 524.3 199.41 526.9 194.82"/><polygon class="cls-18" points="525.06 161.76 528.28 161.76 532.72 162.07 535.01 178.44 528.43 174.31 525.06 161.76"/><polygon class="cls-19" points="494.3 318.48 545.72 306.84 627.6 317.71 561.03 331.64 494.3 318.48"/><polygon class="cls-13" points="587.35 262.46 588.57 298.27 581.38 301.94 568.22 305.93 557.05 280.06 567.3 269.96 587.35 262.46"/><polygon class="cls-20" points="565.47 299.5 588.42 292.31 588.57 298.27 580.77 304.39 568.22 305.93 565.47 299.5"/><polygon class="cls-8" points="588.57 298.27 602.19 313.88 586.12 315.72 568.22 313.88 568.22 305.93 588.57 298.27"/><rect class="cls-21" x="568.16" y="313.85" width="34.07" height="3.7" transform="translate(-0.52 0.97) rotate(-0.1)"/><polygon class="cls-9" points="557.05 280.06 545.72 306.84 540.52 307.76 522.46 308.07 526.29 264.3 546.03 265.83 557.05 280.06"/><polygon class="cls-22" points="587.35 262.46 557.05 280.06 526.29 264.3 545.26 262.62 587.35 262.46"/><polygon class="cls-11" points="539.14 188.85 567 191.6 580.62 244.4 584.14 253.13 538.23 252.82 527.21 255.12 527.21 246.55 539.14 188.85"/><polygon class="cls-22" points="526.9 194.82 539.14 188.85 544.8 223.13 538.07 223.13 530.57 207.06 526.9 194.82"/><polygon class="cls-22" points="527.21 246.55 561.49 225.89 581.38 231.55 585.51 253.59 555.37 256.95 526.9 252.36 527.21 246.55"/><polygon class="cls-6" points="589.64 216.86 586.89 222.67 581.38 231.55 574.65 218.85 571.43 200.94 574.03 194.21 580.46 196.66 589.64 216.86"/><polygon class="cls-13" points="585.51 253.59 570.82 253.43 567.15 255.88 562.56 253.28 526.9 252.36 526.29 264.3 563.17 263.23 567.15 260.32 571.43 262.92 587.35 262.46 585.51 253.59"/><polygon class="cls-6" points="562.56 253.28 563.17 263.23 571.43 262.92 570.82 253.43 562.56 253.28"/><polygon class="cls-23" points="591.17 136.36 591.63 158.4 588.88 179.36 571.28 183.49 562.56 191.91 549.7 191.3 539.14 188.85 533.17 172.17 528.28 161.76 523.38 149.67 522 130.69 539.45 138.19 564.7 137.43 570.97 129.32 577.55 136.2 591.17 136.36"/><polygon class="cls-24" points="545.11 138.81 546.49 160.84 541.59 164.06 536.69 161.3 535.01 152.43 539.6 152.27 539.45 138.96 545.11 138.81"/><polygon class="cls-24" points="566.38 159.77 559.19 147.38 545.11 138.81 566.54 135.9 566.38 159.77"/><polygon class="cls-24" points="577.86 156.1 589.49 136.36 574.8 134.67 577.86 156.1"/><polygon class="cls-25" points="591.63 158.4 528.28 161.76 547.71 191.3 555.06 193.13 572.2 184.11 592.25 182.88 591.63 158.4"/><polygon class="cls-26" points="546.49 160.84 548.17 185.48 554.14 187.78 559.5 202.62 539.14 188.85 531.34 169.72 531.18 166.05 528.28 161.76 536.69 161.3 546.49 160.84"/><polygon class="cls-27" points="572.2 184.11 545.11 185.64 559.5 202.62 572.2 184.11"/><polygon class="cls-27" points="536.69 161.3 531.34 169.72 528.28 161.76 536.69 161.3"/><polygon class="cls-27" points="581.23 167.43 557.97 167.27 565.01 176.45 576.02 176.3 581.23 167.43"/><polygon class="cls-27" points="566.38 159.77 572.5 163.6 577.86 159.16 572.2 158.85 566.38 159.77"/><polygon class="cls-28" points="545.11 138.81 565.47 143.55 565.31 137.89 557.2 137.58 545.11 138.81"/><polygon class="cls-28" points="577.4 143.4 577.1 136.97 582.6 135.9 589.49 136.36 577.4 143.4"/><polygon class="cls-28" points="539.45 138.96 539.6 152.27 535.01 152.43 533.79 146 523.38 149.67 515.88 131.15 529.5 132.53 539.45 138.96"/><polygon class="cls-27" points="526.9 151.66 530.88 150.44 533.02 158.09 526.9 151.66"/><polygon class="cls-9" points="538.99 115.08 530.27 114.78 522.46 116.16 518.79 122.74 515.88 131.15 530.57 121.97 538.99 115.08"/><polygon class="cls-13" points="522.46 116.16 545.26 105.44 565.47 98.56 589.18 113.25 561.64 115.54 538.99 115.08 531.64 115.54 522.46 116.16"/><polygon class="cls-22" points="565.47 98.56 530.27 99.17 522.46 116.16 565.47 98.56"/><polygon class="cls-9" points="522.46 116.16 512.36 105.44 498.28 116.77 509.61 117.53 522.46 116.16"/><polygon class="cls-22" points="498.28 116.77 477.47 133.91 507.31 122.74 522.46 116.16 498.28 116.77"/><polygon class="cls-8" points="477.47 133.91 515.88 131.15 522.46 116.16 477.47 133.91"/><polygon class="cls-11" points="538.99 115.08 600.97 112.79 601.89 135.9 577.1 136.97 570.97 129.32 565.31 137.89 539.45 138.96 538.23 125.19 538.99 115.08"/><polygon class="cls-28" points="545.72 120.44 568.52 119.52 561.03 131.77 546.03 132.23 545.72 120.44"/><polygon class="cls-28" points="595.77 118.45 572.96 119.22 581.38 130.85 596.38 130.39 595.77 118.45"/><polygon class="cls-6" points="539.45 138.96 515.88 131.15 538.99 115.08 539.45 138.96"/><path class="cls-29" d="M584.87,144.71a2.82,2.82,0,1,1-3,2.64A2.81,2.81,0,0,1,584.87,144.71Z"/><polygon class="cls-30" points="570.97 129.32 577.1 136.97 577.86 159.16 566.38 159.77 565.31 137.89 570.97 129.32"/><polygon class="cls-6" points="518.48 224.66 509.61 203.08 526.9 194.82 538.07 223.13 530.88 228.64 518.48 224.66"/><polygon class="cls-11" points="544.35 239.2 527.21 246.55 518.48 224.66 538.07 223.13 544.19 230.78 544.35 239.2"/><polygon class="cls-23" points="559.8 220.84 538.07 223.13 544.35 239.2 563.02 231.09 564.24 226.04 559.8 220.84"/><polygon class="cls-5" points="574.03 194.21 567 191.6 567 209.2 570.52 211.65 576.02 210.12 574.03 194.21"/><polygon class="cls-27" points="559.8 220.84 580.16 210.58 567 209.2 559.8 220.84"/><polygon class="cls-24" points="563.02 231.09 581.38 231.55 579.85 216.86 586.12 209.05 584.14 204.77 559.8 220.84 563.02 231.09"/><polygon class="cls-8" points="545.72 306.84 549.09 315.57 520.17 316.18 522.46 308.07 537.61 304.09 545.72 306.84"/><polygon class="cls-6" points="520.17 320 549.24 320.16 549.09 315.57 520.17 316.18 520.17 320"/><polygon class="cls-22" points="548.48 300.11 523.23 299.34 522.46 308.07 545.72 306.84 548.48 300.11"/><polygon class="cls-24" points="614.74 219.31 619.95 205.84 615.81 197.27 608.16 206.3 606.78 212.72 614.74 219.31"/><polygon class="cls-24" points="581.38 231.55 591.94 210.28 601.73 209.66 601.58 217.47 596.38 238.89 581.38 231.55"/><polygon class="cls-27" points="591.94 210.28 608.16 206.3 614.74 219.31 601.58 217.47 591.94 210.28"/><polygon class="cls-9" points="580.92 277.31 587.96 281.59 588.27 287.71 579.39 289.4 576.02 275.93 580.92 277.31"/><polygon class="cls-5" points="587.65 273.33 587.96 281.59 576.02 275.93 587.65 273.33"/><path class="cls-29" d="M560.51,146.37a2.82,2.82,0,1,1-3,2.64A2.82,2.82,0,0,1,560.51,146.37Z"/><polygon class="cls-3" points="578.63 168.65 561.33 168.65 566.08 174.92 575.11 174.62 578.63 168.65"/></g><polygon class="cls-1" points="528.12 0 530.73 0 371.88 350 369.27 350 528.12 0"/><polygon class="cls-14" points="101.16 180.89 108.04 277.15 195.58 270.42 204.15 263.23 225.88 177.37 202.01 168.65 101.16 180.89"/><polygon class="cls-10" points="88.45 229.25 77.89 271.19 108.04 277.15 115.23 271.95 111.1 187.63 88.45 229.25"/><polygon class="cls-6" points="23.26 292.61 19.89 292.15 19.13 285.57 25.86 273.33 29.23 272.56 30.15 275.01 23.72 286.03 24.48 290.62 23.26 292.61"/><polygon class="cls-6" points="40.71 279.6 41.01 289.24 37.95 292.61 37.8 295.37 40.86 295.52 44.84 291.23 44.69 281.29 43 278.53 40.71 279.6"/><polygon class="cls-5" points="35.05 273.63 31.22 283.27 34.59 284.96 37.49 278.23 35.05 273.63"/><polygon class="cls-6" points="69.78 280.21 75.29 289.24 73 293.53 74.38 296.74 76.82 295.21 79.88 288.02 74.22 279.3 70.7 278.38 69.78 280.21"/><polygon class="cls-10" points="25.86 273.33 31.52 224.36 64.58 226.04 67.18 262.31 51.27 283.89 25.86 273.33"/><polygon class="cls-14" points="51.27 283.89 79.58 278.23 93.05 228.79 64.58 226.04 51.27 283.89"/><polygon class="cls-14" points="31.52 224.36 21.27 189.16 46.22 188.7 75.14 206.14 62.9 233.23 31.52 224.36"/><polygon class="cls-15" points="59.84 200.18 62.9 233.23 112.94 225.89 111.1 187.63 92.13 183.95 59.84 200.18"/><polygon class="cls-15" points="52.64 152.43 21.27 189.16 59.84 200.18 85.55 181.2 101.16 162.22 52.64 152.43"/><polygon class="cls-2" points="101.16 162.22 59.84 200.18 111.1 187.63 114.32 174.31 101.16 162.22"/><polygon class="cls-9" points="19.89 292.15 24.48 290.62 25.1 295.21 20.35 296.74 19.89 292.15"/><polygon class="cls-9" points="37.95 292.61 40.86 295.52 37.8 298.58 34.74 296.13 37.95 292.61"/><polygon class="cls-9" points="73 293.53 76.82 295.21 74.99 299.34 70.86 297.51 73 293.53"/><polygon class="cls-6" points="220.83 153.65 219.15 151.2 212.41 150.28 203.54 155.03 203.54 159.77 207.52 159.01 214.86 155.03 218.23 155.64 220.83 153.65"/><polygon class="cls-9" points="219.15 151.2 218.23 155.64 222.67 156.56 223.43 151.81 219.15 151.2"/><polygon class="cls-6" points="232.61 173.09 232.15 170.03 226.49 166.35 215.47 166.97 214.4 171.1 218.23 172.17 226.65 171.71 229.4 173.85 232.61 173.09"/><polygon class="cls-9" points="232.15 170.03 229.4 173.85 233.07 176.45 235.83 172.32 232.15 170.03"/><polygon class="cls-15" points="101.16 162.22 111.1 187.63 225.88 177.37 203.54 155.03 160.84 153.04 125.18 160.54 101.16 162.22"/><polygon class="cls-10" points="122.43 191.15 120.59 193.44 121.82 199.41 123.81 200.94 128.09 194.51 122.43 191.15"/><polygon class="cls-12" points="120.59 193.44 118.3 196.2 121.82 199.41 124.57 195.74 120.59 193.44"/><polygon class="cls-10" points="140.03 189.62 138.19 191.45 139.11 197.42 140.64 199.1 145.23 193.44 140.03 189.62"/><polygon class="cls-12" points="138.19 191.45 135.74 194.05 139.11 197.42 141.86 193.59 138.19 191.45"/><polygon class="cls-10" points="158.09 188.54 156.1 190.99 157.01 196.04 158.85 197.88 162.52 192.22 158.09 188.54"/><polygon class="cls-12" points="156.1 190.99 154.26 193.13 157.01 196.04 159.46 192.83 156.1 190.99"/><polygon class="cls-10" points="175.53 187.01 173.69 189.16 175.07 194.36 176.75 196.04 180.12 190.84 175.53 187.01"/><polygon class="cls-12" points="173.69 189.16 171.86 191.3 175.07 194.36 177.37 191.15 173.69 189.16"/><polygon class="cls-3" points="188.23 194.82 181.35 197.88 184.87 199.87 188.23 194.82"/><polygon class="cls-3" points="187.16 178.14 184.25 181.2 189.92 183.34 187.16 178.14"/><polygon class="cls-3" points="197.11 196.66 199.1 204.15 202.31 200.94 197.11 196.66"/><polygon class="cls-3" points="191.29 200.63 188.39 207.83 193.28 206.3 191.29 200.63"/><g id="_454437424" data-name=" 454437424"><polygon class="cls-16" points="327.19 158.09 320.61 156.1 315.41 174 321.83 176 327.19 158.09"/><polygon class="cls-17" points="308.82 155.64 337.29 163.91 338.67 178.44 305.61 169.41 308.82 155.64"/><polygon class="cls-18" points="338.67 178.44 331.01 181.04 300.87 173.24 303.62 168.96 306.84 168.5 338.67 178.44"/><polygon class="cls-16" points="310.66 188.7 315.41 174 321.83 176 317.55 191.15 313.72 193.13 310.66 188.7"/><polygon class="cls-18" points="308.82 155.64 305.76 156.1 301.33 156.86 300.87 173.24 306.84 168.5 308.82 155.64"/><polygon class="cls-19" points="350.76 318.48 298.57 308.99 217.46 317.71 286.18 332.86 350.76 318.48"/><polygon class="cls-13" points="257.71 262.46 256.49 298.27 263.68 301.94 276.99 305.93 288.01 280.06 277.76 269.96 257.71 262.46"/><polygon class="cls-20" points="279.6 299.5 256.64 292.31 256.49 298.27 264.29 304.39 276.99 305.93 279.6 299.5"/><polygon class="cls-8" points="256.49 298.27 242.87 313.88 258.94 315.72 276.99 313.88 276.99 305.93 256.49 298.27"/><rect class="cls-21" x="258.03" y="298.67" width="3.7" height="34.07" transform="translate(-56.26 575.06) rotate(-89.9)"/><polygon class="cls-9" points="288.01 280.06 299.49 306.84 304.54 307.76 322.6 308.07 318.77 264.3 299.03 265.83 288.01 280.06"/><polygon class="cls-22" points="257.71 262.46 288.01 280.06 318.77 264.3 299.8 262.62 257.71 262.46"/><polygon class="cls-11" points="297.81 184.11 271.33 195.28 262.45 243.79 260.01 252.82 305.61 247.62 316.78 248.69 315.87 240.12 297.81 184.11"/><polygon class="cls-22" points="310.66 188.7 297.81 184.11 295.82 218.85 302.55 218.08 308.21 201.25 310.66 188.7"/><polygon class="cls-22" points="315.87 240.12 279.6 223.44 263.37 233.38 259.55 253.28 305.61 248.84 316.63 246.85 315.87 240.12"/><polygon class="cls-31" points="284.49 238.13 275 246.55 260.16 250.22 261.38 244.1 278.52 228.64 297.35 233.38 315.87 240.12 284.49 238.13"/><polygon class="cls-6" points="255.57 212.72 251.13 215.94 255.11 222.37 263.37 233.38 261.23 219 259.55 213.64 255.57 212.72"/><polygon class="cls-16" points="280.67 218.08 275 246.55 261.38 244.1 267.05 215.17 280.67 218.08"/><polygon class="cls-13" points="259.55 253.28 273.17 251.75 277.61 254.66 281.43 250.68 316.63 246.85 318.77 264.3 282.04 263.07 278.52 260.63 273.78 262.92 257.71 262.46 259.55 253.28"/><polygon class="cls-6" points="281.43 250.68 282.04 263.07 273.78 262.92 273.17 251.75 281.43 250.68"/><polygon class="cls-23" points="240.42 137.43 242.25 159.47 247.31 179.97 265.21 182.27 274.85 189.62 287.71 187.78 297.81 184.11 301.94 166.97 305.76 156.1 309.28 143.55 308.67 124.57 292.14 133.91 266.89 135.75 259.85 128.4 253.88 135.9 240.42 137.43"/><polygon class="cls-24" points="286.48 134.98 287.4 157.02 292.6 159.77 297.35 156.56 297.96 147.53 293.52 147.84 292.14 134.52 286.48 134.98"/><polygon class="cls-24" points="267.5 158.09 273.47 145.08 286.48 134.98 264.9 134.52 267.5 158.09"/><polygon class="cls-24" points="255.88 155.64 242.1 137.43 256.49 134.06 255.88 155.64"/><polygon class="cls-25" points="242.25 159.47 305.76 156.1 297.81 184.11 289.54 187.47 282.35 190.07 271.33 195.28 267.66 187.17 264.44 183.03 244.4 183.8 242.25 159.47"/><polygon class="cls-26" points="287.4 157.02 288.47 181.81 282.66 184.72 281.58 191.45 284.64 198.03 297.81 184.11 303.47 164.21 303.32 160.54 305.76 156.1 297.35 156.56 287.4 157.02"/><polygon class="cls-27" points="264.44 183.03 291.53 181.66 284.64 198.03 277.76 199.72 271.33 195.28 264.44 183.03"/><polygon class="cls-27" points="297.35 156.56 303.47 164.21 305.76 156.1 297.35 156.56"/><polygon class="cls-27" points="258.17 166.97 278.98 168.8 278.83 170.79 258.02 168.96 258.17 166.97"/><polygon class="cls-27" points="267.5 158.09 261.84 162.53 256.03 158.7 261.84 157.94 267.5 158.09"/><polygon class="cls-28" points="286.48 134.98 266.74 141.87 266.44 136.36 274.24 135.13 286.48 134.98"/><polygon class="cls-28" points="254.96 142.94 254.5 136.51 248.84 136.05 242.1 137.43 254.96 142.94"/><polygon class="cls-28" points="292.14 134.52 293.52 147.84 297.96 147.53 298.57 140.95 309.28 143.55 314.79 124.27 301.48 127.02 292.14 134.52"/><polygon class="cls-27" points="306.07 145.85 301.94 144.93 300.71 152.89 306.07 145.85"/><polygon class="cls-9" points="290.15 110.8 298.73 109.58 306.53 110.03 310.97 116.31 314.79 124.27 299.18 116.77 290.15 110.8"/><polygon class="cls-13" points="306.53 110.03 282.81 101.92 262 97.18 239.96 114.32 267.5 113.71 290.15 110.8 297.5 110.49 306.53 110.03"/><polygon class="cls-22" points="262 97.18 297.04 94.12 306.53 110.03 262 97.18"/><polygon class="cls-9" points="306.53 110.03 315.56 98.4 330.71 108.2 319.54 110.03 306.53 110.03"/><polygon class="cls-22" points="330.71 108.2 353.2 122.89 322.44 114.93 306.53 110.03 330.71 108.2"/><polygon class="cls-8" points="353.2 122.89 314.79 124.27 306.53 110.03 353.2 122.89"/><polygon class="cls-11" points="290.15 110.8 228.18 115.08 229.71 138.19 254.5 136.51 259.85 128.4 266.44 136.36 292.14 134.52 291.99 120.75 290.15 110.8"/><polygon class="cls-28" points="284.03 116.77 261.23 118.3 269.95 129.62 284.95 128.55 284.03 116.77"/><polygon class="cls-28" points="233.99 120.29 256.79 118.61 249.6 131 234.76 132.07 233.99 120.29"/><polygon class="cls-6" points="292.14 134.52 314.79 124.27 290.15 110.8 292.14 134.52"/><path class="cls-29" d="M247.62,145.12a2.82,2.82,0,1,0,3.25,2.31A2.82,2.82,0,0,0,247.62,145.12Z"/><polygon class="cls-30" points="259.85 128.4 254.5 136.51 256.03 158.7 267.5 158.09 266.28 136.36 259.85 128.4"/><polygon class="cls-6" points="322.14 217.62 328.72 195.13 310.66 188.7 302.55 218.08 310.2 222.82 322.14 217.62"/><polygon class="cls-11" points="298.11 234.76 315.87 240.12 322.14 217.62 302.55 218.08 297.19 226.34 298.11 234.76"/><polygon class="cls-23" points="280.67 218.08 302.55 218.08 298.11 234.76 278.52 228.64 276.84 223.9 280.67 218.08"/><polygon class="cls-24" points="278.52 228.64 263.37 233.38 264.9 221.14 267.05 215.17 272.4 214.56 280.67 218.08 278.52 228.64"/><polygon class="cls-27" points="263.37 233.38 257.4 224.81 255.57 212.72 261.08 212.57 267.05 215.17 263.37 233.38"/><polygon class="cls-8" points="299.34 306.84 295.97 315.57 324.89 316.18 322.6 308.07 307.45 304.09 299.34 306.84"/><polygon class="cls-6" points="324.89 320 295.82 320.16 295.97 315.57 324.89 316.18 324.89 320"/><polygon class="cls-22" points="296.58 300.11 321.83 299.34 322.6 308.07 299.49 306.84 296.58 300.11"/><polygon class="cls-24" points="237.51 220.38 228.79 215.78 227.26 206.76 234.91 212.11 237.51 220.38"/><polygon class="cls-12" points="284.64 198.03 231.39 186.86 228.94 196.5 227.26 206.76 280.67 218.08 284.64 198.03"/><polygon class="cls-16" points="231.39 186.86 224.04 192.52 222.67 196.2 222.51 199.72 227.26 206.76 231.39 186.86"/><polygon class="cls-28" points="224.04 192.52 216.39 190.84 217 194.82 219.15 198.95 222.51 199.72 224.04 192.52"/><polygon class="cls-12" points="216.39 190.84 210.12 189.46 210.42 193.13 212.87 197.57 219.15 198.95 216.39 190.84"/><polygon class="cls-28" points="210.12 189.46 204 188.09 204.91 192.06 206.6 196.2 212.87 197.57 210.12 189.46"/><polygon class="cls-12" points="204 188.09 198.03 186.86 198.64 190.53 200.63 194.97 206.6 196.2 204 188.09"/><polygon class="cls-28" points="198.03 186.86 192.06 185.48 194.66 193.59 200.48 194.82 198.03 186.86"/><polygon class="cls-24" points="263.37 233.38 247.61 211.04 237.82 211.5 237.51 220.38 246.23 239.97 263.37 233.38"/><polygon class="cls-27" points="247.61 211.04 237.66 208.44 227.26 206.76 237.51 220.38 247.61 211.04"/><polygon class="cls-23" points="247.61 211.04 242.71 199.72 229.55 195.74 227.26 206.76 247.61 211.04"/><rect class="cls-16" x="270.69" y="195.69" width="1.94" height="13.1" transform="translate(20.38 429.3) rotate(-78.77)"/><rect class="cls-16" x="269.96" y="199.19" width="1.94" height="13.1" transform="translate(16.34 431.39) rotate(-78.76)"/><rect class="cls-16" x="269.29" y="202.65" width="1.94" height="13.1" transform="translate(12.41 433.52) rotate(-78.76)"/><polygon class="cls-13" points="313.11 281.9 320 278.07 321.37 294.45 306.38 295.67 301.48 280.06 313.11 281.9"/><polygon class="cls-5" points="320 278.07 314.18 285.42 301.48 280.06 320 278.07"/><path class="cls-29" d="M272,144.17a2.82,2.82,0,1,0,3.25,2.31A2.82,2.82,0,0,0,272,144.17Z"/></g><polygon class="cls-15" points="97.48 92.59 129.31 91.36 139.72 123.35 125.18 160.54 75.6 151.05 97.48 92.59"/><polygon class="cls-2" points="83.86 110.19 106.67 110.65 110.64 118.15 96.56 121.51 82.64 117.23 83.86 110.19"/><polygon class="cls-14" points="85.09 125.49 82.64 117.23 110.64 118.15 106.97 125.8 85.09 125.49"/><polygon class="cls-15" points="78.97 101.92 88.15 117.38 81.42 120.14 74.53 118.91 67.18 103 78.97 101.92"/><polygon class="cls-10" points="70.4 133.45 69.94 122.74 77.13 116.92 88.15 117.38 82.33 133.14 70.4 133.45"/><polygon class="cls-10" points="61.06 118.45 67.18 103 77.13 116.92 70.4 133.45 61.06 118.45"/><polygon class="cls-15" points="199.86 102.38 208.43 116.77 202.16 119.37 195.73 118.15 188.84 103.3 199.86 102.38"/><polygon class="cls-14" points="191.75 131.92 191.45 121.82 198.03 116.46 208.43 116.77 202.93 131.61 191.75 131.92"/><polygon class="cls-10" points="183.03 117.84 188.84 103.3 198.03 116.46 191.75 131.92 183.03 117.84"/><polygon class="cls-15" points="181.5 111.41 187.47 111.41 191.75 118.15 185.94 120.29 179.97 117.69 181.5 111.41"/><polygon class="cls-14" points="179.97 117.69 191.75 118.15 188.54 125.19 179.97 117.69"/><polygon class="cls-2" points="129.31 91.36 125.18 160.54 203.54 155.03 172.16 92.89 129.31 91.36"/><polygon class="cls-10" points="119.37 276.39 79.58 278.23 80.5 304.85 117.07 312.35 121.97 294.45 119.37 276.39"/><polygon class="cls-14" points="212.87 271.34 209.2 297.51 117.07 312.35 115.69 281.44 158.7 273.18 212.87 271.34"/><polygon class="cls-15" points="204.15 263.23 212.87 271.34 115.69 281.44 79.58 278.23 82.33 268.12 115.23 271.95 204.15 263.23"/><polygon class="cls-7" points="756.3 331.94 818.59 320.77 760.13 307.61 709.01 318.48 756.3 331.94"/><g id="_452899200" data-name=" 452899200"><polygon class="cls-15" points="669.68 22.8 808.94 0 822.1 31.37 830.52 244.71 821.03 292 658.97 256.8 669.68 22.8"/><polygon class="cls-32" points="888.67 31.37 808.94 0 821.03 292 870.46 280.52 888.67 31.37"/><polygon class="cls-14" points="682.23 37.8 720.95 38.56 761.5 45.76 768.85 241.04 711.15 250.06 677.79 248.69 682.23 37.8"/><polygon class="cls-33" points="765.94 39.18 753.85 46.83 759.82 240.12 781.09 249.3 803.43 244.71 795.17 41.32 765.94 39.18"/><polygon class="cls-10" points="753.85 46.83 682.23 37.8 794.4 21.43 795.17 41.32 753.85 46.83"/><polygon class="cls-2" points="677.79 248.69 759.82 240.12 803.43 244.71 804.51 272.72 677.79 248.69"/></g><g id="_452900472" data-name=" 452900472"><polygon class="cls-15" points="595.46 178.44 593.01 187.63 585.05 192.52 591.94 210.28 608.16 206.3 615.81 197.27 613.37 183.65 605.25 183.8 595.46 178.44"/><polygon class="cls-14" points="591.94 210.28 600.66 205.84 608.16 206.3 591.94 210.28"/><polygon class="cls-4" points="587.96 199.87 596.07 196.66 595.77 190.23 606.17 186.4 609.39 191.76 614.59 189.92 615.2 193.59 610.61 195.43 611.22 202.62 600.66 205.84 597.3 200.33 589.34 203.69 587.96 199.87"/><polygon class="cls-5" points="599.59 192.37 599.59 197.73 602.96 202.62 608.62 200.48 607.4 194.21 604.79 190.38 599.59 192.37"/><polygon class="cls-14" points="585.05 192.52 595.77 190.23 595.46 178.44 592.25 182.88 585.05 192.52"/><polygon class="cls-2" points="595.46 178.44 606.17 186.4 613.37 183.65 595.46 178.44"/></g><g id="_452902056" data-name=" 452902056"><polygon class="cls-7" points="633.41 307.15 681.31 322.3 721.71 311.13 689.12 299.34 633.41 307.15"/><polygon class="cls-15" points="644.43 217.16 653.15 193.13 662.64 215.94 655.3 233.84 645.5 226.8 644.43 217.16"/><polygon class="cls-14" points="634.64 236.14 629.89 230.94 630.66 225.27 644.43 217.16 655.3 233.84 634.64 236.14"/><polygon class="cls-5" points="656.22 251.29 659.43 277.61 669.68 283.73 679.48 277.92 682.84 263.07 677.79 251.29 663.56 248.54 656.22 251.29"/><polygon class="cls-13" points="656.22 251.29 677.18 248.69 711.31 253.59 697.38 262.46 682.84 263.07 656.22 251.29"/><polygon class="cls-5" points="711.31 253.59 710.24 278.53 700.9 282.97 688.05 278.23 682.84 263.07 711.31 253.59"/><polygon class="cls-2" points="674.12 185.64 670.45 190.53 670.6 201.25 673.51 207.37 677.03 207.67 685.44 190.69 677.64 184.26 674.12 185.64"/><polygon class="cls-10" points="675.19 191.91 673.05 187.17 677.64 184.26 682.23 188.09 678.25 192.22 680.85 200.02 676.26 206.91 673.51 206.3 671.82 199.1 675.19 191.91"/><polygon class="cls-15" points="666.62 183.19 669.84 185.79 671.52 190.69 675.8 206.6 669.07 203.85 658.66 192.37 666.62 183.19"/><polygon class="cls-33" points="656.22 251.29 676.88 252.36 681.92 232.47 675.8 206.6 660.65 192.22 666.62 183.19 653.15 193.13 656.22 251.29"/><polygon class="cls-15" points="712.68 219.92 711.31 253.59 676.88 252.36 676.57 245.63 675.8 206.6 689.73 193.75 696.77 183.8 714.06 190.07 704.88 208.75 712.68 219.92"/><polygon class="cls-33" points="702.74 225.43 712.68 219.92 714.06 190.07 685.14 214.56 690.03 222.82 702.74 225.43"/><polygon class="cls-14" points="668.61 215.48 684.99 235.07 702.74 225.43 675.8 206.6 671.37 208.29 668.61 215.48"/><polygon class="cls-1" points="664.02 210.58 668.61 215.48 675.8 206.6 671.98 202.78 668.15 204.31 664.02 210.58"/><polygon class="cls-34" points="660.65 192.22 662.03 198.95 671.98 202.78 666.93 191.45 660.65 192.22"/><polygon class="cls-35" points="660.65 192.22 671.98 202.78 664.02 210.58 656.83 208.59 653.31 198.34 644.43 198.65 643.97 194.21 660.65 192.22"/><polygon class="cls-33" points="696.77 183.8 693.25 196.66 675.8 206.6 683.15 192.22 688.66 186.56 696.77 183.8"/><polygon class="cls-1" points="677.79 184.41 683.15 192.22 696.77 183.8 693.86 180.28 684.99 180.43 677.79 184.41"/><polygon class="cls-1" points="671.52 190.69 677.79 184.41 672.28 179.97 668.76 180.28 666.62 183.19 670.29 189 671.52 190.69"/><polygon class="cls-17" points="673.81 242.72 676.57 239.51 679.78 242.57 676.57 245.63 673.81 242.72"/><polygon class="cls-17" points="673.66 230.63 676.26 227.42 679.48 230.63 676.42 233.54 673.66 230.63"/><polygon class="cls-36" points="666.01 169.57 668.76 180.28 677.79 184.41 687.59 181.81 691.11 179.52 687.28 172.47 666.01 169.57"/><polygon class="cls-34" points="684.53 174.62 687.59 181.81 693.86 180.28 705.19 161.76 702.89 147.38 704.12 123.96 700.44 119.83 697.23 122.74 693.55 125.64 683.61 167.43 684.53 174.62"/><polygon class="cls-36" points="705.19 161.76 700.44 153.5 707.79 153.5 709.16 155.49 705.19 161.76"/><polygon class="cls-35" points="646.42 164.52 684.53 174.62 697.23 122.74 685.9 117.38 653.61 120.44 646.42 164.52"/><polygon class="cls-16" points="726.61 131 709.16 155.49 707.94 151.2 696.62 148.14 697.23 122.74 714.52 124.73 726.61 131"/><polygon class="cls-12" points="697.23 122.74 726.61 131 714.22 106.06 701.21 113.56 697.23 122.74"/><polygon class="cls-16" points="648.26 104.53 653.61 120.44 697.23 122.74 668.61 110.65 648.26 104.53"/><polygon class="cls-10" points="714.22 106.06 697.23 122.74 676.57 106.67 667.69 93.81 714.22 106.06"/><polygon class="cls-12" points="667.69 93.81 697.23 122.74 648.26 104.53 667.69 93.81"/><polygon class="cls-35" points="703.81 140.64 700.44 153.5 709.16 155.49 712.99 143.4 703.81 140.64"/><polygon class="cls-36" points="705.95 144.77 709.32 145.54 704.42 150.28 705.95 144.77"/><polygon class="cls-34" points="654.53 128.86 661.11 129.78 664.48 131.46 665.55 136.82 661.26 146.76 654.53 128.86"/><polygon class="cls-34" points="669.53 148.6 670.6 137.43 673.51 133.14 679.02 132.99 686.36 135.13 669.53 148.6"/><polygon class="cls-37" points="661.26 146.76 664.63 148.45 669.53 148.6 673.51 133.14 664.48 131.46 661.26 146.76"/><polygon class="cls-36" points="664.48 150.13 661.26 146.76 669.53 148.6 664.48 150.13"/><polygon class="cls-28" points="654.53 128.86 660.81 127.94 664.48 131.46 654.53 128.86"/><polygon class="cls-28" points="673.51 133.14 679.32 131.31 686.36 135.13 673.51 133.14"/><polygon class="cls-36" points="658.2 153.5 660.65 162.22 669.68 164.67 677.64 156.71 658.2 153.5"/><polygon class="cls-3" points="660.5 155.34 673.66 157.63 671.52 160.08 661.57 158.09 660.5 155.34"/><polygon class="cls-16" points="710.08 308.83 709.32 300.57 702.13 296.13 695.54 299.96 690.65 308.83 700.44 309.75 710.08 308.83"/><polygon class="cls-16" points="675.5 305.31 675.35 297.05 668 293.68 661.88 296.59 650.55 305.31 663.1 306.69 675.5 305.31"/><polygon class="cls-28" points="675.5 305.31 650.55 305.31 650.55 308.07 675.5 308.07 675.5 305.31"/><polygon class="cls-28" points="710.08 308.83 690.8 308.83 690.8 312.05 710.08 312.05 710.08 308.83"/><polygon class="cls-9" points="709.32 300.57 695.54 299.96 688.05 278.23 710.24 278.53 709.32 300.57"/><polygon class="cls-9" points="675.35 297.05 661.88 296.59 659.43 277.61 679.48 277.92 675.35 297.05"/><path class="cls-29" d="M656.83,137.12a2.33,2.33,0,0,1,2.29,2.15,2.22,2.22,0,0,1-2.14,2.29,2.36,2.36,0,0,1-2.3-2.29A2.19,2.19,0,0,1,656.83,137.12Z"/><path class="cls-29" d="M675.65,141.41a2.09,2.09,0,0,1,2.14,2.14,2.13,2.13,0,0,1-2.14,2.3,2.23,2.23,0,0,1-2.14-2.3A2.09,2.09,0,0,1,675.65,141.41Z"/></g><g id="_372695720" data-name=" 372695720"><polygon class="cls-4" points="764.87 65.19 747.27 68.87 734.72 153.65 754.31 153.5 764.87 65.19"/><polygon class="cls-6" points="777.73 68.72 764.87 65.19 775.12 153.96 799.61 151.97 777.73 68.72"/><polygon class="cls-11" points="757.68 168.19 752.47 153.5 764.87 65.19 778.8 153.65 775.28 167.43 757.68 168.19"/><polygon class="cls-11" points="756.3 229.87 734.72 153.65 754.31 153.5 765.48 232.62 756.3 229.87"/><polygon class="cls-22" points="799.61 151.97 775.43 229.56 765.48 232.62 775.12 153.96 799.61 151.97"/><polygon class="cls-6" points="752.47 153.5 765.48 232.62 778.8 153.65 752.47 153.5"/><polygon class="cls-1" points="765.02 139.57 752.47 153.5 765.18 167.88 778.8 153.65 765.02 139.57"/><polygon class="cls-15" points="726.15 243.64 726 249.76 768.24 256.34 769.46 253.59 767.32 249.3 749.57 244.1 726.15 243.64"/><polygon class="cls-14" points="793.79 243.64 775.58 243.64 767.32 249.3 768.24 256.34 795.63 250.98 793.79 243.64"/><polygon class="cls-2" points="759.82 237.98 726.15 243.64 767.32 249.3 793.79 243.64 759.82 237.98"/><polygon class="cls-6" points="758.9 242.57 765.48 232.62 768.85 239.51 765.63 243.64 758.9 242.57"/><polygon class="cls-22" points="772.98 242.57 765.63 243.64 765.48 232.62 772.98 242.57"/><polygon class="cls-11" points="751.1 81.88 733.5 73.15 737.17 82.49 751.1 81.88"/><polygon class="cls-6" points="751.1 81.88 738.55 80.35 733.65 81.72 733.65 87.69 751.1 81.88"/><polygon class="cls-4" points="733.5 73.15 728.29 80.96 733.65 87.69 738.55 80.35 733.5 73.15"/><polygon class="cls-4" points="773.75 80.19 791.35 71.16 787.83 80.5 773.75 80.19"/><polygon class="cls-11" points="773.75 80.19 786.29 78.36 791.35 79.73 791.5 85.55 773.75 80.19"/><polygon class="cls-6" points="791.35 71.16 796.7 78.36 791.5 85.55 786.29 78.36 791.35 71.16"/></g><g id="_370615848" data-name=" 370615848"><polygon class="cls-38" points="736.25 221.91 750.18 213.95 744.06 250.22 736.25 221.91"/><polygon class="cls-8" points="778.18 318.63 777.88 314.19 789.36 312.2 799.76 314.34 800.07 318.93 778.18 318.63"/><polygon class="cls-5" points="788.74 301.64 784.61 303.63 777.88 314.19 799.76 314.34 794.86 303.94 788.74 301.64"/><polygon class="cls-12" points="778.49 283.43 771.76 290.31 783.08 306.08 794.86 303.94 791.19 285.57 778.49 283.43"/><polygon class="cls-16" points="750.18 302.25 759.97 288.63 751.71 283.12 740.54 284.81 738.55 300.11 743.14 304.39 750.18 302.25"/><polygon class="cls-12" points="744.06 250.22 756.45 260.47 769.92 277.77 759.97 288.63 740.54 284.81 744.06 250.22"/><polygon class="cls-5" points="725.23 311.89 738.55 300.11 750.18 302.25 749.72 312.35 740.23 314.8 725.23 311.89"/><polygon class="cls-8" points="725.23 316.94 725.23 311.89 749.72 312.35 749.57 317.56 725.23 316.94"/><polygon class="cls-10" points="757.83 271.64 771.76 290.31 791.19 285.57 787.52 263.69 784.3 252.51 777.88 246.09 765.48 256.95 757.83 271.64"/><polygon class="cls-16" points="750.79 244.25 744.06 250.22 757.83 271.64 777.42 246.7 763.8 243.18 750.79 244.25"/><polygon class="cls-1" points="747.27 201.25 752.93 226.65 736.25 221.91 747.27 201.25"/><polygon class="cls-14" points="747.27 201.25 744.06 250.22 777.42 246.7 784.61 245.47 789.81 225.12 787.83 189.62 774.36 186.4 754.31 189.31 747.27 201.25"/><polygon class="cls-7" points="781.86 243.33 787.98 226.8 772.98 211.65 781.86 243.33"/><polygon class="cls-1" points="754.31 189.31 766.09 184.11 774.36 186.4 759.05 200.79 754.31 189.31"/><polygon class="cls-1" points="787.67 227.88 772.98 211.65 787.83 189.62 802.67 225.58 787.67 227.88"/><polygon class="cls-38" points="790.73 249.91 802.67 225.58 786.45 226.5 781.86 243.33 786.14 249.91 790.73 249.91"/><polygon class="cls-39" points="787.52 263.69 790.89 249.61 782.01 243.64 777.42 246.7 787.52 263.69"/><polygon class="cls-40" points="751.56 176.45 767.16 172.47 754.31 189.31 751.56 176.45"/><polygon class="cls-38" points="756.61 114.32 748.8 145.85 751.56 176.45 761.96 175.38 754.31 189.31 774.66 186.4 797.62 145.39 793.03 123.5 766.4 112.02 756.61 114.32"/><polygon class="cls-39" points="728.45 157.48 733.65 138.81 735.49 150.44 734.26 159.62 728.45 157.48"/><polygon class="cls-39" points="733.35 124.73 745.13 112.33 759.05 113.71 751.56 176.45 734.72 177.98 733.35 124.73"/><polygon class="cls-16" points="724.32 113.86 733.35 124.73 757.06 130.69 767.16 150.28 772.52 142.02 779.71 117.69 772.83 96.26 743.9 113.56 724.32 113.86"/><polygon class="cls-12" points="772.83 96.26 772.52 142.02 789.66 137.89 799.61 124.11 804.2 116.61 772.83 96.26"/><polygon class="cls-16" points="799.61 151.97 784.15 169.57 776.96 155.03 772.52 142.02 804.2 116.61 799.61 151.97"/><polygon class="cls-12" points="724.32 113.86 757.06 130.69 772.83 96.26 724.32 113.86"/><polygon class="cls-40" points="743.44 163.44 734.42 165.74 734.42 168.04 743.9 165.13 743.44 163.44"/><polygon class="cls-38" points="738.85 136.82 744.21 137.89 737.48 145.23 734.26 159.62 733.65 138.81 738.85 136.82"/><polygon class="cls-16" points="733.65 136.05 743.9 134.98 744.21 137.89 733.65 138.81 733.65 136.05"/><path class="cls-29" d="M737.63,143.86a2.3,2.3,0,1,1-2.3,2.29A2.28,2.28,0,0,1,737.63,143.86Z"/><polygon class="cls-40" points="772.06 161.46 767.47 156.25 772.67 152.73 776.96 155.03 772.06 161.46"/><polygon class="cls-39" points="766.71 141.87 767.47 156.25 776.96 155.03 778.64 142.17 766.71 141.87"/><polygon class="cls-40" points="770.68 145.39 775.12 145.23 770.68 150.74 770.68 145.39"/></g><polygon class="cls-34" points="612.91 236.14 618.57 232.62 627.29 232.62 629.59 236.6 622.09 245.47 612.75 242.11 612.91 236.14"/><polygon class="cls-35" points="614.44 226.5 625 228.49 627.29 232.62 623.31 235.07 613.21 229.71 614.44 226.5"/><polygon class="cls-1" points="630.66 225.27 634.64 236.14 629.59 236.6 625 228.49 630.66 225.27"/><polygon class="cls-35" points="602.96 238.13 612.91 236.14 622.09 245.47 609.08 245.63 602.96 238.13"/><path class="cls-10" d="M132.07,249.61l63.36-6.13-1.23,4.9-61.37,5.82Zm1.38,9.33L193,253.28,191.75,258l-57.54,5.51Z"/></g></g></svg>